<?xml version="1.0" standalone="no"?>
<!DOCTYPE svg PUBLIC "-//W3C//DTD SVG 20010904//EN" "http://www.w3.org/TR/2001/REC-SVG-20010904/DTD/svg10.dtd">
<!-- Created using Krita: https://krita.org -->
<svg xmlns="http://www.w3.org/2000/svg" 
    xmlns:xlink="http://www.w3.org/1999/xlink"
    xmlns:krita="http://krita.org/namespaces/svg/krita"
    xmlns:sodipodi="http://sodipodi.sourceforge.net/DTD/sodipodi-0.dtd"
    width="1603pt"
    height="1236pt"
    viewBox="0 0 1603 1236">
<defs/>
<path id="shape0" transform="translate(229.649904367693, 259.02269007899)" fill="#fefefe" fill-rule="evenodd" stroke-opacity="0" stroke="#000000" stroke-width="0" stroke-linecap="square" stroke-linejoin="bevel" d="M419.055 0C130.476 8.63373 9.40833 230.531 0.646882 450.822C-11.2597 638.326 143.718 799.669 257.753 819.299C406.078 872.949 1053.59 877.743 1122.6 756.629C1157.62 731.026 1212.71 404.409 1115.74 296.076C1083.94 225.7 942.143 216.644 924.051 207.429C800.99 87.4526 690.666 7.3466 419.055 0Z" sodipodi:nodetypes="ccccccc"/><path id="shape1" transform="translate(338.869652167557, 358.428526992786)" fill="#f2e7c4" fill-rule="evenodd" stroke-opacity="0" stroke="#000000" stroke-width="0" stroke-linecap="square" stroke-linejoin="bevel" d="M250.124 0.000543949C-52.9125 12.1448 -117.068 471.86 262.726 460.462C650.579 447.606 577.336 -0.569828 250.124 0.000543949Z" sodipodi:nodetypes="ccc"/><path id="shape2" transform="translate(231.958228492493, 259.344459962495)" fill="none" stroke="#876344" stroke-width="39.9999999999968" stroke-linecap="square" stroke-linejoin="bevel" d="M407.47 844.912C578.138 853.278 1020.75 874.968 1114.81 763.251C1172.02 688.628 1238.38 281.043 1009.96 230.057C807.888 200.735 846.08 10.9125 417.486 0C151.976 3.10339 -17.0868 237.036 1.37411 462.557C11.6498 650.751 115.235 830.635 407.47 844.912Z" sodipodi:nodetypes="cccccc"/><path id="shape011" transform="translate(693.841839416381, 544.382017676225)" fill="#f0a6a6" fill-rule="evenodd" stroke="#f0a6a6" stroke-width="39.9999999999968" stroke-linecap="square" stroke-linejoin="bevel" d="M0 10.4061C1.68046 -1.89714 68.9265 -4.46034 73.1988 9.09827C69.3941 17.7191 6.82985 21.5795 0 10.4061Z" sodipodi:nodetypes="ccc"/><path id="shape02" transform="translate(408.443168029935, 546.665212677157)" fill="#f0a6a6" fill-rule="evenodd" stroke="#f0a6a6" stroke-width="39.9999999999968" stroke-linecap="square" stroke-linejoin="bevel" d="M0 13.4744C1.82613 -2.45653 74.9017 -5.77552 79.5443 11.781C75.4098 22.9437 7.42192 27.9424 0 13.4744Z" sodipodi:nodetypes="ccc"/><ellipse id="shape21" transform="translate(462.185198737051, 427.923140261049)" rx="29.2796168125068" ry="64.7710157999099" cx="29.2796168125068" cy="64.7710157999099" fill="#876344" fill-rule="evenodd" stroke-opacity="0" stroke="#000000" stroke-width="0" stroke-linecap="round" stroke-linejoin="miter" stroke-miterlimit="0"/><ellipse id="shape0111" transform="translate(650.514856828062, 424.289351575966)" rx="29.3406509630953" ry="64.7710157999099" cx="29.3406509630953" cy="64.7710157999099" fill="#876344" fill-rule="evenodd" stroke-opacity="0" stroke="#000000" stroke-width="0" stroke-linecap="round" stroke-linejoin="miter" stroke-miterlimit="0"/><path id="shape01" transform="translate(570.218394493941, 572.673612362349)" fill="none" stroke="#876344" stroke-width="19.9999999999984" stroke-linecap="round" stroke-linejoin="bevel" d="M0 2.27374e-13C4.50506 16.7178 38.6645 18.1111 44.8371 0.600125" sodipodi:nodetypes="cc"/><path id="shape11" transform="translate(475.143220833062, 632.262000007774)" fill="none" stroke="#876344" stroke-width="19.9999999999984" stroke-linecap="round" stroke-linejoin="bevel" d="M0 5.56802C23.1583 45.5137 87.5083 2.94976 115.222 0.0811606C145.056 -2.15973 216.558 43.0859 236.445 2.13873" sodipodi:nodetypes="ccc"/><path id="shape3" transform="translate(89.0499910882275, 363.006897441307)" fill="#f2e7c4" fill-rule="evenodd" stroke="#876344" stroke-width="39.9999999999968" stroke-linecap="square" stroke-linejoin="bevel" d="M280.044 6.22443C182.443 -40.9704 -0.591446 195.306 0.00143683 207.61C1.64821 215.317 115.826 204.498 162.165 190.377C171.554 148.564 226.589 54.8765 280.044 6.22443Z" sodipodi:nodetypes="cccc"/><path id="shape4" transform="translate(821.262104218709, 373.314390257086)" fill="#f2e7c4" fill-rule="evenodd" stroke="#876344" stroke-width="39.9999999999968" stroke-linecap="square" stroke-linejoin="bevel" d="M0.0610546 5.09026C69.2928 -34.2137 305.094 166.614 306.634 178.698C304.333 189.143 194.305 243.029 137.488 208.618C135.623 205.414 -3.32958 9.0726 0.0610546 5.09026Z" sodipodi:nodetypes="cccc"/><path id="shape5" transform="translate(560.83356088621, 1033.91236099837)" fill="#fefefe" fill-rule="evenodd" stroke="#876344" stroke-width="39.9999999999968" stroke-linecap="round" stroke-linejoin="bevel" d="M0.554588 0C-1.10794 21.776 1.58024 141.013 0.726049 154.746C0.210411 168.361 100.654 169.655 100.688 161.519C99.84 149.381 101.276 23.4781 101.802 3.85794" sodipodi:nodetypes="cccc"/><path id="shape6" transform="translate(470.170849262028, 1073.69205976548)" fill="#fefefe" fill-rule="evenodd" stroke="#876344" stroke-width="39.9999999999968" stroke-linecap="round" stroke-linejoin="bevel" d="M8.65878 0C6.31613 8.40175 1.78534 79.3555 0 91.3904C0.898898 101.321 89.4646 106.892 90.3575 98.6754C91.5932 85.4004 91.7439 35.8758 90.8744 23.2334C61.7138 15.5634 23.9468 7.80162 8.65878 0Z" sodipodi:nodetypes="ccccc"/><path id="shape7" transform="translate(1133.03941801403, 1018.82350974188)" fill="#fefefe" fill-rule="evenodd" stroke="#876344" stroke-width="39.9999999999968" stroke-linecap="round" stroke-linejoin="bevel" d="M0 14.3173C2.24665 36.9682 30.9346 159.533 30.863 170.35C31.8257 177.828 123.7 160.4 124.566 154.318C123.421 147.658 115.908 24.2731 108.706 0" sodipodi:nodetypes="cccc"/><path id="shape8" transform="translate(1065.82667126007, 1097.09692563493)" fill="#fefefe" fill-rule="evenodd" stroke="#876344" stroke-width="39.9999999999968" stroke-linecap="round" stroke-linejoin="bevel" d="M0 7.97309C1.54315 16.713 10.4227 61.3749 9.60182 73.6439C9.62873 83.4936 87.5091 76.3614 87.8423 65.2104C87.4897 53.6307 79.1176 11.6267 79.215 0C63.2809 1.49029 16.2888 7.2063 0 7.97309Z" sodipodi:nodetypes="ccccc"/><path id="shape9" transform="translate(1387.5734041269, 644.345655830736)" fill="#f2e7c4" fill-rule="evenodd" stroke="#876344" stroke-width="39.9999999999968" stroke-linecap="square" stroke-linejoin="bevel" d="M0 0C10.9356 0.514393 97.2546 131.477 126.195 152.174C131.264 157.823 28.4625 141.443 15.603 131.427C17.0604 99.2067 8.61092 41.2371 0 0Z" sodipodi:nodetypes="cccc"/>
</svg>
