<?xml version="1.0" standalone="no"?>
<!DOCTYPE svg PUBLIC "-//W3C//DTD SVG 20010904//EN" "http://www.w3.org/TR/2001/REC-SVG-20010904/DTD/svg10.dtd">
<!-- Created using Krita: https://krita.org -->
<svg xmlns="http://www.w3.org/2000/svg" 
    xmlns:xlink="http://www.w3.org/1999/xlink"
    xmlns:krita="http://krita.org/namespaces/svg/krita"
    xmlns:sodipodi="http://sodipodi.sourceforge.net/DTD/sodipodi-0.dtd"
    width="1603pt"
    height="1236pt"
    viewBox="0 0 1603 1236">
<defs/>
<path id="shape0" transform="translate(112.812153666641, 154.558114760588)" fill="#fefefe" fill-rule="evenodd" stroke="#876344" stroke-width="39.9999999999968" stroke-linecap="square" stroke-linejoin="bevel" d="M185.063 201.128C191.635 193.164 175.037 132.508 220.641 98.3347C266.781 59.8977 312.287 104.25 321.717 98.1633C328.319 90.7903 323.861 39.5682 375.813 24.1765C429.29 9.11308 448.596 61.5767 458.801 62.4987C470.36 62.0087 475.131 0.931689 544.531 0C611.436 0.571362 609.086 71.518 616.459 71.2434C627.261 70.0812 649.056 12.0497 723.237 27.1771C784.507 39.3326 761.012 97.9655 773.003 99.2778C785.385 98.5607 819.215 57.1463 866.364 81.1883C916.504 104.45 895.082 150.772 899.541 157.49C907.517 163.534 951.077 108.691 1000.19 145.573C1043.94 178.342 1015.29 230.3 1021.62 237.478C1027.98 243.765 1068.19 197.864 1114.64 224.961C1158.68 249.837 1142.39 295.255 1141.3 306.578C1141.15 319.048 1207.95 285.909 1243.24 319.009C1279.77 348.815 1265.86 398.639 1265.7 409.714C1266.22 420.325 1332.3 437.447 1340.54 494.846C1349.29 543.398 1310.26 580.294 1309.08 592.066C1308.58 604.711 1363.77 611.314 1359.4 683.885C1356.24 747.657 1296.43 747.927 1295.87 766.702C1295.9 777.162 1339.08 813.451 1311.39 859.722C1282.76 903.664 1231.91 890.849 1225.23 898.301C1219.78 904.595 1214.07 943.605 1169.08 961.829C1130.4 977.009 1090.6 946.029 1077.6 946.14C1065.71 948.269 1048.65 986.483 1010.91 988.834C978.451 995.11 940.991 954.216 927.318 954.713C915.055 954.695 887.944 1000.87 838.158 1003.92C790.91 1008.07 769.897 967.207 753.199 965.772C731.03 963.637 720.739 1008.45 680.585 1008.55C640.073 1012.97 619.664 971.451 607.372 970.745C596.079 970.995 572.846 1007.47 521.812 1004.87C479.528 1001.06 463.055 955.503 450.142 954.541C436.4 954.116 410.231 989.374 378.814 983.519C328.077 975.131 317.782 934.739 310.144 926.936C304.729 922.032 252.775 954.657 212.754 929.079C170.716 906.276 168.26 856.94 162.173 850.12C156.429 843.74 106.625 860.425 71.8129 808.454C41.9411 757.05 90.5201 705.041 85.0154 697.345C79.996 693.239 11.8794 694.88 0.74224 627.13C-7.85836 565.669 61.1289 541.076 60.8394 530.939C60.6103 520.012 13.8135 504.484 12.8302 446.981C14.241 393.556 75.6199 378.655 74.8134 369.248C73.1581 357.472 44.7622 291.017 77.0014 247.47C114.342 204.628 177.781 207.754 185.063 201.128Z" sodipodi:nodetypes="ccccccccccccccccccccccccccccccccccccccccccccc"/><path id="shape1" transform="translate(316.6881072113, 362.800864572775)" fill="#f2e7c4" fill-rule="evenodd" stroke-opacity="0" stroke="#000000" stroke-width="0" stroke-linecap="square" stroke-linejoin="bevel" d="M250.124 0.000543949C-52.9125 12.1448 -117.068 471.86 262.726 460.462C650.579 447.606 577.336 -0.569828 250.124 0.000543949Z" sodipodi:nodetypes="ccc"/><path id="shape011" transform="translate(671.660236072824, 548.754356202719)" fill="#f0a6a6" fill-rule="evenodd" stroke="#f0a6a6" stroke-width="39.9999999999968" stroke-linecap="square" stroke-linejoin="bevel" d="M0 10.4061C1.68046 -1.89714 68.9265 -4.46034 73.1988 9.09827C69.3941 17.7191 6.82985 21.5795 0 10.4061Z" sodipodi:nodetypes="ccc"/><path id="shape02" transform="translate(386.261564686401, 551.03754455363)" fill="#f0a6a6" fill-rule="evenodd" stroke="#f0a6a6" stroke-width="39.9999999999968" stroke-linecap="square" stroke-linejoin="bevel" d="M0 13.4744C1.82613 -2.45653 74.9017 -5.77552 79.5443 11.781C75.4098 22.9437 7.42192 27.9424 0 13.4744Z" sodipodi:nodetypes="ccc"/><ellipse id="shape21" transform="translate(440.003595393513, 432.29547784102)" rx="29.2796168125068" ry="64.7710157999099" cx="29.2796168125068" cy="64.7710157999099" fill="#876344" fill-rule="evenodd" stroke-opacity="0" stroke="#000000" stroke-width="0" stroke-linecap="round" stroke-linejoin="miter" stroke-miterlimit="0"/><ellipse id="shape0111" transform="translate(628.333253484508, 428.661689155937)" rx="29.3406509630953" ry="64.7710157999099" cx="29.3406509630953" cy="64.7710157999099" fill="#876344" fill-rule="evenodd" stroke-opacity="0" stroke="#000000" stroke-width="0" stroke-linecap="round" stroke-linejoin="miter" stroke-miterlimit="0"/><path id="shape01" transform="translate(548.036791150394, 577.045949942309)" fill="none" stroke="#876344" stroke-width="19.9999999999984" stroke-linecap="round" stroke-linejoin="bevel" d="M0 2.27374e-13C4.50506 16.7178 38.6645 18.1111 44.8371 0.600125" sodipodi:nodetypes="cc"/><path id="shape3" transform="translate(82.9857280578138, 398.248742353698)" fill="#f2e7c4" fill-rule="evenodd" stroke="#876344" stroke-width="39.9999999999968" stroke-linecap="square" stroke-linejoin="bevel" d="M279.787 6.21848C182.186 -40.9763 -0.591444 195.557 0.00143884 207.861C1.64821 215.568 115.826 205.092 162.165 190.971C167.953 186.537 284.972 10.6328 279.787 6.21848Z" sodipodi:nodetypes="cccc"/><path id="shape4" transform="translate(781.334278220692, 383.002120264301)" fill="#f2e7c4" fill-rule="evenodd" stroke="#876344" stroke-width="39.9999999999968" stroke-linecap="square" stroke-linejoin="bevel" d="M0.0610546 5.09026C69.2928 -34.2137 305.094 166.614 306.634 178.698C304.333 189.143 194.305 243.029 137.488 208.618C135.623 205.414 -3.32958 9.0726 0.0610546 5.09026Z" sodipodi:nodetypes="cccc"/><path id="shape5" transform="translate(535.541257071526, 1108.71252360171)" fill="#fefefe" fill-rule="evenodd" stroke="#876344" stroke-width="39.9999999999968" stroke-linecap="round" stroke-linejoin="bevel" d="M0.153789 15.5364C-0.994357 34.2261 4.69094 70.5852 3.83675 84.3182C3.32111 97.9332 103.765 99.2272 103.799 91.0912C102.951 78.9532 95.8925 33.7479 93.8466 14.5565C93.7724 -3.77773 1.81632 -6.23956 0.153789 15.5364Z" sodipodi:nodetypes="ccccc"/><path id="shape6" transform="translate(447.746305799787, 1116.04372181487)" fill="#fefefe" fill-rule="evenodd" stroke="#876344" stroke-width="39.9999999999968" stroke-linecap="round" stroke-linejoin="bevel" d="M0.242936 0C-0.813756 12.2597 2.02828 41.3762 0.242941 53.4111C1.14184 63.3417 88.7645 70.9702 89.6574 62.7536C90.8931 49.4786 85.4713 23.1017 84.6018 10.4593C61.1852 20.8788 24.104 15.346 0.242936 0Z" sodipodi:nodetypes="ccccc"/><path id="shape7" transform="translate(1124.79853255405, 1090.0137339461)" fill="#fefefe" fill-rule="evenodd" stroke="#876344" stroke-width="39.9999999999968" stroke-linecap="round" stroke-linejoin="bevel" d="M0.0333609 25.2585C2.28001 47.9094 11.9358 95.2014 11.8642 106.018C12.8269 113.496 108.388 106.699 107.368 97.7023C105.451 86.0698 107.283 37.1004 100.081 12.8273C92.9097 -11.5081 -2.03689 2.25474 0.0333609 25.2585Z" sodipodi:nodetypes="ccccc"/><path id="shape8" transform="translate(1030.78548626713, 1108.75649633955)" fill="#fefefe" fill-rule="evenodd" stroke="#876344" stroke-width="39.9999999999968" stroke-linecap="round" stroke-linejoin="bevel" d="M0 0C1.54315 8.56845 23.0251 62.2322 24.0046 71.7578C26.4319 81.0074 101.483 76.1899 101.816 65.0389C101.464 53.4592 94.5491 19.6855 94.1321 8.8304C75.1117 27.9815 20.0609 8.06362 0 0Z" sodipodi:nodetypes="ccccc"/><path id="shape22" transform="matrix(0.975764031707406 0.218825397120829 -0.218825397120829 0.975764031707406 257.353474918953 300.20941730102)" fill="#f0a6a6" fill-rule="evenodd" stroke="#f0a6a6" stroke-width="39.9999999999968" stroke-linecap="round" stroke-linejoin="miter" stroke-miterlimit="0" d="M47.2374 23.9244C42.7673 20.557 20.664 -11.8357 7.3621 4.64863C-8.52473 17.0901 21.9428 37.1677 22.0644 43.3025C21.8372 49.5189 -8.18605 61.4734 2.17365 73.9371C19.0807 95.4566 34.5088 71.267 41.4347 70.3789C50.6868 70.4911 63.4063 97.7948 75.1241 86.6714C91.3909 76.4352 70.7066 54.5721 69.8025 48.7985C70.2919 41.4072 98.2671 24.5561 84.3109 10.312C72.7364 -6.65845 57.8998 24.369 47.2374 23.9244Z" sodipodi:nodetypes="ccccccccc"/><path id="shape022" transform="matrix(0.987562388894932 -0.157227631283479 0.157227631283479 0.987562388894932 387.099157014044 299.368865512826)" fill="#f0a6a6" fill-rule="evenodd" stroke="#f0a6a6" stroke-width="39.9999999999968" stroke-linecap="round" stroke-linejoin="miter" stroke-miterlimit="0" d="M49.9233 25.0561C45.199 21.5293 21.839 -12.3956 7.78071 4.86856C-9.00948 17.8985 23.1905 38.9257 23.3189 45.3508C23.0789 51.8612 -8.6515 64.3812 2.29724 77.4344C20.1656 99.9719 36.4709 74.6379 43.7906 73.7079C53.5688 73.8254 67.0116 102.42 79.396 90.7708C96.5875 80.0505 74.7271 57.1534 73.7716 51.1067C74.2887 43.3658 103.854 25.7177 89.105 10.7998C76.8722 -6.97336 61.192 25.5217 49.9233 25.0561Z" sodipodi:nodetypes="ccccccccc"/><path id="shape032" transform="matrix(0.994297761286448 -0.106639401253266 0.106639401253266 0.994297761286448 535.881121552811 265.915391579087)" fill="#f0a6a6" fill-rule="evenodd" stroke="#f0a6a6" stroke-width="39.9999999999968" stroke-linecap="round" stroke-linejoin="miter" stroke-miterlimit="0" d="M62.0607 31.1478C56.1878 26.7636 27.1485 -15.4092 9.67237 6.05219C-11.1999 22.25 28.8286 48.3894 28.9883 56.3765C28.6899 64.4697 -10.7549 80.0336 2.85575 96.2603C25.0683 124.277 45.3378 92.784 54.437 91.6279C66.5926 91.7739 83.3036 127.321 98.6989 112.839C120.07 99.5125 92.8948 71.0486 91.707 63.5318C92.3499 53.9089 129.104 31.9702 110.768 13.4255C95.5615 -8.66876 76.0691 31.7266 62.0607 31.1478Z" sodipodi:nodetypes="ccccccccc"/><path id="shape041" transform="matrix(0.98548673072898 0.169752477319154 -0.169752477319154 0.98548673072898 721.520448202986 249.587579702707)" fill="#f0a6a6" fill-rule="evenodd" stroke="#f0a6a6" stroke-width="39.9999999999968" stroke-linecap="round" stroke-linejoin="miter" stroke-miterlimit="0" d="M49.2199 24.7031C44.5622 21.226 21.5313 -12.2209 7.67108 4.79993C-8.88255 17.6463 22.8638 38.3773 22.9904 44.7118C22.7537 51.1305 -8.52961 63.4741 2.26487 76.3434C19.8815 98.5634 35.9571 73.5864 43.1736 72.6695C52.8141 72.7852 66.0675 100.977 78.2774 89.4919C95.2267 78.9227 73.6742 56.3481 72.7322 50.3867C73.2421 42.7548 102.391 25.3554 87.8496 10.6477C75.7891 -6.87515 60.3299 25.1621 49.2199 24.7031Z" sodipodi:nodetypes="ccccccccc"/><path id="shape051" transform="matrix(0.918429175203059 0.395585452380031 -0.395585452380031 0.918429175203059 880.804117526093 196.998764339834)" fill="#f0a6a6" fill-rule="evenodd" stroke="#f0a6a6" stroke-width="39.9999999999968" stroke-linecap="round" stroke-linejoin="miter" stroke-miterlimit="0" d="M43.2355 21.6996C39.1441 18.6452 18.9134 -10.7351 6.73839 4.21639C-7.80256 15.5008 20.0839 33.7112 20.1951 39.2755C19.9872 44.9138 -7.49253 55.7566 1.98949 67.0611C17.4642 86.5795 31.5852 64.6393 37.9243 63.8339C46.3927 63.9356 58.0346 88.6999 68.76 78.611C83.6485 69.3268 64.7165 49.497 63.889 44.2604C64.3369 37.5564 89.942 22.2725 77.1683 9.35308C66.5743 -6.03917 52.9946 22.1028 43.2355 21.6996Z" sodipodi:nodetypes="ccccccccc"/><path id="shape2" transform="matrix(0.851561288582733 0 0 0.851561288582733 610.384888889481 647.25766967236)" fill="none" stroke="#597267" stroke-width="19.9999999999984" stroke-linecap="round" stroke-linejoin="bevel" d="M0 0C9.06262 54.6002 72.4337 98.8873 80.114 96.5871" sodipodi:nodetypes="cc"/><path id="shape9" transform="matrix(0.851561288582733 0 0 0.851561288582733 670.471858680509 663.745707973117)" fill="#597267" fill-rule="evenodd" stroke="#597267" stroke-width="19.9999999999984" stroke-linecap="round" stroke-linejoin="bevel" d="M3.77214 74.9707C7.80979 74.1256 -0.432752 45.5683 33.6921 14.6153C64.4408 -12.8743 111.868 5.99877 115.565 10.5859C123.713 13.5621 94.1534 49.8361 80.1581 60.5677C68.896 74.354 18.6048 86.6444 0 81.7435" sodipodi:nodetypes="ccccc"/><path id="shape10" transform="matrix(0.851561288582733 0 0 0.851561288582733 627.141101946612 732.187264425634)" fill="#597267" fill-rule="evenodd" stroke="#597267" stroke-width="19.9999999999984" stroke-linecap="round" stroke-linejoin="bevel" d="M46.9403 1.71464C18.392 9.05547 4.91354 33.2175 3.13198 41.8373C-11.871 81.8747 31.7509 125.547 34.5094 121.482C71.5279 83.666 69.8511 50.9525 67.9443 42.9518C64.4234 28.1791 65.1447 12.2906 60.2285 0" sodipodi:nodetypes="ccccc"/><path id="shape11" transform="translate(452.961617489487, 636.634337693938)" fill="none" stroke="#876344" stroke-width="19.9999999999984" stroke-linecap="round" stroke-linejoin="bevel" d="M0 5.56802C23.1583 45.5137 87.5083 2.94976 115.222 0.0811606C145.056 -2.15973 216.558 43.0859 236.445 2.13873" sodipodi:nodetypes="ccc"/>
</svg>
