<?xml version="1.0" standalone="no"?>
<!DOCTYPE svg PUBLIC "-//W3C//DTD SVG 20010904//EN" "http://www.w3.org/TR/2001/REC-SVG-20010904/DTD/svg10.dtd">
<!-- Created using Krita: https://krita.org -->
<svg xmlns="http://www.w3.org/2000/svg" 
    xmlns:xlink="http://www.w3.org/1999/xlink"
    xmlns:krita="http://krita.org/namespaces/svg/krita"
    xmlns:sodipodi="http://sodipodi.sourceforge.net/DTD/sodipodi-0.dtd"
    width="1603pt"
    height="1236pt"
    viewBox="0 0 1603 1236">
<defs/>
<path id="shape03" transform="translate(156.717234060043, 230.254090762698)" fill="#fdfaf0" stroke-opacity="0" stroke="#000000" stroke-width="0" stroke-linecap="square" stroke-linejoin="bevel" d="M1188.29 639.324C1041.87 963.648 873.384 942.215 643.331 943.659C373.999 955.146 302.969 896.145 224.346 757.307C164.838 759.841 41.569 722.951 0 529.969C4.45996 428.28 20.0828 366.598 125.453 300.678C176.188 35.5733 512.559 -52.9291 705.453 30.0334C945.386 82.0787 955.601 175.527 1052.63 246.414C1139.37 312.501 1266.63 391.005 1188.29 639.324Z" sodipodi:nodetypes="cccccccc"/><path id="shape0" transform="translate(192.742599831168, 232.199174892138)" fill="#e5ab78" fill-rule="evenodd" stroke-opacity="0" stroke="#000000" stroke-width="0" stroke-linecap="square" stroke-linejoin="bevel" d="M0 387.344C117.631 472.969 264.261 363.933 323.611 345.25C379.36 327.252 387.521 263.232 426.252 261.944C466.192 259.921 469.534 323.153 532.805 345.25C568.882 355.602 679.702 537.361 1182.22 534.658C1168.44 418.025 1157.61 294.083 991.683 236.634C894.43 77.42 692.931 10.1605 558.106 2.51847C413.281 -13.4439 169.711 41.894 87.2907 301.028C80.8758 317.307 42.818 312.862 0 387.344Z" sodipodi:nodetypes="ccccccccc"/><path id="shape01" transform="translate(164.968319644031, 235.247493194892)" fill="none" stroke="#876344" stroke-width="39.9999999999968" stroke-linecap="square" stroke-linejoin="bevel" d="M383.982 920.693C430.504 941.496 760.979 947.698 872.952 932.695C1040.97 893.843 1198.09 709.531 1206.32 521.249C1202.63 337.329 1097.37 266.397 1041.88 244.926C948.644 170.731 902.337 13.3501 511.465 0.380037C337.903 -8.35613 151.131 134.762 114.77 302.108C22.6689 346.1 -18.2558 462.492 7.64907 565.85C31.925 657.707 126.954 763.798 214.519 745.596C219.495 747.847 281.691 891.818 383.982 920.693Z" sodipodi:nodetypes="ccccccccc"/><path id="shape011" transform="translate(719.93192539938, 513.518459234346)" fill="#f0a6a6" fill-rule="evenodd" stroke="#f0a6a6" stroke-width="39.9999999999968" stroke-linecap="square" stroke-linejoin="bevel" d="M0 10.4061C1.68046 -1.89714 68.9265 -4.46034 73.1988 9.09827C69.3941 17.7191 6.82985 21.5795 0 10.4061Z" sodipodi:nodetypes="ccc"/><path id="shape02" transform="translate(434.533254013003, 515.801647585256)" fill="#f0a6a6" fill-rule="evenodd" stroke="#f0a6a6" stroke-width="39.9999999999968" stroke-linecap="square" stroke-linejoin="bevel" d="M0 13.4744C1.82613 -2.45653 74.9017 -5.77552 79.5443 11.781C75.4098 22.9437 7.42192 27.9424 0 13.4744Z" sodipodi:nodetypes="ccc"/><ellipse id="shape2" transform="translate(488.275284720108, 397.059580872665)" rx="29.2796168125068" ry="64.7710157999099" cx="29.2796168125068" cy="64.7710157999099" fill="#876344" fill-rule="evenodd" stroke-opacity="0" stroke="#000000" stroke-width="0" stroke-linecap="round" stroke-linejoin="miter" stroke-miterlimit="0"/><ellipse id="shape0111" transform="translate(676.604942811072, 393.425792187582)" rx="29.3406509630953" ry="64.7710157999099" cx="29.3406509630953" cy="64.7710157999099" fill="#876344" fill-rule="evenodd" stroke-opacity="0" stroke="#000000" stroke-width="0" stroke-linecap="round" stroke-linejoin="miter" stroke-miterlimit="0"/><path id="shape012" transform="translate(596.30848047697, 541.810052973929)" fill="none" stroke="#876344" stroke-width="19.9999999999984" stroke-linecap="round" stroke-linejoin="miter" stroke-miterlimit="0" d="M0 2.27374e-13C4.50506 16.7178 38.6645 18.1111 44.8371 0.600125" sodipodi:nodetypes="cc"/><path id="shape1" transform="translate(501.233306816116, 601.398440690182)" fill="none" stroke="#876344" stroke-width="19.9999999999984" stroke-linecap="round" stroke-linejoin="miter" stroke-miterlimit="0" d="M0 5.56802C23.1583 45.5137 87.5083 2.94976 115.222 0.0811606C145.056 -2.15973 216.558 43.0859 236.445 2.13873" sodipodi:nodetypes="ccc"/><path id="shape3" transform="translate(269.978795264966, 264.368067766222)" fill="#e5ab78" fill-rule="evenodd" stroke="#876344" stroke-width="39.9999999999968" stroke-linecap="square" stroke-linejoin="bevel" d="M173.697 42.9647C65.4893 -63.5653 -67.252 43.8849 39.1001 191.881C63.8367 148.695 119.445 82.1093 173.697 42.9647Z" sodipodi:nodetypes="ccc"/><path id="shape4" transform="translate(852.2676773542, 224.731850961697)" fill="#e5ab78" fill-rule="evenodd" stroke="#876344" stroke-width="39.9999999999968" stroke-linecap="round" stroke-linejoin="bevel" d="M0 51.823C123.577 -86.8525 263.282 86.9638 158.259 175.277" sodipodi:nodetypes="cc"/><path id="shape04" transform="translate(1353.97242767694, 642.176454853957)" fill="#e5ab78" fill-rule="evenodd" stroke="#876344" stroke-width="39.9999999999968" stroke-linecap="square" stroke-linejoin="bevel" d="M0 0C111.926 10.3476 128.253 160.844 14.7457 139.769C22.3757 105.834 16.3267 36.0931 0 0Z" sodipodi:nodetypes="ccc"/><path id="shape6" transform="translate(957.801977423362, 520.97715038698)" fill="none" stroke="#876344" stroke-width="39.9999999999968" stroke-linecap="round" stroke-linejoin="bevel" d="M44.4084 0C171.246 53.1973 187.779 151.149 189.379 225.647C187.311 301.075 123.389 438.08 0 440.835" sodipodi:nodetypes="ccc"/><path id="shape05" transform="matrix(0.993603377577974 -0.112926206283049 0.112926206283049 0.993603377577974 586.580956052897 711.372753246839)" fill="#fdfaf0" fill-rule="evenodd" stroke-opacity="0" stroke="#000000" stroke-width="0" stroke-linecap="round" stroke-linejoin="miter" stroke-miterlimit="0" d="M74.2029 218.96C220.401 214.475 77.8863 13.12 53.2846 0C20.4528 24.6021 -58.2783 226.959 74.2029 218.96Z" sodipodi:nodetypes="ccc"/><path id="shape11" transform="matrix(0.993603377577974 -0.112926206283049 0.112926206283049 0.993603377577974 615.915473183279 756.961839723449)" fill="none" stroke="#8d7663" stroke-width="19.9999999999984" stroke-linecap="round" stroke-linejoin="miter" stroke-miterlimit="0" d="M0.82343 0C7.67146 27.3148 -1.20832 53.1589 1.85219 84.2747C2.85126 94.432 4.15905 118.14 3.22388 128.427C3.07421 130.073 -1.45553 159.849 0.480508 156.461" sodipodi:nodetypes="cccc"/><path id="shape21" transform="matrix(0.993603377577974 -0.112926206283049 0.112926206283049 0.993603377577974 634.752960138741 724.103782247841)" fill="none" stroke="#8d7663" stroke-width="19.9999999999984" stroke-linecap="round" stroke-linejoin="miter" stroke-miterlimit="0" d="M0 0C1.36821 0 8.23604 17.0975 7.71575 22.6333C4.08884 51.2552 7.57512 97.6119 11.3164 104.679C8.05226 120.034 12.7739 160.582 12.7739 173.779C12.7739 174.379 7.61488 198.781 9.85901 197.098" sodipodi:nodetypes="ccccc"/><path id="shape31" transform="matrix(0.993603377577974 -0.112926206283049 0.112926206283049 0.993603377577974 663.726738528488 733.063152618489)" fill="none" stroke="#8d7663" stroke-width="19.9999999999984" stroke-linecap="round" stroke-linejoin="miter" stroke-miterlimit="0" d="M0 0C0 20.5805 11.4481 53.7266 15.7744 75.3585C19.8787 95.8804 6.77271 123.407 6.77271 144.887C6.77271 160.781 15.0348 171.187 12.1737 188.353" sodipodi:nodetypes="cccc"/><path id="shape41" transform="matrix(0.993603377577974 -0.112926206283049 0.112926206283049 0.993603377577974 703.392243173726 774.717000128902)" fill="none" stroke="#8d7663" stroke-width="19.9999999999984" stroke-linecap="round" stroke-linejoin="miter" stroke-miterlimit="0" d="M0.270094 0C0.270094 25.9063 10.3006 49.3832 10.3006 75.7015C10.3006 90.0217 -6.00414 116.229 2.41337 128.855" sodipodi:nodetypes="ccc"/><path id="shape5" transform="matrix(0.993603377577974 -0.112926206283049 0.112926206283049 0.993603377577974 588.736566099982 711.25718731448)" fill="none" stroke="#876344" stroke-width="19.9999999999984" stroke-linecap="round" stroke-linejoin="miter" stroke-miterlimit="0" d="M48.9008 0C20.8201 18.565 -59.3181 238.797 77.7063 221.746C212.118 206.879 76.2016 14.8782 48.9008 0Z" sodipodi:nodetypes="ccc"/><path id="shape7" transform="translate(518.775859914514, 848.048055042298)" fill="#fdfaf0" fill-rule="evenodd" stroke="#876344" stroke-width="19.9999999999984" stroke-linecap="round" stroke-linejoin="miter" stroke-miterlimit="0" d="M0 19.9565C19.0671 9.41146 94.8053 -14.4719 111.878 12.1549C123.153 38.2651 55.4429 80.4952 37.55 90.1711" sodipodi:nodetypes="ccc"/><path id="shape8" transform="translate(710.140445560795, 827.16385934686)" fill="#fdfaf0" fill-rule="evenodd" stroke="#876344" stroke-width="19.9999999999984" stroke-linecap="round" stroke-linejoin="miter" stroke-miterlimit="0" d="M114.598 7.23372C89.9348 2.21264 2.92824 -9.04826 0.0717198 13.8351C-2.43738 38.0873 61.6141 85.3235 78.3437 94.4233" sodipodi:nodetypes="ccc"/><path id="shape22" transform="matrix(0.975764031707328 0.218825397120811 -0.218825397120811 0.975764031707328 404.986867009213 256.314579230071)" fill="#f0a6a6" fill-rule="evenodd" stroke="#f0a6a6" stroke-width="39.9999999999968" stroke-linecap="round" stroke-linejoin="miter" stroke-miterlimit="0" d="M47.2374 23.9244C42.7673 20.557 20.664 -11.8357 7.3621 4.64863C-8.52473 17.0901 21.9428 37.1677 22.0644 43.3025C21.8372 49.5189 -8.18605 61.4734 2.17365 73.9371C19.0807 95.4566 34.5088 71.267 41.4347 70.3789C50.6868 70.4911 63.4063 97.7948 75.1241 86.6714C91.3909 76.4352 70.7066 54.5721 69.8025 48.7985C70.2919 41.4072 98.2671 24.5561 84.3109 10.312C72.7364 -6.65845 57.8998 24.369 47.2374 23.9244Z" sodipodi:nodetypes="ccccccccc"/><path id="shape022" transform="matrix(0.987562388894852 -0.157227631283466 0.157227631283466 0.987562388894852 534.818281702728 285.823187223797)" fill="#f0a6a6" fill-rule="evenodd" stroke="#f0a6a6" stroke-width="39.9999999999968" stroke-linecap="round" stroke-linejoin="miter" stroke-miterlimit="0" d="M49.9233 25.0561C45.199 21.5293 21.839 -12.3956 7.78071 4.86856C-9.00948 17.8985 23.1905 38.9257 23.3189 45.3508C23.0789 51.8612 -8.6515 64.3812 2.29724 77.4344C20.1656 99.9719 36.4709 74.6379 43.7906 73.7079C53.5688 73.8254 67.0116 102.42 79.396 90.7708C96.5875 80.0505 74.7271 57.1534 73.7716 51.1067C74.2887 43.3658 103.854 25.7177 89.105 10.7998C76.8722 -6.97336 61.192 25.5217 49.9233 25.0561Z" sodipodi:nodetypes="ccccccccc"/><path id="shape041" transform="matrix(0.985486730728901 0.16975247731914 -0.16975247731914 0.985486730728901 694.520718803325 256.446150399842)" fill="#f0a6a6" fill-rule="evenodd" stroke="#f0a6a6" stroke-width="39.9999999999968" stroke-linecap="round" stroke-linejoin="miter" stroke-miterlimit="0" d="M49.2199 24.7031C44.5622 21.226 21.5313 -12.2209 7.67108 4.79993C-8.88255 17.6463 22.8638 38.3773 22.9904 44.7118C22.7537 51.1305 -8.52961 63.4741 2.26487 76.3434C19.8815 98.5634 35.9571 73.5864 43.1736 72.6695C52.8141 72.7852 66.0675 100.977 78.2774 89.4919C95.2267 78.9227 73.6742 56.3481 72.7322 50.3867C73.2421 42.7548 102.391 25.3554 87.8496 10.6477C75.7891 -6.87515 60.3299 25.1621 49.2199 24.7031Z" sodipodi:nodetypes="ccccccccc"/><path id="shape051" transform="matrix(0.918429175202985 0.395585452379999 -0.395585452379999 0.918429175202985 853.842423775763 210.544436033775)" fill="#f0a6a6" fill-rule="evenodd" stroke="#f0a6a6" stroke-width="39.9999999999968" stroke-linecap="round" stroke-linejoin="miter" stroke-miterlimit="0" d="M43.2355 21.6996C39.1441 18.6452 18.9134 -10.7351 6.73839 4.21639C-7.80256 15.5008 20.0839 33.7112 20.1951 39.2755C19.9872 44.9138 -7.49253 55.7566 1.98949 67.0611C17.4642 86.5795 31.5852 64.6393 37.9243 63.8339C46.3927 63.9356 58.0346 88.6999 68.76 78.611C83.6485 69.3268 64.7165 49.497 63.889 44.2604C64.3369 37.5564 89.942 22.2725 77.1683 9.35308C66.5743 -6.03917 52.9946 22.1028 43.2355 21.6996Z" sodipodi:nodetypes="ccccccccc"/>
</svg>
