<?xml version="1.0" standalone="no"?>
<!DOCTYPE svg PUBLIC "-//W3C//DTD SVG 20010904//EN" "http://www.w3.org/TR/2001/REC-SVG-20010904/DTD/svg10.dtd">
<!-- Created using Krita: https://krita.org -->
<svg xmlns="http://www.w3.org/2000/svg" 
    xmlns:xlink="http://www.w3.org/1999/xlink"
    xmlns:krita="http://krita.org/namespaces/svg/krita"
    xmlns:sodipodi="http://sodipodi.sourceforge.net/DTD/sodipodi-0.dtd"
    width="1603pt"
    height="1236pt"
    viewBox="0 0 1603 1236">
<defs/>
<path id="shape03" transform="translate(356.384447051993, 272.890133249552)" fill="#fdfaf0" stroke-opacity="0" stroke="#000000" stroke-width="0" stroke-linecap="square" stroke-linejoin="bevel" d="M852.22 444.429C842.734 631.062 671.16 825.751 411.088 825.751C120.103 812.308 11.6562 650.675 1.36552 462.471C-17.0954 236.95 153.168 3.10339 418.678 0C708.988 7.05459 867.173 233.062 852.22 444.429Z" sodipodi:nodetypes="ccccc"/><path id="shape0" transform="translate(362.055032011619, 270.181420451166)" fill="#e5ab78" fill-rule="evenodd" stroke-opacity="0" stroke="#000000" stroke-width="0" stroke-linecap="square" stroke-linejoin="bevel" d="M0 347.819C33.701 432.158 194.991 366.502 254.341 347.819C310.09 329.821 318.251 265.801 356.982 264.513C396.922 262.49 400.264 325.722 463.535 347.819C537.351 370.601 769.429 458.643 838.445 330.012C810.012 138.36 618.034 5.78084 417.336 0.200774C225.046 -5.94664 44.0888 129.501 0 347.819Z" sodipodi:nodetypes="ccccccc"/><path id="shape031" transform="translate(356.384446203511, 272.890133249574)" fill="none" stroke="#876344" stroke-width="39.9999999999968" stroke-linecap="round" stroke-linejoin="miter" stroke-miterlimit="0" d="M852.22 444.429C842.734 631.062 671.16 825.751 411.088 825.751C120.103 812.308 11.6562 650.675 1.36552 462.471C-17.0954 236.95 153.168 3.10339 418.678 0C708.988 7.05459 867.173 233.062 852.22 444.429Z" sodipodi:nodetypes="ccccc"/><path id="shape011" transform="translate(819.974077762084, 551.069121737086)" fill="#f0a6a6" fill-rule="evenodd" stroke="#f0a6a6" stroke-width="39.9999999999968" stroke-linecap="square" stroke-linejoin="bevel" d="M0 10.4061C1.68046 -1.89714 68.9265 -4.46034 73.1988 9.09827C69.3941 17.7191 6.82985 21.5795 0 10.4061Z" sodipodi:nodetypes="ccc"/><path id="shape02" transform="translate(534.575406375638, 553.352320063029)" fill="#f0a6a6" fill-rule="evenodd" stroke="#f0a6a6" stroke-width="39.9999999999968" stroke-linecap="square" stroke-linejoin="bevel" d="M0 13.4744C1.82613 -2.45653 74.9017 -5.77552 79.5443 11.781C75.4098 22.9437 7.42192 27.9424 0 13.4744Z" sodipodi:nodetypes="ccc"/><ellipse id="shape2" transform="translate(588.317437082755, 434.610244795176)" rx="29.2796168125068" ry="64.7710157999099" cx="29.2796168125068" cy="64.7710157999099" fill="#876344" fill-rule="evenodd" stroke-opacity="0" stroke="#000000" stroke-width="0" stroke-linecap="round" stroke-linejoin="miter" stroke-miterlimit="0"/><ellipse id="shape0111" transform="translate(776.647095173764, 430.976456110092)" rx="29.3406509630953" ry="64.7710157999099" cx="29.3406509630953" cy="64.7710157999099" fill="#876344" fill-rule="evenodd" stroke-opacity="0" stroke="#000000" stroke-width="0" stroke-linecap="round" stroke-linejoin="miter" stroke-miterlimit="0"/><path id="shape01" transform="translate(696.350632839644, 579.360716896475)" fill="none" stroke="#876344" stroke-width="19.9999999999984" stroke-linecap="round" stroke-linejoin="bevel" d="M0 2.27374e-13C4.50506 16.7178 38.6645 18.1111 44.8371 0.600125" sodipodi:nodetypes="cc"/><path id="shape1" transform="translate(601.275459178766, 638.949104506481)" fill="none" stroke="#876344" stroke-width="19.9999999999984" stroke-linecap="round" stroke-linejoin="bevel" d="M0 5.56802C23.1583 45.5137 87.5083 2.94976 115.222 0.0811606C145.056 -2.15973 216.558 43.0859 236.445 2.13873" sodipodi:nodetypes="ccc"/><path id="shape3" transform="translate(370.020979558407, 301.918702845047)" fill="#e5ab78" fill-rule="evenodd" stroke="#876344" stroke-width="39.9999999999968" stroke-linecap="square" stroke-linejoin="bevel" d="M173.697 42.9647C65.4893 -63.5653 -67.252 43.8849 39.1001 191.881C63.8367 148.695 119.445 82.1093 173.697 42.9647Z" sodipodi:nodetypes="ccc"/><path id="shape4" transform="translate(960.711423061181, 260.05349854905)" fill="#e5ab78" fill-rule="evenodd" stroke="#876344" stroke-width="39.9999999999968" stroke-linecap="square" stroke-linejoin="bevel" d="M0 51.823C123.577 -86.8525 264.225 86.9638 159.202 175.277C133.65 139.879 54.6571 64.9868 0 51.823Z" sodipodi:nodetypes="ccc"/>
</svg>
