<?xml version="1.0" standalone="no"?>
<!DOCTYPE svg PUBLIC "-//W3C//DTD SVG 20010904//EN" "http://www.w3.org/TR/2001/REC-SVG-20010904/DTD/svg10.dtd">
<!-- Created using Krita: https://krita.org -->
<svg xmlns="http://www.w3.org/2000/svg" 
    xmlns:xlink="http://www.w3.org/1999/xlink"
    xmlns:krita="http://krita.org/namespaces/svg/krita"
    xmlns:sodipodi="http://sodipodi.sourceforge.net/DTD/sodipodi-0.dtd"
    width="1603pt"
    height="1236pt"
    viewBox="0 0 1603 1236">
<defs/>
<path id="shape03" transform="translate(232.48887796459, 252.281553845875)" fill="#fdfaf0" stroke-opacity="0" stroke="#000000" stroke-width="0" stroke-linecap="square" stroke-linejoin="bevel" d="M1180.24 490.071C1098.83 761.322 1056.44 895.913 569.011 855.447C278.541 854.607 24.0163 821.143 0.437417 464.133C-9.65621 258.558 153.697 -79.0808 619.474 16.7507C1087.5 118.711 1220.91 173.768 1180.24 490.071Z" sodipodi:nodetypes="ccccc"/><path id="shape0" transform="translate(236.974167835547, 252.818289558968)" fill="#e5ab78" fill-rule="evenodd" stroke-opacity="0" stroke="#000000" stroke-width="0" stroke-linecap="square" stroke-linejoin="bevel" d="M0 351.379C33.701 435.718 196.791 363.204 256.141 344.521C311.89 326.523 320.051 262.503 358.782 261.215C398.722 259.192 402.064 322.424 465.335 344.521C501.412 354.873 671.472 508.854 1173.99 506.151C1290.02 20.4379 646.239 62.4093 491.836 2.81799C255.481 -23.1329 44.0888 133.061 0 351.379Z" sodipodi:nodetypes="ccccccc"/><path id="shape01" transform="translate(233.731658752522, 256.601032461272)" fill="none" stroke="#876344" stroke-width="39.9999999999968" stroke-linecap="square" stroke-linejoin="bevel" d="M392.357 840.411C410.588 843.725 834.852 875.959 950.593 827.465C1209.59 710.127 1289.41 205.318 1008.51 118.091C775.356 56.7554 708.988 7.05459 418.678 0C153.168 3.10339 -17.0954 236.95 1.36552 462.471C11.6562 650.675 101.372 826.968 392.357 840.411Z" sodipodi:nodetypes="cccccc"/><path id="shape011" transform="translate(696.693555016884, 533.408307671458)" fill="#f0a6a6" fill-rule="evenodd" stroke="#f0a6a6" stroke-width="39.9999999999968" stroke-linecap="square" stroke-linejoin="bevel" d="M0 10.4061C1.68046 -1.89714 68.9265 -4.46034 73.1988 9.09827C69.3941 17.7191 6.82985 21.5795 0 10.4061Z" sodipodi:nodetypes="ccc"/><path id="shape02" transform="translate(411.294883630461, 535.69150267239)" fill="#f0a6a6" fill-rule="evenodd" stroke="#f0a6a6" stroke-width="39.9999999999968" stroke-linecap="square" stroke-linejoin="bevel" d="M0 13.4744C1.82613 -2.45653 74.9017 -5.77552 79.5443 11.781C75.4098 22.9437 7.42192 27.9424 0 13.4744Z" sodipodi:nodetypes="ccc"/><ellipse id="shape2" transform="translate(465.036914337574, 416.949430256291)" rx="29.2796168125068" ry="64.7710157999099" cx="29.2796168125068" cy="64.7710157999099" fill="#876344" fill-rule="evenodd" stroke-opacity="0" stroke="#000000" stroke-width="0" stroke-linecap="round" stroke-linejoin="miter" stroke-miterlimit="0"/><ellipse id="shape0111" transform="translate(653.366572428568, 413.315641571208)" rx="29.3406509630953" ry="64.7710157999099" cx="29.3406509630953" cy="64.7710157999099" fill="#876344" fill-rule="evenodd" stroke-opacity="0" stroke="#000000" stroke-width="0" stroke-linecap="round" stroke-linejoin="miter" stroke-miterlimit="0"/><path id="shape012" transform="translate(573.070110094454, 561.699902357579)" fill="none" stroke="#876344" stroke-width="19.9999999999984" stroke-linecap="round" stroke-linejoin="bevel" d="M0 2.27374e-13C4.50506 16.7178 38.6645 18.1111 44.8371 0.600125" sodipodi:nodetypes="cc"/><path id="shape1" transform="translate(477.994936433584, 621.288290003)" fill="none" stroke="#876344" stroke-width="19.9999999999984" stroke-linecap="round" stroke-linejoin="bevel" d="M0 5.56802C23.1583 45.5137 87.5083 2.94976 115.222 0.0811606C145.056 -2.15973 216.558 43.0859 236.445 2.13873" sodipodi:nodetypes="ccc"/><path id="shape3" transform="translate(246.740446169628, 284.257897920724)" fill="#e5ab78" fill-rule="evenodd" stroke="#876344" stroke-width="39.9999999999968" stroke-linecap="square" stroke-linejoin="bevel" d="M173.697 42.9647C65.4893 -63.5653 -67.252 43.8849 39.1001 191.881C63.8367 148.695 119.445 82.1093 173.697 42.9647Z" sodipodi:nodetypes="ccc"/><path id="shape4" transform="translate(829.029306971725, 244.621712685025)" fill="#e5ab78" fill-rule="evenodd" stroke="#876344" stroke-width="39.9999999999968" stroke-linecap="round" stroke-linejoin="bevel" d="M0 51.823C123.577 -86.8525 263.282 86.9638 158.259 175.277" sodipodi:nodetypes="cc"/><path id="shape04" transform="translate(1413.29260835761, 594.42366991163)" fill="#e5ab78" fill-rule="evenodd" stroke="#876344" stroke-width="39.9999999999968" stroke-linecap="square" stroke-linejoin="bevel" d="M2.65761 0C118.27 39.0679 113.507 162.559 0 141.484C7.63 107.549 8.61088 40.5512 2.65761 0Z" sodipodi:nodetypes="ccc"/><path id="shape5" transform="translate(567.154201040691, 1091.78153485139)" fill="#fdfaf0" fill-rule="evenodd" stroke="#876344" stroke-width="39.9999999999968" stroke-linecap="square" stroke-linejoin="bevel" d="M1.25425 0C-4.03355 20.4762 8.00087 102.796 26.0304 105.536C43.2266 105.942 99.7288 19.8264 97.6154 9.25907C67.5538 4.35004 20.859 3.3573 1.25425 0Z" sodipodi:nodetypes="cccc"/><path id="shape05" transform="translate(1140.02674203884, 1062.86260548853)" fill="#fdfaf0" fill-rule="evenodd" stroke="#876344" stroke-width="39.9999999999968" stroke-linecap="square" stroke-linejoin="bevel" d="M1.36292 34.8072C-3.92488 55.2834 6.052 127.315 33.4262 128.169C50.6224 128.575 100.438 10.7388 83.5785 0C69.3771 11.0371 37.9423 30.3629 1.36292 34.8072Z" sodipodi:nodetypes="cccc"/><path id="shape06" transform="translate(490.872573590543, 1077.77999034268)" fill="#fdfaf0" fill-rule="evenodd" stroke="#876344" stroke-width="39.9999999999968" stroke-linecap="square" stroke-linejoin="bevel" d="M1.02247 0C-4.26533 20.4762 11.7984 89.7647 29.828 92.5047C47.0242 92.9107 69.6628 63.9784 81.0091 15.4318C50.9475 10.5228 20.6272 3.3573 1.02247 0Z" sodipodi:nodetypes="cccc"/><path id="shape07" transform="translate(1065.24379016746, 1095.48247687462)" fill="#fdfaf0" fill-rule="evenodd" stroke="#876344" stroke-width="39.9999999999968" stroke-linecap="square" stroke-linejoin="bevel" d="M0.79516 10.6308C-4.49264 31.107 17.658 81.2772 35.6876 84.0172C59.8279 75.1641 66.8636 48.5466 78.2099 0C54.4066 5.80751 29.0587 8.92987 0.79516 10.6308Z" sodipodi:nodetypes="cccc"/>
</svg>
