<svg width="65" height="65" viewBox="0 0 65 65" fill="none" xmlns="http://www.w3.org/2000/svg">
    <rect width="65" height="65" rx="32.5" fill="#D9D9D9"/>
    <path d="M21.125 19.5C21.125 20.7929 20.6114 22.0329 19.6971 22.9471C18.7829 23.8614 17.5429 24.375 16.25 24.375C14.9571 24.375 13.7171 23.8614 12.8029 22.9471C11.8886 22.0329 11.375 20.7929 11.375 19.5C11.375 18.2071 11.8886 16.9671 12.8029 16.0529C13.7171 15.1386 14.9571 14.625 16.25 14.625C17.5429 14.625 18.7829 15.1386 19.6971 16.0529C20.6114 16.9671 21.125 18.2071 21.125 19.5ZM21.125 32.5C21.125 33.7929 20.6114 35.0329 19.6971 35.9471C18.7829 36.8614 17.5429 37.375 16.25 37.375C14.9571 37.375 13.7171 36.8614 12.8029 35.9471C11.8886 35.0329 11.375 33.7929 11.375 32.5C11.375 31.2071 11.8886 29.9671 12.8029 29.0529C13.7171 28.1386 14.9571 27.625 16.25 27.625C17.5429 27.625 18.7829 28.1386 19.6971 29.0529C20.6114 29.9671 21.125 31.2071 21.125 32.5ZM21.125 45.5C21.125 46.7929 20.6114 48.0329 19.6971 48.9471C18.7829 49.8614 17.5429 50.375 16.25 50.375C14.9571 50.375 13.7171 49.8614 12.8029 48.9471C11.8886 48.0329 11.375 46.7929 11.375 45.5C11.375 44.2071 11.8886 42.9671 12.8029 42.0529C13.7171 41.1386 14.9571 40.625 16.25 40.625C17.5429 40.625 18.7829 41.1386 19.6971 42.0529C20.6114 42.9671 21.125 44.2071 21.125 45.5Z" fill="white"/>
    <path fill-rule="evenodd" clip-rule="evenodd" d="M24.375 21.125C24.375 20.694 24.5462 20.2807 24.851 19.976C25.1557 19.6712 25.569 19.5 26 19.5H52C52.431 19.5 52.8443 19.6712 53.149 19.976C53.4538 20.2807 53.625 20.694 53.625 21.125C53.625 21.556 53.4538 21.9693 53.149 22.274C52.8443 22.5788 52.431 22.75 52 22.75H26C25.569 22.75 25.1557 22.5788 24.851 22.274C24.5462 21.9693 24.375 21.556 24.375 21.125ZM24.375 34.125C24.375 33.694 24.5462 33.2807 24.851 32.976C25.1557 32.6712 25.569 32.5 26 32.5H52C52.431 32.5 52.8443 32.6712 53.149 32.976C53.4538 33.2807 53.625 33.694 53.625 34.125C53.625 34.556 53.4538 34.9693 53.149 35.274C52.8443 35.5788 52.431 35.75 52 35.75H26C25.569 35.75 25.1557 35.5788 24.851 35.274C24.5462 34.9693 24.375 34.556 24.375 34.125ZM24.375 47.125C24.375 46.694 24.5462 46.2807 24.851 45.976C25.1557 45.6712 25.569 45.5 26 45.5H52C52.431 45.5 52.8443 45.6712 53.149 45.976C53.4538 46.2807 53.625 46.694 53.625 47.125C53.625 47.556 53.4538 47.9693 53.149 48.274C52.8443 48.5788 52.431 48.75 52 48.75H26C25.569 48.75 25.1557 48.5788 24.851 48.274C24.5462 47.9693 24.375 47.556 24.375 47.125Z" fill="white"/>
    <rect width="65" height="65" rx="32.5" fill="#F8A100"/>
    <path d="M21.125 19.5C21.125 20.7929 20.6114 22.0329 19.6971 22.9471C18.7829 23.8614 17.5429 24.375 16.25 24.375C14.9571 24.375 13.7171 23.8614 12.8029 22.9471C11.8886 22.0329 11.375 20.7929 11.375 19.5C11.375 18.2071 11.8886 16.9671 12.8029 16.0529C13.7171 15.1386 14.9571 14.625 16.25 14.625C17.5429 14.625 18.7829 15.1386 19.6971 16.0529C20.6114 16.9671 21.125 18.2071 21.125 19.5ZM21.125 32.5C21.125 33.7929 20.6114 35.0329 19.6971 35.9471C18.7829 36.8614 17.5429 37.375 16.25 37.375C14.9571 37.375 13.7171 36.8614 12.8029 35.9471C11.8886 35.0329 11.375 33.7929 11.375 32.5C11.375 31.2071 11.8886 29.9671 12.8029 29.0529C13.7171 28.1386 14.9571 27.625 16.25 27.625C17.5429 27.625 18.7829 28.1386 19.6971 29.0529C20.6114 29.9671 21.125 31.2071 21.125 32.5ZM21.125 45.5C21.125 46.7929 20.6114 48.0329 19.6971 48.9471C18.7829 49.8614 17.5429 50.375 16.25 50.375C14.9571 50.375 13.7171 49.8614 12.8029 48.9471C11.8886 48.0329 11.375 46.7929 11.375 45.5C11.375 44.2071 11.8886 42.9671 12.8029 42.0529C13.7171 41.1386 14.9571 40.625 16.25 40.625C17.5429 40.625 18.7829 41.1386 19.6971 42.0529C20.6114 42.9671 21.125 44.2071 21.125 45.5Z" fill="white"/>
    <path fill-rule="evenodd" clip-rule="evenodd" d="M25 19.625C25 19.194 25.1712 18.7807 25.476 18.476C25.7807 18.1712 26.194 18 26.625 18H52.625C53.056 18 53.4693 18.1712 53.774 18.476C54.0788 18.7807 54.25 19.194 54.25 19.625C54.25 20.056 54.0788 20.4693 53.774 20.774C53.4693 21.0788 53.056 21.25 52.625 21.25H26.625C26.194 21.25 25.7807 21.0788 25.476 20.774C25.1712 20.4693 25 20.056 25 19.625ZM25 32.625C25 32.194 25.1712 31.7807 25.476 31.476C25.7807 31.1712 26.194 31 26.625 31H52.625C53.056 31 53.4693 31.1712 53.774 31.476C54.0788 31.7807 54.25 32.194 54.25 32.625C54.25 33.056 54.0788 33.4693 53.774 33.774C53.4693 34.0788 53.056 34.25 52.625 34.25H26.625C26.194 34.25 25.7807 34.0788 25.476 33.774C25.1712 33.4693 25 33.056 25 32.625ZM25 45.625C25 45.194 25.1712 44.7807 25.476 44.476C25.7807 44.1712 26.194 44 26.625 44H52.625C53.056 44 53.4693 44.1712 53.774 44.476C54.0788 44.7807 54.25 45.194 54.25 45.625C54.25 46.056 54.0788 46.4693 53.774 46.774C53.4693 47.0788 53.056 47.25 52.625 47.25H26.625C26.194 47.25 25.7807 47.0788 25.476 46.774C25.1712 46.4693 25 46.056 25 45.625Z" fill="white"/>
</svg>
