<svg width="24" height="24" viewBox="0 0 24 24" fill="none" xmlns="http://www.w3.org/2000/svg">
<path d="M19.09 14.441V18.881C19.0898 19.5092 18.8401 20.1116 18.3959 20.5558C17.9516 21 17.3492 21.2497 16.721 21.25H5.12002C4.80777 21.2499 4.49863 21.188 4.21035 21.068C3.92208 20.9481 3.66035 20.7723 3.44021 20.5509C3.22007 20.3294 3.04586 20.0667 2.92758 19.7777C2.80931 19.4887 2.74931 19.1792 2.75102 18.867V7.27898C2.74916 6.96723 2.80919 6.6582 2.92764 6.36982C3.04608 6.08144 3.22059 5.81944 3.44103 5.59899C3.66148 5.37855 3.92348 5.20404 4.21186 5.0856C4.50025 4.96715 4.80927 4.90712 5.12102 4.90898H9.56002" fill="white"/>
<path d="M19.09 14.441V18.881C19.0898 19.5092 18.8401 20.1116 18.3959 20.5558C17.9516 21 17.3492 21.2497 16.721 21.25H5.12002C4.80777 21.2499 4.49863 21.188 4.21035 21.068C3.92208 20.9481 3.66035 20.7723 3.44021 20.5509C3.22007 20.3294 3.04586 20.0667 2.92758 19.7777C2.80931 19.4887 2.74931 19.1792 2.75102 18.867V7.27898C2.74916 6.96723 2.80919 6.6582 2.92764 6.36982C3.04608 6.08144 3.22059 5.81944 3.44103 5.59899C3.66148 5.37855 3.92348 5.20404 4.21186 5.0856C4.50025 4.96715 4.80927 4.90712 5.12102 4.90898H9.56002" stroke="black" stroke-width="1.5" stroke-linecap="round" stroke-linejoin="round"/>
<path d="M6.83496 15.803V13.638C6.83696 13.281 6.97896 12.938 7.22996 12.685L16.762 3.15297C16.8884 3.02507 17.039 2.92354 17.205 2.85424C17.371 2.78495 17.5491 2.74927 17.729 2.74927C17.9088 2.74927 18.0869 2.78495 18.2529 2.85424C18.4189 2.92354 18.5695 3.02507 18.696 3.15297L20.847 5.30397C20.9749 5.43045 21.0764 5.58104 21.1457 5.74702C21.215 5.91301 21.2507 6.0911 21.2507 6.27097C21.2507 6.45084 21.215 6.62892 21.1457 6.79491C21.0764 6.9609 20.9749 7.11149 20.847 7.23797L11.315 16.77C11.0615 17.0217 10.7192 17.1636 10.362 17.165H8.19696C8.01803 17.1652 7.8408 17.1302 7.67544 17.0618C7.51007 16.9935 7.35982 16.8932 7.2333 16.7666C7.10677 16.6401 7.00646 16.4899 6.9381 16.3245C6.86975 16.1591 6.8347 15.9819 6.83496 15.803ZM19.09 8.99497L15.005 4.90897Z" fill="#F8A100"/>
<path d="M19.09 8.99497L15.005 4.90897M6.83496 15.803V13.638C6.83696 13.281 6.97896 12.938 7.22996 12.685L16.762 3.15297C16.8884 3.02507 17.039 2.92354 17.205 2.85424C17.371 2.78495 17.5491 2.74927 17.729 2.74927C17.9088 2.74927 18.0869 2.78495 18.2529 2.85424C18.4189 2.92354 18.5695 3.02507 18.696 3.15297L20.847 5.30397C20.9749 5.43045 21.0764 5.58104 21.1457 5.74702C21.215 5.91301 21.2507 6.0911 21.2507 6.27097C21.2507 6.45084 21.215 6.62892 21.1457 6.79491C21.0764 6.9609 20.9749 7.11149 20.847 7.23797L11.315 16.77C11.0615 17.0217 10.7192 17.1636 10.362 17.165H8.19696C8.01803 17.1652 7.8408 17.1302 7.67544 17.0618C7.51007 16.9935 7.35982 16.8932 7.2333 16.7666C7.10677 16.6401 7.00646 16.4899 6.9381 16.3245C6.86975 16.1591 6.8347 15.9819 6.83496 15.803Z" stroke="black" stroke-width="1.5" stroke-linecap="round" stroke-linejoin="round"/>
</svg>
