<?xml version="1.0" standalone="no"?>
<!DOCTYPE svg PUBLIC "-//W3C//DTD SVG 20010904//EN" "http://www.w3.org/TR/2001/REC-SVG-20010904/DTD/svg10.dtd">
<!-- Created using Krita: https://krita.org -->
<svg xmlns="http://www.w3.org/2000/svg" 
    xmlns:xlink="http://www.w3.org/1999/xlink"
    xmlns:krita="http://krita.org/namespaces/svg/krita"
    xmlns:sodipodi="http://sodipodi.sourceforge.net/DTD/sodipodi-0.dtd"
    width="1603pt"
    height="1236pt"
    viewBox="0 0 1603 1236">
<defs/>
<path id="shape6" transform="translate(446.646048818584, 1008.26229620918)" fill="#e5ab78" fill-rule="evenodd" stroke="#876344" stroke-width="39.9999999999968" stroke-linecap="square" stroke-linejoin="bevel" d="M0.0250306 0C-0.478827 37.7868 6.74959 146.756 10.3984 174.722C51.3958 198.616 135.354 206.081 200.806 176.865C206.308 148.241 206.14 46.5189 205.178 12.6884C152.95 12.0361 45.2802 13.8239 0.0250306 0Z" sodipodi:nodetypes="ccccc"/><path id="shape7" transform="translate(1019.26316685867, 1004.91874394212)" fill="#e5ab78" fill-rule="evenodd" stroke="#876344" stroke-width="39.9999999999968" stroke-linecap="square" stroke-linejoin="bevel" d="M0.002218 24.6051C-0.191898 53.6052 12.4151 150.022 14.4049 178.751C62.6483 207.57 181.291 201.937 228.217 178.666C228.835 152.668 226.931 35.8368 227.274 0C186.895 12.3447 93.3854 25.2683 0.002218 24.6051Z" sodipodi:nodetypes="ccccc"/><path id="shape8" transform="translate(887.840460381296, 1027.72348504568)" fill="#e5ab78" fill-rule="evenodd" stroke="#876344" stroke-width="39.9999999999968" stroke-linecap="square" stroke-linejoin="bevel" d="M0 0C1.18004 33.2313 5.32111 112.871 11.0592 134.685C40.7634 147.376 97.2545 154.748 136.569 132.628C137.834 113.481 130.1 29.5091 128.081 1.62891C89.1983 5.89829 31.9977 4.14791 0 0Z" sodipodi:nodetypes="ccccc"/><path id="shape9" transform="translate(304.599765006851, 955.537048920876)" fill="#e5ab78" fill-rule="evenodd" stroke="#876344" stroke-width="39.9999999999968" stroke-linecap="square" stroke-linejoin="bevel" d="M5.41683 0C4.91556 30.8999 -5.04905 156.693 3.3593 181.666C25.91 197.806 113.685 204.386 145.758 187.582C144.791 165.348 141.77 78.7818 142.671 52.811C97.1924 45.7012 32.2374 16.3385 5.41683 0Z" sodipodi:nodetypes="ccccc"/><path id="shape0" transform="translate(120.634692340041, 193.587932043482)" fill="#e5ab78" fill-rule="evenodd" stroke="#876344" stroke-width="39.9999999999968" stroke-linecap="square" stroke-linejoin="bevel" d="M1180.26 794.87C1274.85 741.864 1325.09 607.312 1330.71 474.544C1331.04 464.287 1356.91 433.626 1359.61 424.412C1360.41 417.599 1298.17 348.131 1292.35 338.755C1292.7 329.734 1314.03 271.935 1310.08 264.307C1305.03 258.737 1231.33 198.315 1221.13 193.561C1217.42 188.45 1210.82 126.293 1200.12 124.234C1191.39 124.318 1091.29 124.832 1079.23 124.867C1072.3 123.606 1029.51 81.4063 1021.36 80.6056C1015.1 81.691 920.63 103.257 908.492 100.499C758.102 62.2767 606.524 3.58188 442.673 0C177.163 3.10339 18.1306 239.271 25.8752 424.412C26.4363 432.56 0.23642 512.015 0 519.443C4.90741 527.471 40.5792 556.407 41.3457 563.737C41.7024 574.286 38.6158 654.741 41.0323 658.632C48.1476 666.481 87.7366 668.861 94.4271 675.74C100.4 684.901 168.364 797.169 172.363 804.273C178.74 807.987 243.119 784.801 254.134 788.975C258.884 795.252 363.39 853.972 370.579 857.575C379.826 855.948 426.782 828.868 434.826 825.408C699.956 827.294 1016.96 859.685 1180.26 794.87Z" sodipodi:nodetypes="ccccccccccccccccccccc"/><path id="shape011" transform="translate(606.762214015575, 470.395208673396)" fill="#f0a6a6" fill-rule="evenodd" stroke="#f0a6a6" stroke-width="39.9999999999968" stroke-linecap="square" stroke-linejoin="bevel" d="M0 10.4061C1.68046 -1.89714 68.9265 -4.46034 73.1988 9.09827C69.3941 17.7191 6.82985 21.5795 0 10.4061Z" sodipodi:nodetypes="ccc"/><path id="shape02" transform="translate(321.363542629221, 472.678393699295)" fill="#f0a6a6" fill-rule="evenodd" stroke="#f0a6a6" stroke-width="39.9999999999968" stroke-linecap="square" stroke-linejoin="bevel" d="M0 13.4744C1.82613 -2.45653 74.9017 -5.77552 79.5443 11.781C75.4098 22.9437 7.42192 27.9424 0 13.4744Z" sodipodi:nodetypes="ccc"/><ellipse id="shape2" transform="translate(375.105573336322, 353.93632983846)" rx="29.2796168125068" ry="64.7710157999099" cx="29.2796168125068" cy="64.7710157999099" fill="#876344" fill-rule="evenodd" stroke-opacity="0" stroke="#000000" stroke-width="0" stroke-linecap="round" stroke-linejoin="miter" stroke-miterlimit="0"/><ellipse id="shape0111" transform="translate(563.435231427271, 350.302541153377)" rx="29.3406509630953" ry="64.7710157999099" cx="29.3406509630953" cy="64.7710157999099" fill="#876344" fill-rule="evenodd" stroke-opacity="0" stroke="#000000" stroke-width="0" stroke-linecap="round" stroke-linejoin="miter" stroke-miterlimit="0"/><path id="shape01" transform="translate(483.138495321648, 493.127510246212)" fill="#876344" stroke="#876344" stroke-width="19.9999999999984" stroke-linecap="round" stroke-linejoin="bevel" d="M0.000273773 5.55928C4.50533 22.2771 38.6648 23.6704 44.8374 6.15941C48.0951 -2.26397 -0.132528 -1.64226 0.000273773 5.55928Z" sodipodi:nodetypes="ccc"/><path id="shape3" transform="translate(156.809073237582, 221.244826346576)" fill="#e5ab78" fill-rule="evenodd" stroke="#876344" stroke-width="39.9999999999968" stroke-linecap="square" stroke-linejoin="bevel" d="M173.697 42.9647C65.4893 -63.5653 -67.252 43.8849 39.1001 191.881C63.8367 148.695 119.445 82.1093 173.697 42.9647Z" sodipodi:nodetypes="ccc"/><path id="shape4" transform="translate(747.756750947615, 179.39470830453)" fill="#e5ab78" fill-rule="evenodd" stroke="#876344" stroke-width="39.9999999999968" stroke-linecap="round" stroke-linejoin="bevel" d="M0 51.8079C123.577 -86.8676 263.282 87.0344 158.259 175.348" sodipodi:nodetypes="cc"/><path id="shape5" transform="translate(1412.51139167491, 706.056610532388)" fill="#e5ab78" fill-rule="evenodd" stroke="#876344" stroke-width="39.9999999999968" stroke-linecap="round" stroke-linejoin="bevel" d="M38.6645 0C140.763 38.0482 131.408 166.835 0 146.773C19.0491 106.479 31.8981 45.3691 38.6645 0Z" sodipodi:nodetypes="ccc"/><path id="shape10" transform="translate(289.869913686559, 672.106695205339)" fill="none" stroke="#876344" stroke-width="19.9999999999984" stroke-linecap="round" stroke-linejoin="bevel" d="M0 0C1.93953 9.67159 40.7985 123.057 48.352 123.197C57.3173 122.466 79.7032 55.2634 90.6172 52.811C103.5 54.7049 165.195 162.431 176.433 161.348C188.307 159.479 253.163 72.481 263.621 70.4718C274.556 72.7536 331.187 173.97 342.065 173.693C353.821 173.192 429.812 124.183 440.998 124.054C450.855 123.8 501.681 192.713 511.63 192.791C520.702 192.868 544.576 171.176 564.45 153.46" sodipodi:nodetypes="ccccccccc"/><path id="shape06" transform="matrix(0.990745232088123 0.135734612735077 -0.135734612735077 0.990745232088123 430.392592590837 565.201981537013)" fill="#89d5d5" fill-rule="evenodd" stroke="#89d5d5" stroke-width="19.9999999999984" stroke-linecap="square" stroke-linejoin="bevel" d="M0 53.2912C4.73635 65.6804 32.9534 126.763 193.628 48.6481C203.194 53.3946 230.67 72.2342 236.18 74.6727C239.198 74.5691 241.218 11.2135 239.909 3.63961C239.39 2.04071 200.572 28.1274 196.657 27.9643C163.765 5.7016 150.304 10.4199 124.592 7.74096C88.8787 -9.83588 57.7239 6.4131 40.6912 18.103C21.2253 24.2529 4.85728 46.9244 0 53.2912Z" sodipodi:nodetypes="cccccccc"/><path id="shape1" transform="translate(460.505905390298, 556.205097770358)" fill="none" stroke="#876344" stroke-width="19.9999999999984" stroke-linecap="round" stroke-linejoin="bevel" d="M0 25.1275C16.0427 24.9505 35.0412 1.50484 45.5231 0.0079496C57.0965 -0.518299 77.5031 25.2661 94.1323 22.8984" sodipodi:nodetypes="ccc"/><path id="shape22" transform="matrix(0.975764031707328 0.218825397120811 -0.218825397120811 0.975764031707328 279.386226697752 215.849023587658)" fill="#f0a6a6" fill-rule="evenodd" stroke="#f0a6a6" stroke-width="39.9999999999968" stroke-linecap="round" stroke-linejoin="miter" stroke-miterlimit="0" d="M47.2374 23.9244C42.7673 20.557 20.664 -11.8357 7.3621 4.64863C-8.52473 17.0901 21.9428 37.1677 22.0644 43.3025C21.8372 49.5189 -8.18605 61.4734 2.17365 73.9371C19.0807 95.4566 34.5088 71.267 41.4347 70.3789C50.6868 70.4911 63.4063 97.7948 75.1241 86.6714C91.3909 76.4352 70.7066 54.5721 69.8025 48.7985C70.2919 41.4072 98.2671 24.5561 84.3109 10.312C72.7364 -6.65845 57.8998 24.369 47.2374 23.9244Z" sodipodi:nodetypes="ccccccccc"/><path id="shape032" transform="matrix(0.994297761286368 -0.106639401253257 0.106639401253257 0.994297761286368 546.597437338982 215.076255143719)" fill="#f0a6a6" fill-rule="evenodd" stroke="#f0a6a6" stroke-width="39.9999999999968" stroke-linecap="round" stroke-linejoin="miter" stroke-miterlimit="0" d="M62.0607 31.1478C56.1878 26.7636 27.1485 -15.4092 9.67237 6.05219C-11.1999 22.25 28.8286 48.3894 28.9883 56.3765C28.6899 64.4697 -10.7549 80.0336 2.85575 96.2603C25.0683 124.277 45.3378 92.784 54.437 91.6279C66.5926 91.7739 83.3036 127.321 98.6989 112.839C120.07 99.5125 92.8948 71.0486 91.707 63.5318C92.3499 53.9089 129.104 31.9702 110.768 13.4255C95.5615 -8.66876 76.0691 31.7266 62.0607 31.1478Z" sodipodi:nodetypes="ccccccccc"/><path id="shape041" transform="matrix(0.985486730728901 0.16975247731914 -0.16975247731914 0.985486730728901 413.662062712005 224.210877260972)" fill="#f0a6a6" fill-rule="evenodd" stroke="#f0a6a6" stroke-width="39.9999999999968" stroke-linecap="round" stroke-linejoin="miter" stroke-miterlimit="0" d="M49.2199 24.7031C44.5622 21.226 21.5313 -12.2209 7.67108 4.79993C-8.88255 17.6463 22.8638 38.3773 22.9904 44.7118C22.7537 51.1305 -8.52961 63.4741 2.26487 76.3434C19.8815 98.5634 35.9571 73.5864 43.1736 72.6695C52.8141 72.7852 66.0675 100.977 78.2774 89.4919C95.2267 78.9227 73.6742 56.3481 72.7322 50.3867C73.2421 42.7548 102.391 25.3554 87.8496 10.6477C75.7891 -6.87515 60.3299 25.1621 49.2199 24.7031Z" sodipodi:nodetypes="ccccccccc"/><path id="shape051" transform="matrix(0.918429175202985 0.395585452379999 -0.395585452379999 0.918429175202985 743.930473076513 199.313529700817)" fill="#f0a6a6" fill-rule="evenodd" stroke="#f0a6a6" stroke-width="39.9999999999968" stroke-linecap="round" stroke-linejoin="miter" stroke-miterlimit="0" d="M43.2355 21.6996C39.1441 18.6452 18.9134 -10.7351 6.73839 4.21639C-7.80256 15.5008 20.0839 33.7112 20.1951 39.2755C19.9872 44.9138 -7.49253 55.7566 1.98949 67.0611C17.4642 86.5795 31.5852 64.6393 37.9243 63.8339C46.3927 63.9356 58.0346 88.6999 68.76 78.611C83.6485 69.3268 64.7165 49.497 63.889 44.2604C64.3369 37.5564 89.942 22.2725 77.1683 9.35308C66.5743 -6.03917 52.9946 22.1028 43.2355 21.6996Z" sodipodi:nodetypes="ccccccccc"/>
</svg>
