<?xml version="1.0" standalone="no"?>
<!DOCTYPE svg PUBLIC "-//W3C//DTD SVG 20010904//EN" "http://www.w3.org/TR/2001/REC-SVG-20010904/DTD/svg10.dtd">
<!-- Created using Krita: https://krita.org -->
<svg xmlns="http://www.w3.org/2000/svg" 
    xmlns:xlink="http://www.w3.org/1999/xlink"
    xmlns:krita="http://krita.org/namespaces/svg/krita"
    xmlns:sodipodi="http://sodipodi.sourceforge.net/DTD/sodipodi-0.dtd"
    width="1603pt"
    height="1236pt"
    viewBox="0 0 1603 1236">
<defs/>
<path id="shape031" transform="translate(357.841866305587, 274.261847000142)" fill="#e5ab78" stroke="#876344" stroke-width="39.9999999999968" stroke-linecap="round" stroke-linejoin="miter" stroke-miterlimit="0" d="M852.22 444.429C842.734 631.062 671.16 825.751 411.088 825.751C120.103 812.308 11.6562 650.675 1.36552 462.471C-17.0954 236.95 153.168 3.10339 418.678 0C708.988 7.05459 867.173 233.062 852.22 444.429Z" sodipodi:nodetypes="ccccc"/><path id="shape011" transform="translate(819.974077762018, 551.069122210308)" fill="#f0a6a6" fill-rule="evenodd" stroke="#f0a6a6" stroke-width="39.9999999999968" stroke-linecap="square" stroke-linejoin="bevel" d="M0 10.4061C1.68046 -1.89714 68.9265 -4.46034 73.1988 9.09827C69.3941 17.7191 6.82985 21.5795 0 10.4061Z" sodipodi:nodetypes="ccc"/><path id="shape02" transform="translate(534.575406375595, 553.35231721124)" fill="#f0a6a6" fill-rule="evenodd" stroke="#f0a6a6" stroke-width="39.9999999999968" stroke-linecap="square" stroke-linejoin="bevel" d="M0 13.4744C1.82613 -2.45653 74.9017 -5.77552 79.5443 11.781C75.4098 22.9437 7.42192 27.9424 0 13.4744Z" sodipodi:nodetypes="ccc"/><ellipse id="shape2" transform="translate(588.317437082708, 434.610244795141)" rx="29.2796168125068" ry="64.7710157999099" cx="29.2796168125068" cy="64.7710157999099" fill="#876344" fill-rule="evenodd" stroke-opacity="0" stroke="#000000" stroke-width="0" stroke-linecap="round" stroke-linejoin="miter" stroke-miterlimit="0"/><ellipse id="shape0111" transform="translate(776.647095173701, 430.976456110057)" rx="29.3406509630953" ry="64.7710157999099" cx="29.3406509630953" cy="64.7710157999099" fill="#876344" fill-rule="evenodd" stroke-opacity="0" stroke="#000000" stroke-width="0" stroke-linecap="round" stroke-linejoin="miter" stroke-miterlimit="0"/><path id="shape01" transform="translate(696.350359066744, 573.801433585202)" fill="#876344" stroke="#876344" stroke-width="19.9999999999984" stroke-linecap="round" stroke-linejoin="bevel" d="M0.000273773 5.55928C4.50533 22.2771 38.6648 23.6704 44.8374 6.15941C48.0951 -2.26397 -0.132528 -1.64226 0.000273773 5.55928Z" sodipodi:nodetypes="ccc"/><path id="shape1" transform="translate(673.717769136742, 636.879012732226)" fill="none" stroke="#876344" stroke-width="19.9999999999984" stroke-linecap="round" stroke-linejoin="bevel" d="M0 25.1275C16.0427 24.9505 35.0412 1.50484 45.5231 0.0079496C57.0965 -0.518299 77.5031 25.2661 94.1323 22.8984" sodipodi:nodetypes="ccc"/><path id="shape3" transform="translate(370.020968914762, 301.918712459574)" fill="#e5ab78" fill-rule="evenodd" stroke="#876344" stroke-width="39.9999999999968" stroke-linecap="square" stroke-linejoin="bevel" d="M173.697 42.9647C65.4893 -63.5653 -67.252 43.8849 39.1001 191.881C63.8367 148.695 119.445 82.1093 173.697 42.9647Z" sodipodi:nodetypes="ccc"/><path id="shape4" transform="translate(960.711423061104, 260.053492379164)" fill="#e5ab78" fill-rule="evenodd" stroke="#876344" stroke-width="39.9999999999968" stroke-linecap="square" stroke-linejoin="bevel" d="M0 51.823C123.577 -86.8525 264.225 86.9638 159.202 175.277C133.65 139.879 54.6571 64.9868 0 51.823Z" sodipodi:nodetypes="ccc"/>
</svg>
