<?xml version="1.0" standalone="no"?>
<!DOCTYPE svg PUBLIC "-//W3C//DTD SVG 20010904//EN" "http://www.w3.org/TR/2001/REC-SVG-20010904/DTD/svg10.dtd">
<!-- Created using Krita: https://krita.org -->
<svg xmlns="http://www.w3.org/2000/svg" 
    xmlns:xlink="http://www.w3.org/1999/xlink"
    xmlns:krita="http://krita.org/namespaces/svg/krita"
    xmlns:sodipodi="http://sodipodi.sourceforge.net/DTD/sodipodi-0.dtd"
    width="1603pt"
    height="1236pt"
    viewBox="0 0 1603 1236">
<defs/>
<path id="shape0" transform="translate(144.630004256289, 193.587932043514)" fill="#e5ab78" fill-rule="evenodd" stroke="#876344" stroke-width="39.9999999999968" stroke-linecap="square" stroke-linejoin="bevel" d="M1156.26 794.87C1345.44 688.858 1360.38 258.032 1184.28 163.555C1116.86 131.548 1011.05 113.908 884.154 101.099C733.764 62.8768 582.529 3.58188 418.678 0C153.168 3.10339 -17.0954 236.95 1.36552 462.471C11.6562 650.675 120.189 812.394 411.174 825.837C676.304 827.723 992.961 859.685 1156.26 794.87Z" sodipodi:nodetypes="ccccccc"/><path id="shape011" transform="translate(606.762214015673, 470.39520772694)" fill="#f0a6a6" fill-rule="evenodd" stroke="#f0a6a6" stroke-width="39.9999999999968" stroke-linecap="square" stroke-linejoin="bevel" d="M0 10.4061C1.68046 -1.89714 68.9265 -4.46034 73.1988 9.09827C69.3941 17.7191 6.82985 21.5795 0 10.4061Z" sodipodi:nodetypes="ccc"/><path id="shape02" transform="translate(321.363542629273, 472.678399402861)" fill="#f0a6a6" fill-rule="evenodd" stroke="#f0a6a6" stroke-width="39.9999999999968" stroke-linecap="square" stroke-linejoin="bevel" d="M0 13.4744C1.82613 -2.45653 74.9017 -5.77552 79.5443 11.781C75.4098 22.9437 7.42192 27.9424 0 13.4744Z" sodipodi:nodetypes="ccc"/><ellipse id="shape2" transform="translate(375.105573336382, 353.936329838517)" rx="29.2796168125068" ry="64.7710157999099" cx="29.2796168125068" cy="64.7710157999099" fill="#876344" fill-rule="evenodd" stroke-opacity="0" stroke="#000000" stroke-width="0" stroke-linecap="round" stroke-linejoin="miter" stroke-miterlimit="0"/><ellipse id="shape0111" transform="translate(563.435231427361, 350.302541153433)" rx="29.3406509630953" ry="64.7710157999099" cx="29.3406509630953" cy="64.7710157999099" fill="#876344" fill-rule="evenodd" stroke-opacity="0" stroke="#000000" stroke-width="0" stroke-linecap="round" stroke-linejoin="miter" stroke-miterlimit="0"/><path id="shape01" transform="translate(483.138495320848, 493.127515834474)" fill="#876344" stroke="#876344" stroke-width="19.9999999999984" stroke-linecap="round" stroke-linejoin="bevel" d="M0.000273773 5.55928C4.50533 22.2771 38.6648 23.6704 44.8374 6.15941C48.0951 -2.26397 -0.132528 -1.64226 0.000273773 5.55928Z" sodipodi:nodetypes="ccc"/><path id="shape1" transform="translate(460.505905390409, 556.205097774312)" fill="none" stroke="#876344" stroke-width="19.9999999999984" stroke-linecap="round" stroke-linejoin="bevel" d="M0 25.1275C16.0427 24.9505 35.0412 1.50484 45.5231 0.0079496C57.0965 -0.518299 77.5031 25.2661 94.1323 22.8984" sodipodi:nodetypes="ccc"/><path id="shape3" transform="translate(156.809094524838, 221.24480711751)" fill="#e5ab78" fill-rule="evenodd" stroke="#876344" stroke-width="39.9999999999968" stroke-linecap="square" stroke-linejoin="bevel" d="M173.697 42.9647C65.4893 -63.5653 -67.252 43.8849 39.1001 191.881C63.8367 148.695 119.445 82.1093 173.697 42.9647Z" sodipodi:nodetypes="ccc"/><path id="shape4" transform="translate(747.756750947735, 179.394694955684)" fill="#e5ab78" fill-rule="evenodd" stroke="#876344" stroke-width="39.9999999999968" stroke-linecap="round" stroke-linejoin="bevel" d="M0 51.8079C123.577 -86.8676 263.282 87.0344 158.259 175.348" sodipodi:nodetypes="cc"/><path id="shape5" transform="translate(1412.51139167513, 706.056610532502)" fill="#e5ab78" fill-rule="evenodd" stroke="#876344" stroke-width="39.9999999999968" stroke-linecap="round" stroke-linejoin="bevel" d="M38.6645 0C140.763 38.0482 131.408 166.835 0 146.773C19.0491 106.479 31.8981 45.3691 38.6645 0Z" sodipodi:nodetypes="ccc"/><path id="shape6" transform="translate(446.388857066542, 1008.26229620942)" fill="#e5ab78" fill-rule="evenodd" stroke="#876344" stroke-width="39.9999999999968" stroke-linecap="square" stroke-linejoin="bevel" d="M0.0250306 0C-0.478827 37.7868 6.74959 146.756 10.3984 174.722C51.3958 198.616 135.354 206.081 200.806 176.865C206.308 148.241 206.14 46.5189 205.178 12.6884C152.95 12.0361 45.2802 13.8239 0.0250306 0Z" sodipodi:nodetypes="ccccc"/><path id="shape7" transform="translate(1019.26316684418, 1004.91874394236)" fill="#e5ab78" fill-rule="evenodd" stroke="#876344" stroke-width="39.9999999999968" stroke-linecap="square" stroke-linejoin="bevel" d="M0.002218 24.6051C-0.191898 53.6052 12.4151 150.022 14.4049 178.751C62.6483 207.57 181.291 201.937 228.217 178.666C228.835 152.668 226.931 35.8368 227.274 0C186.895 12.3447 93.3854 25.2683 0.002218 24.6051Z" sodipodi:nodetypes="ccccc"/><path id="shape8" transform="translate(887.840460381511, 1027.72348504592)" fill="#e5ab78" fill-rule="evenodd" stroke="#876344" stroke-width="39.9999999999968" stroke-linecap="square" stroke-linejoin="bevel" d="M0 0C1.18004 33.2313 5.32111 112.871 11.0592 134.685C40.7634 147.376 97.2545 154.748 136.569 132.628C137.834 113.481 130.1 29.5091 128.081 1.62891C89.1983 5.89829 31.9977 4.14791 0 0Z" sodipodi:nodetypes="ccccc"/><path id="shape9" transform="translate(304.342571731631, 955.537048921107)" fill="#e5ab78" fill-rule="evenodd" stroke="#876344" stroke-width="39.9999999999968" stroke-linecap="square" stroke-linejoin="bevel" d="M5.41683 0C4.91556 30.8999 -5.04905 156.693 3.3593 181.666C25.91 197.806 113.685 204.386 145.758 187.582C144.791 165.348 141.77 78.7818 142.671 52.811C97.1924 45.7012 32.2374 16.3385 5.41683 0Z" sodipodi:nodetypes="ccccc"/>
</svg>
