<?xml version="1.0" standalone="no"?>
<!DOCTYPE svg PUBLIC "-//W3C//DTD SVG 20010904//EN" "http://www.w3.org/TR/2001/REC-SVG-20010904/DTD/svg10.dtd">
<!-- Created using Krita: https://krita.org -->
<svg xmlns="http://www.w3.org/2000/svg" 
    xmlns:xlink="http://www.w3.org/1999/xlink"
    xmlns:krita="http://krita.org/namespaces/svg/krita"
    xmlns:sodipodi="http://sodipodi.sourceforge.net/DTD/sodipodi-0.dtd"
    width="744pt"
    height="1135pt"
    viewBox="0 0 744 1135">
<defs/>
<path id="shape0" transform="matrix(0.0215739851620471 0.999767254496897 -0.999767254496897 0.0215739851620471 672.029899648858 520.606267315051)" fill="#ddcbad" fill-rule="evenodd" stroke="none" stroke-width="39.9999999999968" stroke-linecap="square" stroke-linejoin="bevel" d="M93.7131 498.47C571.721 224.511 588.682 208.937 583.892 184.74C580.481 160.493 527.875 141.238 35.3316 0C-32.4561 100.889 2.90982 364.251 93.7131 498.47Z" sodipodi:nodetypes="cccc"/><path id="shape1" transform="matrix(0.0215739851620471 0.999767254496897 -0.999767254496897 0.0215739851620471 366.747536531708 667.566074722247)" fill="#8d7663" fill-rule="evenodd" stroke="#8d7663" stroke-width="14.9999999999988" stroke-linecap="round" stroke-linejoin="bevel" d="M114.14 47.6523C108.435 42.2341 7.78633 4.0255 0 0" sodipodi:nodetypes="cc"/><path id="shape2" transform="matrix(0.0215739851620471 0.999767254496897 -0.999767254496897 0.0215739851620471 430.406180715397 702.341745816692)" fill="#8d7663" fill-rule="evenodd" stroke="#8d7663" stroke-width="14.9999999999988" stroke-linecap="round" stroke-linejoin="bevel" d="M164.905 62.8936C149.056 70.558 4.30917 4.16879 0 0" sodipodi:nodetypes="cc"/><path id="shape3" transform="matrix(0.0215739851620471 0.999767254496897 -0.999767254496897 0.0215739851620471 462.843701287384 787.947347494203)" fill="#8d7663" fill-rule="evenodd" stroke="#8d7663" stroke-width="14.9999999999988" stroke-linecap="round" stroke-linejoin="bevel" d="M147.05 49.7098C138.1 45.7131 17.0108 8.35815 0 0" sodipodi:nodetypes="cc"/><path id="shape4" transform="matrix(0.0215739851620471 0.999767254496897 -0.999767254496897 0.0215739851620471 496.532602652083 876.209859626235)" fill="#8d7663" fill-rule="evenodd" stroke="#8d7663" stroke-width="14.9999999999988" stroke-linecap="round" stroke-linejoin="bevel" d="M123.958 40.5772C120.503 38.1771 17.4403 2.05205 0 0" sodipodi:nodetypes="cc"/><path id="shape5" transform="matrix(0.0215739851620471 0.999767254496897 -0.999767254496897 0.0215739851620471 492.076655513448 839.975740650314)" fill="#8d7663" fill-rule="evenodd" stroke="#8d7663" stroke-width="14.9999999999988" stroke-linecap="round" stroke-linejoin="bevel" d="M0 153.435C0.938868 148.114 67.9069 5.53197 69.3634 0" sodipodi:nodetypes="cc"/><path id="shape6" transform="matrix(0.0215739851620471 0.999767254496897 -0.999767254496897 0.0215739851620471 474.566903784864 757.924840590934)" fill="#8d7663" fill-rule="evenodd" stroke="#8d7663" stroke-width="14.9999999999988" stroke-linecap="round" stroke-linejoin="bevel" d="M0 157.429C0.516595 149.206 63.495 16.2803 71.2135 0" sodipodi:nodetypes="cc"/><path id="shape7" transform="matrix(0.0215739851620471 0.999767254496897 -0.999767254496897 0.0215739851620471 443.533584519263 691.900049711606)" fill="#8d7663" fill-rule="evenodd" stroke="#8d7663" stroke-width="14.9999999999988" stroke-linecap="round" stroke-linejoin="bevel" d="M0 115.731C0.856645 108.297 50.2524 -1.5548 49.5155 0.0166989" sodipodi:nodetypes="cc"/><path id="shape01" transform="matrix(0.0215739851620471 0.999767254496897 -0.999767254496897 0.0215739851620471 481.604637988956 931.240108769743)" fill="#8d7663" fill-rule="evenodd" stroke="#8d7663" stroke-width="14.9999999999988" stroke-linecap="round" stroke-linejoin="bevel" d="M0 83.8075C0.492546 80.5501 35.7002 4.40713 40.7914 0" sodipodi:nodetypes="cc"/><path id="shape8" transform="matrix(0.0215739851620471 0.999767254496897 -0.999767254496897 0.0215739851620471 694.123468994108 247.420378779306)" fill="#facccc" fill-rule="evenodd" stroke="#facccc" stroke-width="39.9999999999968" stroke-linecap="square" stroke-linejoin="bevel" d="M356.006 529.514C228.31 606.993 22.0088 480.139 0.778477 317.259C-11.8432 100.931 131.183 4.44978 272.137 15.5618C341.314 -31.3034 303.496 38.7744 307.27 79.6742C245.848 160.366 354.825 151.194 288.813 177.212C205.494 256.646 344.457 280.408 347.067 294.152C345.142 304.63 309.531 308.962 306.05 369.131C307.622 422.294 359.455 428.338 371.174 450.416C396.508 490.923 433.736 573.444 356.006 529.514Z" sodipodi:nodetypes="ccccccccc"/><path id="shape9" transform="matrix(-0.143763627089513 0.989612055063055 -0.989612055063055 -0.143763627089513 595.503579250014 88.8847268370788)" fill="#f9e6a9" fill-rule="evenodd" stroke="#f9e6a9" stroke-width="39.9999999999968" stroke-linecap="square" stroke-linejoin="bevel" d="M416.678 438.869C340.418 470.118 211.145 586.935 79.4068 465.49C-62.0889 335.635 5.52708 150.775 126.287 47.6236C140.139 35.7911 147.115 11.6789 162.136 2.65401C199.952 -20.065 206.188 110.118 242.031 125.326C264.906 147.418 316.065 129.419 327.294 153.12C339.171 178.19 248.51 222.272 285.067 260.79C303.565 279.266 344.09 251.967 365.57 274.352C388.086 297.815 366.958 336.852 375.779 364.493C394.173 398.844 424.644 376.366 443.143 399.112C455.662 414.505 437.467 443.325 416.678 438.869Z" sodipodi:nodetypes="ccccccccccc"/><path id="shape02" transform="matrix(0.0215739851620471 0.999767254496897 -0.999767254496897 0.0215739851620471 303.04837070815 56.6644913166849)" fill="#f2b885" fill-rule="evenodd" stroke-opacity="0" stroke="#000000" stroke-width="0" stroke-linecap="square" stroke-linejoin="bevel" d="M79.1024 174.101C76.8065 160.78 77.0941 126.046 73.0195 113.865C68.6 81.385 12.8007 6.83558 0.240247 0.112856C-4.82212 -2.59668 71.6335 44.2182 86.7204 61.4501C101.838 79.17 110.821 149.101 120.923 168.678C141.513 208.575 211.99 230.561 229.285 271.838C183.571 236.149 89.0073 231.567 79.1024 174.101Z" sodipodi:nodetypes="ccccccc"/><path id="shape011" transform="matrix(0.0215739851620471 0.999767254496897 -0.999767254496897 0.0215739851620471 454.03491178274 215.576130406304)" fill="#f2b885" fill-rule="evenodd" stroke-opacity="0" stroke="#000000" stroke-width="0" stroke-linecap="square" stroke-linejoin="bevel" d="M83.3462 240.656C81.0503 227.335 30.043 131.2 25.9684 119.019C21.5489 86.5393 27.2195 13.751 0 0C50.5981 7.18023 50.1683 58.6136 54.5245 84.7657C58.3895 107.756 73.6773 143.114 83.7793 162.691C104.369 202.588 158.131 261.874 175.426 303.151C129.712 267.462 93.2511 298.122 83.3462 240.656Z" sodipodi:nodetypes="ccccccc"/><path id="shape021" transform="matrix(0.0215739851620471 0.999767254496897 -0.999767254496897 0.0215739851620471 459.11736717431 62.4458064900436)" fill="#f2b885" fill-rule="evenodd" stroke-opacity="0" stroke="#000000" stroke-width="0" stroke-linecap="square" stroke-linejoin="bevel" d="M0 48.6887C12.2309 25.3631 26.8321 5.57662 38.6346 0C53.7522 17.7199 40.7187 45.1916 51.9809 51.8862C133.445 88.7943 108.946 127.209 145.794 159.248C122.024 148.697 105.654 122.837 82.1522 105.403C36.1769 97.6983 29.1275 84.5052 0 48.6887Z" sodipodi:nodetypes="cccccc"/>
</svg>
