<?xml version="1.0" standalone="no"?>
<!DOCTYPE svg PUBLIC "-//W3C//DTD SVG 20010904//EN" "http://www.w3.org/TR/2001/REC-SVG-20010904/DTD/svg10.dtd">
<!-- Created using Krita: https://krita.org -->
<svg xmlns="http://www.w3.org/2000/svg" 
    xmlns:xlink="http://www.w3.org/1999/xlink"
    xmlns:krita="http://krita.org/namespaces/svg/krita"
    xmlns:sodipodi="http://sodipodi.sourceforge.net/DTD/sodipodi-0.dtd"
    width="899pt"
    height="621pt"
    viewBox="0 0 899 621">
<defs/>
<path id="shape0" transform="translate(28.0821577674878, 41.2354020941862)" fill="#f2e7c4" fill-rule="evenodd" stroke="#876344" stroke-width="14.9999999999988" stroke-linecap="square" stroke-linejoin="bevel" d="M0.942742 342.285C-32.0416 -59.4063 811.245 -141.282 845.455 278.908C865.545 598.005 28.2587 665.94 0.942742 342.285Z" sodipodi:nodetypes="ccc"/><path id="shape01" transform="translate(26.3639731900439, 26.5984592986615)" fill="#f0a6a6" fill-rule="evenodd" stroke="#876344" stroke-width="14.9999999999988" stroke-linecap="square" stroke-linejoin="bevel" d="M20.5212 428.642C92.4963 443.836 71.9227 471.373 97.7735 474.734C127.913 478.653 146.298 452.171 176.626 472.95C193.07 484.216 206.636 496.88 225.158 505.671C277.015 530.284 293.254 476.197 341.236 484.098C366.72 488.294 385.618 523.569 414.069 512.61C439.903 502.659 451.572 469.616 481.631 460.752C523.176 448.501 547.911 480.828 586.272 480.422C617.407 478.88 645.414 443.46 672.161 433.625C700.318 423.271 731.308 443.747 756.599 432.965C792.641 417.6 782.165 380.185 801.371 355.728C812.347 341.752 841.811 340.929 850.171 323.426C861.857 119.545 634.822 -19.7962 401.248 2.30039C155.368 26.0455 -70.2906 183.223 20.5212 428.642Z" sodipodi:nodetypes="cccccccccccccc"/><path id="shape02" transform="translate(302.358438531224, 187.778488677595)" fill="#fefefe" fill-rule="evenodd" stroke="#876344" stroke-width="14.9999999999988" stroke-linecap="square" stroke-linejoin="bevel" d="M141.517 1.41603C84.5647 5.0623 -24.8473 48.4782 5.09371 130.52C26.5501 175.351 279.258 148.166 289.575 92.6056C303.463 16.4605 200.026 -6.27974 141.517 1.41603Z" sodipodi:nodetypes="cccc"/><path id="shape1" transform="translate(329.129076046772, 116.226365410767)" fill="#c65353" fill-rule="evenodd" stroke="#ad4646" stroke-width="14.9999999999988" stroke-linecap="square" stroke-linejoin="bevel" d="M45.272 8.51584e-05C41.5071 -0.0795467 -1.46041 55.7147 0.038295 58.4987C4.05514 62.7498 56.1709 55.3141 58.1077 52.5845C60.9678 48.2756 47.8883 0.0582963 45.272 8.51584e-05Z" sodipodi:nodetypes="cccc"/><path id="shape03" transform="matrix(0.797236839729122 0.603666647561988 -0.603666647561988 0.797236839729122 237.3473099229 221.644686563286)" fill="#c65353" fill-rule="evenodd" stroke="#ad4646" stroke-width="14.9999999999988" stroke-linecap="square" stroke-linejoin="bevel" d="M34.1804 6.49669e-05C31.3379 -0.0606858 -1.10261 42.5045 0.0289127 44.6284C3.06164 47.8715 42.4091 42.1988 43.8714 40.1164C46.0308 36.8292 36.1557 0.0444739 34.1804 6.49669e-05Z" sodipodi:nodetypes="cccc"/><path id="shape04" transform="matrix(0.0152169095111149 -0.999884216129526 0.999884216129526 0.0152169095111149 86.7143812981641 378.41392130472)" fill="#c65353" fill-rule="evenodd" stroke="#ad4646" stroke-width="14.9999999999988" stroke-linecap="square" stroke-linejoin="bevel" d="M38.6393 7.2682e-05C35.426 -0.0678925 -1.24645 47.5521 0.0326844 49.9282C3.46103 53.5565 47.9414 47.2102 49.5945 44.8805C52.0356 41.2029 40.8723 0.0497554 38.6393 7.2682e-05Z" sodipodi:nodetypes="cccc"/><path id="shape05" transform="matrix(0.972423292222391 -0.23322294214629 0.23322294214629 0.972423292222391 195.437935900835 409.806901777885)" fill="#c65353" fill-rule="evenodd" stroke="#ad4646" stroke-width="14.9999999999988" stroke-linecap="square" stroke-linejoin="bevel" d="M49.8104 9.36952e-05C45.6681 -0.087521 -1.60681 61.2999 0.0421339 64.363C4.46166 69.0403 61.8019 60.8592 63.9328 57.8559C67.0796 53.1151 52.689 0.0641403 49.8104 9.36952e-05Z" sodipodi:nodetypes="cccc"/><path id="shape06" transform="matrix(0.355513585287755 0.934671113641508 -0.934671113641508 0.355513585287755 426.236554225613 425.24537296585)" fill="#c65353" fill-rule="evenodd" stroke="#ad4646" stroke-width="14.9999999999988" stroke-linecap="square" stroke-linejoin="bevel" d="M26.5397 4.99221e-05C24.3326 -0.0466324 -0.856132 32.6615 0.0224495 34.2935C2.37723 36.7856 32.9289 32.4266 34.0643 30.8264C35.741 28.3005 28.0734 0.0341749 26.5397 4.99221e-05Z" sodipodi:nodetypes="cccc"/><path id="shape07" transform="translate(530.032175150068, 406.583845094074)" fill="#c65353" fill-rule="evenodd" stroke="#ad4646" stroke-width="14.9999999999988" stroke-linecap="square" stroke-linejoin="bevel" d="M35.4328 6.66504e-05C32.4861 -0.0622583 -1.14301 43.6059 0.0299721 45.7848C3.17381 49.112 43.9629 43.2924 45.4788 41.156C47.7173 37.7836 37.4804 0.0456264 35.4328 6.66504e-05Z" sodipodi:nodetypes="cccc"/><path id="shape08" transform="matrix(0.296891730537001 0.954911147876474 -0.954911147876474 0.296891730537001 676.298271346688 329.802574978289)" fill="#c65353" fill-rule="evenodd" stroke="#ad4646" stroke-width="14.9999999999988" stroke-linecap="square" stroke-linejoin="bevel" d="M45.272 8.51584e-05C41.5071 -0.0795467 -1.46041 55.7147 0.0382949 58.4987C4.05514 62.7498 56.1709 55.3141 58.1077 52.5845C60.9678 48.2756 47.8883 0.0582963 45.272 8.51584e-05Z" sodipodi:nodetypes="cccc"/><path id="shape09" transform="matrix(0.668962329948481 -0.743296307746729 0.743296307746729 0.668962329948481 694.664141397156 293.859606512341)" fill="#c65353" fill-rule="evenodd" stroke="#ad4646" stroke-width="14.9999999999988" stroke-linecap="square" stroke-linejoin="bevel" d="M37.3273 7.02141e-05C34.2231 -0.0655872 -1.20413 45.9374 0.0315746 48.2329C3.34351 51.7379 46.3136 45.6071 47.9105 43.3565C50.2687 39.8038 39.4845 0.048066 37.3273 7.02141e-05Z" sodipodi:nodetypes="cccc"/><path id="shape010" transform="matrix(-0.54905753567534 -0.835784555084708 0.835784555084708 -0.54905753567534 639.517508635996 238.050529011034)" fill="#c65353" fill-rule="evenodd" stroke="#ad4646" stroke-width="14.9999999999988" stroke-linecap="square" stroke-linejoin="bevel" d="M61.5131 0.000115709C56.3976 -0.108084 -1.98433 75.7021 0.0520331 79.4849C5.5099 85.261 76.322 75.1578 78.9536 71.449C82.8397 65.5943 65.068 0.0792099 61.5131 0.000115709Z" sodipodi:nodetypes="cccc"/><path id="shape011" transform="matrix(-0.579717229866332 0.814817730167999 -0.814817730167999 -0.579717229866332 539.506882002823 127.432816634366)" fill="#c65353" fill-rule="evenodd" stroke="#ad4646" stroke-width="14.9999999999988" stroke-linecap="square" stroke-linejoin="bevel" d="M36.496 6.86503e-05C33.4609 -0.0641264 -1.17731 44.9143 0.0308714 47.1586C3.26904 50.5857 45.2821 44.5914 46.8434 42.3909C49.1491 38.9173 38.6051 0.0469955 36.496 6.86503e-05Z" sodipodi:nodetypes="cccc"/><path id="shape012" transform="matrix(-0.994753947736972 0.10229654667548 -0.10229654667548 -0.994753947736972 204.954316350822 191.324073200799)" fill="#c65353" fill-rule="evenodd" stroke="#ad4646" stroke-width="14.9999999999988" stroke-linecap="square" stroke-linejoin="bevel" d="M27.5572 5.18361e-05C25.2655 -0.0484202 -0.888954 33.9136 0.0233102 35.6083C2.46837 38.1959 34.1913 33.6698 35.3703 32.0083C37.1112 29.3855 29.1497 0.0354851 27.5572 5.18361e-05Z" sodipodi:nodetypes="cccc"/>
</svg>
