<?xml version="1.0" standalone="no"?>
<!DOCTYPE svg PUBLIC "-//W3C//DTD SVG 20010904//EN" "http://www.w3.org/TR/2001/REC-SVG-20010904/DTD/svg10.dtd">
<!-- Created using Krita: https://krita.org -->
<svg xmlns="http://www.w3.org/2000/svg" 
    xmlns:xlink="http://www.w3.org/1999/xlink"
    xmlns:krita="http://krita.org/namespaces/svg/krita"
    xmlns:sodipodi="http://sodipodi.sourceforge.net/DTD/sodipodi-0.dtd"
    width="965pt"
    height="721pt"
    viewBox="0 0 965 721">
<defs/>
<path id="shape0" transform="translate(28.6836650277464, 394.22781890033)" fill="#fdfaf0" fill-rule="evenodd" stroke="none" stroke-width="19.9999999999984" stroke-linecap="square" stroke-linejoin="bevel" d="M0 134.952C7.14647 296.537 376.079 296.952 467.604 296.519C557.616 296.936 874.226 263.137 899.93 135.729C874.366 -36.8972 656.22 4.88084 453.816 3.4789C254.002 7.57904 26.884 -10.0899 0 134.952Z" sodipodi:nodetypes="ccccc"/><path id="shape1" transform="matrix(0.999090894352744 0.0426307966317917 -0.0426307966317917 0.999090894352744 223.09051698795 21.1905110968075)" fill="#f9e6a9" fill-rule="evenodd" stroke="#876344" stroke-width="19.9999999999984" stroke-linecap="round" stroke-linejoin="bevel" d="M25.5455 519.943C119.357 553.689 437.733 561.26 554.063 486.175C575.393 418.217 504.45 133.218 439.631 5.6829C356.855 -11.7336 97.157 15.2707 48.1044 27.9401C9.09808 207.364 -25.329 480.74 25.5455 519.943Z" sodipodi:nodetypes="ccccc"/><path id="shape01" transform="matrix(0.999090894352744 0.0426307966317917 -0.0426307966317917 0.999090894352744 250.340754289568 22.2500457454706)" fill="#876344" stroke="none" stroke-width="19.9999999999984" stroke-linecap="round" stroke-linejoin="bevel" d="M21.2945 29.7027C19.4596 49.6509 -4.49266 124.441 0.747923 145.565C12.1937 160.792 38.9402 153.639 56.0847 171.337C74.3177 184.391 72.8577 223.506 104.429 226.897C145.67 231.011 147.879 120.535 192.164 131.171C287.971 154.385 180.452 374.688 270.867 371.193C372.126 364.522 260.849 235.957 299.793 208.507C337.407 188.188 347.534 275.536 376.231 270.454C409.348 267.73 397.93 211.51 434.924 205.347C446.273 204.496 470.564 219.359 480.975 195.501C478.322 170.58 430.471 38.9016 412.971 8.69055C374.089 -14.6152 37.2852 14.6841 21.2945 29.7027Z" sodipodi:nodetypes="cccccccccccc"/><path id="shape2" transform="matrix(0.999090894352744 0.0426307966317917 -0.0426307966317917 0.999090894352744 38.5555116679122 370.703275954769)" fill="none" stroke="#876344" stroke-width="19.9999999999984" stroke-linecap="round" stroke-linejoin="bevel" d="M131.162 35.3011C120.564 34.6961 -4.35295 80.5688 0.117112 158.168C6.35039 382.021 901.542 320.823 892.228 115.573C887.037 36.0213 769.562 -0.420349 758.152 0.00365629" sodipodi:nodetypes="cccc"/>
</svg>
