<?xml version="1.0" standalone="no"?>
<!DOCTYPE svg PUBLIC "-//W3C//DTD SVG 20010904//EN" "http://www.w3.org/TR/2001/REC-SVG-20010904/DTD/svg10.dtd">
<!-- Created using Krita: https://krita.org -->
<svg xmlns="http://www.w3.org/2000/svg" 
    xmlns:xlink="http://www.w3.org/1999/xlink"
    xmlns:krita="http://krita.org/namespaces/svg/krita"
    xmlns:sodipodi="http://sodipodi.sourceforge.net/DTD/sodipodi-0.dtd"
    width="808pt"
    height="852pt"
    viewBox="0 0 808 852">
<defs/>
<path id="shape0" transform="matrix(-0.00395688296967073 -0.999992171507953 0.999992171507953 -0.00395688296967073 98.497019367007 821.463873723813)" fill="#fdfaf0" stroke="#f7f2df" stroke-width="19.9999999999984" stroke-linecap="square" stroke-linejoin="bevel" d="M270.574 0.0432946C253.189 -2.24669 19.745 86.968 0.0335211 110.535C-0.743013 124.01 12.2282 527.22 12.3742 542.769C33.0322 570.703 268.81 624.189 284.951 624.127C346.765 531.128 323.796 131.571 270.574 0.0432946Z" sodipodi:nodetypes="ccccc"/><path id="shape1" transform="matrix(-0.00395688296967073 -0.999992171507953 0.999992171507953 -0.00395688296967073 182.706486857674 775.423522032619)" fill="none" stroke="#f7f2df" stroke-width="19.9999999999984" stroke-linecap="square" stroke-linejoin="bevel" d="M167.872 0C128.682 15.6286 31.2798 49.2965 0 57.7584" sodipodi:nodetypes="cc"/><path id="shape2" transform="matrix(-0.00395688296967073 -0.999992171507953 0.999992171507953 -0.00395688296967073 254.532066627533 761.526285379824)" fill="none" stroke="#f7f2df" stroke-width="19.9999999999984" stroke-linecap="square" stroke-linejoin="bevel" d="M165.263 0C139.316 11.3244 27.6384 43.207 0 46.8174" sodipodi:nodetypes="cc"/><path id="shape3" transform="matrix(-0.00395688296967073 -0.999992171507953 0.999992171507953 -0.00395688296967073 334.873420077952 761.653667553686)" fill="none" stroke="#f7f2df" stroke-width="19.9999999999984" stroke-linecap="square" stroke-linejoin="bevel" d="M167.872 0C154.585 1.79767 13.2592 25.9294 0 27.289" sodipodi:nodetypes="cc"/><path id="shape4" transform="matrix(-0.00395688296967073 -0.999992171507953 0.999992171507953 -0.00395688296967073 408.835386318811 757.162595600414)" fill="none" stroke="#f7f2df" stroke-width="19.9999999999984" stroke-linecap="square" stroke-linejoin="bevel" d="M171.625 0C153.215 0.236986 19.5668 3.49464 0 4.70719" sodipodi:nodetypes="cc"/><path id="shape5" transform="matrix(-0.00395688296967073 -0.999992171507953 0.999992171507953 -0.00395688296967073 484.03784779247 763.480703583718)" fill="none" stroke="#f7f2df" stroke-width="19.9999999999984" stroke-linecap="square" stroke-linejoin="bevel" d="M175.823 13.1147C159.415 10.2598 21.003 -0.38745 0 0.010887" sodipodi:nodetypes="cc"/><path id="shape6" transform="matrix(-0.00395688296967073 -0.999992171507953 0.999992171507953 -0.00395688296967073 552.936398497122 751.885091197172)" fill="none" stroke="#f7f2df" stroke-width="19.9999999999984" stroke-linecap="square" stroke-linejoin="bevel" d="M174.869 14.0152C134.284 3.58821 36.6603 -3.56734 0 1.86562" sodipodi:nodetypes="cc"/><path id="shape7" transform="matrix(-0.00395688296967073 -0.999992171507953 0.999992171507953 -0.00395688296967073 611.19631902224 760.687506191386)" fill="none" stroke="#f7f2df" stroke-width="19.9999999999984" stroke-linecap="square" stroke-linejoin="bevel" d="M174.36 35.4311C140.051 16.1983 33.725 1.98956 0 0" sodipodi:nodetypes="cc"/><path id="shape01" transform="matrix(-0.00395688296967073 -0.999992171507953 0.999992171507953 -0.00395688296967073 29.7258071739976 583.901721667304)" fill="#ddcbad" fill-rule="evenodd" stroke="#f7f2df" stroke-width="19.9999999999984" stroke-linecap="square" stroke-linejoin="bevel" d="M32.3604 8.52525C248.661 -38.9598 468.204 114.903 469.437 395.669C472.577 670.575 239.245 779.691 59.459 743.482C-25.2431 725.203 83.6346 613.323 58.2504 557.294C51.7579 533.737 26.3887 514.363 25.3631 472.692C24.5964 430.127 68.7707 394.289 51.3803 340.064C-3.32008 239.485 23.4158 167.103 36.6223 127.541C46.0636 88.6561 -47.1447 38.887 32.3604 8.52525Z" sodipodi:nodetypes="cccccccc"/><path id="shape02" transform="matrix(-0.00395688296967073 -0.999992171507953 0.999992171507953 -0.00395688296967073 305.929885209853 214.951929601128)" fill="#fdfaf0" fill-rule="evenodd" stroke="#f7f2df" stroke-width="19.9999999999984" stroke-linecap="square" stroke-linejoin="bevel" d="M107.244 0C90.2846 1.44617 12.2603 52.7087 3.11191 71.3711C-2.78073 83.3919 1.27324 120.392 2.53941 136.318C8.64139 157.897 77.3292 214.207 87.7156 217.039C101.257 213.781 167.05 211.48 181.67 185.934C180.883 117.202 124.744 9.80834 107.244 0Z" sodipodi:nodetypes="cccccc"/><path id="shape11" transform="matrix(-0.00395688296967073 -0.999992171507953 0.999992171507953 -0.00395688296967073 159.725722638359 273.994452409302)" fill="#c6d8ff" fill-rule="evenodd" stroke-opacity="0" stroke="#000000" stroke-width="0" stroke-linecap="square" stroke-linejoin="bevel" d="M32.6321 3.75801C22.0973 -9.45834 -18.8105 14.3082 10.2408 41.988C19.5966 54.3956 62.7784 53.0585 32.6321 3.75801Z" sodipodi:nodetypes="ccc"/><path id="shape011" transform="matrix(-0.00395688296967073 -0.999992171507953 0.999992171507953 -0.00395688296967073 346.531793387444 446.939953511172)" fill="#cca88a" fill-rule="evenodd" stroke-opacity="0" stroke="#000000" stroke-width="0" stroke-linecap="square" stroke-linejoin="bevel" d="M30.3652 0.0730014C-3.32421 -1.5026 -3.7113 22.7729 4.2844 39.3843C14.7216 48.4843 54.4516 38.1144 30.3652 0.0730014Z" sodipodi:nodetypes="ccc"/><path id="shape021" transform="matrix(-0.00395688296967073 -0.999992171507953 0.999992171507953 -0.00395688296967073 129.155492979127 489.429250800366)" fill="#f2b885" fill-rule="evenodd" stroke-opacity="0" stroke="#000000" stroke-width="0" stroke-linecap="square" stroke-linejoin="bevel" d="M35.8488 4.14066C6.42135 -10.0934 -15.3393 14.7546 13.7119 42.4343C26.63 59.4219 75.5368 14.3842 35.8488 4.14066Z" sodipodi:nodetypes="ccc"/><path id="shape03" transform="matrix(-0.00395688296967073 -0.999992171507953 0.999992171507953 -0.00395688296967073 221.848568020764 379.818092143822)" fill="#facccc" fill-rule="evenodd" stroke-opacity="0" stroke="#000000" stroke-width="0" stroke-linecap="square" stroke-linejoin="bevel" d="M35.127 1.02364C10.0252 -4.30499 -16.3155 11.5739 12.7357 39.2536C22.0915 51.6613 65.2733 50.3241 35.127 1.02364Z" sodipodi:nodetypes="ccc"/><path id="shape04" transform="matrix(-0.00395688296967073 -0.999992171507953 0.999992171507953 -0.00395688296967073 416.656085492136 350.990895933834)" fill="#c6d8ff" fill-rule="evenodd" stroke-opacity="0" stroke="#000000" stroke-width="0" stroke-linecap="square" stroke-linejoin="bevel" d="M35.9007 7.82048C11.117 -15.5099 -16.6232 18.1701 12.428 45.8498C21.7838 58.2575 61.0853 31.0406 35.9007 7.82048Z" sodipodi:nodetypes="ccc"/><path id="shape05" transform="matrix(-0.00395688296967073 -0.999992171507953 0.999992171507953 -0.00395688296967073 498.299403047898 488.460844174414)" fill="#e7c9f1" fill-rule="evenodd" stroke-opacity="0" stroke="#000000" stroke-width="0" stroke-linecap="square" stroke-linejoin="bevel" d="M43.2885 0.691104C18.1867 -4.63753 -26.2833 22.1188 20.5156 37.3308C55.2525 44.3316 59.0586 24.0384 43.2885 0.691104Z" sodipodi:nodetypes="ccc"/><path id="shape06" transform="matrix(-0.00395688296967073 -0.999992171507953 0.999992171507953 -0.00395688296967073 548.781261876017 370.348500368058)" fill="#cca88a" fill-rule="evenodd" stroke-opacity="0" stroke="#000000" stroke-width="0" stroke-linecap="square" stroke-linejoin="bevel" d="M35.2344 4.44742C10.5779 -11.1861 -16.4625 17.2877 12.5887 44.9674C23.5348 36.32 65.3807 53.7479 35.2344 4.44742Z" sodipodi:nodetypes="ccc"/><path id="shape07" transform="matrix(-0.00395688296967073 -0.999992171507953 0.999992171507953 -0.00395688296967073 567.499163510345 267.123802477841)" fill="#f2b885" fill-rule="evenodd" stroke-opacity="0" stroke="#000000" stroke-width="0" stroke-linecap="square" stroke-linejoin="bevel" d="M37.1076 5.5494C11.2425 -13.6463 -18.7241 21.3794 15.098 43.3977C35.077 61.4031 65.3456 28.197 37.1076 5.5494Z" sodipodi:nodetypes="ccc"/><path id="shape08" transform="matrix(-0.00395688296967073 -0.999992171507953 0.999992171507953 -0.00395688296967073 651.786630441706 467.302732190093)" fill="#c6f8f8" fill-rule="evenodd" stroke-opacity="0" stroke="#000000" stroke-width="0" stroke-linecap="square" stroke-linejoin="bevel" d="M22.8015 8.50152C11.1218 -12.3481 -2.75101 6.96576 0.473807 46.6679C4.42261 73.5152 52.9478 57.802 22.8015 8.50152Z" sodipodi:nodetypes="ccc"/>
</svg>
