<?xml version="1.0" standalone="no"?>
<!DOCTYPE svg PUBLIC "-//W3C//DTD SVG 20010904//EN" "http://www.w3.org/TR/2001/REC-SVG-20010904/DTD/svg10.dtd">
<!-- Created using Krita: https://krita.org -->
<svg xmlns="http://www.w3.org/2000/svg" 
    xmlns:xlink="http://www.w3.org/1999/xlink"
    xmlns:krita="http://krita.org/namespaces/svg/krita"
    xmlns:sodipodi="http://sodipodi.sourceforge.net/DTD/sodipodi-0.dtd"
    width="934pt"
    height="602pt"
    viewBox="0 0 934 602">
<defs/>
<path id="shape0" transform="matrix(0.999999473203793 0.00102644638153803 -0.00102644638153803 0.999999473203793 416.553635671746 75.2374578443189)" fill="#ffffff" fill-rule="evenodd" stroke="#f7f2df" stroke-width="19.9999999999984" stroke-linecap="square" stroke-linejoin="bevel" d="M51.072 0C15.3095 17.4641 12.32 52.1014 0 76.377C30.8911 93.9727 405.544 322.791 424.131 332.442C450.149 320.243 456.444 292.714 467.171 262.229C447.832 245.184 75.6767 15.8957 51.072 0Z" sodipodi:nodetypes="ccccc"/><path id="shape1" transform="matrix(0.999939044546013 0.0110411590178788 -0.0110411590178788 0.999939044546013 419.286992994018 31.8738627968278)" fill="#fc797e" fill-rule="evenodd" stroke="#c65353" stroke-width="19.9999999999984" stroke-linecap="square" stroke-linejoin="bevel" d="M40.3215 28.7277C31.2656 37.7837 -1.76276 29.6361 0.0736592 48.0007C0.312056 50.3847 30.0686 61.0624 41.1387 69.1806C49.1451 75.0521 53.8279 89.6423 62.2501 93.6975C71.123 97.9697 80.6645 96.1938 89.763 101.393C107.545 111.554 119.67 134.514 136.549 147.498C150.582 158.294 167.447 159.27 182.176 167.248C193.998 173.652 203.236 188.713 214.116 196.873C248.495 208.679 271.32 236.856 303.192 241.835C318.219 249.022 331.244 267.415 346.096 276.417C354.3 281.389 363.272 278.044 374.631 283.363C394.54 292.142 394.127 299.926 411.201 313.464C429.304 318.68 455.033 324.089 464.184 337.641C468.507 343.376 485.189 350.686 487.815 344.383C493.525 330.68 474.915 318.087 476.238 303.317C479.081 271.566 487.304 254.857 475.148 220.641C444.846 135.345 208.295 8.03612 138.796 0.465149C86.3672 -3.9952 49.4809 24.9983 40.3215 28.7277Z" sodipodi:nodetypes="cccccccccccccccccc"/><path id="shape01" transform="matrix(-0.999974243239389 0.0071772458401727 -0.0071772458401727 -0.999974243239389 878.65598659998 459.017877963535)" fill="#fc797e" stroke="#c65353" stroke-width="19.9999999999984" stroke-linecap="square" stroke-linejoin="bevel" d="M39.2739 28.44C30.218 37.496 -1.76044 34.1926 0.0759759 52.5571C1.19575 55.425 26.2513 58.0278 37.3214 66.146C45.3278 72.0175 49.3224 79.1789 61.202 85.1692C70.0749 89.4412 89.2792 88.6299 99.7754 97.7904C117.557 107.952 126.633 120.74 143.512 133.724C157.545 144.519 174.41 145.495 189.139 153.474C200.961 159.877 210.199 174.938 221.079 183.098C255.458 194.905 255.701 211.318 287.573 216.297C302.6 223.484 319.247 232.1 332.878 248.719C341.082 253.691 352.846 258.747 364.205 264.065C384.114 272.844 377.984 288.481 395.058 302.02C413.161 307.235 437.662 306.096 446.813 319.648C451.136 325.384 463.34 362.283 474.826 355.234C480.536 341.531 470.536 317.092 471.859 302.321C473.924 274.106 481.213 252.535 469.057 218.319C438.756 133.023 222.564 28.7791 138.423 1.5946C84.3976 -7.44188 48.4333 24.7106 39.2739 28.44Z" sodipodi:nodetypes="cccccccccccccccccc"/><path id="shape2" transform="matrix(0.999939044546013 0.0110411590178788 -0.0110411590178788 0.999939044546013 481.634678078443 85.0609654371685)" fill="none" stroke="#c65353" stroke-width="14.9999999999988" stroke-linecap="round" stroke-linejoin="bevel" d="M0 0C24.8337 0 17.9358 13.5115 34.0506 24.5169C47.9938 34.0392 52.887 30.798 67.9651 38.8184C73.2512 41.6303 80.8925 56.9217 84.9223 60.4069C91.595 66.1781 101.054 62.0035 108.077 66.8086C117.689 73.3853 122.337 83.4547 132.185 90.985C142.035 98.5179 153.255 98.9386 163.988 105.014C171.334 109.173 174.667 118.119 181.558 123.334C186.925 127.395 201.284 126.927 206.619 130.484C220.574 139.674 222.953 148.776 236.243 157.998C245.717 164.572 264.908 167.919 274.312 173.048C288.525 180.801 300.904 198.972 317.352 206.283" sodipodi:nodetypes="cccccccccccc"/><path id="shape3" transform="matrix(0.999999473203793 0.00102644638153803 -0.00102644638153803 0.999999473203793 442.598431102551 178.609810558438)" fill="none" stroke="#c65353" stroke-width="14.9999999999988" stroke-linecap="round" stroke-linejoin="bevel" d="M0 0C9.87468 18.074 47.2661 35.7915 59.9251 47.6718C69.5394 56.6946 92.3499 69.0132 103.238 76.8196C115.344 85.5 124.471 84.336 136.062 91.8703C141.724 95.5505 144.611 104.963 149.478 109.1C159.021 117.211 163.145 113.637 173.518 118.294C179.764 122.94 183.986 130.918 191.429 134.707C199.555 138.844 208.552 135.09 215.741 140.972C224.348 148.015 227.219 157.81 236.444 164.059C243.579 168.892 255.142 165.463 262.118 169.848C268.49 173.853 269.313 185.028 278.666 186.941C285.476 188.334 293.484 189.718 300.118 193.888C304.557 197.163 316.205 207.019 320.14 210.573" sodipodi:nodetypes="ccccccccccccc"/><path id="shape02" transform="matrix(0.785062221613274 -0.619416909839834 0.619416909839834 0.785062221613274 32.1189824207655 417.555094468209)" fill="#ffffff" fill-rule="evenodd" stroke="#6bc4c4" stroke-width="19.9999999999984" stroke-linecap="square" stroke-linejoin="bevel" d="M51.072 0C15.3095 17.4641 12.32 52.1014 0 76.377C30.8911 93.9727 431.186 332.77 449.773 342.421C475.791 330.222 484.177 307.309 494.904 276.824C475.565 259.779 75.6767 15.8957 51.072 0Z" sodipodi:nodetypes="ccccc"/><path id="shape4" transform="matrix(0.987964115780813 -0.154683243854841 0.154683243854841 0.987964115780813 14.7360207823059 273.382560486449)" fill="#88dbdb" fill-rule="evenodd" stroke="#6bc4c4" stroke-width="19.9999999999984" stroke-linecap="round" stroke-linejoin="bevel" d="M29.6404 99.5582C48.3001 2.98244 213.916 -2.41287 304.906 0.571175C390.964 4.0713 547.611 14.6256 574.382 113.091C581.073 125.277 601.369 146.414 600.261 160.816C598.804 179.756 571.432 156.374 560.966 159.863C549.881 163.558 532.67 166.803 522.421 165.72C490.417 146.517 500.983 173.591 471.958 165.72C464.034 163.571 458.444 154.628 448.535 153.802C432.367 152.262 416.475 162.227 400.928 158.569C392.931 156.687 383.742 148.149 375.254 148.149C360.592 148.149 347.379 159.727 333.236 159.727C323.572 159.727 317.705 147.919 306.472 148.694C293.048 149.62 283.576 164.74 272.013 164.017C262.984 163.453 260.326 150.453 250.901 149.443C232.956 147.521 218.332 161.52 201.8 162.11C189.662 162.544 188.52 151.114 179.804 149.103C168.116 146.405 164.839 158.643 146.162 160.272C135.75 162.094 131.139 150.157 123.007 149.171C111.47 147.772 105.034 156.201 95.0857 157.956C75.8719 161.347 66.7265 149.685 49.6621 148.762C39.6881 148.223 -8.72407 169.915 1.37833 135.278C3.54492 127.849 22.2769 108.08 29.6404 99.5582Z" sodipodi:nodetypes="cccccccccccccccccccccc"/><path id="shape5" transform="matrix(0.987964115780813 -0.154683243854841 0.154683243854841 0.987964115780813 38.1855178836991 449.581844241873)" fill="#88dbdb" fill-rule="evenodd" stroke="#6bc4c4" stroke-width="19.9999999999984" stroke-linecap="round" stroke-linejoin="bevel" d="M20.7549 0C20.7549 4.86545 -2.08286 12.1292 0.154241 23.5635C3.54143 40.8761 27.9214 42.3264 34.4773 54.3458C54.435 158.107 214.319 158.296 301.911 162.629C384.918 164.86 542.214 172.867 560.491 60.8155C574.783 53.2753 587.493 53.7782 595.359 42.4279C589.339 17.6 572.106 18.1987 553.341 23.3592C450.591 27.7516 366.626 25.7927 324.521 16.2084C304.412 27.9504 284.096 15.1131 261.255 18.6601C230.344 31.3226 215.293 9.01179 190.906 13.961C155.382 28.0293 126.78 6.36704 96.9261 9.33004C77.3394 13.6487 60.0294 13.4197 47.757 10.3516C41.8008 8.82845 16.4884 1.70664 20.7549 0Z" sodipodi:nodetypes="ccccccccccccc"/><path id="shape6" transform="matrix(0.987964115780813 -0.154683243854841 0.154683243854841 0.987964115780813 87.7647483255546 368.957407909939)" fill="none" stroke="#6bc4c4" stroke-width="14.9999999999988" stroke-linecap="round" stroke-linejoin="bevel" d="M0 9.12542C0 14.7369 8.83764 -1.40572 14.2332 0.135885C22.6704 2.54656 28.6523 9.52792 36.6385 12.19C54.7038 18.2119 69.5468 5.24885 87.3058 3.47291C95.3748 2.66599 101.018 11.4622 108.145 10.2151C120.954 7.97337 137.652 -1.5006 150.436 0.203988C160.541 1.55141 168.226 10.327 179.311 11.1004C188.634 11.7509 195.663 4.3269 204.576 3.40481C213.515 2.48009 238.064 22.0449 252.111 5.65219C260.042 6.58533 270.792 16.4805 279.283 16.4805C290.396 16.4805 300.775 8.62939 312.244 7.96767C329.037 6.99887 346.655 24.5693 367.406 24.2584C375.879 12.5971 400.718 23.8767 407.45 19.0684" sodipodi:nodetypes="ccccccccccccc"/><path id="shape7" transform="matrix(0.987964115780813 -0.154683243854841 0.154683243854841 0.987964115780813 100.054570002841 479.022886951005)" fill="none" stroke="#6bc4c4" stroke-width="14.9999999999988" stroke-linecap="round" stroke-linejoin="bevel" d="M0 0C23.4071 0 27.0975 10.2518 52.0975 12.3947C61.5713 13.2067 83.7441 7.93297 92.2091 10.3516C101.274 12.9417 112.16 18.5953 120.948 19.5454C133.319 20.8829 142.652 10.3428 156.769 10.8964C166.681 8.61844 177.078 23.5085 185.508 22.3376C197.971 19.0706 204.221 16.6606 217.788 16.0041C225.856 15.6137 250.637 27.1763 266.208 18.3196C273.405 20.1972 286.9 23.8282 293.448 24.7212C303.718 26.1217 316.008 13.7945 333.083 14.7782C344.561 11.6207 355.764 20.6939 374.966 21.3161C383.378 12.9824 407.054 13.8248 427.271 15.936" sodipodi:nodetypes="cccccccccccc"/>
</svg>
