<?xml version="1.0" standalone="no"?>
<!DOCTYPE svg PUBLIC "-//W3C//DTD SVG 20010904//EN" "http://www.w3.org/TR/2001/REC-SVG-20010904/DTD/svg10.dtd">
<!-- Created using Krita: https://krita.org -->
<svg xmlns="http://www.w3.org/2000/svg" 
    xmlns:xlink="http://www.w3.org/1999/xlink"
    xmlns:krita="http://krita.org/namespaces/svg/krita"
    xmlns:sodipodi="http://sodipodi.sourceforge.net/DTD/sodipodi-0.dtd"
    width="808pt"
    height="852pt"
    viewBox="0 0 808 852">
<defs/>
<path id="shape0" transform="matrix(0.0158930046886249 -0.99987369822486 0.99987369822486 0.0158930046886249 90.5687842307557 815.282004485019)" fill="#fefefe" stroke="#876344" stroke-width="14.9999999999988" stroke-linecap="square" stroke-linejoin="bevel" d="M270.574 0.0432946C253.189 -2.24669 19.745 86.968 0.0335211 110.535C-0.743013 124.01 12.2282 527.22 12.3742 542.769C33.0322 570.703 268.81 624.189 284.951 624.127C346.765 531.128 323.796 131.571 270.574 0.0432946Z" sodipodi:nodetypes="ccccc"/><path id="shape1" transform="matrix(0.0158930046886249 -0.99987369822486 0.99987369822486 0.0158930046886249 182.431577338778 779.023263403937)" fill="none" stroke="#876344" stroke-width="9.99999999999919" stroke-linecap="square" stroke-linejoin="bevel" d="M158.36 0C119.17 15.6286 31.2798 45.6814 0 54.1433" sodipodi:nodetypes="cc"/><path id="shape2" transform="matrix(0.0158930046886249 -0.99987369822486 0.99987369822486 0.0158930046886249 254.115754631395 781.393836104548)" fill="none" stroke="#876344" stroke-width="9.99999999999919" stroke-linecap="square" stroke-linejoin="bevel" d="M165.263 0C139.316 11.3244 27.6384 43.207 0 46.8174" sodipodi:nodetypes="cc"/><path id="shape3" transform="matrix(0.0158930046886249 -0.99987369822486 0.99987369822486 0.0158930046886249 330.676362728509 777.564276968412)" fill="none" stroke="#876344" stroke-width="9.99999999999919" stroke-linecap="square" stroke-linejoin="bevel" d="M167.872 0C154.585 1.79767 13.2592 25.9294 0 27.289" sodipodi:nodetypes="cc"/><path id="shape4" transform="matrix(0.0158930046886249 -0.99987369822486 0.99987369822486 0.0158930046886249 411.19949360271 779.051856827607)" fill="none" stroke="#876344" stroke-width="9.99999999999919" stroke-linecap="square" stroke-linejoin="bevel" d="M171.625 0C153.215 0.236986 19.5668 3.49464 0 4.70719" sodipodi:nodetypes="cc"/><path id="shape5" transform="matrix(0.0158930046886249 -0.99987369822486 0.99987369822486 0.0158930046886249 479.169938951299 783.392099952691)" fill="none" stroke="#876344" stroke-width="9.99999999999919" stroke-linecap="square" stroke-linejoin="bevel" d="M175.823 13.1147C159.415 10.2598 21.003 -0.38745 0 0.010887" sodipodi:nodetypes="cc"/><path id="shape6" transform="matrix(0.0158930046886249 -0.99987369822486 0.99987369822486 0.0158930046886249 544.651528191512 777.618547647894)" fill="none" stroke="#876344" stroke-width="9.99999999999919" stroke-linecap="square" stroke-linejoin="bevel" d="M174.869 12.5059C139.828 7.42409 39.9131 -1.94057 0 0.356312" sodipodi:nodetypes="cc"/><path id="shape7" transform="matrix(0.0158930046886249 -0.99987369822486 0.99987369822486 0.0158930046886249 605.128360120735 778.195048456266)" fill="none" stroke="#876344" stroke-width="9.99999999999919" stroke-linecap="square" stroke-linejoin="bevel" d="M174.36 35.4311C140.051 16.1983 33.725 1.98956 0 0" sodipodi:nodetypes="cc"/><path id="shape01" transform="matrix(0.0158930046886249 -0.99987369822486 0.99987369822486 0.0158930046886249 34.7441325899603 573.2554934964)" fill="#f2e7c4" fill-rule="evenodd" stroke="#876344" stroke-width="14.9999999999988" stroke-linecap="square" stroke-linejoin="bevel" d="M51.2067 8.87573C267.507 -38.6093 465.459 106.84 466.692 387.606C469.832 662.512 250.469 767.738 70.6832 731.529C-11.5821 706.685 24.4735 455.974 21.3013 390.263C19.6169 332.265 -41.4652 25.0129 51.2067 8.87573Z" sodipodi:nodetypes="ccccc"/><path id="shape8" transform="matrix(0.999802983962022 0.0198492634786927 -0.0198492634786927 0.999802983962022 38.9725437099912 102.367573120582)" fill="#fdfaf0" fill-rule="evenodd" stroke="#876344" stroke-width="14.9999999999988" stroke-linecap="square" stroke-linejoin="bevel" d="M371.24 0.00311109C135.895 0.988376 -4.7527 151.765 0.122746 354.101C39.9425 433.627 88.8332 303.184 147.545 316.286C170.747 323.393 228.109 368.49 255.08 362.794C312.749 350.615 345.467 285.929 407.543 280.826C465.182 276.089 490.56 365.755 543.277 374.994C579.46 381.336 591.404 291.793 630.795 293.611C659.737 294.947 731.189 396.126 746.366 316.286C728.657 106.107 625.446 -0.664462 371.24 0.00311109Z" sodipodi:nodetypes="ccccccccc"/><path id="shape02" transform="matrix(0.976245696322406 -0.216666426591649 0.216666426591649 0.976245696322406 304.137695369033 73.1473089502683)" fill="#fc797e" fill-rule="evenodd" stroke="#876344" stroke-width="14.9999999999988" stroke-linecap="square" stroke-linejoin="bevel" d="M121.626 26.8808C112.059 -15.0469 55.9259 1.27985 37.1014 14.6444C-10.7708 47.3129 -12.0156 104.229 31.6277 148.416C82.7247 193.465 140.255 176.66 172.624 141.861C201.575 104.645 185.782 54.1728 149.224 57.5465C133.406 56.1435 120.707 37.1905 121.626 26.8808Z" sodipodi:nodetypes="cccccc"/><path id="shape11" transform="matrix(0.999802983962022 0.0198492634786927 -0.0198492634786927 0.999802983962022 437.260769438835 17.0588833386619)" fill="none" stroke="#876344" stroke-width="14.9999999999988" stroke-linecap="square" stroke-linejoin="bevel" d="M0 84.3736C50.4221 6.73039 161.197 -18.8096 165.988 13.9411" sodipodi:nodetypes="cc"/>
</svg>
