<?xml version="1.0" standalone="no"?>
<!DOCTYPE svg PUBLIC "-//W3C//DTD SVG 20010904//EN" "http://www.w3.org/TR/2001/REC-SVG-20010904/DTD/svg10.dtd">
<!-- Created using Krita: https://krita.org -->
<svg xmlns="http://www.w3.org/2000/svg" 
    xmlns:xlink="http://www.w3.org/1999/xlink"
    xmlns:krita="http://krita.org/namespaces/svg/krita"
    xmlns:sodipodi="http://sodipodi.sourceforge.net/DTD/sodipodi-0.dtd"
    width="991pt"
    height="680pt"
    viewBox="0 0 991 680">
<defs/>
<path id="shape0" transform="matrix(-0.255596526005455 0.966783541385548 -0.966783541385548 -0.255596526005455 980.494180863248 490.797196451313)" fill="#fdfaf0" fill-rule="evenodd" stroke="none" stroke-width="39.9999999999968" stroke-linecap="square" stroke-linejoin="bevel" d="M291.549 910.431C450.534 872.545 172.944 -28.9048 51.8792 0.714063C-54.266 32.2348 29.8572 362.005 63.8074 480.151C96.9368 589.948 187.006 942.28 291.549 910.431Z" sodipodi:nodetypes="cccc"/><path id="shape1" transform="matrix(-0.255596526005455 0.966783541385548 -0.966783541385548 -0.255596526005455 980.337762427116 483.942669980182)" fill="none" stroke="#876344" stroke-width="19.9999999999984" stroke-linecap="round" stroke-linejoin="bevel" d="M169.676 777.969C174.373 795.798 231.902 927.186 288.86 914.712C448.755 875.597 196.903 -30.5657 55.0483 0.795452C-19.6238 20.5188 2.28603 170.67 5.29784 181.552" sodipodi:nodetypes="cccc"/><path id="shape2" transform="matrix(-0.255596526005455 0.966783541385548 -0.966783541385548 -0.255596526005455 841.514878280228 277.048549360215)" fill="#ddcbad" fill-rule="evenodd" stroke="none" stroke-width="9.9999999999992" stroke-linecap="square" stroke-linejoin="bevel" d="M415.687 545.647C411.416 524.304 283.35 29.2781 273 0.783002C255.576 -6.79906 31.0431 42.6968 0 62.3609C3.09423 96.372 120.28 551.634 133.588 589.303C162.795 585.261 391.771 549.515 415.687 545.647Z" sodipodi:nodetypes="ccccc"/><path id="shape3" transform="matrix(-0.255596526005455 0.966783541385548 -0.966783541385548 -0.255596526005455 806.264880812803 170.818487809346)" fill="#fefefe" fill-rule="evenodd" stroke="none" stroke-width="19.9999999999984" stroke-linecap="square" stroke-linejoin="bevel" d="M228.041 527.191C179.096 495.111 -2.33288 265.49 0.0227282 243.868C5.38572 194.642 35.4117 30.9565 90.8386 0C95.9862 15.1076 226.975 515.497 228.041 527.191Z" sodipodi:nodetypes="cccc"/><path id="shape4" transform="matrix(-0.255596526005455 0.966783541385548 -0.966783541385548 -0.255596526005455 804.796674545593 352.811627396574)" fill="#fefefe" fill-rule="evenodd" stroke="none" stroke-width="19.9999999999984" stroke-linecap="square" stroke-linejoin="bevel" d="M133.378 558.17C123.355 543.557 -1.19795 58.1139 0.00871011 20.1667C11.1402 15.6865 90.1552 2.51051 104.734 0C109.817 21.97 240.688 505.101 243.216 542.007C228.07 546.743 154.221 555.828 133.378 558.17Z" sodipodi:nodetypes="ccccc"/><path id="shape5" transform="matrix(-0.255596526005455 0.966783541385548 -0.966783541385548 -0.255596526005455 370.559549091382 384.146309166984)" fill="#c65353" fill-rule="evenodd" stroke="#ad4646" stroke-width="9.9999999999992" stroke-linecap="square" stroke-linejoin="bevel" d="M47.2753 101.016C78.5543 44.7555 60.2048 10.7584 10.1383 0.0685952C-5.7423 -2.73825 1.49926 81.4957 2.59485 87.2733C5.90869 95.4559 46.4952 104.061 47.2753 101.016Z" sodipodi:nodetypes="cccc"/><path id="shape6" transform="matrix(-0.255596526005455 0.966783541385548 -0.966783541385548 -0.255596526005455 497.163738130887 364.931536079147)" fill="#c65353" fill-rule="evenodd" stroke="#ad4646" stroke-width="9.9999999999992" stroke-linecap="square" stroke-linejoin="bevel" d="M22.7601 80.1001C34.6727 80.3431 72.1894 55.9251 74.3078 53.2084C88.8711 34.5319 73.3314 14.1313 55.7013 4.24344C40.5384 -4.26065 1.97383 -0.822665 0.0437192 22.2528C-0.920967 33.7861 14.3114 73.3653 22.7601 80.1001Z" sodipodi:nodetypes="ccccc"/><path id="shape7" transform="matrix(-0.255596526005455 0.966783541385548 -0.966783541385548 -0.255596526005455 630.524950777889 366.434132942431)" fill="#c65353" fill-rule="evenodd" stroke="#ad4646" stroke-width="9.9999999999992" stroke-linecap="square" stroke-linejoin="bevel" d="M8.5224 75.9462C94.1329 77.055 87.9772 27.9647 71.1096 12.2496C64.506 -5.80255 14.5377 -1.42067 3.66768 9.48772C-5.49044 18.6782 4.95378 64.8562 8.5224 75.9462Z" sodipodi:nodetypes="cccc"/><path id="shape8" transform="matrix(-0.255596526005455 0.966783541385548 -0.966783541385548 -0.255596526005455 754.106243880374 368.122604416977)" fill="#c65353" fill-rule="evenodd" stroke="#ad4646" stroke-width="9.9999999999992" stroke-linecap="square" stroke-linejoin="bevel" d="M11.1071 70.7562C34.2387 84.8605 64.8649 22.4724 70.0635 1.09923C67.0163 -3.10234 9.25299 5.6085 0.045525 12.5864C-0.82264 19.5207 11.0127 70.6987 11.1071 70.7562Z" sodipodi:nodetypes="cccc"/><path id="shape01" transform="matrix(-0.255596526005455 0.966783541385548 -0.966783541385548 -0.255596526005455 841.51487812915 277.048549320115)" fill="none" stroke="#876344" stroke-width="9.9999999999992" stroke-linecap="square" stroke-linejoin="bevel" d="M415.687 545.647C411.416 524.304 283.35 29.2781 273 0.783002C255.576 -6.79906 31.0431 42.6968 0 62.3609C3.09423 96.372 120.28 551.634 133.588 589.303C162.795 585.261 391.771 549.515 415.687 545.647Z" sodipodi:nodetypes="ccccc"/><path id="shape02" transform="matrix(-0.255596526005455 0.966783541385548 -0.966783541385548 -0.255596526005455 806.264880817865 170.818487790201)" fill="none" stroke="#876344" stroke-width="9.9999999999992" stroke-linecap="square" stroke-linejoin="bevel" d="M228.041 527.191C179.096 495.111 -2.33288 265.49 0.0227282 243.868C5.38572 194.642 35.4117 30.9565 90.8386 0" sodipodi:nodetypes="ccc"/><path id="shape9" transform="matrix(-0.255596526005455 0.966783541385548 -0.966783541385548 -0.255596526005455 770.136406651659 344.400686691084)" fill="none" stroke="#876344" stroke-width="9.9999999999992" stroke-linecap="round" stroke-linejoin="bevel" d="M127.639 508.61C126.383 497.485 72.6848 328.145 49.4591 214.985C35.1399 162.453 3.24145 8.76681 0 0" sodipodi:nodetypes="ccc"/><path id="shape03" transform="matrix(-0.255596526005455 0.966783541385548 -0.966783541385548 -0.255596526005455 765.739767256247 454.877131617291)" fill="none" stroke="#876344" stroke-width="9.9999999999992" stroke-linecap="round" stroke-linejoin="bevel" d="M130.849 515.092C129.593 503.967 80.616 333.434 57.3904 220.274C45.7317 165.112 5.15213 9.71821 0 0" sodipodi:nodetypes="ccc"/><path id="shape10" transform="matrix(-0.255596526005455 0.966783541385548 -0.966783541385548 -0.255596526005455 710.013569700606 42.668197571029)" fill="#c65353" fill-rule="evenodd" stroke="#ad4646" stroke-width="9.9999999999992" stroke-linecap="square" stroke-linejoin="bevel" d="M0.170974 85.1253C11.7338 128.016 98.6146 178.209 173.037 149.153C200.949 130.794 175.032 20.3128 148.98 3.62708C106.637 -15.6461 -4.95672 46.3218 0.170974 85.1253Z" sodipodi:nodetypes="cccc"/>
</svg>
