<?xml version="1.0" standalone="no"?>
<!DOCTYPE svg PUBLIC "-//W3C//DTD SVG 20010904//EN" "http://www.w3.org/TR/2001/REC-SVG-20010904/DTD/svg10.dtd">
<!-- Created using Krita: https://krita.org -->
<svg xmlns="http://www.w3.org/2000/svg" 
    xmlns:xlink="http://www.w3.org/1999/xlink"
    xmlns:krita="http://krita.org/namespaces/svg/krita"
    xmlns:sodipodi="http://sodipodi.sourceforge.net/DTD/sodipodi-0.dtd"
    width="744pt"
    height="1135pt"
    viewBox="0 0 744 1135">
<defs/>
<path id="shape0" transform="matrix(0.0215739851620471 0.999767254496897 -0.999767254496897 0.0215739851620471 672.02989900603 520.60623752554)" fill="#ddcbad" fill-rule="evenodd" stroke="#876344" stroke-width="14.9999999999988" stroke-linecap="square" stroke-linejoin="bevel" d="M93.7131 498.47C571.721 224.511 588.682 208.937 583.892 184.74C580.481 160.493 527.875 141.238 35.3316 0C-32.4561 100.889 2.90985 364.251 93.7131 498.47Z" sodipodi:nodetypes="cccc"/><path id="shape1" transform="matrix(0.0215739851620471 0.999767254496897 -0.999767254496897 0.0215739851620471 366.747536531708 667.566074722247)" fill="#8d7663" fill-rule="evenodd" stroke="#8d7663" stroke-width="14.9999999999988" stroke-linecap="round" stroke-linejoin="bevel" d="M114.14 47.6523C108.435 42.2341 7.78633 4.0255 0 0" sodipodi:nodetypes="cc"/><path id="shape2" transform="matrix(0.0215739851620471 0.999767254496897 -0.999767254496897 0.0215739851620471 430.406180715397 702.341745816692)" fill="#8d7663" fill-rule="evenodd" stroke="#8d7663" stroke-width="14.9999999999988" stroke-linecap="round" stroke-linejoin="bevel" d="M164.905 62.8936C149.056 70.558 4.30917 4.16879 0 0" sodipodi:nodetypes="cc"/><path id="shape3" transform="matrix(0.0215739851620471 0.999767254496897 -0.999767254496897 0.0215739851620471 462.843701287384 787.947347494203)" fill="#8d7663" fill-rule="evenodd" stroke="#8d7663" stroke-width="14.9999999999988" stroke-linecap="round" stroke-linejoin="bevel" d="M147.05 49.7098C138.1 45.7131 17.0108 8.35815 0 0" sodipodi:nodetypes="cc"/><path id="shape4" transform="matrix(0.0215739851620471 0.999767254496897 -0.999767254496897 0.0215739851620471 496.532602652083 876.209859626235)" fill="#8d7663" fill-rule="evenodd" stroke="#8d7663" stroke-width="14.9999999999988" stroke-linecap="round" stroke-linejoin="bevel" d="M123.958 40.5772C120.503 38.1771 17.4403 2.05205 0 0" sodipodi:nodetypes="cc"/><path id="shape5" transform="matrix(0.0215739851620471 0.999767254496897 -0.999767254496897 0.0215739851620471 492.076655513448 839.975740650314)" fill="#8d7663" fill-rule="evenodd" stroke="#8d7663" stroke-width="14.9999999999988" stroke-linecap="round" stroke-linejoin="bevel" d="M0 153.435C0.938868 148.114 67.9069 5.53197 69.3634 0" sodipodi:nodetypes="cc"/><path id="shape6" transform="matrix(0.0215739851620471 0.999767254496897 -0.999767254496897 0.0215739851620471 474.566903784864 757.924840590934)" fill="#8d7663" fill-rule="evenodd" stroke="#8d7663" stroke-width="14.9999999999988" stroke-linecap="round" stroke-linejoin="bevel" d="M0 157.429C0.516595 149.206 63.495 16.2803 71.2135 0" sodipodi:nodetypes="cc"/><path id="shape7" transform="matrix(0.0215739851620471 0.999767254496897 -0.999767254496897 0.0215739851620471 443.533584553635 691.900049710864)" fill="#8d7663" fill-rule="evenodd" stroke="#8d7663" stroke-width="14.9999999999988" stroke-linecap="round" stroke-linejoin="bevel" d="M0 115.731C0.856645 108.297 50.2524 -1.5548 49.5155 0.0166989" sodipodi:nodetypes="cc"/><path id="shape01" transform="matrix(0.0215739851620471 0.999767254496897 -0.999767254496897 0.0215739851620471 481.604637988956 931.240108769743)" fill="#8d7663" fill-rule="evenodd" stroke="#8d7663" stroke-width="14.9999999999988" stroke-linecap="round" stroke-linejoin="bevel" d="M0 83.8075C0.492546 80.5501 35.7002 4.40713 40.7914 0" sodipodi:nodetypes="cc"/><path id="shape8" transform="matrix(0.0215739851620471 0.999767254496897 -0.999767254496897 0.0215739851620471 685.396854151272 247.604806267806)" fill="#facccc" fill-rule="evenodd" stroke="#876344" stroke-width="14.9999999999988" stroke-linecap="square" stroke-linejoin="bevel" d="M349.371 529.225C221.675 606.704 22.0127 471.41 0.782361 308.53C-11.8393 92.2025 130.415 -5.00413 271.369 6.10789C326.452 -23.6591 333.291 64.5484 300.34 74.0245C217.086 141.016 382.224 111.638 315.837 191.508C262.299 262.923 327.008 259.413 330.303 296.164C329.49 324.414 311.466 324.069 312.322 354.396C307.808 392.939 359.546 368.113 350.243 437.535C353.17 465.432 470.69 523.7 349.371 529.225Z" sodipodi:nodetypes="ccccccccc"/><path id="shape9" transform="matrix(-0.143763627089513 0.989612055063055 -0.989612055063055 -0.143763627089513 595.50356235193 88.8847899865174)" fill="#f9e6a9" fill-rule="evenodd" stroke="#876344" stroke-width="14.9999999999988" stroke-linecap="square" stroke-linejoin="bevel" d="M416.678 438.869C340.418 470.118 211.145 586.935 79.4068 465.49C-62.0889 335.635 5.52701 150.775 126.287 47.6236C140.139 35.7911 147.115 11.6789 162.136 2.654C199.952 -20.065 206.188 110.118 242.031 125.326C264.906 147.418 316.065 129.419 327.294 153.12C339.171 178.19 248.51 222.272 285.067 260.79C303.565 279.266 344.09 251.967 365.57 274.352C388.086 297.815 366.958 336.852 375.779 364.493C394.173 398.844 424.644 376.366 443.143 399.112C455.662 414.505 437.467 443.325 416.678 438.869Z" sodipodi:nodetypes="ccccccccccc"/><path id="shape02" transform="matrix(0.0215739851620466 0.999767254496897 -0.999767254496897 0.0215739851620466 268.619826603402 110.834694589116)" fill="#f2b885" fill-rule="evenodd" stroke-opacity="0" stroke="#000000" stroke-width="0" stroke-linecap="square" stroke-linejoin="bevel" d="M68.2382 151.793C65.9423 138.472 39.7426 101.434 35.668 89.2528C31.2485 56.7728 8.7383 8.6908 0 0.00322722C9.22176 -0.50823 45.0663 59.9191 60.1532 77.151C75.2708 94.8709 94.2926 133.836 104.395 153.413C124.985 193.31 149.939 179.194 167.234 220.471C121.52 184.782 78.1431 209.259 68.2382 151.793Z" sodipodi:nodetypes="ccccccc"/><path id="shape011" transform="matrix(0.0215739851620472 0.999767254496897 -0.999767254496897 0.0215739851620472 409.555255783874 211.246173343167)" fill="#f2b885" fill-rule="evenodd" stroke-opacity="0" stroke="#000000" stroke-width="0" stroke-linecap="square" stroke-linejoin="bevel" d="M76.0664 202.151C73.7705 188.83 27.7627 112.804 23.6881 100.623C19.2686 68.1429 27.2195 13.751 0 0C50.5981 7.18023 43.7431 46.191 48.0993 72.3431C51.9643 95.3334 65.1162 127.496 75.2182 147.073C95.8079 186.97 137.325 229.849 154.62 271.126C108.906 235.437 85.9713 259.617 76.0664 202.151Z" sodipodi:nodetypes="ccccccc"/><path id="shape021" transform="matrix(0.021573985162048 0.999767254496897 -0.999767254496897 0.021573985162048 421.921111946827 66.6701982994289)" fill="#f2b885" fill-rule="evenodd" stroke-opacity="0" stroke="#000000" stroke-width="0" stroke-linecap="square" stroke-linejoin="bevel" d="M0 49.9327C12.2309 26.6071 19.8507 5.57662 31.6532 0C46.7708 17.7199 40.4286 41.6351 51.6908 48.3297C133.155 85.2378 108.656 123.652 145.504 155.691C121.734 145.14 105.364 119.28 81.8621 101.846C35.8868 94.1418 29.1275 85.7492 0 49.9327Z" sodipodi:nodetypes="cccccc"/><path id="shape91" transform="matrix(-0.143763627089501 0.989612055062975 -0.989612055062975 -0.143763627089501 595.503559807779 88.8848080065757)" fill="none" stroke="#876344" stroke-width="14.9999999999988" stroke-linecap="square" stroke-linejoin="bevel" d="M416.678 438.869C340.418 470.118 211.145 586.935 79.4068 465.49C-62.0889 335.635 5.52699 150.775 126.287 47.6236C140.139 35.7911 147.115 11.6789 162.136 2.654C199.952 -20.065 206.188 110.118 242.031 125.326C264.906 147.418 316.065 129.419 327.294 153.12C339.171 178.19 248.51 222.272 285.067 260.79C303.565 279.266 344.09 251.967 365.57 274.352C388.086 297.815 366.958 336.852 375.779 364.493C394.173 398.844 424.644 376.366 443.143 399.112C455.662 414.505 437.467 443.325 416.678 438.869Z" sodipodi:nodetypes="ccccccccccc"/>
</svg>
