<?xml version="1.0" standalone="no"?>
<!DOCTYPE svg PUBLIC "-//W3C//DTD SVG 20010904//EN" "http://www.w3.org/TR/2001/REC-SVG-20010904/DTD/svg10.dtd">
<!-- Created using Krita: https://krita.org -->
<svg xmlns="http://www.w3.org/2000/svg" 
    xmlns:xlink="http://www.w3.org/1999/xlink"
    xmlns:krita="http://krita.org/namespaces/svg/krita"
    xmlns:sodipodi="http://sodipodi.sourceforge.net/DTD/sodipodi-0.dtd"
    width="1603pt"
    height="1236pt"
    viewBox="0 0 1603 1236">
<defs/>
<path id="shape031" transform="translate(246.071112756135, 289.684463493865)" fill="#d4d3cf" stroke="#876344" stroke-width="39.9999999999968" stroke-linecap="round" stroke-linejoin="miter" stroke-miterlimit="0" d="M857.599 294.793C839.546 102.201 714.196 -4.38116 424.829 0.138083C159.319 3.24147 -10.9447 237.088 7.51624 462.609C8.73382 483.072 -2.99901 538.91 0.737992 559.206C4.47499 579.501 23.6818 564.255 30.1966 583.836C37.8181 606.142 48.4864 678.695 60.3294 698.862C70.9858 717.19 82.456 683.331 96.9272 699.453C113.376 717.247 166.226 791.553 187.306 806.182C208.385 820.81 197.695 775.762 223.889 786.669C276.774 808.484 340.724 822.298 417.239 825.889C677.311 825.889 920.131 834.113 992.15 822.4C1145.72 806.839 1244.08 633.551 1168.2 483.851C1174.55 454.687 1190.3 455.029 1172.81 439.901C1152.14 427.344 1110.06 403.774 1094.68 392.453C1090.34 386.198 1107.85 368.111 1091.52 360.732C1075.2 353.354 1007.22 344.852 996.495 339.937C974.618 330.541 1009.7 315.806 984.581 309.112C935.055 295.407 860.539 300.89 857.599 294.793Z" sodipodi:nodetypes="cccccccccccccccccc"/><path id="shape011" transform="translate(714.011124971214, 568.515930065251)" fill="#f0a6a6" fill-rule="evenodd" stroke="#f0a6a6" stroke-width="39.9999999999968" stroke-linecap="square" stroke-linejoin="bevel" d="M0 10.4061C1.68046 -1.89714 68.9265 -4.46034 73.1988 9.09827C69.3941 17.7191 6.82985 21.5795 0 10.4061Z" sodipodi:nodetypes="ccc"/><path id="shape02" transform="translate(428.612453584838, 570.799111766139)" fill="#f0a6a6" fill-rule="evenodd" stroke="#f0a6a6" stroke-width="39.9999999999968" stroke-linecap="square" stroke-linejoin="bevel" d="M0 13.4744C1.82613 -2.45653 74.9017 -5.77552 79.5443 11.781C75.4098 22.9437 7.42192 27.9424 0 13.4744Z" sodipodi:nodetypes="ccc"/><ellipse id="shape2" transform="translate(482.354484291941, 452.057050757038)" rx="29.2796168125068" ry="64.7710157999099" cx="29.2796168125068" cy="64.7710157999099" fill="#876344" fill-rule="evenodd" stroke-opacity="0" stroke="#000000" stroke-width="0" stroke-linecap="round" stroke-linejoin="miter" stroke-miterlimit="0"/><ellipse id="shape0111" transform="translate(670.684142382904, 448.423262071954)" rx="29.3406509630953" ry="64.7710157999099" cx="29.3406509630953" cy="64.7710157999099" fill="#876344" fill-rule="evenodd" stroke-opacity="0" stroke="#000000" stroke-width="0" stroke-linecap="round" stroke-linejoin="miter" stroke-miterlimit="0"/><path id="shape01" transform="translate(588.15841309104, 611.512911552056)" fill="#876344" stroke="#876344" stroke-width="19.9999999999984" stroke-linecap="round" stroke-linejoin="bevel" d="M0.000272804 6.48709C4.50533 23.2049 38.8363 22.8836 45.0089 5.37258C48.2666 -3.0508 -0.132529 -0.714452 0.000272804 6.48709Z" sodipodi:nodetypes="ccc"/><path id="shape0" transform="translate(117.141215156117, 121.416955493656)" fill="#d4d3cf" fill-rule="evenodd" stroke="#876344" stroke-width="39.9999999999968" stroke-linecap="square" stroke-linejoin="bevel" d="M191.59 386.041C13.5801 396.315 -83.7502 105.32 94.714 22.1086C261.942 -52.9677 398.841 76.466 373.081 210.805C327.26 225.119 220.256 316.27 191.59 386.041Z" sodipodi:nodetypes="cccc"/><path id="shape1" transform="translate(878.139198779076, 116.637818159546)" fill="#d4d3cf" fill-rule="evenodd" stroke="#876344" stroke-width="39.9999999999968" stroke-linecap="round" stroke-linejoin="bevel" d="M2.24269 219.7C-24.2051 25.1856 189.547 -53.1749 312.587 37.6902C441.782 159.061 387.803 382.884 162.473 362.1" sodipodi:nodetypes="ccc"/><path id="shape6" transform="translate(761.079423074201, 576.109634915598)" fill="none" stroke="#876344" stroke-width="19.9999999999984" stroke-linecap="round" stroke-linejoin="miter" stroke-miterlimit="0" d="M0 15.5828L96.0287 0" sodipodi:nodetypes="cc"/><path id="shape021" transform="translate(761.079423074202, 624.773807061579)" fill="none" stroke="#876344" stroke-width="19.9999999999984" stroke-linecap="round" stroke-linejoin="miter" stroke-miterlimit="0" d="M0 0L96.405 15.0492" sodipodi:nodetypes="cc"/><path id="shape0311" transform="translate(361.860264898958, 585.603349444723)" fill="none" stroke="#876344" stroke-width="19.9999999999984" stroke-linecap="round" stroke-linejoin="miter" stroke-miterlimit="0" d="M0 0L82.3674 10.7799" sodipodi:nodetypes="cc"/><path id="shape04" transform="translate(361.326617180428, 627.015204914613)" fill="none" stroke="#876344" stroke-width="19.9999999999984" stroke-linecap="round" stroke-linejoin="miter" stroke-miterlimit="0" d="M0 9.2856L83.9683 0" sodipodi:nodetypes="cc"/><path id="shape4" transform="translate(616.503287580157, 1115.85609352134)" fill="#d4d3cf" fill-rule="evenodd" stroke="#876344" stroke-width="39.9999999999968" stroke-linecap="square" stroke-linejoin="bevel" d="M0 0C0.393332 33.2994 26.6639 86.2402 35.1495 88.0469C46.7447 84.8306 60.4943 36.1475 60.6115 3.08636C45.2115 3.20358 15.0382 2.79384 0 0Z" sodipodi:nodetypes="cccc"/><path id="shape5" transform="translate(555.217472366824, 1105.05384773544)" fill="#d4d3cf" fill-rule="evenodd" stroke="#876344" stroke-width="39.9999999999968" stroke-linecap="square" stroke-linejoin="bevel" d="M1.96027 0C-4.77867 25.995 6.66131 97.0686 23.993 98.5919C43.6138 96.7052 50.0876 37.2794 50.9981 6.60137C36.3914 6.87264 17.7867 3.58256 1.96027 0Z" sodipodi:nodetypes="cccc"/><path id="shape03" transform="translate(1188.69316226739, 1114.25129803095)" fill="#d4d3cf" stroke="#876344" stroke-width="39.9999999999968" stroke-linecap="square" stroke-linejoin="bevel" d="M0 4.02941C0.393332 37.3288 26.6639 90.2696 35.1495 92.0763C46.7447 88.86 59.3798 33.0611 59.497 0C45.7259 3.11784 15.0382 6.82325 0 4.02941Z" sodipodi:nodetypes="cccc"/><path id="shape05" transform="translate(1146.7709260905, 1119.73815303332)" fill="#d4d3cf" stroke="#876344" stroke-width="39.9999999999968" stroke-linecap="square" stroke-linejoin="bevel" d="M0 0.685853C0.393332 33.9853 3.77384 87.5262 22.4614 87.704C44.3442 84.2305 48.1491 33.0611 48.2663 0C32.8663 0.11722 15.0382 3.47969 0 0.685853Z" sodipodi:nodetypes="cccc"/><path id="shape7" transform="translate(1420.00704512479, 508.529830447504)" fill="none" stroke="#876344" stroke-width="39.9999999999968" stroke-linecap="round" stroke-linejoin="bevel" d="M22.2529 354.845C76.9898 369.542 127.104 337.541 127.187 294.49C132.639 206.714 -10.0378 174.472 0.563018 83.5888C7.01587 44.6717 63.9325 24.2367 85.2648 0" sodipodi:nodetypes="cccc"/><path id="shape3" transform="translate(548.6904270159, 666.96276864068)" fill="none" stroke="#876344" stroke-width="19.9999999999984" stroke-linecap="round" stroke-linejoin="bevel" d="M0 3.42928C13.9834 10.4211 127.63 1.39737 132.368 0" sodipodi:nodetypes="cc"/><path id="shape8" transform="translate(530.772743251134, 692.339473026599)" fill="#f9e6a9" fill-rule="evenodd" stroke="#f7d871" stroke-width="19.9999999999984" stroke-linecap="square" stroke-linejoin="bevel" d="M0 69.1001C2.22899 70.7402 44.8061 163.633 50.9239 169.75C60.1581 168.245 190.653 106.159 197.095 98.5062C196.048 92.7125 157.429 14.892 149.514 0C134.044 6.37274 15.603 63.3883 0 69.1001Z" sodipodi:nodetypes="ccccc"/><path id="shape9" transform="translate(533.516120669663, 693.963956771005)" fill="#f9e6a9" fill-rule="evenodd" stroke="#f7d871" stroke-width="19.9999999999984" stroke-linecap="square" stroke-linejoin="bevel" d="M0 74.077C0.0584036 43.83 16.4341 22.6805 22.6462 7.12914C45.4043 4.60909 140.215 -3.11503 140.341 1.37614C126.407 10.3254 16.6591 70.2026 0 74.077Z" sodipodi:nodetypes="cccc"/><path id="shape81" transform="translate(566.850537881954, 679.994049271287)" fill="#fdfaf0" fill-rule="evenodd" stroke="#876344" stroke-width="19.9999999999984" stroke-linecap="square" stroke-linejoin="bevel" d="M0.0147645 3.17209C-0.199026 14.5745 1.96694 46.3067 2.75814 54.3542C7.83087 56.0028 80.3522 55.5743 83.8592 53.1539C86.0691 42.6563 90.8819 8.57734 90.8034 0" sodipodi:nodetypes="cccc"/><path id="shape91" transform="translate(608.297441577179, 676.564764894813)" fill="none" stroke="#876344" stroke-width="19.9999999999984" stroke-linecap="round" stroke-linejoin="bevel" d="M2.2047 0C-1.61271 14.2816 0.64609 47.1447 0.833019 51.0106" sodipodi:nodetypes="cc"/><path id="shape22" transform="matrix(0.975764031707484 0.218825397120847 -0.218825397120847 0.975764031707484 261.468539160504 463.271887454479)" fill="#f0a6a6" fill-rule="evenodd" stroke="#f0a6a6" stroke-width="39.9999999999968" stroke-linecap="round" stroke-linejoin="miter" stroke-miterlimit="0" d="M47.2374 23.9244C42.7673 20.557 20.664 -11.8357 7.3621 4.64863C-8.52473 17.0901 21.9428 37.1677 22.0644 43.3025C21.8372 49.5189 -8.18605 61.4734 2.17365 73.9371C19.0807 95.4566 34.5088 71.267 41.4347 70.3789C50.6868 70.4911 63.4063 97.7948 75.1241 86.6714C91.3909 76.4352 70.7066 54.5721 69.8025 48.7985C70.2919 41.4072 98.2671 24.5561 84.3109 10.312C72.7364 -6.65845 57.8998 24.369 47.2374 23.9244Z" sodipodi:nodetypes="ccccccccc"/><path id="shape022" transform="matrix(0.987562388895011 -0.157227631283492 0.157227631283492 0.987562388895011 337.975551173178 368.468950700741)" fill="#f0a6a6" fill-rule="evenodd" stroke="#f0a6a6" stroke-width="39.9999999999968" stroke-linecap="round" stroke-linejoin="miter" stroke-miterlimit="0" d="M49.9233 25.0561C45.199 21.5293 21.839 -12.3956 7.78071 4.86856C-9.00948 17.8985 23.1905 38.9257 23.3189 45.3508C23.0789 51.8612 -8.6515 64.3812 2.29724 77.4344C20.1656 99.9719 36.4709 74.6379 43.7906 73.7079C53.5688 73.8254 67.0116 102.42 79.396 90.7708C96.5875 80.0505 74.7271 57.1534 73.7716 51.1067C74.2887 43.3658 103.854 25.7177 89.105 10.7998C76.8722 -6.97336 61.192 25.5217 49.9233 25.0561Z" sodipodi:nodetypes="ccccccccc"/><path id="shape032" transform="matrix(0.994297761286528 -0.106639401253275 0.106639401253275 0.994297761286528 1022.48159083721 431.121161969899)" fill="#f0a6a6" fill-rule="evenodd" stroke="#f0a6a6" stroke-width="39.9999999999968" stroke-linecap="round" stroke-linejoin="miter" stroke-miterlimit="0" d="M62.0607 31.1478C56.1878 26.7636 27.1485 -15.4092 9.67237 6.05219C-11.1999 22.25 28.8286 48.3894 28.9883 56.3765C28.6899 64.4697 -10.7549 80.0336 2.85575 96.2603C25.0683 124.277 45.3378 92.784 54.437 91.6279C66.5926 91.7739 83.3036 127.321 98.6989 112.839C120.07 99.5125 92.8948 71.0486 91.707 63.5318C92.3499 53.9089 129.104 31.9702 110.768 13.4255C95.5615 -8.66876 76.0691 31.7266 62.0607 31.1478Z" sodipodi:nodetypes="ccccccccc"/><path id="shape041" transform="matrix(0.985486730729059 0.169752477319168 -0.169752477319168 0.985486730729059 916.128784635325 363.439819057494)" fill="#f0a6a6" fill-rule="evenodd" stroke="#f0a6a6" stroke-width="39.9999999999968" stroke-linecap="round" stroke-linejoin="miter" stroke-miterlimit="0" d="M49.2199 24.7031C44.5622 21.226 21.5313 -12.2209 7.67108 4.79993C-8.88255 17.6463 22.8638 38.3773 22.9904 44.7118C22.7537 51.1305 -8.52961 63.4741 2.26487 76.3434C19.8815 98.5634 35.9571 73.5864 43.1736 72.6695C52.8141 72.7852 66.0675 100.977 78.2774 89.4919C95.2267 78.9227 73.6742 56.3481 72.7322 50.3867C73.2421 42.7548 102.391 25.3554 87.8496 10.6477C75.7891 -6.87515 60.3299 25.1621 49.2199 24.7031Z" sodipodi:nodetypes="ccccccccc"/><path id="shape051" transform="matrix(0.918429175203133 0.395585452380063 -0.395585452380063 0.918429175203133 840.510762302992 258.897348928338)" fill="#f0a6a6" fill-rule="evenodd" stroke="#f0a6a6" stroke-width="39.9999999999968" stroke-linecap="round" stroke-linejoin="miter" stroke-miterlimit="0" d="M43.2355 21.6996C39.1441 18.6452 18.9134 -10.7351 6.73839 4.21639C-7.80256 15.5008 20.0839 33.7112 20.1951 39.2755C19.9872 44.9138 -7.49253 55.7566 1.98949 67.0611C17.4642 86.5795 31.5852 64.6393 37.9243 63.8339C46.3927 63.9356 58.0346 88.6999 68.76 78.611C83.6485 69.3268 64.7165 49.497 63.889 44.2604C64.3369 37.5564 89.942 22.2725 77.1683 9.35308C66.5743 -6.03917 52.9946 22.1028 43.2355 21.6996Z" sodipodi:nodetypes="ccccccccc"/><path id="shape0511" transform="matrix(0.918429175203059 0.395585452380031 -0.395585452380031 0.918429175203059 483.127537759396 266.569869128525)" fill="#f0a6a6" fill-rule="evenodd" stroke="#f0a6a6" stroke-width="39.9999999999968" stroke-linecap="round" stroke-linejoin="miter" stroke-miterlimit="0" d="M43.2355 21.6996C39.1441 18.6452 18.9134 -10.7351 6.73839 4.21639C-7.80256 15.5008 20.0839 33.7112 20.1951 39.2755C19.9872 44.9138 -7.49253 55.7566 1.98949 67.0611C17.4642 86.5795 31.5852 64.6393 37.9243 63.8339C46.3927 63.9356 58.0346 88.6999 68.76 78.611C83.6485 69.3268 64.7165 49.497 63.889 44.2604C64.3369 37.5564 89.942 22.2725 77.1683 9.35308C66.5743 -6.03917 52.9946 22.1028 43.2355 21.6996Z" sodipodi:nodetypes="ccccccccc"/>
</svg>
