<?xml version="1.0" standalone="no"?>
<!DOCTYPE svg PUBLIC "-//W3C//DTD SVG 20010904//EN" "http://www.w3.org/TR/2001/REC-SVG-20010904/DTD/svg10.dtd">
<!-- Created using Krita: https://krita.org -->
<svg xmlns="http://www.w3.org/2000/svg" 
    xmlns:xlink="http://www.w3.org/1999/xlink"
    xmlns:krita="http://krita.org/namespaces/svg/krita"
    xmlns:sodipodi="http://sodipodi.sourceforge.net/DTD/sodipodi-0.dtd"
    width="1603pt"
    height="1236pt"
    viewBox="0 0 1603 1236">
<defs/>
<path id="shape031" transform="translate(252.221837389195, 289.684463259162)" fill="#d4d3cf" stroke="#876344" stroke-width="39.9999999999968" stroke-linecap="round" stroke-linejoin="miter" stroke-miterlimit="0" d="M851.448 294.793C833.395 102.201 708.045 -4.38116 418.678 0.138083C153.168 3.24147 -17.0954 237.088 1.36552 462.609C11.6562 650.813 120.103 812.446 411.088 825.889C671.16 825.889 913.209 834.97 985.228 823.257C1219.32 790.078 1253.18 495.632 1070.7 380.622C1034.29 357.246 857.328 319.169 851.448 294.793Z" sodipodi:nodetypes="ccccccc"/><path id="shape011" transform="translate(714.011124971214, 568.515929118719)" fill="#f0a6a6" fill-rule="evenodd" stroke="#f0a6a6" stroke-width="39.9999999999968" stroke-linecap="square" stroke-linejoin="bevel" d="M0 10.4061C1.68046 -1.89714 68.9265 -4.46034 73.1988 9.09827C69.3941 17.7191 6.82985 21.5795 0 10.4061Z" sodipodi:nodetypes="ccc"/><path id="shape02" transform="translate(428.612453584838, 570.799117469629)" fill="#f0a6a6" fill-rule="evenodd" stroke="#f0a6a6" stroke-width="39.9999999999968" stroke-linecap="square" stroke-linejoin="bevel" d="M0 13.4744C1.82613 -2.45653 74.9017 -5.77552 79.5443 11.781C75.4098 22.9437 7.42192 27.9424 0 13.4744Z" sodipodi:nodetypes="ccc"/><ellipse id="shape2" transform="translate(482.354484291941, 452.057050757038)" rx="29.2796168125068" ry="64.7710157999099" cx="29.2796168125068" cy="64.7710157999099" fill="#876344" fill-rule="evenodd" stroke-opacity="0" stroke="#000000" stroke-width="0" stroke-linecap="round" stroke-linejoin="miter" stroke-miterlimit="0"/><ellipse id="shape0111" transform="translate(670.684142382904, 448.423262071954)" rx="29.3406509630953" ry="64.7710157999099" cx="29.3406509630953" cy="64.7710157999099" fill="#876344" fill-rule="evenodd" stroke-opacity="0" stroke="#000000" stroke-width="0" stroke-linecap="round" stroke-linejoin="miter" stroke-miterlimit="0"/><path id="shape01" transform="translate(588.158406671219, 647.456520024386)" fill="#876344" stroke="#876344" stroke-width="19.9999999999984" stroke-linecap="round" stroke-linejoin="bevel" d="M0.000279224 5.30818C4.50534 22.026 37.7218 23.9337 43.8944 6.4227C47.1521 -2.00068 -0.132523 -1.89336 0.000279224 5.30818Z" sodipodi:nodetypes="ccc"/><path id="shape0" transform="translate(117.141167361199, 121.417001189808)" fill="#d4d3cf" fill-rule="evenodd" stroke="#876344" stroke-width="39.9999999999968" stroke-linecap="square" stroke-linejoin="bevel" d="M191.59 386.041C13.5801 396.315 -83.7502 105.32 94.714 22.1086C261.942 -52.9677 398.841 76.466 373.081 210.805C327.26 225.119 220.256 316.27 191.59 386.041Z" sodipodi:nodetypes="cccc"/><path id="shape1" transform="translate(878.139204578752, 116.637778687996)" fill="#d4d3cf" fill-rule="evenodd" stroke="#876344" stroke-width="39.9999999999968" stroke-linecap="round" stroke-linejoin="bevel" d="M2.24269 219.7C-24.2051 25.1856 189.547 -53.1749 312.587 37.6902C441.782 159.061 387.803 382.884 162.473 362.1" sodipodi:nodetypes="ccc"/><path id="shape6" transform="translate(761.079423074201, 576.109634915598)" fill="none" stroke="#876344" stroke-width="19.9999999999984" stroke-linecap="round" stroke-linejoin="miter" stroke-miterlimit="0" d="M0 15.5828L96.0287 0" sodipodi:nodetypes="cc"/><path id="shape021" transform="translate(761.079423074202, 624.773807061579)" fill="none" stroke="#876344" stroke-width="19.9999999999984" stroke-linecap="round" stroke-linejoin="miter" stroke-miterlimit="0" d="M0 0L96.405 15.0492" sodipodi:nodetypes="cc"/><path id="shape0311" transform="translate(361.860264898958, 585.603349444723)" fill="none" stroke="#876344" stroke-width="19.9999999999984" stroke-linecap="round" stroke-linejoin="miter" stroke-miterlimit="0" d="M0 0L82.3674 10.7799" sodipodi:nodetypes="cc"/><path id="shape04" transform="translate(361.326617180428, 627.015204914613)" fill="none" stroke="#876344" stroke-width="19.9999999999984" stroke-linecap="round" stroke-linejoin="miter" stroke-miterlimit="0" d="M0 9.2856L83.9683 0" sodipodi:nodetypes="cc"/><path id="shape3" transform="translate(526.422917976578, 601.763821129537)" fill="none" stroke="#876344" stroke-width="9.99999999999919" stroke-linecap="round" stroke-linejoin="bevel" d="M1.34926 94.81C-9.1956 40.7028 44.3402 0.736247 82.7933 0C121.673 0.167661 182.983 10.6803 189.861 90.6948" sodipodi:nodetypes="ccc"/><path id="shape4" transform="translate(616.503287580157, 1115.85609352134)" fill="#d4d3cf" fill-rule="evenodd" stroke="#876344" stroke-width="39.9999999999968" stroke-linecap="square" stroke-linejoin="bevel" d="M0 0C0.393332 33.2994 26.6639 86.2402 35.1495 88.0469C46.7447 84.8306 60.4943 36.1475 60.6115 3.08636C45.2115 3.20358 15.0382 2.79384 0 0Z" sodipodi:nodetypes="cccc"/><path id="shape5" transform="translate(555.217476351554, 1105.05384773544)" fill="#d4d3cf" fill-rule="evenodd" stroke="#876344" stroke-width="39.9999999999968" stroke-linecap="square" stroke-linejoin="bevel" d="M1.96027 0C-4.77867 25.995 6.66131 97.0686 23.993 98.5919C43.6138 96.7052 50.0876 37.2794 50.9981 6.60137C36.3914 6.87264 17.7867 3.58256 1.96027 0Z" sodipodi:nodetypes="cccc"/><path id="shape03" transform="translate(1188.69316226739, 1114.25129803095)" fill="#d4d3cf" stroke="#876344" stroke-width="39.9999999999968" stroke-linecap="square" stroke-linejoin="bevel" d="M0 4.02941C0.393332 37.3288 26.6639 90.2696 35.1495 92.0763C46.7447 88.86 59.3798 33.0611 59.497 0C45.7259 3.11784 15.0382 6.82325 0 4.02941Z" sodipodi:nodetypes="cccc"/><path id="shape05" transform="translate(1146.7709260905, 1119.73815303332)" fill="#d4d3cf" stroke="#876344" stroke-width="39.9999999999968" stroke-linecap="square" stroke-linejoin="bevel" d="M0 0.685853C0.393332 33.9853 3.77384 87.5262 22.4614 87.704C44.3442 84.2305 48.1491 33.0611 48.2663 0C32.8663 0.11722 15.0382 3.47969 0 0.685853Z" sodipodi:nodetypes="cccc"/><path id="shape7" transform="translate(1420.00704478883, 508.529830447504)" fill="none" stroke="#876344" stroke-width="39.9999999999968" stroke-linecap="round" stroke-linejoin="bevel" d="M22.2529 354.845C76.9898 369.542 127.104 337.541 127.187 294.49C132.639 206.714 -10.0378 174.472 0.563018 83.5888C7.01587 44.6717 63.9325 24.2367 85.2648 0" sodipodi:nodetypes="cccc"/>
</svg>
