<?xml version="1.0" standalone="no"?>
<!DOCTYPE svg PUBLIC "-//W3C//DTD SVG 20010904//EN" "http://www.w3.org/TR/2001/REC-SVG-20010904/DTD/svg10.dtd">
<!-- Created using Krita: https://krita.org -->
<svg xmlns="http://www.w3.org/2000/svg" 
    xmlns:xlink="http://www.w3.org/1999/xlink"
    xmlns:krita="http://krita.org/namespaces/svg/krita"
    xmlns:sodipodi="http://sodipodi.sourceforge.net/DTD/sodipodi-0.dtd"
    width="1603pt"
    height="1236pt"
    viewBox="0 0 1603 1236">
<defs/>
<path id="shape031" transform="translate(246.071112348755, 289.684463376514)" fill="#d4d3cf" stroke="#876344" stroke-width="39.9999999999968" stroke-linecap="round" stroke-linejoin="miter" stroke-miterlimit="0" d="M857.599 294.793C839.546 102.201 714.196 -4.38116 424.829 0.138083C159.319 3.24147 -10.9447 237.088 7.51624 462.609C8.73382 483.072 -2.99901 538.91 0.737992 559.206C4.47499 579.501 23.6818 564.255 30.1966 583.836C37.8181 606.142 48.4864 678.695 60.3294 698.862C70.9858 717.19 82.456 683.331 96.9272 699.453C113.376 717.247 166.226 791.553 187.306 806.182C208.385 820.81 197.695 775.762 223.889 786.669C276.774 808.484 340.724 822.298 417.239 825.889C677.311 825.889 920.131 834.113 992.15 822.4C1145.72 806.839 1244.08 633.551 1168.2 483.851C1174.55 454.687 1190.3 455.029 1172.81 439.901C1152.14 427.344 1110.06 403.774 1094.68 392.453C1090.34 386.198 1107.85 368.111 1091.52 360.732C1075.2 353.354 1007.22 344.852 996.495 339.937C974.618 330.541 1009.7 315.806 984.581 309.112C935.055 295.407 860.539 300.89 857.599 294.793Z" sodipodi:nodetypes="cccccccccccccccccc"/><path id="shape011" transform="translate(714.011124971214, 568.515929591985)" fill="#f0a6a6" fill-rule="evenodd" stroke="#f0a6a6" stroke-width="39.9999999999968" stroke-linecap="square" stroke-linejoin="bevel" d="M0 10.4061C1.68046 -1.89714 68.9265 -4.46034 73.1988 9.09827C69.3941 17.7191 6.82985 21.5795 0 10.4061Z" sodipodi:nodetypes="ccc"/><path id="shape02" transform="translate(428.612453584838, 570.799114617884)" fill="#f0a6a6" fill-rule="evenodd" stroke="#f0a6a6" stroke-width="39.9999999999968" stroke-linecap="square" stroke-linejoin="bevel" d="M0 13.4744C1.82613 -2.45653 74.9017 -5.77552 79.5443 11.781C75.4098 22.9437 7.42192 27.9424 0 13.4744Z" sodipodi:nodetypes="ccc"/><ellipse id="shape2" transform="translate(482.354484291941, 452.057050757038)" rx="29.2796168125068" ry="64.7710157999099" cx="29.2796168125068" cy="64.7710157999099" fill="#876344" fill-rule="evenodd" stroke-opacity="0" stroke="#000000" stroke-width="0" stroke-linecap="round" stroke-linejoin="miter" stroke-miterlimit="0"/><ellipse id="shape0111" transform="translate(670.684142382904, 448.423262071954)" rx="29.3406509630953" ry="64.7710157999099" cx="29.3406509630953" cy="64.7710157999099" fill="#876344" fill-rule="evenodd" stroke-opacity="0" stroke="#000000" stroke-width="0" stroke-linecap="round" stroke-linejoin="miter" stroke-miterlimit="0"/><path id="shape01" transform="translate(588.158413091335, 611.51291042716)" fill="#876344" stroke="#876344" stroke-width="19.9999999999984" stroke-linecap="round" stroke-linejoin="bevel" d="M0.000272804 6.48709C4.50533 23.2049 38.8363 22.8836 45.0089 5.37258C48.2666 -3.0508 -0.132529 -0.714451 0.000272804 6.48709Z" sodipodi:nodetypes="ccc"/><path id="shape0" transform="translate(117.141191258658, 121.416978341732)" fill="#d4d3cf" fill-rule="evenodd" stroke="#876344" stroke-width="39.9999999999968" stroke-linecap="square" stroke-linejoin="bevel" d="M191.59 386.041C13.5801 396.315 -83.7502 105.32 94.714 22.1086C261.942 -52.9677 398.841 76.466 373.081 210.805C327.26 225.119 220.256 316.27 191.59 386.041Z" sodipodi:nodetypes="cccc"/><path id="shape1" transform="translate(878.139201678914, 116.637798423771)" fill="#d4d3cf" fill-rule="evenodd" stroke="#876344" stroke-width="39.9999999999968" stroke-linecap="round" stroke-linejoin="bevel" d="M2.24269 219.7C-24.2051 25.1856 189.547 -53.1749 312.587 37.6902C441.782 159.061 387.803 382.884 162.473 362.1" sodipodi:nodetypes="ccc"/><path id="shape6" transform="translate(761.079423074201, 576.109634915598)" fill="none" stroke="#876344" stroke-width="19.9999999999984" stroke-linecap="round" stroke-linejoin="miter" stroke-miterlimit="0" d="M0 15.5828L96.0287 0" sodipodi:nodetypes="cc"/><path id="shape021" transform="translate(761.079423074202, 624.773807061579)" fill="none" stroke="#876344" stroke-width="19.9999999999984" stroke-linecap="round" stroke-linejoin="miter" stroke-miterlimit="0" d="M0 0L96.405 15.0492" sodipodi:nodetypes="cc"/><path id="shape0311" transform="translate(361.860264898958, 585.603349444723)" fill="none" stroke="#876344" stroke-width="19.9999999999984" stroke-linecap="round" stroke-linejoin="miter" stroke-miterlimit="0" d="M0 0L82.3674 10.7799" sodipodi:nodetypes="cc"/><path id="shape04" transform="translate(361.326617180428, 627.015204914613)" fill="none" stroke="#876344" stroke-width="19.9999999999984" stroke-linecap="round" stroke-linejoin="miter" stroke-miterlimit="0" d="M0 9.2856L83.9683 0" sodipodi:nodetypes="cc"/><path id="shape4" transform="translate(616.503287580157, 1115.85609352134)" fill="#d4d3cf" fill-rule="evenodd" stroke="#876344" stroke-width="39.9999999999968" stroke-linecap="square" stroke-linejoin="bevel" d="M0 0C0.393332 33.2994 26.6639 86.2402 35.1495 88.0469C46.7447 84.8306 60.4943 36.1475 60.6115 3.08636C45.2115 3.20358 15.0382 2.79384 0 0Z" sodipodi:nodetypes="cccc"/><path id="shape5" transform="translate(555.217474359189, 1105.05384773544)" fill="#d4d3cf" fill-rule="evenodd" stroke="#876344" stroke-width="39.9999999999968" stroke-linecap="square" stroke-linejoin="bevel" d="M1.96027 0C-4.77867 25.995 6.66131 97.0686 23.993 98.5919C43.6138 96.7052 50.0876 37.2794 50.9981 6.60137C36.3914 6.87264 17.7867 3.58256 1.96027 0Z" sodipodi:nodetypes="cccc"/><path id="shape03" transform="translate(1188.69316226739, 1114.25129803095)" fill="#d4d3cf" stroke="#876344" stroke-width="39.9999999999968" stroke-linecap="square" stroke-linejoin="bevel" d="M0 4.02941C0.393332 37.3288 26.6639 90.2696 35.1495 92.0763C46.7447 88.86 59.3798 33.0611 59.497 0C45.7259 3.11784 15.0382 6.82325 0 4.02941Z" sodipodi:nodetypes="cccc"/><path id="shape05" transform="translate(1146.7709260905, 1119.73815303332)" fill="#d4d3cf" stroke="#876344" stroke-width="39.9999999999968" stroke-linecap="square" stroke-linejoin="bevel" d="M0 0.685853C0.393332 33.9853 3.77384 87.5262 22.4614 87.704C44.3442 84.2305 48.1491 33.0611 48.2663 0C32.8663 0.11722 15.0382 3.47969 0 0.685853Z" sodipodi:nodetypes="cccc"/><path id="shape7" transform="translate(1420.00704495681, 508.529830447504)" fill="none" stroke="#876344" stroke-width="39.9999999999968" stroke-linecap="round" stroke-linejoin="bevel" d="M22.2529 354.845C76.9898 369.542 127.104 337.541 127.187 294.49C132.639 206.714 -10.0378 174.472 0.563018 83.5888C7.01587 44.6717 63.9325 24.2367 85.2648 0" sodipodi:nodetypes="cccc"/><path id="shape3" transform="translate(548.6904270159, 666.96276864068)" fill="none" stroke="#876344" stroke-width="19.9999999999984" stroke-linecap="round" stroke-linejoin="bevel" d="M0 3.42928C13.9834 10.4211 127.545 0.625784 132.368 0" sodipodi:nodetypes="cc"/><path id="shape8" transform="translate(565.736040816235, 679.994049271287)" fill="#fdfaf0" fill-rule="evenodd" stroke="#876344" stroke-width="19.9999999999984" stroke-linecap="square" stroke-linejoin="bevel" d="M0.0147645 3.17209C-0.199026 14.5745 1.96694 46.3067 2.75814 54.3542C7.83087 56.0028 80.3522 55.5743 83.8592 53.1539C86.0691 42.6563 90.8819 8.57734 90.8034 0" sodipodi:nodetypes="cccc"/><path id="shape9" transform="translate(607.182946272952, 676.564764894813)" fill="none" stroke="#876344" stroke-width="19.9999999999984" stroke-linecap="round" stroke-linejoin="bevel" d="M2.2047 0C-1.61271 14.2816 0.646088 47.1447 0.833017 51.0106" sodipodi:nodetypes="cc"/>
</svg>
