<?xml version="1.0" standalone="no"?>
<!DOCTYPE svg PUBLIC "-//W3C//DTD SVG 20010904//EN" "http://www.w3.org/TR/2001/REC-SVG-20010904/DTD/svg10.dtd">
<!-- Created using Krita: https://krita.org -->
<svg xmlns="http://www.w3.org/2000/svg" 
    xmlns:xlink="http://www.w3.org/1999/xlink"
    xmlns:krita="http://krita.org/namespaces/svg/krita"
    xmlns:sodipodi="http://sodipodi.sourceforge.net/DTD/sodipodi-0.dtd"
    width="1012pt"
    height="1013pt"
    viewBox="0 0 1012 1013">
<defs/>
<path id="shape0" transform="translate(86.2682751280328, 136.259821304267)" fill="none" stroke="#876344" stroke-width="40" stroke-linecap="round" stroke-linejoin="miter" stroke-miterlimit="0" d="M480.843 640.321C483.833 745.936 237.189 744.119 228.491 738.293C224.525 731.5 323.547 699.813 300.344 630.279C264.124 612.913 18.6628 601.448 1.24358 375.59C-18.5582 129.525 201.417 3.93381 425.782 0C680.835 7.98069 852.598 168.054 838.675 363.113C814.808 645.311 485.335 634.094 480.843 640.321Z" sodipodi:nodetypes="ccccccc"/><path id="shape1" transform="translate(283.199465492167, 356.378835368097)" fill="none" stroke="#876344" stroke-width="40" stroke-linecap="round" stroke-linejoin="miter" stroke-miterlimit="0" d="M0 5.86675C18.7914 6.78075 424.355 -0.63572 441.584 0.0441141" sodipodi:nodetypes="cc"/><path id="shape2" transform="translate(286.15292230081, 474.550920494197)" fill="none" stroke="#876344" stroke-width="40" stroke-linecap="round" stroke-linejoin="miter" stroke-miterlimit="0" d="M0 0L248.582 0" sodipodi:nodetypes="cc"/><path id="shape3" transform="translate(605.548180035576, 474.550920494197)" fill="none" stroke="#876344" stroke-width="40" stroke-linecap="round" stroke-linejoin="miter" stroke-miterlimit="0" d="M0 0L121.598 0" sodipodi:nodetypes="cc"/><path id="shape4" transform="translate(286.574844702046, 587.893804392029)" fill="none" stroke="#876344" stroke-width="40" stroke-linecap="round" stroke-linejoin="miter" stroke-miterlimit="0" d="M0 0L101.261 0.168772" sodipodi:nodetypes="cc"/><path id="shape5" transform="translate(463.360330819438, 581.902396918331)" fill="none" stroke="#876344" stroke-width="40" stroke-linecap="round" stroke-linejoin="miter" stroke-miterlimit="0" d="M0 4.2193L262.858 0" sodipodi:nodetypes="cc"/>
</svg>
