<?xml version="1.0" standalone="no"?>
<!DOCTYPE svg PUBLIC "-//W3C//DTD SVG 20010904//EN" "http://www.w3.org/TR/2001/REC-SVG-20010904/DTD/svg10.dtd">
<!-- Created using Krita: https://krita.org -->
<svg xmlns="http://www.w3.org/2000/svg" 
    xmlns:xlink="http://www.w3.org/1999/xlink"
    xmlns:krita="http://krita.org/namespaces/svg/krita"
    xmlns:sodipodi="http://sodipodi.sourceforge.net/DTD/sodipodi-0.dtd"
    width="956pt"
    height="803pt"
    viewBox="0 0 956 803">
<defs/>
<path id="shape0" transform="translate(83.2469644715907, 30.5121082091526)" fill="#fdfaf0" stroke="#876344" stroke-width="40" stroke-linecap="round" stroke-linejoin="miter" stroke-miterlimit="0" d="M480.843 640.321C483.833 745.936 237.189 744.119 228.491 738.293C224.525 731.5 323.547 699.813 300.344 630.279C264.124 612.913 18.6628 601.448 1.24358 375.59C-18.5582 129.525 201.417 3.93381 425.782 0C680.835 7.98069 852.598 168.054 838.675 363.113C814.808 645.311 485.335 634.094 480.843 640.321Z" sodipodi:nodetypes="ccccccc"/><path id="shape1" transform="translate(280.178157417387, 249.306767930807)" fill="none" stroke="#876344" stroke-width="40" stroke-linecap="round" stroke-linejoin="miter" stroke-miterlimit="0" d="M0 1.42943C18.7914 2.34343 425.971 -0.576122 443.2 0.103712" sodipodi:nodetypes="cc"/><path id="shape2" transform="translate(283.13161422603, 363.041537981276)" fill="none" stroke="#876344" stroke-width="40" stroke-linecap="round" stroke-linejoin="miter" stroke-miterlimit="0" d="M0 0L248.582 0" sodipodi:nodetypes="cc"/><path id="shape3" transform="translate(602.526871960796, 363.041537981276)" fill="none" stroke="#876344" stroke-width="40" stroke-linecap="round" stroke-linejoin="miter" stroke-miterlimit="0" d="M0 0L121.598 0" sodipodi:nodetypes="cc"/><path id="shape4" transform="translate(285.169585132381, 474.206229782132)" fill="none" stroke="#876344" stroke-width="40" stroke-linecap="round" stroke-linejoin="miter" stroke-miterlimit="0" d="M0 0L105.125 0.871415" sodipodi:nodetypes="cc"/><path id="shape5" transform="translate(461.392967421907, 473.909671793482)" fill="none" stroke="#876344" stroke-width="40" stroke-linecap="round" stroke-linejoin="miter" stroke-miterlimit="0" d="M0 0L266.933 1.40184" sodipodi:nodetypes="cc"/><path id="shape6" transform="translate(684.139252572473, 19.1855094934846)" fill="#facccc" fill-rule="evenodd" stroke="#f0a6a6" stroke-width="20" stroke-linecap="square" stroke-linejoin="bevel" d="M95.0642 162.293C86.4539 159.111 -63.1236 47.8896 30.9492 1.59888C85.6041 -10.976 103.32 54.673 97.5585 57.2482C92.4293 55.6975 108.882 -12.4485 162.411 4.54998C248.823 56.6645 103.126 159.719 95.0642 162.293Z" sodipodi:nodetypes="ccccc"/><path id="shape7" transform="translate(157.92632984606, 438.747631886607)" fill="#fc797e" fill-rule="evenodd" stroke="#c65353" stroke-width="20" stroke-linecap="square" stroke-linejoin="bevel" d="M7.07325 5.2384C-13.0539 23.3826 14.3699 54.1783 32.1571 39.3166C51.0571 23.4659 32.8852 -13.6617 7.07325 5.2384Z" sodipodi:nodetypes="ccc"/><path id="shape8" transform="translate(19.1190151660143, 204.45516679453)" fill="#fc797e" fill-rule="evenodd" stroke="#c65353" stroke-width="20" stroke-linecap="square" stroke-linejoin="bevel" d="M136.079 212.036C129.53 213.231 -3.83865 49.8049 0.0848815 44.9691C15.2067 31.4281 69.6036 7.67513 86.7191 0C90.2976 0.93351 140.64 209.456 136.079 212.036Z" sodipodi:nodetypes="cccc"/><path id="shape9" transform="translate(599.657788983721, 479.680277886598)" fill="#f9e6a9" fill-rule="evenodd" stroke="#f7d871" stroke-width="20" stroke-linecap="square" stroke-linejoin="bevel" d="M41.4789 110.42C36.3647 111.208 6.92284 112.529 0.550677 110.666C-5.08456 42.2006 33.1088 1.89041 88.5902 0C132.513 2.13347 177.129 23.1947 180.775 100.408C178.168 179.255 115.064 159.239 118.522 204.75C115.151 207.322 81.9355 205.814 77.5589 204.047C69.9588 141.906 138.705 142.47 137.072 98.4402C136.517 41.8085 37.8078 37.6699 41.4789 110.42Z" sodipodi:nodetypes="cccccccc"/><path id="shape01" transform="translate(671.95069425238, 713.631396008636)" fill="#f9e6a9" fill-rule="evenodd" stroke="#f7d871" stroke-width="20" stroke-linecap="square" stroke-linejoin="bevel" d="M8.86063 7.53502C-17.5902 28.6303 21.6378 67.2254 42.3058 50.1855C62.4002 30.6108 38.537 -18.7428 8.86063 7.53502Z" sodipodi:nodetypes="ccc"/>
</svg>
