<?xml version="1.0" standalone="no"?>
<!DOCTYPE svg PUBLIC "-//W3C//DTD SVG 20010904//EN" "http://www.w3.org/TR/2001/REC-SVG-20010904/DTD/svg10.dtd">
<!-- Created using Krita: https://krita.org -->
<svg xmlns="http://www.w3.org/2000/svg" 
    xmlns:xlink="http://www.w3.org/1999/xlink"
    xmlns:krita="http://krita.org/namespaces/svg/krita"
    xmlns:sodipodi="http://sodipodi.sourceforge.net/DTD/sodipodi-0.dtd"
    width="1103pt"
    height="1115pt"
    viewBox="0 0 1103 1115">
<defs/>
<path id="shape0" transform="matrix(0.945902019833384 0 0 1 671.581757363686 409.506844120248)" fill="none" stroke="#876344" stroke-width="40" stroke-linecap="round" stroke-linejoin="bevel" d="M161.477 0.0431509C225.226 37.4512 213.047 103.628 203.644 133.539C183.657 190.971 110.402 168.71 105.665 176.161C104.037 182.197 105.157 229.396 104.106 237.749C99.9793 243.12 3.60765 138.055 0 132.342C3.98417 125.657 88.3642 26.0081 93.0732 28.6966C95.6092 36.7464 98.0889 83.7986 101.816 86.9606C111.621 89.3836 144.427 85.2914 162.338 75.6347C199.637 39.2849 158.241 -1.51253 161.477 0.0431509Z" sodipodi:nodetypes="ccccccccc"/><path id="shape1" transform="translate(156.28735763111, 57.5507091474232)" fill="none" stroke="#876344" stroke-width="40" stroke-linecap="round" stroke-linejoin="bevel" d="M0 38.1129C6.6475 35.284 527.579 -4.38268 534.431 0.399585C535.873 7.99156 559.414 406.255 559.78 417.545" sodipodi:nodetypes="ccc"/><path id="shape2" transform="translate(667.015785479752, 609.968556587181)" fill="none" stroke="#876344" stroke-width="40" stroke-linecap="round" stroke-linejoin="bevel" d="M55.7669 0C55.6199 14.4289 73.1994 349.589 68.9854 350.629C62.2764 349.722 8.90725 347.986 0 347.268" sodipodi:nodetypes="ccc"/><path id="shape3" transform="translate(157.067277661532, 93.2203470752069)" fill="none" stroke="#876344" stroke-width="40" stroke-linecap="round" stroke-linejoin="bevel" d="M509.017 963.99C506.282 969.57 44.7713 875.507 38.8075 869.487C39.474 860.154 -2.40499 7.46779 0.108822 0C10.9212 2.46347 454.612 80.8107 459.523 84.8147C461.542 87.693 509.317 960.375 509.017 963.99Z" sodipodi:nodetypes="ccccc"/><path id="shape4" transform="translate(250.806003353832, 213.38331249766)" fill="none" stroke="#876344" stroke-width="40" stroke-linecap="round" stroke-linejoin="bevel" d="M298.718 318.095C298.626 301.681 284.851 61.4802 283.719 53.5922C281.974 50.1028 1.49039 -3.31255 0.21773 0.16237C-2.49273 10.0124 20.9245 682.065 24.8335 686.486C32.0498 691.74 315.802 745.367 321.598 738.979C321.444 733.416 308.634 525.588 307.066 521.255" sodipodi:nodetypes="cccccc"/><ellipse id="shape5" transform="matrix(0.793378568350978 0 0 0.845063539165143 527.745360134655 583.866234407712)" rx="35.5" ry="59" cx="35.5" cy="59" fill="none" stroke="#876344" stroke-width="30" stroke-linecap="square" stroke-linejoin="bevel"/><path id="shape6" transform="translate(324.372899830532, 604.000991589314)" fill="none" stroke="#876344" stroke-width="40" stroke-linecap="round" stroke-linejoin="miter" stroke-miterlimit="2" d="M0 0L153.494 13.9487" sodipodi:nodetypes="cc"/><path id="shape7" transform="translate(397.11269019581, 391.234644383806)" fill="none" stroke="#876344" stroke-width="40" stroke-linecap="round" stroke-linejoin="miter" stroke-miterlimit="2" d="M0 0L19.1616 409.559" sodipodi:nodetypes="cc"/><path id="shape01" transform="translate(314.727395795038, 76.2041761532876)" fill="#876344" fill-rule="evenodd" stroke-opacity="0" stroke="#000000" stroke-width="0" stroke-linecap="square" stroke-linejoin="bevel" d="M0 24.3509C12.9041 23.5655 345.212 -1.90051 359.466 0.113405C359.119 12.578 382.794 388.854 383.814 400.7C376.103 408.225 345.77 464.468 342.52 469.666C347.091 473.065 383.174 521.576 389.499 532.238C388.18 542.516 403.716 852.918 403.861 863.283C390.904 863.969 369.996 866.839 364.116 865.613C361.873 860.394 326.21 86.681 316.854 86.7985C319.794 81.1635 4.28307 28.3507 0 24.3509Z" sodipodi:nodetypes="ccccccccc"/>
</svg>
