<?xml version="1.0" standalone="no"?>
<!DOCTYPE svg PUBLIC "-//W3C//DTD SVG 20010904//EN" "http://www.w3.org/TR/2001/REC-SVG-20010904/DTD/svg10.dtd">
<!-- Created using Krita: https://krita.org -->
<svg xmlns="http://www.w3.org/2000/svg" 
    xmlns:xlink="http://www.w3.org/1999/xlink"
    xmlns:krita="http://krita.org/namespaces/svg/krita"
    xmlns:sodipodi="http://sodipodi.sourceforge.net/DTD/sodipodi-0.dtd"
    width="838pt"
    height="1068pt"
    viewBox="0 0 838 1068">
<defs/>
<path id="shape1" transform="matrix(0.999227293846419 0.0393041375985102 -0.0393041375985102 0.999227293846419 43.3673081073058 19.1631610313069)" fill="none" stroke="#876344" stroke-width="40" stroke-linecap="round" stroke-linejoin="bevel" d="M0 23.3544C6.6475 20.5255 537.626 -4.16957 544.478 0.612693C548.821 7.15623 558.934 314.554 560.038 326.898" sodipodi:nodetypes="ccc"/><path id="shape2" transform="matrix(0.999227293846419 0.0393041375985102 -0.0393041375985102 0.999227293846419 453.677217959905 648.092074895188)" fill="none" stroke="#876344" stroke-width="40" stroke-linecap="round" stroke-linejoin="bevel" d="M134.797 0C136.661 21.4668 146.26 266.906 143.909 268.105C137.707 268.261 9.38724 272.951 0 272.779" sodipodi:nodetypes="ccc"/><path id="shape3" transform="matrix(0.999227293846419 0.0393041375985102 -0.0393041375985102 0.999227293846419 42.8713678711769 45.03798873506)" fill="none" stroke="#876344" stroke-width="40" stroke-linecap="round" stroke-linejoin="bevel" d="M416.833 969.508C414.098 975.088 42.9012 873.491 36.9374 867.471C37.6039 858.138 -2.22939 6.30034 0.098187 0.000860682C8.78886 -0.315978 368.583 86.9458 378.434 93.7542C380.386 105.756 416.68 964.208 416.833 969.508Z" sodipodi:nodetypes="ccccc"/><path id="shape4" transform="matrix(0.999227293846419 0.0393041375985102 -0.0393041375985102 0.999227293846419 129.72152539242 160.25036678703)" fill="none" stroke="#876344" stroke-width="40" stroke-linecap="round" stroke-linejoin="bevel" d="M212.685 325.665C212.593 309.251 204.189 58.3572 203.057 50.4692C201.312 46.9798 1.46941 -3.30289 0.19675 0.172024C-2.51371 10.022 23.6103 685.555 27.5193 689.976C34.7356 695.23 225.156 745.824 230.952 739.436C234.203 734.541 222.457 529.789 220.889 525.456" sodipodi:nodetypes="cccccc"/><ellipse id="shape5" transform="matrix(0.792765519849108 0.0311830604181767 -0.0332144936228317 0.844410553368279 297.637689282047 538.930077292474)" rx="35.5" ry="59" cx="35.5" cy="59" fill="none" stroke="#876344" stroke-width="30" stroke-linecap="square" stroke-linejoin="bevel"/><path id="shape6" transform="matrix(0.999227293846419 0.0393041375985102 -0.0393041375985102 0.999227293846419 187.168125055325 556.367911572218)" fill="none" stroke="#876344" stroke-width="40" stroke-linecap="round" stroke-linejoin="miter" stroke-miterlimit="2" d="M0 0L59.1413 6.87426" sodipodi:nodetypes="cc"/><path id="shape7" transform="matrix(0.999227293846419 0.0393041375985102 -0.0393041375985102 0.999227293846419 217.251646714551 361.528430741671)" fill="none" stroke="#876344" stroke-width="40" stroke-linecap="round" stroke-linejoin="miter" stroke-miterlimit="2" d="M0 0L14.464 384.893" sodipodi:nodetypes="cc"/><path id="shape01" transform="matrix(0.999227293846419 0.0393041375985102 -0.0393041375985102 0.999227293846419 78.1612955828742 18.366045587848)" fill="#876344" fill-rule="evenodd" stroke-opacity="0" stroke="#000000" stroke-width="0" stroke-linecap="square" stroke-linejoin="bevel" d="M0 24.2982C12.9041 23.5128 498.079 -1.90029 512.333 0.11363C512.278 11.082 523.329 325.02 524.349 336.866C516.638 344.391 414.974 463.037 409.13 472.112C415.401 477.985 533.167 594.257 539.492 604.919C538.177 615.201 543.242 870.048 543.198 880.238C530.241 880.924 387.971 886.59 378.026 888.615C375.058 874.638 344.788 135.501 342.033 121.471C326.674 112.344 4.28307 28.298 0 24.2982Z" sodipodi:nodetypes="ccccccccc"/><path id="shape0" transform="matrix(0.999227293846419 0.0393041375985102 -0.0393041375985102 0.999227293846419 478.473703255887 343.207497344228)" fill="none" stroke="#876344" stroke-width="20" stroke-linecap="round" stroke-linejoin="bevel" d="M274.3 13.8756C354.412 49.7469 343.236 143.957 324.259 174.042C286.315 225.148 162.291 210.436 162.426 215.798C162.732 220.829 167.027 315.685 165.976 324.038C161.849 329.409 1.45719 169.843 9.8654e-05 162.506C-0.136011 156.59 140.612 -2.65484 145.321 0.0336594C147.857 8.08346 151.496 112.568 153.676 116.89C156.675 121.402 209.401 119.742 259.187 107.562C338.272 74.8047 271.252 12.1947 274.3 13.8756Z" sodipodi:nodetypes="ccccccccc"/>
</svg>
