<?xml version="1.0" standalone="no"?>
<!DOCTYPE svg PUBLIC "-//W3C//DTD SVG 20010904//EN" "http://www.w3.org/TR/2001/REC-SVG-20010904/DTD/svg10.dtd">
<!-- Created using Krita: https://krita.org -->
<svg xmlns="http://www.w3.org/2000/svg" 
    xmlns:xlink="http://www.w3.org/1999/xlink"
    xmlns:krita="http://krita.org/namespaces/svg/krita"
    xmlns:sodipodi="http://sodipodi.sourceforge.net/DTD/sodipodi-0.dtd"
    width="1103pt"
    height="1115pt"
    viewBox="0 0 1103 1115">
<defs/>
<path id="shape0" transform="translate(616.448443129582, 376.891789000157)" fill="none" stroke="#876344" stroke-width="40" stroke-linecap="round" stroke-linejoin="bevel" d="M248.16 0.0243698C344.977 38.1385 340.452 121.338 313.818 169.211C263.732 244.911 151.541 208.572 146.804 216.023C145.176 222.059 150.013 314.363 148.962 322.716C144.835 328.087 3.85456 176.51 0 171.547C3.42143 164.471 129.166 14.971 133.875 17.6595C136.411 25.7093 137.111 122.615 140.838 125.777C150.643 128.2 181.095 151.057 240.548 118.923C294.086 71.7464 244.924 -1.53131 248.16 0.0243698Z" sodipodi:nodetypes="ccccccccc"/><path id="shape1" transform="translate(156.258471540005, 57.6219204529962)" fill="none" stroke="#876344" stroke-width="40" stroke-linecap="round" stroke-linejoin="bevel" d="M0 42.4981C6.6475 39.6692 536.786 -4.41995 543.638 0.362317C547.981 6.90585 551.175 359.448 551.541 370.738" sodipodi:nodetypes="ccc"/><path id="shape2" transform="translate(591.351623036521, 676.575979149847)" fill="none" stroke="#876344" stroke-width="40" stroke-linecap="round" stroke-linejoin="bevel" d="M134.385 0C134.238 14.4289 147.645 286.927 143.431 287.967C136.722 287.06 7.59161 288.84 0 289.062" sodipodi:nodetypes="ccc"/><path id="shape3" transform="translate(157.038391155096, 97.6767167472347)" fill="none" stroke="#876344" stroke-width="40" stroke-linecap="round" stroke-linejoin="bevel" d="M410.798 959.451C408.063 965.031 44.7713 875.507 38.8075 869.487C39.474 860.154 -2.40499 7.46779 0.108822 0C10.9212 2.46347 349.996 89.2796 359.847 96.088C361.799 108.089 411.098 955.836 410.798 959.451Z" sodipodi:nodetypes="ccccc"/><path id="shape4" transform="translate(250.77711775455, 217.823476361697)" fill="none" stroke="#876344" stroke-width="40" stroke-linecap="round" stroke-linejoin="bevel" d="M204.199 322.578C204.107 306.164 191.604 56.4303 190.472 48.5423C188.727 45.0529 1.49039 -3.29634 0.21773 0.178576C-2.49273 10.0286 20.9245 682.081 24.8335 686.502C32.0498 691.756 222.47 742.35 228.266 735.962C231.517 731.067 219.771 526.315 218.203 521.982" sodipodi:nodetypes="cccccc"/><ellipse id="shape5" transform="matrix(0.793378568350978 0 0 0.845063539165143 430.761366822419 586.137065551978)" rx="35.5" ry="59" cx="35.5" cy="59" fill="none" stroke="#876344" stroke-width="30" stroke-linecap="square" stroke-linejoin="bevel"/><path id="shape6" transform="translate(321.06254214571, 607.903336462688)" fill="none" stroke="#876344" stroke-width="40" stroke-linecap="round" stroke-linejoin="miter" stroke-miterlimit="2" d="M0 0L59.1413 6.87426" sodipodi:nodetypes="cc"/><path id="shape7" transform="translate(343.464820318443, 412.032002423198)" fill="none" stroke="#876344" stroke-width="40" stroke-linecap="round" stroke-linejoin="miter" stroke-miterlimit="2" d="M0 0L14.464 384.893" sodipodi:nodetypes="cc"/><path id="shape01" transform="translate(247.496329770776, 73.6624956402762)" fill="#876344" fill-rule="evenodd" stroke-opacity="0" stroke="#000000" stroke-width="0" stroke-linecap="square" stroke-linejoin="bevel" d="M0 33.1541C12.9041 32.3687 421.81 -1.92859 436.064 0.0853247C435.898 10.2067 440.928 347.288 441.948 359.134C434.237 366.659 358.472 463.976 352.628 473.051C358.899 478.924 455.394 586.661 461.719 597.323C460.4 607.601 470.164 860.923 470.309 871.288C457.352 871.974 341.98 873.029 332.035 875.054C329.067 861.077 288.541 125.207 285.786 111.177C270.427 102.05 4.28307 37.1539 0 33.1541Z" sodipodi:nodetypes="ccccccccc"/>
</svg>
