<?xml version="1.0" standalone="no"?>
<!DOCTYPE svg PUBLIC "-//W3C//DTD SVG 20010904//EN" "http://www.w3.org/TR/2001/REC-SVG-20010904/DTD/svg10.dtd">
<!-- Created using Krita: https://krita.org -->
<svg xmlns="http://www.w3.org/2000/svg" 
    xmlns:xlink="http://www.w3.org/1999/xlink"
    xmlns:krita="http://krita.org/namespaces/svg/krita"
    xmlns:sodipodi="http://sodipodi.sourceforge.net/DTD/sodipodi-0.dtd"
    width="1123pt"
    height="1129pt"
    viewBox="0 0 1123 1129">
<defs/>
<path id="shape0" transform="translate(435.751006733697, 408.437258900511)" fill="none" stroke="#876344" stroke-width="40" stroke-linecap="round" stroke-linejoin="bevel" d="M0.895342 211.2C10.0137 224.036 139.938 269.834 0.141218 629.84C-3.43388 638.092 61.9382 587.124 75.2708 591.568C86.6951 604.126 119.019 641.194 141.162 644.357C143.752 644.727 185.08 610.332 208.468 598.638C210.299 597.722 305.558 662.179 305.043 660.571C126.106 278.66 289.253 196.576 295.381 182.26C297.266 174.494 234.678 264.055 183.77 218.836C156.235 190 200.078 51.9844 194.234 58.6756C166.614 128.202 136.031 166.616 112.788 154.263C69.5412 150.959 49.708 -5.24262 43.5033 0.135755C17.4884 65.1741 51.9618 172.04 74.8937 239.103C73.7879 242.441 -6.90334 181.301 0.895342 211.2Z" sodipodi:nodetypes="ccccccccccccc"/><path id="shape1" transform="translate(228.540431341587, 83.1126835837642)" fill="none" stroke="#876344" stroke-width="40" stroke-linecap="round" stroke-linejoin="bevel" d="M205.221 622.636C131.163 648.808 61.4289 628.235 20.3665 561.645C-27.3583 471.492 44.0585 385.365 46.1952 378.295C45.3047 374.382 -25.8678 306.766 10.1858 213.045C62.5288 101.715 166.981 119.375 175.339 117.552C180.183 114.826 208.033 -6.6245 346.336 0.283873C485.154 10.0095 493.167 142.899 500.837 148.378C510.161 150.836 621.036 130.276 665.896 209.934C708.469 283.98 651.933 363.165 650.908 371.225C652.546 378.688 736.575 480.924 655.15 580.121C609.619 631.584 523.595 645.367 489.997 625.841" sodipodi:nodetypes="ccccccccccc"/><path id="shape2" transform="translate(396.702844524643, 295.959502215735)" fill="none" stroke="#876344" stroke-width="15" stroke-linecap="round" stroke-linejoin="bevel" d="M25.0062 4.45544C16.3729 -4.35202 -5.44871 -3.15719 1.26237 36.6616C10.8641 64.5113 21.0861 71.3654 40.1367 65.4301C58.4309 73.6425 70.3565 66.7339 81.0668 37.8698C89.0557 -0.537679 62.0231 -0.80273 55.5381 5.13294" sodipodi:nodetypes="ccccc"/><path id="shape3" transform="translate(435.376422088722, 273.269907331949)" fill="none" stroke="#876344" stroke-width="10" stroke-linecap="round" stroke-linejoin="bevel" d="M5.84415 0C1.01335 7.72632 -1.99976 22.081 1.55342 38.8883" sodipodi:nodetypes="cc"/><path id="shape01" transform="matrix(1.05134067256619 -0.0842200324726396 0.0842200324726396 1.05134067256619 583.067959305029 238.548612139438)" fill="none" stroke="#876344" stroke-width="15" stroke-linecap="round" stroke-linejoin="bevel" d="M25.0062 4.45544C16.3729 -4.35202 -5.4487 -3.15719 1.26238 36.6616C10.8641 64.5113 21.0861 71.3654 40.1367 65.4301C58.4309 73.6425 70.3565 66.7339 81.0668 37.8698C89.0557 -0.537678 62.0231 -0.802729 55.5381 5.13294" sodipodi:nodetypes="ccccc"/><path id="shape11" transform="matrix(1.05134067256619 -0.0842200324726396 0.0842200324726396 1.05134067256619 620.529039068048 215.803852857542)" fill="none" stroke="#876344" stroke-width="10" stroke-linecap="round" stroke-linejoin="bevel" d="M0 0C5.71243 15.8207 5.91944 12.037 3.23766 32.015" sodipodi:nodetypes="cc"/><path id="shape02" transform="matrix(0.888345490468379 0.20021768408832 -0.20021768408832 0.888345490468379 329.776544276915 519.684573553089)" fill="none" stroke="#876344" stroke-width="15" stroke-linecap="round" stroke-linejoin="bevel" d="M25.0062 4.45544C16.3729 -4.35202 -5.4487 -3.15719 1.26238 36.6616C10.8641 64.5113 21.0861 71.3654 40.1367 65.4301C58.4309 73.6425 70.3565 66.7339 81.0668 37.8698C89.0557 -0.537678 62.0231 -0.802729 55.5381 5.13294" sodipodi:nodetypes="ccccc"/><path id="shape12" transform="matrix(0.888345490468379 0.20021768408832 -0.20021768408832 0.888345490468379 368.287556571289 509.346337183411)" fill="none" stroke="#876344" stroke-width="10" stroke-linecap="round" stroke-linejoin="bevel" d="M14.938 0C0.227071 8.05486 -2.08576 19.7648 1.46742 36.5721" sodipodi:nodetypes="cc"/><path id="shape03" transform="matrix(0.943212508263144 -0.180776731302925 0.180776731302925 0.943212508263144 774.976487538874 527.878640615851)" fill="none" stroke="#876344" stroke-width="15" stroke-linecap="round" stroke-linejoin="bevel" d="M25.0062 4.45544C16.3729 -4.35202 -5.4487 -3.15719 1.26238 36.6616C10.8641 64.5113 21.0861 71.3654 40.1367 65.4301C58.4309 73.6425 70.3565 66.7339 81.0668 37.8698C89.0557 -0.537678 62.0231 -0.802729 55.5381 5.13294" sodipodi:nodetypes="ccccc"/><path id="shape13" transform="matrix(0.943212508263144 -0.180776731302925 0.180776731302925 0.943212508263144 803.668671678565 507.312186109096)" fill="none" stroke="#876344" stroke-width="10" stroke-linecap="round" stroke-linejoin="bevel" d="M0 0C7.58274 3.66368 5.74439 15.728 6.48711 31.1229" sodipodi:nodetypes="cc"/><path id="shape04" transform="matrix(0.813795390765459 0.159070934559653 -0.159070934559653 0.813795390765459 671.847131480139 398.603642733757)" fill="none" stroke="#876344" stroke-width="15" stroke-linecap="round" stroke-linejoin="bevel" d="M25.0062 4.45544C16.3729 -4.35202 -5.4487 -3.15719 1.26238 36.6616C10.8641 64.5113 21.0861 71.3654 40.1367 65.4301C58.4309 73.6425 70.3565 66.7339 81.0668 37.8698C89.0557 -0.537678 62.0231 -0.802729 55.5381 5.13294" sodipodi:nodetypes="ccccc"/><path id="shape14" transform="matrix(0.813795390765459 0.159070934559653 -0.159070934559653 0.813795390765459 706.9287706841 386.290798721808)" fill="none" stroke="#876344" stroke-width="10" stroke-linecap="round" stroke-linejoin="bevel" d="M5.84415 0C1.01335 7.72632 -1.99976 22.081 1.55342 38.8883" sodipodi:nodetypes="cc"/>
</svg>
