<?xml version="1.0" standalone="no"?>
<!DOCTYPE svg PUBLIC "-//W3C//DTD SVG 20010904//EN" "http://www.w3.org/TR/2001/REC-SVG-20010904/DTD/svg10.dtd">
<!-- Created using Krita: https://krita.org -->
<svg xmlns="http://www.w3.org/2000/svg" 
    xmlns:xlink="http://www.w3.org/1999/xlink"
    xmlns:krita="http://krita.org/namespaces/svg/krita"
    xmlns:sodipodi="http://sodipodi.sourceforge.net/DTD/sodipodi-0.dtd"
    width="766pt"
    height="1056pt"
    viewBox="0 0 766 1056">
<defs/>
<path id="shape0" transform="translate(44.8067439758642, 41.7239814940722)" fill="#5f9e79" fill-rule="evenodd" stroke="#5f9e79" stroke-width="40" stroke-linecap="square" stroke-linejoin="bevel" d="M230.59 582.081C183.367 629.854 55.5122 632.454 10.9722 528.046C-10.3545 466.794 48.6965 372.168 52.241 362.42C52.5232 348.919 -36.9056 285.875 17.6285 197.655C69.6252 108.483 144.022 121.425 171.74 117.544C186.279 105.798 190.94 11.9727 344.568 0C466.087 19.4175 487.752 142.679 490.144 146.675C506.616 156.821 594.203 131.709 642.768 201.962C680.932 248.554 655.811 326.524 625.149 370.721C654.566 406.32 683.876 478.733 665.635 528.281C636.936 577.301 558.729 639.555 448.797 596.098C441.065 569.778 521.597 475.457 522.486 466.573C522.702 464.41 418.055 548.165 396.644 536.191C367.043 512.229 392.757 391.412 388.343 383.486C383.79 382.217 340.585 452.719 323.662 457.097C286.927 443.071 264.604 355.395 238.068 321.62C216.432 347.353 254.631 520.215 250.363 528.751C249.813 529.85 191.869 480.041 178.71 483.879C168.319 486.91 232.924 563.764 230.59 582.081Z" sodipodi:nodetypes="ccccccccccccccccccc"/><path id="shape1" transform="translate(212.953956145095, 256.669209207886)" fill="#fc797e" fill-rule="evenodd" stroke="#fc797e" stroke-width="20" stroke-linecap="square" stroke-linejoin="bevel" d="M3.8315 0C-6.33197 7.79898 4.027 62.9448 31.3093 49.0106C53.6555 65.4398 74.7317 13.9101 63.2825 4.65105C57.2877 -6.9866 29.9254 22.1516 3.8315 0Z" sodipodi:nodetypes="cccc"/><path id="shape01" transform="translate(400.467737682143, 194.562771024631)" fill="#fc797e" fill-rule="evenodd" stroke="#fc797e" stroke-width="20" stroke-linecap="square" stroke-linejoin="bevel" d="M3.51094 3.73164C-7.09516 3.31992 6.77867 73.5359 39.0416 52.4104C62.4457 66.5905 80.0534 15.7533 67.0291 0.32588C54.2019 -3.10319 28.5568 22.0756 3.51094 3.73164Z" sodipodi:nodetypes="cccc"/><path id="shape02" transform="translate(483.947038347832, 358.571588318901)" fill="#fc797e" fill-rule="evenodd" stroke="#fc797e" stroke-width="20" stroke-linecap="square" stroke-linejoin="bevel" d="M5.17261 0C-8.30877 20.5793 7.59579 49.2819 18.4001 42.558C39.0664 57.3649 55.778 23.5638 50.6136 10.0114C42.5973 12.8335 21.5112 23.0428 5.17261 0Z" sodipodi:nodetypes="cccc"/><path id="shape03" transform="translate(594.358061367006, 475.005461179357)" fill="#fc797e" fill-rule="evenodd" stroke="#fc797e" stroke-width="20" stroke-linecap="square" stroke-linejoin="bevel" d="M1.24018 9.30775C-4.55554 19.8085 10.448 70.4704 36.1043 50.027C64.4905 61.9817 67.3472 8.33872 55.3195 1.03926C47.5796 -6.24282 34.4515 27.7822 1.24018 9.30775Z" sodipodi:nodetypes="cccc"/><path id="shape04" transform="translate(139.167651528165, 480.99789525541)" fill="#fc797e" fill-rule="evenodd" stroke="#fc797e" stroke-width="20" stroke-linecap="square" stroke-linejoin="bevel" d="M7.09142 0.377747C4.1043 -5.31072 -14.1332 55.2402 23.0875 48.0545C44.0289 73.4495 67.1549 17.5623 58.9929 15.4355C42.9737 16.8831 20.0463 17.3917 7.09142 0.377747Z" sodipodi:nodetypes="cccc"/><path id="shape05" transform="translate(242.719600385126, 358.945138362749)" fill="#8d7663" stroke="#876344" stroke-width="40" stroke-linecap="round" stroke-linejoin="bevel" d="M0.895342 211.2C10.0137 224.036 139.938 269.834 0.141218 629.84C-3.43388 638.092 61.9382 587.124 75.2708 591.568C86.6951 604.126 119.019 641.194 141.162 644.357C143.752 644.727 185.08 610.332 208.468 598.638C210.299 597.722 305.558 662.179 305.043 660.571C126.106 278.66 289.253 196.576 295.381 182.26C297.266 174.494 234.678 264.055 183.77 218.836C156.235 190 200.078 51.9844 194.234 58.6756C166.614 128.202 136.031 166.616 112.788 154.263C69.5412 150.959 49.708 -5.24262 43.5033 0.135755C17.4884 65.1741 51.9618 172.04 74.8937 239.103C73.7879 242.441 -6.90334 181.301 0.895342 211.2Z" sodipodi:nodetypes="ccccccccccccc"/><path id="shape11" transform="translate(35.5089847639003, 33.6205635583917)" fill="none" stroke="#876344" stroke-width="40" stroke-linecap="round" stroke-linejoin="bevel" d="M205.221 622.636C131.163 648.808 61.4289 628.235 20.3665 561.645C-27.3583 471.492 44.0585 385.365 46.1952 378.295C45.3047 374.382 -25.8678 306.766 10.1858 213.045C62.5288 101.715 166.981 119.375 175.339 117.552C180.183 114.826 208.033 -6.6245 346.336 0.283873C485.154 10.0095 493.167 142.899 500.837 148.378C510.161 150.836 621.036 130.276 665.896 209.934C708.469 283.98 651.933 363.165 650.908 371.225C652.546 378.688 736.575 480.924 655.15 580.121C609.619 631.584 523.595 645.367 489.997 625.841" sodipodi:nodetypes="ccccccccccc"/><path id="shape2" transform="translate(203.671437115442, 246.467380539685)" fill="none" stroke="#876344" stroke-width="15" stroke-linecap="round" stroke-linejoin="bevel" d="M25.0062 4.45544C16.3729 -4.35202 -5.4487 -3.15719 1.26238 36.6616C10.8641 64.5113 21.0861 71.3654 40.1367 65.4301C58.4309 73.6425 70.3565 66.7339 81.0668 37.8698C89.0557 -0.537677 62.0231 -0.802728 55.5381 5.13294" sodipodi:nodetypes="ccccc"/><path id="shape3" transform="translate(242.345017657737, 223.777787134167)" fill="none" stroke="#876344" stroke-width="10" stroke-linecap="round" stroke-linejoin="bevel" d="M5.84415 0C1.01335 7.72632 -1.99976 22.081 1.55342 38.8883" sodipodi:nodetypes="cc"/><path id="shape011" transform="matrix(1.05134067256619 -0.0842200324726396 0.0842200324726396 1.05134067256619 390.036561771334 189.056489628432)" fill="none" stroke="#876344" stroke-width="15" stroke-linecap="round" stroke-linejoin="bevel" d="M25.0062 4.45544C16.3729 -4.35202 -5.4487 -3.15719 1.26238 36.6616C10.8641 64.5113 21.0861 71.3654 40.1367 65.4301C58.4309 73.6425 70.3565 66.7339 81.0668 37.8698C89.0557 -0.537676 62.0231 -0.802727 55.5381 5.13294" sodipodi:nodetypes="ccccc"/><path id="shape111" transform="matrix(1.05134067256619 -0.0842200324726396 0.0842200324726396 1.05134067256619 427.497632183305 166.31173265976)" fill="none" stroke="#876344" stroke-width="10" stroke-linecap="round" stroke-linejoin="bevel" d="M0 0C5.71243 15.8207 5.91944 12.037 3.23766 32.015" sodipodi:nodetypes="cc"/><path id="shape021" transform="matrix(0.888345490468379 0.20021768408832 -0.20021768408832 0.888345490468379 136.745145694649 470.192453846621)" fill="none" stroke="#876344" stroke-width="15" stroke-linecap="round" stroke-linejoin="bevel" d="M25.0062 4.45544C16.3729 -4.35202 -5.4487 -3.15719 1.26238 36.6616C10.8641 64.5113 21.0861 71.3654 40.1367 65.4301C58.4309 73.6425 70.3565 66.7339 81.0668 37.8698C89.0557 -0.537676 62.0231 -0.802727 55.5381 5.13294" sodipodi:nodetypes="ccccc"/><path id="shape12" transform="matrix(0.888345490468379 0.20021768408832 -0.20021768408832 0.888345490468379 175.256153953891 459.854217947415)" fill="none" stroke="#876344" stroke-width="10" stroke-linecap="round" stroke-linejoin="bevel" d="M14.938 0C0.227066 8.05486 -2.08576 19.7648 1.46742 36.5721" sodipodi:nodetypes="cc"/><path id="shape031" transform="matrix(0.943212508263144 -0.180776731302925 0.180776731302925 0.943212508263144 581.945088887903 478.386517394439)" fill="none" stroke="#876344" stroke-width="15" stroke-linecap="round" stroke-linejoin="bevel" d="M25.0062 4.45544C16.3729 -4.35202 -5.4487 -3.15719 1.26238 36.6616C10.8641 64.5113 21.0861 71.3654 40.1367 65.4301C58.4309 73.6425 70.3565 66.7339 81.0668 37.8698C89.0557 -0.537676 62.0231 -0.802727 55.5381 5.13294" sodipodi:nodetypes="ccccc"/><path id="shape13" transform="matrix(0.943212508263144 -0.180776731302925 0.180776731302925 0.943212508263144 610.637264793822 457.820065911314)" fill="none" stroke="#876344" stroke-width="10" stroke-linecap="round" stroke-linejoin="bevel" d="M0 0C7.58274 3.66368 5.74439 15.728 6.48711 31.1229" sodipodi:nodetypes="cc"/><path id="shape041" transform="matrix(0.813795390765459 0.159070934559653 -0.159070934559653 0.813795390765459 478.81573216514 349.111522766645)" fill="none" stroke="#876344" stroke-width="15" stroke-linecap="round" stroke-linejoin="bevel" d="M25.0062 4.45544C16.3729 -4.35202 -5.4487 -3.15719 1.26238 36.6616C10.8641 64.5113 21.0861 71.3654 40.1367 65.4301C58.4309 73.6425 70.3565 66.7339 81.0668 37.8698C89.0557 -0.537676 62.0231 -0.802727 55.5381 5.13294" sodipodi:nodetypes="ccccc"/><path id="shape14" transform="matrix(0.813795390765459 0.159070934559653 -0.159070934559653 0.813795390765459 513.897365796213 336.798678914348)" fill="none" stroke="#876344" stroke-width="10" stroke-linecap="round" stroke-linejoin="bevel" d="M5.84415 0C1.01335 7.72632 -1.99976 22.081 1.55342 38.8883" sodipodi:nodetypes="cc"/>
</svg>
