<?xml version="1.0" standalone="no"?>
<!DOCTYPE svg PUBLIC "-//W3C//DTD SVG 20010904//EN" "http://www.w3.org/TR/2001/REC-SVG-20010904/DTD/svg10.dtd">
<!-- Created using Krita: https://krita.org -->
<svg xmlns="http://www.w3.org/2000/svg" 
    xmlns:xlink="http://www.w3.org/1999/xlink"
    xmlns:krita="http://krita.org/namespaces/svg/krita"
    xmlns:sodipodi="http://sodipodi.sourceforge.net/DTD/sodipodi-0.dtd"
    width="1092pt"
    height="1049pt"
    viewBox="0 0 1092 1049">
<defs/>
<path id="shape0" transform="translate(268.082139240158, 537.698008900757)" fill="none" stroke="#876344" stroke-width="40" stroke-linecap="round" stroke-linejoin="bevel" d="M4.19703 0.0173241C0.496422 -1.16098 1.06581e-14 58.145 0 62.6579C3.15905 67.4434 41.8303 72.7952 44.8585 76.8288C45.9911 91.5478 72.4467 326.246 76.2685 369.904C80.8626 379.092 468.089 381.171 473.226 378.93C482.862 329.962 485.154 162.615 489.563 87.66C490.859 79.7041 529.473 78.7078 538.393 74.3015C543.233 68.1067 542.387 23.2906 540.559 9.23269C534.54 -0.0181133 28.2219 1.5621 4.19703 0.0173241Z" sodipodi:nodetypes="ccccccccc"/><path id="shape1" transform="matrix(0.651702572113715 0 0 0.651702572113715 254.446731253228 260.332985320876)" fill="none" stroke="#876344" stroke-width="40" stroke-linecap="round" stroke-linejoin="bevel" d="M490.826 409.357C433.023 371.399 454.388 261.936 449.307 262.594C443.775 263.885 493.477 293.839 518.716 303.302C592.243 337.46 676.936 306.743 705.732 294.366C774.386 265.062 790.252 176.836 816.028 130.814C830.309 91.0875 901.699 27.4545 894.192 18.5305C891.637 17.0693 845.104 27.2898 791.026 18.5305C758.13 13.3114 694.616 0.409154 607.982 25.3C469.773 65.0534 471.266 187.28 430.801 208.619C383.587 196.018 371.501 -5.55227 157.321 0.117366C67.6534 12.7364 0.0902586 0.568668 0 2.01283C0 2.01283 22.2746 34.3843 26.6263 104.368C29.1957 141.863 72.3577 248.734 141.977 281.368C194.787 306.124 212.757 312.427 294.153 305.107C375.378 292.83 382.065 263.911 383.419 264.399C384.953 265.426 396.284 329.562 356.792 409.448" sodipodi:nodetypes="cccccccccccccccc"/><path id="shape2" transform="matrix(0.651702572113715 0 0 0.651702572113715 406.736284138938 335.820354678776)" fill="none" stroke="#876344" stroke-width="20" stroke-linecap="round" stroke-linejoin="bevel" d="M0 0C50.8247 16.8787 72.3213 28.5415 105.783 72.0277" sodipodi:nodetypes="cc"/><path id="shape3" transform="matrix(0.651702572113715 0 0 0.651702572113715 598.965816325308 347.290808501296)" fill="none" stroke="#876344" stroke-width="20" stroke-linecap="round" stroke-linejoin="bevel" d="M0 75.0965C29.7522 37.9503 71.5379 8.21368 128.619 0" sodipodi:nodetypes="cc"/>
</svg>
