<?xml version="1.0" standalone="no"?>
<!DOCTYPE svg PUBLIC "-//W3C//DTD SVG 20010904//EN" "http://www.w3.org/TR/2001/REC-SVG-20010904/DTD/svg10.dtd">
<!-- Created using Krita: https://krita.org -->
<svg xmlns="http://www.w3.org/2000/svg" 
    xmlns:xlink="http://www.w3.org/1999/xlink"
    xmlns:krita="http://krita.org/namespaces/svg/krita"
    xmlns:sodipodi="http://sodipodi.sourceforge.net/DTD/sodipodi-0.dtd"
    width="1123pt"
    height="1129pt"
    viewBox="0 0 1123 1129">
<defs/>
<path id="shape0" transform="translate(434.449467046834, 405.834129916521)" fill="none" stroke="#876344" stroke-width="40" stroke-linecap="round" stroke-linejoin="bevel" d="M0.895341 211.2C10.0137 224.036 139.938 269.834 0.141217 629.84C-3.43388 638.092 61.9382 587.124 75.2708 591.568C86.6951 604.126 119.019 641.194 141.162 644.357C143.752 644.727 185.08 610.332 208.468 598.638C210.299 597.722 305.558 662.179 305.043 660.571C126.106 278.66 289.253 196.576 295.381 182.26C297.266 174.494 234.678 264.055 183.77 218.836C156.235 190 200.078 51.9844 194.234 58.6756C166.614 128.202 136.031 166.616 112.788 154.263C69.5412 150.959 49.708 -5.24262 43.5033 0.135756C17.4884 65.1741 51.9618 172.04 74.8937 239.103C73.7879 242.441 -6.90334 181.301 0.895341 211.2Z" sodipodi:nodetypes="ccccccccccccc"/><path id="shape1" transform="translate(227.013082739217, 80.4643888476189)" fill="none" stroke="#876344" stroke-width="40" stroke-linecap="round" stroke-linejoin="bevel" d="M205.221 622.636C131.163 648.808 61.4289 628.235 20.3665 561.645C-27.3583 471.492 44.0585 385.365 46.1952 378.295C45.3047 374.382 -25.8678 306.766 10.1858 213.045C62.5288 101.715 166.981 119.375 175.339 117.552C180.183 114.826 208.033 -6.6245 346.336 0.283873C485.154 10.0095 493.167 142.899 500.837 148.378C510.161 150.836 621.036 130.276 665.896 209.934C708.469 283.98 651.933 363.165 650.908 371.225C652.546 378.688 736.575 480.924 655.15 580.121C609.619 631.584 523.595 645.367 489.997 625.841" sodipodi:nodetypes="ccccccccccc"/>
</svg>
