<?xml version="1.0" standalone="no"?>
<!DOCTYPE svg PUBLIC "-//W3C//DTD SVG 20010904//EN" "http://www.w3.org/TR/2001/REC-SVG-20010904/DTD/svg10.dtd">
<!-- Created using Krita: https://krita.org -->
<svg xmlns="http://www.w3.org/2000/svg" 
    xmlns:xlink="http://www.w3.org/1999/xlink"
    xmlns:krita="http://krita.org/namespaces/svg/krita"
    xmlns:sodipodi="http://sodipodi.sourceforge.net/DTD/sodipodi-0.dtd"
    width="1017pt"
    height="1002pt"
    viewBox="0 0 1017 1002">
<defs/>
<path id="shape0" transform="translate(221.096506474118, 252.17600813159)" fill="none" stroke="#876344" stroke-width="40" stroke-linecap="round" stroke-linejoin="bevel" d="M354.698 210.133C350.999 203.83 327.016 204.883 318.136 174.401C315.688 136.324 349.966 132.652 352.172 122.795C345.24 104.15 361.815 61.4299 415.679 79.501C432.726 90.9605 362.92 7.47685 287.403 0.0155745C133.95 -2.85379 -60.2906 391.597 17.8913 485.423C62.2539 543.839 263.592 529.41 291.119 532.122C322.78 530.178 518.028 542.993 554.946 498.261C618.949 433.37 544.293 277.412 538.823 278.432C487.751 321.714 466.991 268.872 459.507 249.717C456.792 247.639 427.002 275.696 392.034 266.839C362.963 254.59 356.144 232.352 354.698 210.133Z" sodipodi:nodetypes="cccccccccccc"/><path id="shape1" transform="translate(385.135986189226, 477.156579002177)" fill="#876344" fill-rule="evenodd" stroke="#876344" stroke-width="40" stroke-linecap="round" stroke-linejoin="bevel" d="M1.10281 296.205C-1.16302 216.984 -2.36055 98.0725 22.9937 19.7959C64.5342 -10.7211 135.192 2.58106 169.681 4.69936C209.539 78.7413 226.072 23.3014 237.019 98.5463C239.66 120.948 244.972 215.124 241.106 300.227" sodipodi:nodetypes="ccccc"/>
</svg>
