<?xml version="1.0" standalone="no"?>
<!DOCTYPE svg PUBLIC "-//W3C//DTD SVG 20010904//EN" "http://www.w3.org/TR/2001/REC-SVG-20010904/DTD/svg10.dtd">
<!-- Created using Krita: https://krita.org -->
<svg xmlns="http://www.w3.org/2000/svg" 
    xmlns:xlink="http://www.w3.org/1999/xlink"
    xmlns:krita="http://krita.org/namespaces/svg/krita"
    xmlns:sodipodi="http://sodipodi.sourceforge.net/DTD/sodipodi-0.dtd"
    width="655pt"
    height="600pt"
    viewBox="0 0 655 600">
<defs/>
<path id="shape0" transform="translate(35.2534175725285, 31.161959482221)" fill="#ffffff" stroke="#876344" stroke-width="40" stroke-linecap="round" stroke-linejoin="bevel" d="M354.698 210.133C350.999 203.83 327.016 204.883 318.136 174.401C315.688 136.324 349.966 132.652 352.172 122.795C345.24 104.15 361.815 61.4299 415.679 79.501C432.726 90.9605 362.92 7.47685 287.403 0.0155745C133.95 -2.85379 -60.2905 391.597 17.8914 485.423C62.254 543.839 263.592 529.41 291.119 532.122C322.78 530.178 518.028 542.993 554.946 498.261C618.949 433.37 544.293 277.412 538.823 278.432C487.751 321.714 466.991 268.872 459.507 249.717C456.792 247.639 427.002 275.696 392.034 266.839C362.963 254.59 356.144 232.352 354.698 210.133Z" sodipodi:nodetypes="cccccccccccc"/><path id="shape1" transform="translate(199.370728144522, 252.39709812048)" fill="#597267" fill-rule="evenodd" stroke="#876344" stroke-width="40" stroke-linecap="round" stroke-linejoin="bevel" d="M1.02506 293.348C-1.24077 214.127 -1.9518 101.47 23.4024 23.1938C64.9429 -7.32317 145.192 0.279881 179.681 2.39818C219.539 76.4401 230.303 11.4785 241.25 86.7234C243.891 109.125 246.354 209.904 242.488 295.007" sodipodi:nodetypes="ccccc"/>
</svg>
