<?xml version="1.0" standalone="no"?>
<!DOCTYPE svg PUBLIC "-//W3C//DTD SVG 20010904//EN" "http://www.w3.org/TR/2001/REC-SVG-20010904/DTD/svg10.dtd">
<!-- Created using Krita: https://krita.org -->
<svg xmlns="http://www.w3.org/2000/svg" 
    xmlns:xlink="http://www.w3.org/1999/xlink"
    xmlns:krita="http://krita.org/namespaces/svg/krita"
    xmlns:sodipodi="http://sodipodi.sourceforge.net/DTD/sodipodi-0.dtd"
    width="1050pt"
    height="1036pt"
    viewBox="0 0 1050 1036">
<defs/>
<path id="shape0" transform="translate(161.483789126885, 210.503018935161)" fill="none" stroke="#876344" stroke-width="40" stroke-linecap="round" stroke-linejoin="bevel" d="M205.143 0C157.422 18.501 65.7855 68.532 24.1234 176.67C-10.2356 260.034 -11.9392 396.958 45.6361 489.641" sodipodi:nodetypes="ccc"/><path id="shape1" transform="translate(235.693823450264, 182.033612090103)" fill="none" stroke="#876344" stroke-width="40" stroke-linecap="round" stroke-linejoin="bevel" d="M180.728 11.9494C230.874 -6.51079 355.911 -6.53584 453.234 33.0743C645.71 114.241 697.268 352.071 615.286 517.779C521.494 677.394 379.313 687.169 199.107 660.537C141.873 651.085 37.0227 608.664 0 558.654" sodipodi:nodetypes="ccccc"/><path id="shape2" transform="matrix(1.04413353567209 0 0 1.12467274574955 477.053123827979 562.774238145541)" fill="none" stroke="#876344" stroke-width="40" stroke-linecap="round" stroke-linejoin="bevel" d="M57.5515 0C40.4056 7.6997 6.13083 41.5082 0 62.62" sodipodi:nodetypes="cc"/><path id="shape3" transform="matrix(1.04413353567209 0 0 1.12467274574955 683.172865611487 559.565898010306)" fill="none" stroke="#876344" stroke-width="40" stroke-linecap="round" stroke-linejoin="bevel" d="M0 0C22.3747 8.15372 54.8277 30.1788 66.7211 49.2273" sodipodi:nodetypes="cc"/><path id="shape4" transform="matrix(1.04413353567209 0 0 1.12467274574955 557.903589619766 707.329326387911)" fill="none" stroke="#876344" stroke-width="40" stroke-linecap="round" stroke-linejoin="bevel" d="M0 12.3332C31.7374 0.506188 59.8225 -5.14935 97.7289 6.05916" sodipodi:nodetypes="cc"/>
</svg>
