<?xml version="1.0" standalone="no"?>
<!DOCTYPE svg PUBLIC "-//W3C//DTD SVG 20010904//EN" "http://www.w3.org/TR/2001/REC-SVG-20010904/DTD/svg10.dtd">
<!-- Created using Krita: https://krita.org -->
<svg xmlns="http://www.w3.org/2000/svg" 
    xmlns:xlink="http://www.w3.org/1999/xlink"
    xmlns:krita="http://krita.org/namespaces/svg/krita"
    xmlns:sodipodi="http://sodipodi.sourceforge.net/DTD/sodipodi-0.dtd"
    width="735pt"
    height="708pt"
    viewBox="0 0 735 708">
<defs/>
<path id="shape0" transform="translate(28.4889967435624, 51.6845634035807)" fill="none" stroke="#876344" stroke-width="40" stroke-linecap="round" stroke-linejoin="bevel" d="M190.021 0C83.6091 24.6819 -8.24178 173.659 0.588296 320.597C13.6366 462.045 65.2094 551.269 139.678 589.959" sodipodi:nodetypes="ccc"/><path id="shape1" transform="translate(221.271718292065, 28.4949982252381)" fill="none" stroke="#876344" stroke-width="40" stroke-linecap="round" stroke-linejoin="bevel" d="M49.5221 10.3586C114.571 -5.68022 261.714 -9.53696 341.174 47.0695C498.97 162.214 498.041 311.033 460.839 460.424C430.934 571.084 342.489 633.043 177.492 650.216C135.999 652.291 32.5408 644.153 0 631.772" sodipodi:nodetypes="ccccc"/><path id="shape2" transform="matrix(-0.891884117124171 0 0 1 259.490003973958 312.314585195667)" fill="none" stroke="#876344" stroke-width="40" stroke-linecap="round" stroke-linejoin="bevel" d="M2.22487 0C2.32478 15.6517 0.668625 49.508 0 70.6583" sodipodi:nodetypes="cc"/><path id="shape3" transform="translate(436.454628453128, 312.403689476621)" fill="none" stroke="#876344" stroke-width="40" stroke-linecap="round" stroke-linejoin="bevel" d="M0 0C-2.22045e-16 8.74842 1.60894 61.6486 1.42564 71.4616" sodipodi:nodetypes="cc"/><path id="shape4" transform="translate(301.534256500155, 440.357436927369)" fill="none" stroke="#876344" stroke-width="40" stroke-linecap="round" stroke-linejoin="bevel" d="M0 1.60388C14.5868 10.6034 32.9844 16.6772 55.7972 13.3656C69.5994 12.9329 85.2011 6.27968 90.5473 0" sodipodi:nodetypes="ccc"/>
</svg>
