<?xml version="1.0" standalone="no"?>
<!DOCTYPE svg PUBLIC "-//W3C//DTD SVG 20010904//EN" "http://www.w3.org/TR/2001/REC-SVG-20010904/DTD/svg10.dtd">
<!-- Created using Krita: https://krita.org -->
<svg xmlns="http://www.w3.org/2000/svg" 
    xmlns:xlink="http://www.w3.org/1999/xlink"
    xmlns:krita="http://krita.org/namespaces/svg/krita"
    xmlns:sodipodi="http://sodipodi.sourceforge.net/DTD/sodipodi-0.dtd"
    width="832pt"
    height="771pt"
    viewBox="0 0 832 771">
<defs/>
<path id="shape0" transform="translate(27.0329636979361, 51.1672001654628)" fill="none" stroke="#876344" stroke-width="40" stroke-linecap="round" stroke-linejoin="bevel" d="M207.562 0C84.8369 47.3584 -7.96383 218.063 0.540886 347.896C-1.84838 368.188 16.539 509.457 106.663 584.82" sodipodi:nodetypes="ccc"/><path id="shape1" transform="translate(189.791277367426, 25.4536480923371)" fill="none" stroke="#876344" stroke-width="40" stroke-linecap="round" stroke-linejoin="bevel" d="M107.396 8.61832C227.424 -19.329 401.336 22.7045 496.542 105.6C581.571 178.01 634.138 334.739 599.633 500.89C549.614 684.139 370.957 718.248 306.984 717.069C243.801 715.453 96.2526 703.308 0 654.184" sodipodi:nodetypes="ccccc"/><path id="shape2" transform="translate(184.534367903517, 204.188572312293)" fill="none" stroke="#876344" stroke-width="40" stroke-linecap="round" stroke-linejoin="bevel" d="M0.069519 97.1253C-1.80403 81.646 34.5904 -0.197625 61.0326 0.000358593C82.3971 0.160323 100.306 78.6208 101.793 94.2403" sodipodi:nodetypes="ccc"/><path id="shape3" transform="translate(407.947808248655, 215.809937103737)" fill="none" stroke="#876344" stroke-width="40" stroke-linecap="round" stroke-linejoin="bevel" d="M0 86.6734C0.366095 63.5362 32.8239 -8.66088 54.6283 0.859761C80.6492 15.8537 89.4673 69.505 95.7386 93.0374" sodipodi:nodetypes="ccc"/><path id="shape4" transform="translate(286.729095476259, 363.446373264676)" fill="none" stroke="#876344" stroke-width="40" stroke-linecap="round" stroke-linejoin="bevel" d="M0.000675845 0.759438C1.13696 -2.51752 78.9394 5.60157 98.1761 10.0547C107.584 22.4567 43.986 111.996 37.8209 115.187C36.4107 114.677 -0.181215 15.5309 0.000675845 0.759438Z" sodipodi:nodetypes="cccc"/>
</svg>
