<?xml version="1.0" standalone="no"?>
<!DOCTYPE svg PUBLIC "-//W3C//DTD SVG 20010904//EN" "http://www.w3.org/TR/2001/REC-SVG-20010904/DTD/svg10.dtd">
<!-- Created using Krita: https://krita.org -->
<svg xmlns="http://www.w3.org/2000/svg" 
    xmlns:xlink="http://www.w3.org/1999/xlink"
    xmlns:krita="http://krita.org/namespaces/svg/krita"
    xmlns:sodipodi="http://sodipodi.sourceforge.net/DTD/sodipodi-0.dtd"
    width="1220pt"
    height="1244pt"
    viewBox="0 0 1220 1244">
<defs/>
<path id="shape0" transform="matrix(-0.964220537913375 -0.265101403742002 0.265101403742002 -0.964220537913375 1080.58508779157 688.701188658937)" fill="none" stroke="#876344" stroke-width="39.9999999999968" stroke-linecap="round" stroke-linejoin="bevel" d="M0 116.336C0.682536 134.093 42.9859 225.937 98.6652 298.651C181.562 420.114 339.315 519.781 480.185 514.294C606.525 502.9 752.7 410.21 846.956 272.998C914.375 173.705 933.888 53.8331 931.594 44.5879C927.323 38.1453 840.543 90.8877 830.714 93.9109C822.998 89.0483 739.95 5.22522 728.388 0C718.38 2.63871 620.895 80.0248 612.251 84.0463C603.144 79.3217 550.31 10.5841 540.964 6.05028C531.802 11.4865 434.031 86.879 426.274 90.3596C416.8 86.4852 342.23 11.8375 333.022 6.97097C326.678 8.15472 211.045 93.2532 202.286 98.2513C189.851 93.3847 108.251 33.1964 96.0135 29.9883C86.7132 38.872 14.1799 96.6183 0 116.336Z" sodipodi:nodetypes="cccccccccccccc"/><path id="shape01" transform="translate(142.256394965588, 650.531204257068)" fill="none" stroke="#876344" stroke-width="39.9999999999968" stroke-linecap="round" stroke-linejoin="bevel" d="M0 116.336C0.682536 134.093 23.1011 258.96 76.1532 328.951C177.706 463.603 272.067 532.007 470.344 532.03C692.31 528.006 805.839 419.555 872.013 288.967C904.478 221.986 933.888 53.8331 931.594 44.5879C927.323 38.1453 840.543 90.8877 830.714 93.9109C822.998 89.0483 739.95 5.22522 728.388 0C718.38 2.63871 620.895 80.0248 612.251 84.0463C603.144 79.3217 550.31 10.5841 540.964 6.05028C531.802 11.4865 434.031 86.879 426.274 90.3596C416.8 86.4852 342.23 11.8375 333.022 6.97097C326.678 8.15472 211.045 93.2532 202.286 98.2513C189.851 93.3847 108.251 33.1964 96.0135 29.9883C86.7132 38.872 14.1799 96.6183 0 116.336Z" sodipodi:nodetypes="cccccccccccccc"/><path id="shape1" transform="translate(166.656028300721, 390.772846903257)" fill="none" stroke="#876344" stroke-width="39.9999999999968" stroke-linecap="round" stroke-linejoin="bevel" d="M4.79138 329.612C-12.2203 249.235 14.9241 105.055 104.608 0M859.88 231.576C864.753 248.397 864.888 297.356 865.616 312.845" sodipodi:nodetypes="cccc"/><path id="shape2" transform="translate(548.816697138268, 599.840862341408)" fill="none" stroke="#876344" stroke-width="39.9999999999968" stroke-linecap="round" stroke-linejoin="bevel" d="M0 3.55958C32.136 42.1795 43.6978 1.619 50.3033 0C58.8534 2.65852 75.1734 43.442 100.567 1.66791" sodipodi:nodetypes="ccc"/>
</svg>
