<?xml version="1.0" standalone="no"?>
<!DOCTYPE svg PUBLIC "-//W3C//DTD SVG 20010904//EN" "http://www.w3.org/TR/2001/REC-SVG-20010904/DTD/svg10.dtd">
<!-- Created using Krita: https://krita.org -->
<svg xmlns="http://www.w3.org/2000/svg" 
    xmlns:xlink="http://www.w3.org/1999/xlink"
    xmlns:krita="http://krita.org/namespaces/svg/krita"
    xmlns:sodipodi="http://sodipodi.sourceforge.net/DTD/sodipodi-0.dtd"
    width="742pt"
    height="1007pt"
    viewBox="0 0 742 1007">
<defs/>
<path id="shape0" transform="translate(340.912970686367, 555.920023007358)" fill="#f9e6a9" fill-rule="evenodd" stroke="#f9e6a9" stroke-width="40" stroke-linecap="square" stroke-linejoin="bevel" d="M18.7097 3.06206C30.7696 39.7285 36.4766 160.33 0 208.091C13.2888 208.962 85.4011 211.218 93.4157 206.952C40.5284 133.532 56.0926 40.8556 62.4713 1.95224C48.6891 -2.29251 27.6725 1.47267 18.7097 3.06206Z" sodipodi:nodetypes="ccccc"/><path id="shape01" transform="translate(157.912613531724, 210.465789942301)" fill="#f9e6a9" stroke="#876344" stroke-width="40" stroke-linecap="round" stroke-linejoin="bevel" d="M8.30499 7.1118C-0.859526 9.06573 -0.573041 70.6892 0.570139 88.4942C3.34341 207.468 37.0077 262.695 69.3407 292.61C139.509 341.541 286.169 338.526 350.655 286.158C397.244 240.497 418.862 191.959 431.303 76.6168C430.839 66.4093 435.815 0.321115 426.537 0C412.376 0.34084 23.8998 7.97667 8.30499 7.1118Z" sodipodi:nodetypes="ccccccc"/><path id="shape1" transform="translate(33.5236841832404, 293.378349818518)" fill="none" stroke="#876344" stroke-width="40" stroke-linecap="round" stroke-linejoin="bevel" d="M117.481 0.00952126C101.131 -0.0722838 65.0162 -0.0459401 38.0061 18.7788C-3.1272 47.0527 -8.99472 105.135 11.3924 144.298C51.2188 216.365 146.8 210.216 193.803 211.091" sodipodi:nodetypes="cccc"/><path id="shape2" transform="translate(507.834214479787, 287.314277076217)" fill="none" stroke="#876344" stroke-width="40" stroke-linecap="round" stroke-linejoin="bevel" d="M86.2931 0.0615599C97.3931 0.801997 128.451 -3.18987 148.758 9.07961C195.85 29.7901 199.302 86.5417 188.569 125.288C157.899 204.402 51.9131 216.737 0 211.726" sodipodi:nodetypes="cccc"/><path id="shape3" transform="translate(332.726060399566, 550.732260772641)" fill="none" stroke="#876344" stroke-width="40" stroke-linecap="round" stroke-linejoin="bevel" d="M14.839 0C28.2012 115.878 21.0041 163.279 0 212.474" sodipodi:nodetypes="cc"/><path id="shape4" transform="translate(404.653325813986, 547.726243684931)" fill="none" stroke="#876344" stroke-width="40" stroke-linecap="round" stroke-linejoin="bevel" d="M4.35072 0C-10.6735 115.931 16.6668 189.925 33.9705 215.627" sodipodi:nodetypes="cc"/><rect id="shape5" transform="translate(232.726060399566, 769.449217749081)" fill="#8d7663" stroke="#876344" stroke-width="40" stroke-linecap="round" stroke-linejoin="bevel" width="315" height="202" rx="0.00785950578733719" ry="0.00785950578733718"/><rect id="shape6" transform="translate(289.726060399566, 824.449217749081)" fill="#fdfaf0" stroke="#876344" stroke-width="40" stroke-linecap="round" stroke-linejoin="bevel" width="206" height="78" rx="3.43487003700193" ry="3.43487003700193"/><path id="shape7" transform="translate(301.985816188971, 23.5333418438705)" fill="#f7d871" stroke="#f7d871" stroke-width="30" stroke-linecap="square" stroke-linejoin="bevel" d="M0 53.3893C1.17673 50.5782 129.811 44.496 129.904 48.6556C129.306 51.5718 25.859 129.061 29.9651 130.245C36.8037 131.272 60.9127 0.757757 64.4167 0C67.9256 0.231597 111.84 130.456 108.226 133.06C104.774 135.045 0.576873 56.9669 0 53.3893Z" sodipodi:nodetypes="cccccc"/><path id="shape011" transform="matrix(0.615780715444197 0 0 0.615780715444197 180.948661592665 86.489159606569)" fill="#f7d871" stroke="#f7d871" stroke-width="30" stroke-linecap="square" stroke-linejoin="bevel" d="M0 53.3893C1.17673 50.5782 129.811 44.496 129.904 48.6556C129.306 51.5718 25.859 129.061 29.9651 130.245C36.8037 131.272 60.9127 0.757757 64.4167 0C67.9256 0.231597 111.84 130.456 108.226 133.06C104.774 135.045 0.576873 56.9669 0 53.3893Z" sodipodi:nodetypes="cccccc"/><path id="shape02" transform="matrix(0.615780715444197 0 0 0.615780715444197 475.698123197132 80.739129456015)" fill="#f7d871" stroke="#f7d871" stroke-width="30" stroke-linecap="square" stroke-linejoin="bevel" d="M0 53.3893C1.17673 50.5782 129.811 44.496 129.904 48.6556C129.306 51.5718 25.859 129.061 29.9651 130.245C36.8037 131.272 60.9127 0.757757 64.4167 0C67.9256 0.231597 111.84 130.456 108.226 133.06C104.774 135.045 0.576873 56.9669 0 53.3893Z" sodipodi:nodetypes="cccccc"/>
</svg>
