<?xml version="1.0" standalone="no"?>
<!DOCTYPE svg PUBLIC "-//W3C//DTD SVG 20010904//EN" "http://www.w3.org/TR/2001/REC-SVG-20010904/DTD/svg10.dtd">
<!-- Created using Krita: https://krita.org -->
<svg xmlns="http://www.w3.org/2000/svg" 
    xmlns:xlink="http://www.w3.org/1999/xlink"
    xmlns:krita="http://krita.org/namespaces/svg/krita"
    xmlns:sodipodi="http://sodipodi.sourceforge.net/DTD/sodipodi-0.dtd"
    width="1090pt"
    height="1081pt"
    viewBox="0 0 1090 1081">
<defs/>
<path id="shape0" transform="translate(329.465814066901, 242.557621331773)" fill="none" stroke="#876344" stroke-width="40" stroke-linecap="round" stroke-linejoin="bevel" d="M8.30499 7.1118C-0.859526 9.06573 -0.573041 70.6892 0.570139 88.4942C3.34341 207.468 37.0077 262.695 69.3407 292.61C139.509 341.541 286.169 338.526 350.655 286.158C397.244 240.497 418.862 191.959 431.303 76.6168C430.839 66.4093 435.815 0.321115 426.537 0C412.376 0.34084 23.8998 7.97667 8.30499 7.1118Z" sodipodi:nodetypes="ccccccc"/><path id="shape1" transform="translate(205.076881081631, 325.470181202172)" fill="none" stroke="#876344" stroke-width="40" stroke-linecap="round" stroke-linejoin="bevel" d="M117.481 0.00952126C101.131 -0.0722838 65.0162 -0.0459401 38.0061 18.7788C-3.1272 47.0527 -8.99472 105.135 11.3924 144.298C51.2188 216.365 146.8 210.216 193.803 211.091" sodipodi:nodetypes="cccc"/><path id="shape2" transform="translate(679.387414920115, 319.406109052355)" fill="none" stroke="#876344" stroke-width="40" stroke-linecap="round" stroke-linejoin="bevel" d="M86.2931 0.0615593C97.3931 0.801997 128.451 -3.18987 148.758 9.07961C195.85 29.7901 199.302 86.5417 188.569 125.288C157.899 204.402 51.9131 216.737 0 211.726" sodipodi:nodetypes="cccc"/><path id="shape3" transform="translate(504.279260839895, 582.824092162113)" fill="none" stroke="#876344" stroke-width="40" stroke-linecap="round" stroke-linejoin="bevel" d="M14.839 0C28.2012 115.878 21.0041 163.279 0 212.474" sodipodi:nodetypes="cc"/><path id="shape4" transform="translate(576.206512285927, 579.818075074403)" fill="none" stroke="#876344" stroke-width="40" stroke-linecap="round" stroke-linejoin="bevel" d="M4.35073 0C-10.6735 115.931 16.6668 189.925 33.9705 215.627" sodipodi:nodetypes="cc"/><rect id="shape5" transform="translate(404.279260839895, 801.541049138553)" fill="none" stroke="#876344" stroke-width="40" stroke-linecap="round" stroke-linejoin="bevel" width="315" height="202" rx="0.00785950578733719" ry="0.00785950578733718"/><rect id="shape6" transform="translate(461.279260839895, 856.541049138553)" fill="none" stroke="#876344" stroke-width="40" stroke-linecap="round" stroke-linejoin="bevel" width="206" height="78" rx="3.43487003700193" ry="3.43487003700193"/><path id="shape7" transform="translate(473.5390166293, 55.6251732333425)" fill="none" stroke="#876344" stroke-width="30" stroke-linecap="square" stroke-linejoin="bevel" d="M0 53.3893C1.17673 50.5782 129.811 44.496 129.904 48.6556C129.306 51.5718 25.859 129.061 29.9651 130.245C36.8037 131.272 60.9127 0.757757 64.4167 0C67.9256 0.231597 111.84 130.456 108.226 133.06C104.774 135.045 0.576873 56.9669 0 53.3893Z" sodipodi:nodetypes="cccccc"/><path id="shape01" transform="matrix(0.615780715444197 0 0 0.615780715444197 352.501862032994 118.580990996041)" fill="none" stroke="#876344" stroke-width="30" stroke-linecap="square" stroke-linejoin="bevel" d="M0 53.3893C1.17673 50.5782 129.811 44.496 129.904 48.6556C129.306 51.5718 25.859 129.061 29.9651 130.245C36.8037 131.272 60.9127 0.757757 64.4167 0C67.9256 0.231597 111.84 130.456 108.226 133.06C104.774 135.045 0.576873 56.9669 0 53.3893Z" sodipodi:nodetypes="cccccc"/><path id="shape02" transform="matrix(0.615780715444197 0 0 0.615780715444197 647.251323637461 112.830960845487)" fill="none" stroke="#876344" stroke-width="30" stroke-linecap="square" stroke-linejoin="bevel" d="M0 53.3893C1.17673 50.5782 129.811 44.496 129.904 48.6556C129.306 51.5718 25.859 129.061 29.9651 130.245C36.8037 131.272 60.9127 0.757757 64.4167 0C67.9256 0.231597 111.84 130.456 108.226 133.06C104.774 135.045 0.576873 56.9669 0 53.3893Z" sodipodi:nodetypes="cccccc"/>
</svg>
