<?xml version="1.0" standalone="no"?>
<!DOCTYPE svg PUBLIC "-//W3C//DTD SVG 20010904//EN" "http://www.w3.org/TR/2001/REC-SVG-20010904/DTD/svg10.dtd">
<!-- Created using Krita: https://krita.org -->
<svg xmlns="http://www.w3.org/2000/svg" 
    xmlns:xlink="http://www.w3.org/1999/xlink"
    xmlns:krita="http://krita.org/namespaces/svg/krita"
    xmlns:sodipodi="http://sodipodi.sourceforge.net/DTD/sodipodi-0.dtd"
    width="1114pt"
    height="1109pt"
    viewBox="0 0 1114 1109">
<defs/>
<path id="shape0" transform="translate(131.833827334582, 258.310134916255)" fill="none" stroke="#876344" stroke-width="39.9999999999968" stroke-linecap="round" stroke-linejoin="bevel" d="M0 401.787C28.0247 405.897 128.927 404.237 197.432 363.983C198.624 362.55 148.182 191.806 149.087 167.145C151.19 144.89 136.81 15.1767 226.791 0.616372C287.419 -9.19427 310.971 100.701 320.212 145.775C324.351 165.959 331.195 234.884 328.91 235.094" sodipodi:nodetypes="cccccc"/><path id="shape1" transform="translate(268.626805551581, 494.760379303618)" fill="none" stroke="#876344" stroke-width="39.9999999999968" stroke-linecap="round" stroke-linejoin="bevel" d="M0 422.61C8.48429 420.974 88.9883 395.327 99.3114 393.046C128.446 406.646 163.529 441.229 240.498 461.763C379.057 482.877 541.905 409.798 531.859 219.341C516.331 68.5639 434.437 17.6092 304.415 2.42557C265.101 -3.81406 135.064 -2.46804 138.399 62.1334C147.179 122.565 289.033 94.0554 293.675 97.3014C295.917 99.3781 168.481 107.874 176.707 165.337C182.891 231.255 340.747 167.943 344.58 188.005C341.604 200.501 206.264 208.956 214.882 266.015C224.401 322.222 373.435 283.91 372.265 286.3C370.486 288.548 234.97 293.323 240.101 346.093C245.984 406.417 363.893 364.654 369.922 366.708C369.976 366.721 373.938 362.232 370.343 366.968" sodipodi:nodetypes="cccccccccccccc"/><path id="shape2" transform="translate(386.600798403478, 148.958971860951)" fill="none" stroke="#876344" stroke-width="39.9999999999968" stroke-linecap="round" stroke-linejoin="miter" stroke-miterlimit="1.99999999999984" d="M0 47.1545L18.4969 0" sodipodi:nodetypes="cc"/><path id="shape3" transform="translate(439.142130317505, 199.225866018465)" fill="none" stroke="#876344" stroke-width="39.9999999999968" stroke-linecap="round" stroke-linejoin="miter" stroke-miterlimit="1.99999999999984" d="M0 36.2288L28.1347 0" sodipodi:nodetypes="cc"/><path id="shape4" transform="translate(478.281513747451, 240.978307312354)" fill="none" stroke="#876344" stroke-width="39.9999999999968" stroke-linecap="round" stroke-linejoin="miter" stroke-miterlimit="1.99999999999984" d="M0 45.6679L59.2251 0" sodipodi:nodetypes="cc"/><path id="shape5" transform="translate(491.816294808229, 329.034636896238)" fill="none" stroke="#876344" stroke-width="39.9999999999968" stroke-linecap="round" stroke-linejoin="miter" stroke-miterlimit="1.99999999999984" d="M0 13.1392L45.6903 0" sodipodi:nodetypes="cc"/><path id="shape6" transform="translate(509.130061507585, 393.623011434454)" fill="none" stroke="#876344" stroke-width="39.9999999999968" stroke-linecap="round" stroke-linejoin="miter" stroke-miterlimit="1.99999999999984" d="M0 7.40362L63.3346 0" sodipodi:nodetypes="cc"/><path id="shape7" transform="translate(716.395385825983, 303.938795955062)" fill="none" stroke="#876344" stroke-width="39.9999999999968" stroke-linecap="round" stroke-linejoin="miter" stroke-miterlimit="1.99999999999984" d="M0 135.323L111.832 0" sodipodi:nodetypes="cc"/><path id="shape8" transform="translate(863.008691172785, 627.992900114086)" fill="none" stroke="#876344" stroke-width="39.9999999999968" stroke-linecap="round" stroke-linejoin="miter" stroke-miterlimit="1.99999999999984" d="M0 32.1041L207.264 0" sodipodi:nodetypes="cc"/><path id="shape9" transform="translate(809.591844325683, 379.593927380047)" fill="none" stroke="#876344" stroke-width="39.9999999999968" stroke-linecap="round" stroke-linejoin="miter" stroke-miterlimit="1.99999999999984" d="M44.0095 173.315C49.8555 176.032 169.713 59.0373 167.968 55.3005C166.232 51.5821 -0.925147 86.0492 0.00385799 89.9708C1.50147 96.2926 149.159 160.289 151.611 158.786C154.682 156.903 76.8119 -0.506354 71.1108 0.0012249C64.846 0.558991 38.1035 170.57 44.0095 173.315Z" sodipodi:nodetypes="csssss"/>
</svg>
