<?xml version="1.0" standalone="no"?>
<!DOCTYPE svg PUBLIC "-//W3C//DTD SVG 20010904//EN" "http://www.w3.org/TR/2001/REC-SVG-20010904/DTD/svg10.dtd">
<!-- Created using Krita: https://krita.org -->
<svg xmlns="http://www.w3.org/2000/svg" 
    xmlns:xlink="http://www.w3.org/1999/xlink"
    xmlns:krita="http://krita.org/namespaces/svg/krita"
    xmlns:sodipodi="http://sodipodi.sourceforge.net/DTD/sodipodi-0.dtd"
    width="1001pt"
    height="879pt"
    viewBox="0 0 1001 879">
<defs/>
<path id="shape0" transform="translate(32.6321649738435, 139.945752331998)" fill="#fdfaf0" fill-rule="evenodd" stroke-opacity="0" stroke="#000000" stroke-width="0" stroke-linecap="square" stroke-linejoin="bevel" d="M0 402.933C0 420.002 124.475 647.795 140.074 656.971C150.036 652.994 219.981 634.158 235.842 630.048C416.879 773.489 691.559 704.331 662.296 425.433C624.982 186.749 340.634 248.267 332.994 240.818C324.089 228.927 321.388 -22.6771 213.824 1.65659C89.7982 30.2211 167.903 319.416 194.919 365.818C172.194 386.832 47.7684 403.7 0 402.933Z" sodipodi:nodetypes="cccccccc"/><path id="shape01" transform="translate(30.0565530953636, 143.565033894716)" fill="none" stroke="#876344" stroke-width="39.9999999999968" stroke-linecap="round" stroke-linejoin="bevel" d="M0 402.08C28.0247 406.19 128.927 404.53 197.432 364.276C198.624 362.843 150.72 193.714 151.625 169.053C148.036 142.568 130.349 15.2388 221.791 0.21698C283.804 -5.43982 310.971 100.994 320.212 146.068C324.351 166.252 331.195 235.177 328.91 235.387" sodipodi:nodetypes="cccccc"/><path id="shape1" transform="translate(166.849531312363, 380.308196897675)" fill="none" stroke="#876344" stroke-width="39.9999999999968" stroke-linecap="round" stroke-linejoin="bevel" d="M0 422.61C8.48429 420.974 88.9883 395.327 99.3114 393.046C128.446 406.646 163.529 441.229 240.498 461.763C379.057 482.877 541.905 409.798 531.859 219.341C516.331 68.5639 434.437 17.6092 304.415 2.42557C265.101 -3.81406 135.064 -2.46804 138.399 62.1334C147.179 122.565 289.033 94.0554 293.675 97.3014C295.917 99.3781 168.481 107.874 176.707 165.337C182.891 231.255 340.747 167.943 344.58 188.005C341.604 200.501 206.264 208.956 214.882 266.015C224.401 322.222 373.435 283.91 372.265 286.3C370.486 288.548 234.97 293.323 240.101 346.093C245.984 406.417 363.893 364.654 369.922 366.708C369.976 366.721 373.938 362.232 370.343 366.968" sodipodi:nodetypes="cccccccccccccc"/><path id="shape2" transform="translate(285.900427425791, 32.6606327835213)" fill="none" stroke="#f7d871" stroke-width="39.9999999999968" stroke-linecap="round" stroke-linejoin="miter" stroke-miterlimit="2" d="M0 47.1545L18.4969 0" sodipodi:nodetypes="cc"/><path id="shape3" transform="translate(338.441759339818, 82.9275269410353)" fill="none" stroke="#f7d871" stroke-width="39.9999999999968" stroke-linecap="round" stroke-linejoin="miter" stroke-miterlimit="2" d="M0 36.2288L28.1347 0" sodipodi:nodetypes="cc"/><path id="shape4" transform="translate(376.504239508233, 124.679968234924)" fill="none" stroke="#f7d871" stroke-width="39.9999999999968" stroke-linecap="round" stroke-linejoin="miter" stroke-miterlimit="2" d="M0 45.6679L59.2251 0" sodipodi:nodetypes="cc"/><path id="shape5" transform="translate(391.500532138232, 212.736297818808)" fill="none" stroke="#f7d871" stroke-width="39.9999999999968" stroke-linecap="round" stroke-linejoin="miter" stroke-miterlimit="2" d="M0 13.1392L45.6903 0" sodipodi:nodetypes="cc"/><path id="shape6" transform="translate(407.352787268367, 278.247749146712)" fill="none" stroke="#f7d871" stroke-width="39.9999999999968" stroke-linecap="round" stroke-linejoin="miter" stroke-miterlimit="2" d="M0 7.40362L63.3346 0" sodipodi:nodetypes="cc"/><path id="shape7" transform="translate(614.618111586764, 189.486610457007)" fill="none" stroke="#876344" stroke-width="39.9999999999968" stroke-linecap="round" stroke-linejoin="miter" stroke-miterlimit="2" d="M0 135.323L111.832 0" sodipodi:nodetypes="cc"/><path id="shape8" transform="translate(761.231416933566, 513.540714616031)" fill="none" stroke="#876344" stroke-width="39.9999999999968" stroke-linecap="round" stroke-linejoin="miter" stroke-miterlimit="2" d="M0 32.1041L207.264 0" sodipodi:nodetypes="cc"/><path id="shape9" transform="translate(707.814570084972, 265.141741872438)" fill="#f9e6a9" stroke="#f7d871" stroke-width="39.9999999999968" stroke-linecap="round" stroke-linejoin="miter" stroke-miterlimit="2" d="M44.0095 173.315C49.8555 176.032 169.713 59.0373 167.968 55.3005C166.232 51.5821 -0.925147 86.0492 0.003858 89.9708C1.50147 96.2926 149.159 160.289 151.611 158.786C154.682 156.903 76.8119 -0.506354 71.1108 0.0012249C64.846 0.558991 38.1035 170.57 44.0095 173.315Z" sodipodi:nodetypes="csssss"/>
</svg>
