<?xml version="1.0" standalone="no"?>
<!DOCTYPE svg PUBLIC "-//W3C//DTD SVG 20010904//EN" "http://www.w3.org/TR/2001/REC-SVG-20010904/DTD/svg10.dtd">
<!-- Created using Krita: https://krita.org -->
<svg xmlns="http://www.w3.org/2000/svg" 
    xmlns:xlink="http://www.w3.org/1999/xlink"
    xmlns:krita="http://krita.org/namespaces/svg/krita"
    xmlns:sodipodi="http://sodipodi.sourceforge.net/DTD/sodipodi-0.dtd"
    width="1603pt"
    height="1236pt"
    viewBox="0 0 1603 1236">
<defs/>
<path id="shape0" transform="matrix(0.999984338519831 -0.00559666998261129 0.00559666998261129 0.999984338519831 124.503749688014 290.548947537746)" fill="#fdfaf0" fill-rule="evenodd" stroke-opacity="0" stroke="#000000" stroke-width="0" stroke-linecap="square" stroke-linejoin="bevel" d="M408.482 0.819509C161.689 44.8196 86.7464 172.3 93.729 287.518C-2.57264 345.833 -64.2822 564.236 111.943 667.173C161.051 720.822 249.048 809.009 313.004 839.035C518.714 849.398 852.455 875.608 921.966 806.719C1064.97 684.817 1045.27 203.792 773.999 162.093C745.587 147.443 675.685 -12.7914 408.482 0.819509Z" sodipodi:nodetypes="ccccccc"/><path id="shape1" transform="matrix(0.999984338519831 -0.00559666998261129 0.00559666998261129 0.999984338519831 128.928510772962 195.881337714412)" fill="#ddcbad" fill-rule="evenodd" stroke-opacity="0" stroke="#000000" stroke-width="0" stroke-linecap="square" stroke-linejoin="bevel" d="M42.1631 724.132C284.975 707.578 226.995 462.621 391.491 464.115C554.637 444.051 514.675 664.425 615.357 686.028C652.629 698.358 621.786 812.849 966.382 801.56C970.619 809.494 966.718 837.666 966.673 846.76C1141.03 861.324 1162.78 735.29 1234.23 649.57C1280.02 600.086 1373.01 596.837 1315.23 482.755C1384.67 386.338 1334.9 343.165 1353.89 243.317C1501.54 230.123 1418.74 32.9499 1403.37 22.0556C1303.89 -17.7841 1077 -19.787 1038.63 155.891C992.027 323.917 1258.4 465.807 986.971 733.68C1020.07 580.781 978.989 299.076 763.683 254.883C667.241 97.4821 502.283 83.6625 419.757 90.0694C164.379 134.232 89.8084 240.312 87.3332 379.503C18.8444 417.528 -44.6823 524.052 42.1631 724.132Z" sodipodi:nodetypes="ccccccccccccccc"/><path id="shape2" transform="matrix(0.999984338519831 -0.00559666998261129 0.00559666998261129 0.999984338519831 405.852721690549 308.206751825276)" fill="#8d7663" fill-rule="evenodd" stroke-opacity="0" stroke="#000000" stroke-width="0" stroke-linecap="square" stroke-linejoin="bevel" d="M0 20.4189C6.38548 20.4189 16.6513 148.371 59.1155 178.509C50.5047 147.569 37.1986 11.2564 47.5242 0" sodipodi:nodetypes="ccc"/><path id="shape01" transform="matrix(0.999984338519831 -0.00559666998261129 0.00559666998261129 0.999984338519831 579.352379405639 289.491542316463)" fill="#8d7663" fill-rule="evenodd" stroke-opacity="0" stroke="#000000" stroke-width="0" stroke-linecap="square" stroke-linejoin="bevel" d="M0 1.51585C12.4486 13.5532 7.73493 162.994 0.71329 190.546C45.8682 149.174 44.4209 1.35902 48.9508 0" sodipodi:nodetypes="ccc"/><path id="shape02" transform="matrix(0.999984338519831 -0.00559666998261129 0.00559666998261129 0.999984338519831 490.036334867821 295.974530456375)" fill="#8d7663" fill-rule="evenodd" stroke-opacity="0" stroke="#000000" stroke-width="0" stroke-linecap="square" stroke-linejoin="bevel" d="M0 1.51585C12.4486 13.5532 4.16835 127.239 29.5132 193.221C60.6694 127.952 44.4209 1.35902 48.9508 0" sodipodi:nodetypes="ccc"/><path id="shape03" transform="matrix(0.999984338519831 -0.00559666998261129 0.00559666998261129 0.999984338519831 766.63974658697 717.176702763936)" fill="#8d7663" fill-rule="evenodd" stroke-opacity="0" stroke="#000000" stroke-width="0" stroke-linecap="square" stroke-linejoin="bevel" d="M358.705 58.3142C317.032 79.4464 116.069 100.935 0 3.0314C99.7231 59.9189 321.096 17.4979 351.751 0" sodipodi:nodetypes="ccc"/><path id="shape04" transform="matrix(0.999984338519831 -0.00559666998261129 0.00559666998261129 0.999984338519831 806.309396321637 846.801122240301)" fill="#8d7663" fill-rule="evenodd" stroke-opacity="0" stroke="#000000" stroke-width="0" stroke-linecap="square" stroke-linejoin="bevel" d="M312.519 70.6192C270.845 91.7512 116.069 97.9038 0 0C99.7231 56.8875 284.271 37.917 314.926 20.4191" sodipodi:nodetypes="ccc"/><path id="shape05" transform="matrix(0.999984338519831 -0.00559666998261129 0.00559666998261129 0.999984338519831 757.282649963653 584.70445151346)" fill="#8d7663" fill-rule="evenodd" stroke-opacity="0" stroke="#000000" stroke-width="0" stroke-linecap="square" stroke-linejoin="bevel" d="M344.885 48.9941C303.211 70.1261 123.202 94.9613 0 0C110.244 49.15 293.901 17.4979 324.556 2.13163e-14" sodipodi:nodetypes="ccc"/><path id="shape011" transform="matrix(0.999984338519802 -0.00559666998261133 0.0358300652992532 0.999815129533646 624.244704162129 606.852078228492)" fill="#f0a6a6" fill-rule="evenodd" stroke="#f0a6a6" stroke-width="39.9999999999968" stroke-linecap="square" stroke-linejoin="bevel" d="M0 14.053C1.99477 -2.562 81.8185 -6.0235 86.8899 12.2868C82.3736 23.9289 8.1073 29.1422 0 14.053Z" sodipodi:nodetypes="ccc"/><path id="shape021" transform="matrix(0.999984338519831 -0.00559666998261129 0.00559666998261129 0.999984338519831 327.026074004326 623.215987851346)" fill="#f0a6a6" fill-rule="evenodd" stroke="#f0a6a6" stroke-width="39.9999999999968" stroke-linecap="square" stroke-linejoin="bevel" d="M0 13.4744C1.82613 -2.45653 74.9017 -5.77552 79.5443 11.781C75.4098 22.9437 7.42192 27.9424 0 13.4744Z" sodipodi:nodetypes="ccc"/><ellipse id="shape21" transform="matrix(0.999984338519831 -0.00559666998261129 0.00559666998261129 0.999984338519831 391.308803490129 495.377972540017)" rx="29.2796168125068" ry="64.7710157999099" cx="29.2796168125068" cy="64.7710157999099" fill="#876344" fill-rule="evenodd" stroke-opacity="0" stroke="#000000" stroke-width="0" stroke-linecap="round" stroke-linejoin="miter" stroke-miterlimit="0"/><ellipse id="shape0111" transform="matrix(0.999984338519831 -0.00559666998261129 0.00559666998261129 0.999984338519831 581.989798131188 488.905737149736)" rx="29.3406509630953" ry="64.7710157999099" cx="29.3406509630953" cy="64.7710157999099" fill="#876344" fill-rule="evenodd" stroke-opacity="0" stroke="#000000" stroke-width="0" stroke-linecap="round" stroke-linejoin="miter" stroke-miterlimit="0"/><path id="shape3" transform="matrix(0.999984338519831 -0.00559666998261129 0.00559666998261129 0.999984338519831 489.773421808539 688.00665603687)" fill="none" stroke="#876344" stroke-width="19.9999999999984" stroke-linecap="round" stroke-linejoin="miter" stroke-miterlimit="0" d="M0 20.0566C23.0786 20.0885 27.7045 -0.139068 32.0688 0.000721222C35.2796 2.36502 37.9159 17.4947 61.933 19.2547" sodipodi:nodetypes="ccc"/><path id="shape4" transform="matrix(0.999984338519831 -0.00559666998261129 0.00559666998261129 0.999984338519831 498.913340136012 643.771430290076)" fill="none" stroke="#876344" stroke-width="19.9999999999984" stroke-linecap="round" stroke-linejoin="bevel" d="M0 2.22045e-16C11.4813 18.1382 34.8703 19.1778 47.1482 0" sodipodi:nodetypes="cc"/><path id="shape5" transform="translate(1112.33225941377, 322.464451637839)" fill="#8d7663" fill-rule="evenodd" stroke-opacity="0" stroke="#000000" stroke-width="0" stroke-linecap="square" stroke-linejoin="bevel" d="M13.244 604.014C56.3312 591.275 136.25 432.894 146.668 397.882C173.176 266.235 108.495 103.796 314.624 0C189.013 85.4129 221.449 316.223 213.335 364.858C203.972 426.211 122.941 619.955 0.0170066 651.862C-0.46395 640.989 9.38502 614.219 13.244 604.014Z" sodipodi:nodetypes="cccccc"/><path id="shape6" transform="translate(1198.0265139242, 258.192568707745)" fill="#8d7663" fill-rule="evenodd" stroke-opacity="0" stroke="#000000" stroke-width="0" stroke-linecap="square" stroke-linejoin="bevel" d="M146.727 0C13.5695 68.2514 44.4323 232.184 46.3262 359.807C31.7856 359.191 16.6344 296.569 9.2197 290.2C-14.7729 196.407 0.520072 24.2352 146.727 0Z" sodipodi:nodetypes="cccc"/><path id="shape031" transform="matrix(0.999984338519755 -0.00559666998261085 0.00559666998261085 0.999984338519755 113.832948714159 290.347526923521)" fill="none" stroke="#876344" stroke-width="39.9999999999968" stroke-linecap="round" stroke-linejoin="miter" stroke-miterlimit="0" d="M962.27 765.983C902.687 892.128 612.956 840.823 352.884 840.823C220.4 843.92 129.107 664.675 124.389 663.683C44.5353 650.777 -0.777156 540.35 0.419321 470.933C-5.56301 386.105 53.6262 303.631 103.826 289.793C102.175 99.3546 286.993 9.78559 423.834 0.772326C651.655 -8.74174 699.111 71.1722 777.54 156.226C1051.88 240.917 1046.26 567.553 962.27 765.983Z" sodipodi:nodetypes="cccccccc"/><path id="shape06" transform="matrix(0.999984338519831 -0.00559666998261114 0.00559666998261114 0.999984338519831 244.205020863461 98.7651989813861)" fill="#ddcbad" fill-rule="evenodd" stroke="#876344" stroke-width="39.9999999999968" stroke-linecap="square" stroke-linejoin="bevel" d="M157.851 225.38C120.942 184.762 158.046 -5.48546 122.536 0.121417C57.4274 10.4019 -33.7705 285.381 12.7037 339.967C39.5896 293.026 109.867 239.291 157.851 225.38Z" sodipodi:nodetypes="cccc"/><path id="shape11" transform="matrix(0.999984338519831 -0.00559666998261099 0.00559666998261099 0.999984338519831 640.931603254743 45.9758390441658)" fill="#ddcbad" fill-rule="evenodd" stroke="#876344" stroke-width="39.9999999999968" stroke-linecap="square" stroke-linejoin="bevel" d="M0 243.538C60.345 187.816 17.2652 -11.0307 56.1127 0.479889C98.1663 12.9407 216.707 264.359 159.408 302.863C125.812 274.932 56.6552 245.539 0 243.538Z" sodipodi:nodetypes="cccc"/><path id="shape61" transform="matrix(0.999984338519779 -0.00559666998261095 0.00559666998261095 0.999984338519779 338.237163809121 862.413747103345)" fill="#ddcbad" fill-rule="evenodd" stroke="#876344" stroke-width="19.9999999999984" stroke-linecap="square" stroke-linejoin="bevel" d="M0 13.8979C20.2918 88.8839 145.293 84.6335 93.3733 1.03196C90.5701 -3.97312 0.349185 10.6835 0 13.8979Z" sodipodi:nodetypes="ccc"/><path id="shape07" transform="matrix(0.999984338519768 -0.0055966699826109 0.0055966699826109 0.999984338519768 560.675103518979 861.848271120939)" fill="#ddcbad" fill-rule="evenodd" stroke="#876344" stroke-width="19.9999999999984" stroke-linecap="square" stroke-linejoin="bevel" d="M13.7293 0.159686C-46.2832 86.8477 110.127 87.8824 106.057 13.4656C102.536 9.78808 17.7214 -1.46725 13.7293 0.159686Z" sodipodi:nodetypes="ccc"/><path id="shape7" transform="matrix(0.999984338519804 -0.00559666998261105 0.00559666998261105 0.999984338519804 531.302998059037 1131.50894672146)" fill="#ddcbad" fill-rule="evenodd" stroke="#876344" stroke-width="39.9999999999968" stroke-linecap="square" stroke-linejoin="bevel" d="M16.9675 0.0224417C-7.90908 17.4999 -5.80131 55.9471 25.7394 64.5408C54.7218 69.9233 180.602 72.8389 161.342 5.02319C141.904 12.1086 51.563 -0.602958 16.9675 0.0224417Z" sodipodi:nodetypes="cccc"/><path id="shape08" transform="matrix(0.999984338519831 -0.00559666998261115 0.00559666998261115 0.999984338519831 672.112519670541 1136.49739932826)" fill="#ddcbad" fill-rule="evenodd" stroke="#876344" stroke-width="39.9999999999968" stroke-linecap="square" stroke-linejoin="bevel" d="M13.8405 0C-11.0361 17.4776 0.102484 60.2364 27.5776 65.6114C57.0044 70.9077 179.116 70.4787 160.124 2.48692C136.74 3.51359 57.2084 2.26459 13.8405 0Z" sodipodi:nodetypes="cccc"/><path id="shape09" transform="matrix(0.981850506985564 0.1896564840232 -0.1896564840232 0.981850506985564 1206.47611674492 139.004950794668)" fill="none" stroke="#876344" stroke-width="39.9999999999968" stroke-linecap="square" stroke-linejoin="bevel" d="M63.2771 784.942C131.188 766.661 146.452 578.456 135.364 512.25C118.461 411.312 26.8332 346.498 4.42623 252.233C-34.3291 89.1898 190.453 -38.1823 325.957 10.5029C373.209 27.4798 384.075 102.082 391.382 148.013C402.735 238.981 322.676 203.509 324.004 244.687C325.678 296.564 353.071 345.887 359.335 397.111C362.922 426.435 344.692 449.96 344.692 478.394C344.692 501.895 373.307 537.93 364.525 561.853C346.276 611.565 312.62 624.567 288.937 673.779C247.262 760.38 205.825 914.011 51.7918 907.87C59.7258 887.649 61.4155 808.897 63.2771 784.942Z" sodipodi:nodetypes="cccccccccccc"/><path id="shape22" transform="matrix(0.975764031707641 0.218825397120883 -0.218825397120883 0.975764031707641 198.365907159648 344.614981166412)" fill="#f0a6a6" fill-rule="evenodd" stroke="#f0a6a6" stroke-width="39.9999999999968" stroke-linecap="round" stroke-linejoin="miter" stroke-miterlimit="0" d="M47.2374 23.9244C42.7673 20.557 20.664 -11.8357 7.3621 4.64863C-8.52473 17.0901 21.9428 37.1677 22.0644 43.3025C21.8372 49.5189 -8.18605 61.4734 2.17365 73.9371C19.0807 95.4566 34.5088 71.267 41.4347 70.3789C50.6868 70.4911 63.4063 97.7948 75.1241 86.6714C91.3909 76.4352 70.7066 54.5721 69.8025 48.7985C70.2919 41.4072 98.2671 24.5561 84.3109 10.312C72.7364 -6.65845 57.8998 24.369 47.2374 23.9244Z" sodipodi:nodetypes="ccccccccc"/><path id="shape022" transform="matrix(0.98756238889517 -0.157227631283518 0.157227631283518 0.98756238889517 323.987971733952 383.928089527448)" fill="#f0a6a6" fill-rule="evenodd" stroke="#f0a6a6" stroke-width="39.9999999999968" stroke-linecap="round" stroke-linejoin="miter" stroke-miterlimit="0" d="M49.9233 25.0561C45.199 21.5293 21.839 -12.3956 7.78071 4.86856C-9.00948 17.8985 23.1905 38.9257 23.3189 45.3508C23.0789 51.8612 -8.6515 64.3812 2.29724 77.4344C20.1656 99.9719 36.4709 74.6379 43.7906 73.7079C53.5688 73.8254 67.0116 102.42 79.396 90.7708C96.5875 80.0505 74.7271 57.1534 73.7716 51.1067C74.2887 43.3658 103.854 25.7177 89.105 10.7998C76.8722 -6.97336 61.192 25.5217 49.9233 25.0561Z" sodipodi:nodetypes="ccccccccc"/><path id="shape032" transform="matrix(0.994297761286688 -0.106639401253293 0.106639401253293 0.994297761286688 476.143279396369 363.435491818982)" fill="#f0a6a6" fill-rule="evenodd" stroke="#f0a6a6" stroke-width="39.9999999999968" stroke-linecap="round" stroke-linejoin="miter" stroke-miterlimit="0" d="M62.0607 31.1478C56.1878 26.7636 27.1485 -15.4092 9.67237 6.05219C-11.1999 22.25 28.8286 48.3894 28.9883 56.3765C28.6899 64.4697 -10.7549 80.0336 2.85575 96.2603C25.0683 124.277 45.3378 92.784 54.437 91.6279C66.5926 91.7739 83.3036 127.321 98.6989 112.839C120.07 99.5125 92.8948 71.0486 91.707 63.5318C92.3499 53.9089 129.104 31.9702 110.768 13.4255C95.5615 -8.66876 76.0691 31.7266 62.0607 31.1478Z" sodipodi:nodetypes="ccccccccc"/><path id="shape041" transform="matrix(0.985486730729216 0.169752477319196 -0.169752477319196 0.985486730729216 660.539797920985 353.943233007944)" fill="#f0a6a6" fill-rule="evenodd" stroke="#f0a6a6" stroke-width="39.9999999999968" stroke-linecap="round" stroke-linejoin="miter" stroke-miterlimit="0" d="M49.2199 24.7031C44.5622 21.226 21.5313 -12.2209 7.67108 4.79993C-8.88255 17.6463 22.8638 38.3773 22.9904 44.7118C22.7537 51.1305 -8.52961 63.4741 2.26487 76.3434C19.8815 98.5634 35.9571 73.5864 43.1736 72.6695C52.8141 72.7852 66.0675 100.977 78.2774 89.4919C95.2267 78.9227 73.6742 56.3481 72.7322 50.3867C73.2421 42.7548 102.391 25.3554 87.8496 10.6477C75.7891 -6.87515 60.3299 25.1621 49.2199 24.7031Z" sodipodi:nodetypes="ccccccccc"/><path id="shape051" transform="matrix(0.918429175203281 0.395585452380127 -0.395585452380127 0.918429175203281 820.622411947596 307.124693989714)" fill="#f0a6a6" fill-rule="evenodd" stroke="#f0a6a6" stroke-width="39.9999999999968" stroke-linecap="round" stroke-linejoin="miter" stroke-miterlimit="0" d="M43.2355 21.6996C39.1441 18.6452 18.9134 -10.7351 6.73839 4.21639C-7.80256 15.5008 20.0839 33.7112 20.1951 39.2755C19.9872 44.9138 -7.49253 55.7566 1.98949 67.0611C17.4642 86.5795 31.5852 64.6393 37.9243 63.8339C46.3927 63.9356 58.0346 88.6999 68.76 78.611C83.6485 69.3268 64.7165 49.497 63.889 44.2604C64.3369 37.5564 89.942 22.2725 77.1683 9.35308C66.5743 -6.03917 52.9946 22.1028 43.2355 21.6996Z" sodipodi:nodetypes="ccccccccc"/><path id="shape8" transform="matrix(1.48532464062959 0.510867557236088 -0.510867557236088 1.48532464062959 455.18631912142 831.825783015855)" fill="#e5ab78" fill-rule="evenodd" stroke="#876344" stroke-width="9.99999999999919" stroke-linecap="square" stroke-linejoin="bevel" d="M2.8781 2.73142C-0.138243 8.41292 -9.78707 64.9207 37.5434 66.2043C84.6343 64.8124 76.5559 -1.08763 75.449 0.334546C65.292 -1.28804 9.21377 3.56326 2.8781 2.73142Z" sodipodi:nodetypes="cccc"/><path id="shape010" transform="matrix(1.48532464062959 0.510867557236088 -0.510867557236088 1.48532464062959 543.410574915442 746.644843393864)" fill="#8d7663" stroke="#876344" stroke-width="9.99999999999919" stroke-linecap="round" stroke-linejoin="bevel" d="M0.0172515 20.8617C-0.426607 10.9075 7.82916 1.19419 9.24951 0" sodipodi:nodetypes="cc"/><path id="shape12" transform="matrix(1.48532464062959 0.510867557236088 -0.510867557236088 1.48532464062959 459.971690044201 765.216006085751)" fill="#8d7663" stroke="#876344" stroke-width="9.99999999999919" stroke-linecap="round" stroke-linejoin="bevel" d="M0 44.3452C0.0920396 -12.1114 92.7664 -16.1892 96.2285 40.9274C93.8317 41.9993 5.50417 46.2661 0 44.3452Z" sodipodi:nodetypes="ccc"/>
</svg>
