<?xml version="1.0" standalone="no"?>
<!DOCTYPE svg PUBLIC "-//W3C//DTD SVG 20010904//EN" "http://www.w3.org/TR/2001/REC-SVG-20010904/DTD/svg10.dtd">
<!-- Created using Krita: https://krita.org -->
<svg xmlns="http://www.w3.org/2000/svg" 
    xmlns:xlink="http://www.w3.org/1999/xlink"
    xmlns:krita="http://krita.org/namespaces/svg/krita"
    xmlns:sodipodi="http://sodipodi.sourceforge.net/DTD/sodipodi-0.dtd"
    width="1603pt"
    height="1236pt"
    viewBox="0 0 1603 1236">
<defs/>
<path id="shape0" transform="translate(167.599545505596, 344.825327909888)" fill="#fdfaf0" fill-rule="evenodd" stroke="none" stroke-width="39.9999999999968" stroke-linecap="square" stroke-linejoin="bevel" d="M381.692 0.977702C134.899 44.9778 57.5542 205.025 46.793 239.004C-9.10243 377.674 -29.5762 501.211 69.2622 647.025C222.677 865.005 619.009 817.095 810.48 796.644C892.204 790.025 1003.63 769.167 1051.67 697.938C1112.32 556.134 1112.5 153.964 770 134.77C741.588 120.12 648.895 -12.6332 381.692 0.977702Z" sodipodi:nodetypes="ccccccc"/><path id="shape1" transform="translate(166.373481130306, 265.568444079969)" fill="#ddcbad" fill-rule="evenodd" stroke="none" stroke-width="39.9999999999968" stroke-linecap="square" stroke-linejoin="bevel" d="M41.4209 696.144C284.233 679.59 206.385 447.395 370.881 448.889C534.027 428.825 534.445 651.2 635.127 672.803C709.671 697.463 720.307 767.089 1047.45 782.387C1356.57 767.355 1414.85 -115.974 1135.67 12.8262C912.233 143.891 1307.43 414.65 1062.99 726.363C1117.3 589.473 1081.28 213.34 766.82 215.82C668.474 89.125 481.404 68.7898 398.878 75.1967C163.428 78.7299 -104.375 351.982 41.4209 696.144Z" sodipodi:nodetypes="ccccccccc"/><path id="shape2" transform="translate(422.054727275761, 364.215665377508)" fill="#8d7663" fill-rule="evenodd" stroke="none" stroke-width="39.9999999999968" stroke-linecap="square" stroke-linejoin="bevel" d="M0 20.4189C6.38548 20.4189 16.6513 148.371 59.1155 178.509C50.5047 147.569 37.1986 11.2564 47.5242 0" sodipodi:nodetypes="ccc"/><path id="shape01" transform="translate(595.65641058072, 346.471769302901)" fill="#8d7663" fill-rule="evenodd" stroke-opacity="0" stroke="#000000" stroke-width="0" stroke-linecap="square" stroke-linejoin="bevel" d="M0 1.51585C12.4486 13.5532 7.73493 162.994 0.71329 190.546C45.8682 149.174 44.4209 1.35902 48.9508 0" sodipodi:nodetypes="ccc"/><path id="shape02" transform="translate(506.30548171922, 352.454783484194)" fill="#8d7663" fill-rule="evenodd" stroke-opacity="0" stroke="#000000" stroke-width="0" stroke-linecap="square" stroke-linejoin="bevel" d="M0 1.51585C12.4486 13.5532 4.16835 127.239 29.5132 193.221C60.6694 127.952 44.4209 1.35902 48.9508 0" sodipodi:nodetypes="ccc"/><path id="shape03" transform="translate(881.795229709314, 750.996933762103)" fill="#8d7663" fill-rule="evenodd" stroke-opacity="0" stroke="#000000" stroke-width="0" stroke-linecap="square" stroke-linejoin="bevel" d="M358.705 58.3142C317.032 79.4464 116.069 100.935 0 3.0314C99.7231 59.9189 321.096 17.4979 351.751 0" sodipodi:nodetypes="ccc"/><path id="shape04" transform="translate(926.831813196096, 870.75512536202)" fill="#8d7663" fill-rule="evenodd" stroke-opacity="0" stroke="#000000" stroke-width="0" stroke-linecap="square" stroke-linejoin="bevel" d="M312.519 70.6192C270.845 91.7512 116.069 97.9038 0 0C99.7231 56.8875 284.271 37.917 314.926 20.4191" sodipodi:nodetypes="ccc"/><path id="shape05" transform="translate(859.067417042131, 617.99999999995)" fill="#8d7663" fill-rule="evenodd" stroke-opacity="0" stroke="#000000" stroke-width="0" stroke-linecap="square" stroke-linejoin="bevel" d="M344.885 48.9941C303.211 70.1261 123.202 94.9613 0 0C110.244 49.15 293.901 17.4979 324.556 2.13163e-14" sodipodi:nodetypes="ccc"/><path id="shape031" transform="translate(171.906429240863, 345.204215337509)" fill="none" stroke="#876344" stroke-width="39.9999999999968" stroke-linecap="round" stroke-linejoin="miter" stroke-miterlimit="0" d="M1056.46 662.171C1018.67 812.319 708.488 814.695 448.416 814.695C157.431 801.252 11.7145 652.458 1.4239 464.254C-17.4239 237.766 152.404 3.05528 417.933 0C564.016 2.36815 683.39 48.3288 761.819 133.382C1039.26 140.058 1112.59 445.031 1056.46 662.171Z" sodipodi:nodetypes="cccccc"/><path id="shape06" transform="translate(238.309304551929, 175.910123869553)" fill="#ddcbad" fill-rule="evenodd" stroke="#876344" stroke-width="39.9999999999968" stroke-linecap="square" stroke-linejoin="bevel" d="M149.589 222.65C112.68 182.032 146.307 -5.48373 110.797 0.123148C45.6886 10.4036 -32.4011 290.783 14.0731 345.369C54.3362 287.494 100.389 247.739 149.589 222.65Z" sodipodi:nodetypes="cccc"/><path id="shape11" transform="translate(668.786524075361, 108.382349040091)" fill="#ddcbad" fill-rule="evenodd" stroke="#876344" stroke-width="39.9999999999968" stroke-linecap="square" stroke-linejoin="bevel" d="M0 242.021C60.345 186.299 35.1889 -11.0272 74.0364 0.48343C116.09 12.9442 223.502 255.334 166.203 293.838C138.526 271 75.576 257.71 0 242.021Z" sodipodi:nodetypes="cccc"/><path id="shape011" transform="matrix(1 0 0.0302338688237786 1 638.771870377385 664.078592507676)" fill="#f0a6a6" fill-rule="evenodd" stroke="#f0a6a6" stroke-width="39.9999999999968" stroke-linecap="square" stroke-linejoin="bevel" d="M0 14.053C1.99477 -2.56201 81.8185 -6.02351 86.8899 12.2868C82.3736 23.9289 8.1073 29.1422 0 14.053Z" sodipodi:nodetypes="ccc"/><path id="shape021" transform="translate(341.466311395983, 678.778809715042)" fill="#f0a6a6" fill-rule="evenodd" stroke="#f0a6a6" stroke-width="39.9999999999968" stroke-linecap="square" stroke-linejoin="bevel" d="M0 13.4744C1.82613 -2.45653 74.9017 -5.77552 79.5443 11.781C75.4098 22.9437 7.42192 27.9424 0 13.4744Z" sodipodi:nodetypes="ccc"/><ellipse id="shape21" transform="translate(406.46350130204, 551.302557203509)" rx="29.2796168125068" ry="64.7710157999099" cx="29.2796168125068" cy="64.7710157999099" fill="#876344" fill-rule="evenodd" stroke-opacity="0" stroke="#000000" stroke-width="0" stroke-linecap="round" stroke-linejoin="miter" stroke-miterlimit="0"/><ellipse id="shape0111" transform="translate(597.177732562059, 545.897601776974)" rx="29.3406509630953" ry="64.7710157999099" cx="29.3406509630953" cy="64.7710157999099" fill="#876344" fill-rule="evenodd" stroke-opacity="0" stroke="#000000" stroke-width="0" stroke-linecap="round" stroke-linejoin="miter" stroke-miterlimit="0"/><path id="shape3" transform="translate(503.848498348088, 744.479297823396)" fill="none" stroke="#876344" stroke-width="19.9999999999984" stroke-linecap="round" stroke-linejoin="miter" stroke-miterlimit="0" d="M0 20.0566C23.0786 20.0885 27.7045 -0.139068 32.0688 0.000721222C35.2796 2.36502 37.9159 17.4947 61.933 19.2547" sodipodi:nodetypes="ccc"/><path id="shape4" transform="translate(513.235843491026, 700.295917972642)" fill="none" stroke="#876344" stroke-width="19.9999999999984" stroke-linecap="round" stroke-linejoin="bevel" d="M0 2.22045e-16C11.4813 18.1382 34.8703 19.1778 47.1482 0" sodipodi:nodetypes="cc"/><path id="shape5" transform="translate(1211.50994246944, 269.313905486352)" fill="none" stroke="#876344" stroke-width="39.9999999999968" stroke-linecap="square" stroke-linejoin="bevel" d="M24.52 705.595C84.6789 702.767 111.668 513.063 105.481 459.41C101.304 319.686 -74.6705 66.1898 111.99 1.36735C394.462 -38.1438 269.288 791.863 0 777.908C13.8957 761.367 25.3491 720.282 24.52 705.595Z" sodipodi:nodetypes="ccccc"/><path id="shape6" transform="translate(365.023335243482, 1108.74597805574)" fill="#ddcbad" fill-rule="evenodd" stroke="#876344" stroke-width="39.9999999999968" stroke-linecap="square" stroke-linejoin="bevel" d="M21.7226 0C-57.4863 88.0953 105.396 106.923 105.536 29.7812C84.9014 22.6345 34.5937 11.7698 21.7226 0Z" sodipodi:nodetypes="ccc"/><path id="shape07" transform="translate(439.609572500333, 1135.43105542519)" fill="#ddcbad" fill-rule="evenodd" stroke="#876344" stroke-width="39.9999999999968" stroke-linecap="square" stroke-linejoin="bevel" d="M19.8272 0C-59.3817 88.0953 125.079 99.7151 113.628 19.7947C92.9924 12.648 37.1565 10.4323 19.8272 0Z" sodipodi:nodetypes="ccc"/><path id="shape7" transform="translate(885.658077710478, 1133.89059460368)" fill="#ddcbad" fill-rule="evenodd" stroke="#876344" stroke-width="39.9999999999968" stroke-linecap="square" stroke-linejoin="bevel" d="M13.6898 19.6164C-11.1868 37.0939 1.68753 71.0738 21.8037 74.8097C50.7861 80.1922 172.312 67.9918 153.32 0C133.882 7.08543 48.2853 18.991 13.6898 19.6164Z" sodipodi:nodetypes="cccc"/><path id="shape08" transform="translate(952.183341311888, 1117.45339910201)" fill="#ddcbad" fill-rule="evenodd" stroke="#876344" stroke-width="39.9999999999968" stroke-linecap="square" stroke-linejoin="bevel" d="M13.6898 29.5137C-11.1868 46.9913 1.68752 80.9711 21.8037 84.707C50.7861 90.0896 171.51 67.9918 152.518 0C133.08 7.08543 48.2853 28.8884 13.6898 29.5137Z" sodipodi:nodetypes="cccc"/>
</svg>
