<?xml version="1.0" standalone="no"?>
<!DOCTYPE svg PUBLIC "-//W3C//DTD SVG 20010904//EN" "http://www.w3.org/TR/2001/REC-SVG-20010904/DTD/svg10.dtd">
<!-- Created using Krita: https://krita.org -->
<svg xmlns="http://www.w3.org/2000/svg" 
    xmlns:xlink="http://www.w3.org/1999/xlink"
    xmlns:krita="http://krita.org/namespaces/svg/krita"
    xmlns:sodipodi="http://sodipodi.sourceforge.net/DTD/sodipodi-0.dtd"
    width="1603pt"
    height="1236pt"
    viewBox="0 0 1603 1236">
<defs/>
<path id="shape0" transform="matrix(0.999984338519912 -0.00559666998261174 0.00559666998261174 0.999984338519912 141.620728369718 290.453150080918)" fill="#fdfaf0" fill-rule="evenodd" stroke-opacity="0" stroke="#000000" stroke-width="0" stroke-linecap="square" stroke-linejoin="bevel" d="M391.365 0.819507C144.572 44.8196 70.6026 172.838 77.5852 288.056C-70.7159 377.878 7.59806 742.319 194.065 822.93C441.069 862.464 877.876 872.739 897.287 809.517C1035.73 677.913 1028.15 203.792 756.882 162.093C728.47 147.443 658.568 -12.7914 391.365 0.819507Z" sodipodi:nodetypes="cccccc"/><path id="shape1" transform="matrix(0.999984338519912 -0.00559666998261174 0.00559666998261174 0.999984338519912 142.02701685941 195.808052831129)" fill="#ddcbad" fill-rule="evenodd" stroke-opacity="0" stroke="#000000" stroke-width="0" stroke-linecap="square" stroke-linejoin="bevel" d="M28.9776 723.776C271.79 707.222 213.896 462.621 378.392 464.115C541.538 444.051 501.576 664.425 602.258 686.028C639.53 698.358 608.687 812.849 953.283 801.56C957.52 809.494 953.619 837.666 953.574 846.76C1127.93 861.324 1149.68 735.29 1221.13 649.57C1266.92 600.086 1359.91 596.837 1302.13 482.755C1371.57 386.338 1321.8 343.165 1340.79 243.317C1488.44 230.123 1405.64 32.9499 1390.27 22.0556C1290.79 -17.7841 1063.9 -19.787 1025.53 155.891C978.928 323.917 1245.3 465.807 973.872 733.68C1006.97 580.781 965.89 299.076 750.584 254.883C654.142 97.4821 489.184 83.6625 406.658 90.0694C151.28 134.232 76.7097 240.312 74.2345 379.503C5.74571 417.528 -28.2044 553.069 28.9776 723.776Z" sodipodi:nodetypes="ccccccccccccccc"/><path id="shape2" transform="matrix(0.999984338519912 -0.00559666998261174 0.00559666998261174 0.999984338519912 405.852721690582 308.206751825301)" fill="#8d7663" fill-rule="evenodd" stroke-opacity="0" stroke="#000000" stroke-width="0" stroke-linecap="square" stroke-linejoin="bevel" d="M0 20.4189C6.38548 20.4189 16.6513 148.371 59.1155 178.509C50.5047 147.569 37.1986 11.2564 47.5242 0" sodipodi:nodetypes="ccc"/><path id="shape01" transform="matrix(0.999984338519912 -0.00559666998261174 0.00559666998261174 0.999984338519912 579.352379405686 289.491542316486)" fill="#8d7663" fill-rule="evenodd" stroke-opacity="0" stroke="#000000" stroke-width="0" stroke-linecap="square" stroke-linejoin="bevel" d="M0 1.51585C12.4486 13.5532 7.73493 162.994 0.71329 190.546C45.8682 149.174 44.4209 1.35902 48.9508 0" sodipodi:nodetypes="ccc"/><path id="shape02" transform="matrix(0.999984338519912 -0.00559666998261174 0.00559666998261174 0.999984338519912 490.03633486786 295.974530456399)" fill="#8d7663" fill-rule="evenodd" stroke-opacity="0" stroke="#000000" stroke-width="0" stroke-linecap="square" stroke-linejoin="bevel" d="M0 1.51585C12.4486 13.5532 4.16835 127.239 29.5132 193.221C60.6694 127.952 44.4209 1.35902 48.9508 0" sodipodi:nodetypes="ccc"/><path id="shape03" transform="matrix(0.999984338519912 -0.00559666998261174 0.00559666998261174 0.999984338519912 766.639746587032 717.176702763994)" fill="#8d7663" fill-rule="evenodd" stroke-opacity="0" stroke="#000000" stroke-width="0" stroke-linecap="square" stroke-linejoin="bevel" d="M358.705 58.3142C317.032 79.4464 116.069 100.935 0 3.0314C99.7231 59.9189 321.096 17.4979 351.751 0" sodipodi:nodetypes="ccc"/><path id="shape04" transform="matrix(0.999984338519912 -0.00559666998261174 0.00559666998261174 0.999984338519912 806.309396321702 846.801122240369)" fill="#8d7663" fill-rule="evenodd" stroke-opacity="0" stroke="#000000" stroke-width="0" stroke-linecap="square" stroke-linejoin="bevel" d="M312.519 70.6192C270.845 91.7512 116.069 97.9038 0 0C99.7231 56.8875 284.271 37.917 314.926 20.4191" sodipodi:nodetypes="ccc"/><path id="shape05" transform="matrix(0.999984338519912 -0.00559666998261174 0.00559666998261174 0.999984338519912 757.282649963714 584.704451513507)" fill="#8d7663" fill-rule="evenodd" stroke-opacity="0" stroke="#000000" stroke-width="0" stroke-linecap="square" stroke-linejoin="bevel" d="M344.885 48.9941C303.211 70.1261 123.202 94.9613 0 0C110.244 49.15 293.901 17.4979 324.556 2.13163e-14" sodipodi:nodetypes="ccc"/><path id="shape011" transform="matrix(0.999984338519882 -0.00559666998261178 0.0358300652992561 0.999815129533727 624.244704225318 606.852079990384)" fill="#f0a6a6" fill-rule="evenodd" stroke="#f0a6a6" stroke-width="39.9999999999968" stroke-linecap="square" stroke-linejoin="bevel" d="M0 14.053C1.99477 -2.562 81.8185 -6.0235 86.8899 12.2868C82.3736 23.9289 8.1073 29.1422 0 14.053Z" sodipodi:nodetypes="ccc"/><path id="shape021" transform="matrix(0.999984338519912 -0.00559666998261174 0.00559666998261174 0.999984338519912 327.026074036273 623.215993554796)" fill="#f0a6a6" fill-rule="evenodd" stroke="#f0a6a6" stroke-width="39.9999999999968" stroke-linecap="square" stroke-linejoin="bevel" d="M0 13.4744C1.82613 -2.45653 74.9017 -5.77552 79.5443 11.781C75.4098 22.9437 7.42192 27.9424 0 13.4744Z" sodipodi:nodetypes="ccc"/><ellipse id="shape21" transform="matrix(0.999984338519912 -0.00559666998261174 0.00559666998261174 0.999984338519912 391.30880349016 495.377972540057)" rx="29.2796168125068" ry="64.7710157999099" cx="29.2796168125068" cy="64.7710157999099" fill="#876344" fill-rule="evenodd" stroke-opacity="0" stroke="#000000" stroke-width="0" stroke-linecap="round" stroke-linejoin="miter" stroke-miterlimit="0"/><ellipse id="shape0111" transform="matrix(0.999984338519912 -0.00559666998261174 0.00559666998261174 0.999984338519912 581.989798131235 488.905737149775)" rx="29.3406509630953" ry="64.7710157999099" cx="29.3406509630953" cy="64.7710157999099" fill="#876344" fill-rule="evenodd" stroke-opacity="0" stroke="#000000" stroke-width="0" stroke-linecap="round" stroke-linejoin="miter" stroke-miterlimit="0"/><path id="shape3" transform="matrix(0.999984338519912 -0.00559666998261174 0.00559666998261174 0.999984338519912 489.773421808577 688.006656036664)" fill="none" stroke="#876344" stroke-width="19.9999999999984" stroke-linecap="round" stroke-linejoin="miter" stroke-miterlimit="0" d="M0 20.0566C23.0786 20.0885 27.7045 -0.139068 32.0688 0.000721222C35.2796 2.36502 37.9159 17.4947 61.933 19.2547" sodipodi:nodetypes="ccc"/><path id="shape4" transform="matrix(0.999984338519912 -0.00559666998261174 0.00559666998261174 0.999984338519912 498.913340136052 643.771430290128)" fill="none" stroke="#876344" stroke-width="19.9999999999984" stroke-linecap="round" stroke-linejoin="bevel" d="M0 2.22045e-16C11.4813 18.1382 34.8703 19.1778 47.1482 0" sodipodi:nodetypes="cc"/><path id="shape5" transform="translate(1112.3322594822, 322.464451637865)" fill="#8d7663" fill-rule="evenodd" stroke="none" stroke-width="39.9999999999968" stroke-linecap="square" stroke-linejoin="bevel" d="M13.244 604.014C56.3312 591.275 136.25 432.894 146.668 397.882C173.176 266.235 108.495 103.796 314.624 0C189.013 85.4129 221.449 316.223 213.335 364.858C203.972 426.211 122.941 619.955 0.0170066 651.862C-0.46395 640.989 9.38502 614.219 13.244 604.014Z" sodipodi:nodetypes="cccccc"/><path id="shape6" transform="translate(1198.0265355797, 258.192568707766)" fill="#8d7663" fill-rule="evenodd" stroke="none" stroke-width="39.9999999999968" stroke-linecap="square" stroke-linejoin="bevel" d="M146.727 0C13.5695 68.2514 44.4323 232.184 46.3262 359.807C31.7856 359.191 16.6344 296.569 9.21968 290.2C-14.7729 196.407 0.52005 24.2352 146.727 0Z" sodipodi:nodetypes="cccc"/><path id="shape031" transform="matrix(0.999984338519833 -0.00559666998261129 0.00559666998261129 0.999984338519833 142.711208921376 290.185902544559)" fill="none" stroke="#876344" stroke-width="39.9999999999968" stroke-linecap="round" stroke-linejoin="miter" stroke-miterlimit="0" d="M933.391 765.983C873.808 892.128 584.517 841.624 324.445 841.624C66.2514 831.921 7.55082 609.556 1.32073 479.444C-6.99811 415.554 24.7475 303.631 74.9468 289.793C73.2967 99.3546 258.114 9.78559 394.955 0.772326C622.776 -8.74174 670.232 71.1722 748.661 156.226C1023 240.917 1017.38 567.553 933.391 765.983Z" sodipodi:nodetypes="ccccccc"/><path id="shape06" transform="matrix(0.999984338519912 -0.00559666998261159 0.00559666998261159 0.999984338519912 244.204981045952 98.7651997587422)" fill="#ddcbad" fill-rule="evenodd" stroke="#876344" stroke-width="39.9999999999968" stroke-linecap="square" stroke-linejoin="bevel" d="M157.851 225.38C120.942 184.762 158.046 -5.48546 122.536 0.121417C57.4274 10.4019 -33.7705 285.381 12.7037 339.967C39.5896 293.026 109.867 239.291 157.851 225.38Z" sodipodi:nodetypes="cccc"/><path id="shape11" transform="matrix(0.999984338519912 -0.00559666998261144 0.00559666998261144 0.999984338519912 640.93160323928 45.9758362720688)" fill="#ddcbad" fill-rule="evenodd" stroke="#876344" stroke-width="39.9999999999968" stroke-linecap="square" stroke-linejoin="bevel" d="M0 243.538C60.345 187.816 17.2652 -11.0307 56.1127 0.479892C98.1663 12.9407 216.707 264.359 159.408 302.863C125.812 274.932 56.6552 245.539 0 243.538Z" sodipodi:nodetypes="cccc"/><path id="shape61" transform="matrix(0.999984338519861 -0.00559666998261141 0.00559666998261141 0.999984338519861 338.237163843548 862.413753249877)" fill="#ddcbad" fill-rule="evenodd" stroke="#876344" stroke-width="39.9999999999968" stroke-linecap="square" stroke-linejoin="bevel" d="M0 13.8979C20.2918 88.8839 145.293 84.6335 93.3733 1.03196C90.5701 -3.97312 0.349185 10.6835 0 13.8979Z" sodipodi:nodetypes="ccc"/><path id="shape07" transform="matrix(0.99998433851985 -0.00559666998261136 0.00559666998261136 0.99998433851985 560.675150392064 861.848271474983)" fill="#ddcbad" fill-rule="evenodd" stroke="#876344" stroke-width="39.9999999999968" stroke-linecap="square" stroke-linejoin="bevel" d="M13.7293 0.159685C-46.2832 86.8477 110.127 87.8824 106.057 13.4656C102.536 9.78808 17.7214 -1.46725 13.7293 0.159685Z" sodipodi:nodetypes="ccc"/><path id="shape7" transform="matrix(0.999984338519884 -0.0055966699826115 0.0055966699826115 0.999984338519884 531.303003486788 1131.50894663189)" fill="#ddcbad" fill-rule="evenodd" stroke="#876344" stroke-width="39.9999999999968" stroke-linecap="square" stroke-linejoin="bevel" d="M16.9675 0.0224417C-7.90908 17.4999 -5.80131 55.9471 25.7394 64.5408C54.7218 69.9233 180.602 72.8389 161.342 5.02319C141.904 12.1086 51.563 -0.602958 16.9675 0.0224417Z" sodipodi:nodetypes="cccc"/><path id="shape08" transform="matrix(0.999984338519912 -0.0055966699826116 0.0055966699826116 0.999984338519912 672.1125719452 1136.49739903578)" fill="#ddcbad" fill-rule="evenodd" stroke="#876344" stroke-width="39.9999999999968" stroke-linecap="square" stroke-linejoin="bevel" d="M13.8405 0C-11.0361 17.4776 0.102432 60.2364 27.5776 65.6114C57.0044 70.9077 179.116 70.4787 160.124 2.48692C136.74 3.51359 57.2084 2.26459 13.8405 0Z" sodipodi:nodetypes="cccc"/><path id="shape09" transform="matrix(0.981850506985644 0.189656484023215 -0.189656484023215 0.981850506985644 1206.4761365951 139.004863239641)" fill="none" stroke="#876344" stroke-width="39.9999999999968" stroke-linecap="square" stroke-linejoin="bevel" d="M63.2771 784.942C131.188 766.661 146.452 578.456 135.364 512.25C118.461 411.312 26.8332 346.498 4.42623 252.233C-34.3291 89.1898 190.453 -38.1823 325.957 10.5029C373.209 27.4798 384.075 102.082 391.382 148.013C402.735 238.981 322.676 203.509 324.004 244.687C325.678 296.564 353.071 345.887 359.335 397.111C362.922 426.435 344.692 449.96 344.692 478.394C344.692 501.895 373.307 537.93 364.525 561.853C346.276 611.565 312.62 624.567 288.937 673.779C247.262 760.38 205.825 914.011 51.7918 907.87C59.7258 887.649 61.4155 808.897 63.2771 784.942Z" sodipodi:nodetypes="cccccccccccc"/>
</svg>
