<?xml version="1.0" standalone="no"?>
<!DOCTYPE svg PUBLIC "-//W3C//DTD SVG 20010904//EN" "http://www.w3.org/TR/2001/REC-SVG-20010904/DTD/svg10.dtd">
<!-- Created using Krita: https://krita.org -->
<svg xmlns="http://www.w3.org/2000/svg" 
    xmlns:xlink="http://www.w3.org/1999/xlink"
    xmlns:krita="http://krita.org/namespaces/svg/krita"
    xmlns:sodipodi="http://sodipodi.sourceforge.net/DTD/sodipodi-0.dtd"
    width="1603pt"
    height="1236pt"
    viewBox="0 0 1603 1236">
<defs/>
<path id="shape03" transform="translate(356.332009679401, 272.890133249706)" fill="#ddcbad" stroke="#876344" stroke-width="39.9999999999968" stroke-linecap="round" stroke-linejoin="miter" stroke-miterlimit="0" d="M852.272 444.429C842.786 631.062 671.212 825.751 411.14 825.751C120.155 812.308 11.7086 650.675 1.41797 462.471C-17.4298 235.983 153.201 3.05528 418.73 0C709.04 7.05459 867.225 233.062 852.272 444.429Z" sodipodi:nodetypes="ccccc"/><path id="shape0" transform="translate(429.695557017027, 103.772789806526)" fill="#ddcbad" fill-rule="evenodd" stroke="#876344" stroke-width="39.9999999999968" stroke-linecap="square" stroke-linejoin="bevel" d="M150.032 213.383C113.123 172.765 143.005 -5.47747 107.495 0.129409C42.3867 10.4099 -31.9581 281.516 14.5161 336.102C54.7792 278.227 100.832 238.472 150.032 213.383Z" sodipodi:nodetypes="cccc"/><path id="shape1" transform="translate(1010.58904247754, 118.45431742156)" fill="#ddcbad" fill-rule="evenodd" stroke="#876344" stroke-width="39.9999999999968" stroke-linecap="square" stroke-linejoin="bevel" d="M0 214.12C42.0664 183.453 56.7665 -11.0198 95.614 0.490802C137.668 12.9516 193.097 313.299 135.798 351.803C102.591 295.35 53.6417 243.094 0 214.12Z" sodipodi:nodetypes="cccc"/><path id="shape011" transform="translate(829.467093851184, 585.563367183661)" fill="#f0a6a6" fill-rule="evenodd" stroke="#f0a6a6" stroke-width="39.9999999999968" stroke-linecap="square" stroke-linejoin="bevel" d="M0 19.1399C1.99477 -3.4894 81.8185 -8.20389 86.8899 16.7344C82.3736 32.5906 8.1073 39.6911 0 19.1399Z" sodipodi:nodetypes="ccc"/><path id="shape02" transform="translate(531.333920526607, 596.482894594092)" fill="#f0a6a6" fill-rule="evenodd" stroke="#f0a6a6" stroke-width="39.9999999999968" stroke-linecap="square" stroke-linejoin="bevel" d="M0 13.4744C1.82613 -2.45653 74.9017 -5.77552 79.5443 11.781C75.4098 22.9437 7.42192 27.9424 0 13.4744Z" sodipodi:nodetypes="ccc"/><ellipse id="shape2" transform="translate(596.331110432669, 469.006639230805)" rx="29.2796168125068" ry="64.7710157999099" cx="29.2796168125068" cy="64.7710157999099" fill="#876344" fill-rule="evenodd" stroke-opacity="0" stroke="#000000" stroke-width="0" stroke-linecap="round" stroke-linejoin="miter" stroke-miterlimit="0"/><ellipse id="shape0111" transform="translate(787.045341692703, 463.601683804269)" rx="29.3406509630953" ry="64.7710157999099" cx="29.3406509630953" cy="64.7710157999099" fill="#876344" fill-rule="evenodd" stroke-opacity="0" stroke="#000000" stroke-width="0" stroke-linecap="round" stroke-linejoin="miter" stroke-miterlimit="0"/><path id="shape3" transform="translate(693.716107478725, 662.183379852556)" fill="none" stroke="#876344" stroke-width="19.9999999999984" stroke-linecap="round" stroke-linejoin="miter" stroke-miterlimit="0" d="M0 20.0566C23.0786 20.0885 27.7045 -0.139068 32.0688 0.00072122C35.2796 2.36502 37.9159 17.4947 61.933 19.2547" sodipodi:nodetypes="ccc"/><path id="shape6" transform="translate(881.187915679373, 590.212245217347)" fill="none" stroke="#876344" stroke-width="19.9999999999984" stroke-linecap="round" stroke-linejoin="miter" stroke-miterlimit="0" d="M0 15.5828L96.0287 0" sodipodi:nodetypes="cc"/><path id="shape021" transform="translate(881.187915679374, 638.87641736334)" fill="none" stroke="#876344" stroke-width="19.9999999999984" stroke-linecap="round" stroke-linejoin="miter" stroke-miterlimit="0" d="M0 0L96.405 15.0492" sodipodi:nodetypes="cc"/><path id="shape031" transform="translate(481.968757504034, 599.705959746475)" fill="none" stroke="#876344" stroke-width="19.9999999999984" stroke-linecap="round" stroke-linejoin="miter" stroke-miterlimit="0" d="M0 0L82.3674 10.7799" sodipodi:nodetypes="cc"/><path id="shape04" transform="translate(481.435109785504, 641.117815216375)" fill="none" stroke="#876344" stroke-width="19.9999999999984" stroke-linecap="round" stroke-linejoin="miter" stroke-miterlimit="0" d="M0 9.2856L83.9683 0" sodipodi:nodetypes="cc"/><path id="shape4" transform="translate(703.103452621664, 617.99999999995)" fill="none" stroke="#876344" stroke-width="19.9999999999984" stroke-linecap="round" stroke-linejoin="bevel" d="M0 2.22045e-16C11.4813 18.1382 34.8703 19.1778 47.1482 0" sodipodi:nodetypes="cc"/>
</svg>
