<?xml version="1.0" standalone="no"?>
<!DOCTYPE svg PUBLIC "-//W3C//DTD SVG 20010904//EN" "http://www.w3.org/TR/2001/REC-SVG-20010904/DTD/svg10.dtd">
<!-- Created using Krita: https://krita.org -->
<svg xmlns="http://www.w3.org/2000/svg" 
    xmlns:xlink="http://www.w3.org/1999/xlink"
    xmlns:krita="http://krita.org/namespaces/svg/krita"
    xmlns:sodipodi="http://sodipodi.sourceforge.net/DTD/sodipodi-0.dtd"
    width="1603pt"
    height="1236pt"
    viewBox="0 0 1603 1236">
<defs/>
<path id="shape03" transform="translate(174.937459028472, 277.623631894676)" fill="#ddcbad" stroke="#876344" stroke-width="39.9999999999968" stroke-linecap="round" stroke-linejoin="miter" stroke-miterlimit="0" d="M389.164 0C123.635 3.05528 -17.1717 236.221 1.67603 462.709C11.9667 650.913 108.978 831.584 399.963 845.027C480.042 853.602 834.775 861.57 968.963 831.389C1141.23 795.533 1150.86 689.7 1149.72 568.703C1148.93 442.736 1142.45 333.183 1002.47 289.323C908.024 264.697 770.391 284.767 767.075 275.71C717.181 71.5477 534.498 3.30175 389.164 0Z" sodipodi:nodetypes="cccccccc"/><path id="shape0" transform="translate(306.536920697531, 30.9136493984198)" fill="#ddcbad" fill-rule="evenodd" stroke="#876344" stroke-width="39.9999999999968" stroke-linecap="square" stroke-linejoin="bevel" d="M174.858 253.925C145.782 147.846 191.846 -5.45735 156.336 0.149523C91.2274 10.43 -77.2158 318.327 41.0213 313.305C85.6167 278.7 136.162 265.963 174.858 253.925Z" sodipodi:nodetypes="cccc"/><path id="shape1" transform="translate(653.67465160638, 27.2835161326196)" fill="#ddcbad" fill-rule="evenodd" stroke="#876344" stroke-width="39.9999999999968" stroke-linecap="square" stroke-linejoin="bevel" d="M0 260.826C42.3365 154.613 2.84067 -8.21644 39.8874 0.322743C70.5061 7.0208 271.106 280.099 122.224 301.376C79.0613 280.66 50.0839 269.387 0 260.826Z" sodipodi:nodetypes="cccc"/><path id="shape011" transform="translate(654.723540913266, 542.721713244906)" fill="#f0a6a6" fill-rule="evenodd" stroke="#f0a6a6" stroke-width="39.9999999999968" stroke-linecap="square" stroke-linejoin="bevel" d="M0 19.1399C1.99477 -3.4894 81.8185 -8.20389 86.8899 16.7344C82.3736 32.5906 8.1073 39.6911 0 19.1399Z" sodipodi:nodetypes="ccc"/><path id="shape02" transform="translate(353.438923013089, 558.323468314428)" fill="#f0a6a6" fill-rule="evenodd" stroke="#f0a6a6" stroke-width="39.9999999999968" stroke-linecap="square" stroke-linejoin="bevel" d="M0 13.4744C1.82613 -2.45653 74.9017 -5.77552 79.5443 11.781C75.4098 22.9437 7.42192 27.9424 0 13.4744Z" sodipodi:nodetypes="ccc"/><ellipse id="shape2" transform="translate(407.180953720212, 439.581387343067)" rx="29.2796168125068" ry="64.7710157999099" cx="29.2796168125068" cy="64.7710157999099" fill="#876344" fill-rule="evenodd" stroke-opacity="0" stroke="#000000" stroke-width="0" stroke-linecap="round" stroke-linejoin="miter" stroke-miterlimit="0"/><ellipse id="shape0111" transform="translate(625.08764960477, 437.14784818975)" rx="29.3406509630953" ry="64.7710157999099" cx="29.3406509630953" cy="64.7710157999099" fill="#876344" fill-rule="evenodd" stroke-opacity="0" stroke="#000000" stroke-width="0" stroke-linecap="round" stroke-linejoin="miter" stroke-miterlimit="0"/><path id="shape3" transform="translate(310.13470810327, 604.086295884106)" fill="none" stroke="#876344" stroke-width="19.9999999999984" stroke-linecap="round" stroke-linejoin="bevel" d="M0 94.4196C86.6172 -36.953 396.482 -18.1041 481.361 70.8284" sodipodi:nodetypes="cc"/><path id="shape4" transform="translate(425.117414479408, 680.49730769294)" fill="none" stroke="#876344" stroke-width="19.9999999999984" stroke-linecap="round" stroke-linejoin="bevel" d="M0 0C2.52116 7.33143 17.0778 27.1907 27.6427 32.0553" sodipodi:nodetypes="cc"/><path id="shape5" transform="translate(602.355261918903, 673.113788468586)" fill="none" stroke="#876344" stroke-width="19.9999999999984" stroke-linecap="round" stroke-linejoin="bevel" d="M31.1177 0C29.2224 10.0277 14.6008 31.6765 0 37.728" sodipodi:nodetypes="cc"/><path id="shape01" transform="translate(224.003475438, 1016.85088248574)" fill="#ddcbad" fill-rule="evenodd" stroke="#876344" stroke-width="39.9999999999968" stroke-linecap="square" stroke-linejoin="bevel" d="M64.7391 0C43.5546 10.5926 6.67488 35.6219 0.517259 39.6865C-6.06073 44.4464 52.1207 118.97 60.4024 115.88C69.2521 111.579 124.737 67.6704 137.991 52.0441C121.209 49.1268 72.859 9.82264 64.7391 0Z" sodipodi:nodetypes="ccccc"/><path id="shape04" transform="translate(249.264021259195, 1070.87072839269)" fill="#ddcbad" fill-rule="evenodd" stroke="#876344" stroke-width="39.9999999999968" stroke-linecap="square" stroke-linejoin="bevel" d="M113.574 0C92.3895 10.5926 6.67488 55.1087 0.517259 59.1733C-6.06073 63.9332 52.1207 138.457 60.4024 135.367C69.2521 131.066 187.593 51.1541 200.847 35.5278C184.065 32.6105 123.595 7.4462 113.574 0Z" sodipodi:nodetypes="ccccc"/><path id="shape05" transform="translate(1081.5116161176, 1101.71314825519)" fill="#ddcbad" fill-rule="evenodd" stroke="#876344" stroke-width="39.9999999999968" stroke-linecap="square" stroke-linejoin="bevel" d="M0 16.8727C4.0053 27.4652 69.073 101.91 74.5597 104.904C79.8637 104.793 151.947 74.9623 150.842 71.6346C146.621 65.5513 101.466 7.78405 93.214 0C74.7685 4.44966 12.2786 16.4767 0 16.8727Z" sodipodi:nodetypes="ccccc"/><path id="shape06" transform="translate(1167.77129376748, 1074.47956544256)" fill="#ddcbad" fill-rule="evenodd" stroke="#876344" stroke-width="39.9999999999968" stroke-linecap="square" stroke-linejoin="bevel" d="M0 28.3984C2.8171 37.5651 78.2221 131.853 84.6594 135.204C90.9139 136.875 171.79 94.9244 170.685 91.5967C166.464 85.5134 79.96 7.78405 71.7076 0C63.7183 6.35081 14.1797 28.0024 0 28.3984Z" sodipodi:nodetypes="ccccc"/><path id="shape6" transform="translate(1306.80206254311, 659.639663349148)" fill="#8d7663" fill-rule="evenodd" stroke="#876344" stroke-width="19.9999999999984" stroke-linecap="square" stroke-linejoin="bevel" d="M0 39.7936C99.715 -69.5004 178.162 72.6686 154.654 151.048C144.201 189.021 177.523 243.071 184.527 251.177C189.085 257.185 138.413 226.356 135.336 234.186C113.077 332.491 178.916 392.946 172.883 392.1C-17.8728 387.807 102.605 165.56 13.9019 195.212C17.5218 156.185 10.9062 60.3277 0 39.7936Z" sodipodi:nodetypes="ccccccc"/><path id="shape7" transform="translate(352.138000972676, 172.030267163401)" fill="#8d7663" fill-rule="evenodd" stroke="#876344" stroke-width="19.9999999999984" stroke-linecap="square" stroke-linejoin="bevel" d="M340.343 68.5446C276.965 75.9023 285.762 -4.52546 280.237 0.200583C195.559 81.4746 123.573 0.0388114 124.625 6.42164C143.587 92.3318 32.6145 104.655 36.8312 109.201C81.2921 138.866 -4.74162 217.521 0.206523 212.68C67.0953 175.53 89.8694 192.586 96.8502 194.806C115.375 204.594 115.536 251.7 120.42 247.641C171.07 195.137 195.325 271.991 199.277 263.851C222.235 197.74 286.062 217.35 279.838 204.644C262.75 172.31 321.497 140.254 323.433 131.418C281.134 115.712 347.979 67.4625 340.343 68.5446Z" sodipodi:nodetypes="ccccccccccc"/><path id="shape8" transform="translate(740.905201867145, 276.273811698717)" fill="#8d7663" fill-rule="evenodd" stroke="#876344" stroke-width="19.9999999999984" stroke-linecap="square" stroke-linejoin="bevel" d="M128.041 0.313097C161.004 23.8438 221.269 16.7047 217.762 19.6772C215.473 23.2264 187.607 49.363 189.461 53.2359C239.467 109.547 308.898 108.035 304.155 113.168C299.461 117.313 255.619 166.06 259.819 173.276C309.363 237.425 407.144 208.762 398.871 209.901C392.91 210.865 363.618 245.593 371.709 246.79C430.292 254.622 477.013 240.418 485.088 237.765C494.866 237.719 472.078 272.796 474.924 276.931C540.461 340.218 594.673 337.007 590.143 341.025C533.337 341.499 584.862 404.605 579.278 403.981C524.092 383.308 504.139 400.622 494.288 400.651C485.366 400.208 482.196 461.123 475.975 454.45C430.75 396.39 377.838 394.295 371.884 399.95C367.096 404.821 361.35 435.452 357.024 430.809C346.915 399.092 325.696 375.124 320.014 380.411C316.01 384.314 288.637 414.251 287.77 410.991C282.504 340.692 244.394 326.18 234.673 324.991C225.661 325.631 189.064 367.794 189.111 361.397C190.661 311.804 170.078 257.677 158.97 257.392C148.562 257.577 122.169 304.713 124.098 294.368C137.997 197.358 108.321 156.628 97.2863 157.066C87.7212 157.504 59.3521 189.619 62.2596 179.322C92.3605 101.851 -7.05338 114.28 0.400589 114.22C53.9565 89.1822 60.212 55.9008 62.0843 33.8332C105.179 46.5509 120.296 -4.43332 128.041 0.313097Z" sodipodi:nodetypes="cccccccccccccccccccccccccc"/>
</svg>
