<?xml version="1.0" standalone="no"?>
<!DOCTYPE svg PUBLIC "-//W3C//DTD SVG 20010904//EN" "http://www.w3.org/TR/2001/REC-SVG-20010904/DTD/svg10.dtd">
<!-- Created using Krita: https://krita.org -->
<svg xmlns="http://www.w3.org/2000/svg" 
    xmlns:xlink="http://www.w3.org/1999/xlink"
    xmlns:krita="http://krita.org/namespaces/svg/krita"
    xmlns:sodipodi="http://sodipodi.sourceforge.net/DTD/sodipodi-0.dtd"
    width="1603pt"
    height="1236pt"
    viewBox="0 0 1603 1236">
<defs/>
<path id="shape03" transform="translate(173.447930672301, 277.798872966796)" fill="#ddcbad" stroke="#876344" stroke-width="39.9999999999968" stroke-linecap="round" stroke-linejoin="miter" stroke-miterlimit="0" d="M389.164 0C123.635 3.05528 -17.1717 236.221 1.67604 462.709C11.9667 650.913 108.978 831.584 399.963 845.027C480.042 853.602 834.775 861.57 968.963 831.389C1141.23 795.533 1150.86 689.7 1149.72 568.703C1148.93 442.736 1142.45 333.183 1002.47 289.323C908.024 264.697 770.391 284.767 767.075 275.71C717.181 71.5477 534.498 3.30175 389.164 0Z" sodipodi:nodetypes="cccccccc"/><path id="shape0" transform="translate(305.047443643897, 31.0888907756774)" fill="#ddcbad" fill-rule="evenodd" stroke="#876344" stroke-width="39.9999999999968" stroke-linecap="square" stroke-linejoin="bevel" d="M174.858 253.925C145.782 147.846 191.846 -5.45735 156.336 0.149523C91.2274 10.43 -77.2158 318.327 41.0213 313.305C85.6167 278.7 136.162 265.963 174.858 253.925Z" sodipodi:nodetypes="cccc"/><path id="shape1" transform="translate(652.18512968607, 27.283515094246)" fill="#ddcbad" fill-rule="evenodd" stroke="#876344" stroke-width="39.9999999999968" stroke-linecap="square" stroke-linejoin="bevel" d="M0 260.826C42.3365 154.613 2.84067 -8.21644 39.8874 0.322744C70.5061 7.0208 271.106 280.099 122.224 301.376C79.0613 280.66 50.0839 269.387 0 260.826Z" sodipodi:nodetypes="cccc"/><path id="shape011" transform="translate(653.234018992956, 542.896956157753)" fill="#f0a6a6" fill-rule="evenodd" stroke="#f0a6a6" stroke-width="39.9999999999968" stroke-linecap="square" stroke-linejoin="bevel" d="M0 19.1399C1.99477 -3.4894 81.8185 -8.20389 86.8899 16.7344C82.3736 32.5906 8.1073 39.6911 0 19.1399Z" sodipodi:nodetypes="ccc"/><path id="shape02" transform="translate(351.949401092755, 558.498712238315)" fill="#f0a6a6" fill-rule="evenodd" stroke="#f0a6a6" stroke-width="39.9999999999968" stroke-linecap="square" stroke-linejoin="bevel" d="M0 13.4744C1.82613 -2.45653 74.9017 -5.77552 79.5443 11.781C75.4098 22.9437 7.42192 27.9424 0 13.4744Z" sodipodi:nodetypes="ccc"/><ellipse id="shape2" transform="translate(405.691431799883, 439.7566284152)" rx="29.2796168125068" ry="64.7710157999099" cx="29.2796168125068" cy="64.7710157999099" fill="#876344" fill-rule="evenodd" stroke-opacity="0" stroke="#000000" stroke-width="0" stroke-linecap="round" stroke-linejoin="miter" stroke-miterlimit="0"/><ellipse id="shape0111" transform="translate(623.598127684458, 437.323089261883)" rx="29.3406509630953" ry="64.7710157999099" cx="29.3406509630953" cy="64.7710157999099" fill="#876344" fill-rule="evenodd" stroke-opacity="0" stroke="#000000" stroke-width="0" stroke-linecap="round" stroke-linejoin="miter" stroke-miterlimit="0"/><path id="shape3" transform="translate(308.645186182933, 604.261532265607)" fill="none" stroke="#876344" stroke-width="19.9999999999984" stroke-linecap="round" stroke-linejoin="bevel" d="M0 94.4196C86.6172 -36.953 396.482 -18.1041 481.361 70.8284" sodipodi:nodetypes="cc"/><path id="shape4" transform="translate(423.62789255908, 680.672548765093)" fill="none" stroke="#876344" stroke-width="19.9999999999984" stroke-linecap="round" stroke-linejoin="bevel" d="M0 0C2.52116 7.33143 17.0778 27.1907 27.6427 32.0553" sodipodi:nodetypes="cc"/><path id="shape5" transform="translate(600.865739998589, 673.289029540738)" fill="none" stroke="#876344" stroke-width="19.9999999999984" stroke-linecap="round" stroke-linejoin="bevel" d="M31.1177 0C29.2224 10.0277 14.6008 31.6765 0 37.728" sodipodi:nodetypes="cc"/><path id="shape01" transform="translate(222.513953426756, 1017.02612355792)" fill="#ddcbad" fill-rule="evenodd" stroke="#876344" stroke-width="39.9999999999968" stroke-linecap="square" stroke-linejoin="bevel" d="M64.7391 0C43.5546 10.5926 6.67488 35.6219 0.517259 39.6865C-6.06073 44.4464 52.1207 118.97 60.4024 115.88C69.2521 111.579 124.737 67.6704 137.991 52.0441C121.209 49.1268 72.859 9.82264 64.7391 0Z" sodipodi:nodetypes="ccccc"/><path id="shape04" transform="translate(247.774499247954, 1071.04596946487)" fill="#ddcbad" fill-rule="evenodd" stroke="#876344" stroke-width="39.9999999999968" stroke-linecap="square" stroke-linejoin="bevel" d="M113.574 0C92.3895 10.5926 6.67488 55.1087 0.517259 59.1733C-6.06073 63.9332 52.1207 138.457 60.4024 135.367C69.2521 131.066 187.593 51.1541 200.847 35.5278C184.065 32.6105 123.595 7.4462 113.574 0Z" sodipodi:nodetypes="ccccc"/><path id="shape05" transform="translate(1080.02209419732, 1101.88838932738)" fill="#ddcbad" fill-rule="evenodd" stroke="#876344" stroke-width="39.9999999999968" stroke-linecap="square" stroke-linejoin="bevel" d="M0 16.8727C4.0053 27.4652 69.073 101.91 74.5597 104.904C79.8637 104.793 151.947 74.9623 150.842 71.6346C146.621 65.5513 101.466 7.78405 93.214 0C74.7685 4.44966 12.2786 16.4767 0 16.8727Z" sodipodi:nodetypes="ccccc"/><path id="shape06" transform="translate(1166.28177184721, 1074.65480651474)" fill="#ddcbad" fill-rule="evenodd" stroke="#876344" stroke-width="39.9999999999968" stroke-linecap="square" stroke-linejoin="bevel" d="M0 28.3984C2.8171 37.5651 78.2221 131.853 84.6594 135.204C90.9139 136.875 171.79 94.9244 170.685 91.5967C166.464 85.5134 79.96 7.78405 71.7076 0C63.7183 6.35081 14.1797 28.0024 0 28.3984Z" sodipodi:nodetypes="ccccc"/><path id="shape6" transform="translate(1305.31254062285, 662.686319368985)" fill="#8d7663" fill-rule="evenodd" stroke="#876344" stroke-width="30.9999999999975" stroke-linecap="square" stroke-linejoin="bevel" d="M0 36.9222C99.715 -72.3718 178.512 90.1251 153.515 148.615C143.062 186.588 177.523 240.2 184.527 248.306C189.085 254.314 138.413 223.485 135.336 231.315C113.077 329.62 178.916 390.075 172.883 389.229C-17.8728 384.936 102.605 162.689 13.9019 192.341C17.5218 153.314 10.9062 57.4563 0 36.9222Z" sodipodi:nodetypes="ccccccc"/>
</svg>
