<?xml version="1.0" standalone="no"?>
<!DOCTYPE svg PUBLIC "-//W3C//DTD SVG 20010904//EN" "http://www.w3.org/TR/2001/REC-SVG-20010904/DTD/svg10.dtd">
<!-- Created using Krita: https://krita.org -->
<svg xmlns="http://www.w3.org/2000/svg" 
    xmlns:xlink="http://www.w3.org/1999/xlink"
    xmlns:krita="http://krita.org/namespaces/svg/krita"
    xmlns:sodipodi="http://sodipodi.sourceforge.net/DTD/sodipodi-0.dtd"
    width="1603pt"
    height="1236pt"
    viewBox="0 0 1603 1236">
<defs/>
<path id="shape03" transform="translate(356.332001151703, 272.890133249662)" fill="#ddcbad" stroke="#876344" stroke-width="39.9999999999968" stroke-linecap="round" stroke-linejoin="miter" stroke-miterlimit="0" d="M852.272 444.429C842.786 631.062 671.212 825.751 411.14 825.751C120.155 812.308 11.7086 650.675 1.41797 462.471C-17.4298 235.983 153.201 3.05528 418.73 0C709.04 7.05459 867.225 233.062 852.272 444.429Z" sodipodi:nodetypes="ccccc"/><path id="shape0" transform="translate(467.288502339824, 30.4657094129895)" fill="#ddcbad" fill-rule="evenodd" stroke="#876344" stroke-width="39.9999999999968" stroke-linecap="square" stroke-linejoin="bevel" d="M174.568 262.829C145.492 156.75 166.01 -5.46532 130.5 0.141555C65.3915 10.422 -71.8021 340.776 46.435 335.754C89.1292 299.129 133.021 281.164 174.568 262.829Z" sodipodi:nodetypes="cccc"/><path id="shape1" transform="translate(911.093435158936, 26.0674417567664)" fill="#ddcbad" fill-rule="evenodd" stroke="#876344" stroke-width="39.9999999999968" stroke-linecap="square" stroke-linejoin="bevel" d="M0 265.807C42.3365 159.594 21.0201 -8.22563 58.0668 0.313558C88.6855 7.01161 271.253 313.122 135.798 334.518C97.9989 307.148 39.8654 279.834 0 265.807Z" sodipodi:nodetypes="cccc"/><path id="shape011" transform="translate(835.860024276036, 537.750574378583)" fill="#f0a6a6" fill-rule="evenodd" stroke="#f0a6a6" stroke-width="39.9999999999968" stroke-linecap="square" stroke-linejoin="bevel" d="M0 19.1399C1.99477 -3.4894 81.8185 -8.20389 86.8899 16.7344C82.3736 32.5906 8.1073 39.6911 0 19.1399Z" sodipodi:nodetypes="ccc"/><path id="shape02" transform="translate(534.57540637581, 553.352331470185)" fill="#f0a6a6" fill-rule="evenodd" stroke="#f0a6a6" stroke-width="39.9999999999968" stroke-linecap="square" stroke-linejoin="bevel" d="M0 13.4744C1.82613 -2.45653 74.9017 -5.77552 79.5443 11.781C75.4098 22.9437 7.42192 27.9424 0 13.4744Z" sodipodi:nodetypes="ccc"/><ellipse id="shape2" transform="translate(588.317437082943, 434.610244795316)" rx="29.2796168125068" ry="64.7710157999099" cx="29.2796168125068" cy="64.7710157999099" fill="#876344" fill-rule="evenodd" stroke-opacity="0" stroke="#000000" stroke-width="0" stroke-linecap="round" stroke-linejoin="miter" stroke-miterlimit="0"/><ellipse id="shape0111" transform="translate(806.224132967535, 432.176705641998)" rx="29.3406509630953" ry="64.7710157999099" cx="29.3406509630953" cy="64.7710157999099" fill="#876344" fill-rule="evenodd" stroke-opacity="0" stroke="#000000" stroke-width="0" stroke-linecap="round" stroke-linejoin="miter" stroke-miterlimit="0"/><path id="shape3" transform="translate(491.271191465985, 599.11514395509)" fill="none" stroke="#876344" stroke-width="19.9999999999984" stroke-linecap="round" stroke-linejoin="bevel" d="M0 94.4196C86.6172 -36.953 396.482 -18.1041 481.361 70.8284" sodipodi:nodetypes="cc"/><path id="shape4" transform="translate(606.253897842141, 675.526165145228)" fill="none" stroke="#876344" stroke-width="19.9999999999984" stroke-linecap="round" stroke-linejoin="bevel" d="M0 0C2.52116 7.33143 17.0778 27.1907 27.6427 32.0553" sodipodi:nodetypes="cc"/><path id="shape5" transform="translate(783.491745281665, 668.142645920872)" fill="none" stroke="#876344" stroke-width="19.9999999999984" stroke-linecap="round" stroke-linejoin="bevel" d="M31.1177 0C29.2224 10.0277 14.6008 31.6765 0 37.728" sodipodi:nodetypes="cc"/>
</svg>
