<?xml version="1.0" standalone="no"?>
<!DOCTYPE svg PUBLIC "-//W3C//DTD SVG 20010904//EN" "http://www.w3.org/TR/2001/REC-SVG-20010904/DTD/svg10.dtd">
<!-- Created using Krita: https://krita.org -->
<svg xmlns="http://www.w3.org/2000/svg" 
    xmlns:xlink="http://www.w3.org/1999/xlink"
    xmlns:krita="http://krita.org/namespaces/svg/krita"
    xmlns:sodipodi="http://sodipodi.sourceforge.net/DTD/sodipodi-0.dtd"
    width="1603pt"
    height="1236pt"
    viewBox="0 0 1603 1236">
<defs/>
<path id="shape03" transform="translate(174.937457142881, 277.623631894676)" fill="#ddcbad" stroke="#876344" stroke-width="39.9999999999968" stroke-linecap="round" stroke-linejoin="miter" stroke-miterlimit="0" d="M389.164 0C123.635 3.05528 -17.1717 236.221 1.67603 462.709C11.9667 650.913 108.978 831.584 399.963 845.027C480.042 853.602 834.775 861.57 968.963 831.389C1141.23 795.533 1150.86 689.7 1149.72 568.703C1148.93 442.736 1142.45 333.183 1002.47 289.323C908.024 264.697 770.391 284.767 767.075 275.71C717.181 71.5477 534.498 3.30175 389.164 0Z" sodipodi:nodetypes="cccccccc"/><path id="shape0" transform="translate(306.536875830828, 30.9136490932627)" fill="#ddcbad" fill-rule="evenodd" stroke="#876344" stroke-width="39.9999999999968" stroke-linecap="square" stroke-linejoin="bevel" d="M174.858 253.925C145.782 147.846 191.846 -5.45735 156.336 0.149523C91.2274 10.43 -77.2158 318.327 41.0213 313.305C85.6167 278.7 136.162 265.963 174.858 253.925Z" sodipodi:nodetypes="cccc"/><path id="shape1" transform="translate(653.67465160638, 27.2835162451106)" fill="#ddcbad" fill-rule="evenodd" stroke="#876344" stroke-width="39.9999999999968" stroke-linecap="square" stroke-linejoin="bevel" d="M0 260.826C42.3365 154.613 2.84067 -8.21644 39.8874 0.322743C70.5061 7.0208 271.106 280.099 122.224 301.376C79.0613 280.66 50.0839 269.387 0 260.826Z" sodipodi:nodetypes="cccc"/><path id="shape011" transform="translate(654.723540913266, 542.721711404201)" fill="#f0a6a6" fill-rule="evenodd" stroke="#f0a6a6" stroke-width="39.9999999999968" stroke-linecap="square" stroke-linejoin="bevel" d="M0 19.1399C1.99477 -3.4894 81.8185 -8.20389 86.8899 16.7344C82.3736 32.5906 8.1073 39.6911 0 19.1399Z" sodipodi:nodetypes="ccc"/><path id="shape02" transform="translate(353.438923013089, 558.323465462684)" fill="#f0a6a6" fill-rule="evenodd" stroke="#f0a6a6" stroke-width="39.9999999999968" stroke-linecap="square" stroke-linejoin="bevel" d="M0 13.4744C1.82613 -2.45653 74.9017 -5.77552 79.5443 11.781C75.4098 22.9437 7.42192 27.9424 0 13.4744Z" sodipodi:nodetypes="ccc"/><ellipse id="shape2" transform="translate(407.180953720212, 439.581387343067)" rx="29.2796168125068" ry="64.7710157999099" cx="29.2796168125068" cy="64.7710157999099" fill="#876344" fill-rule="evenodd" stroke-opacity="0" stroke="#000000" stroke-width="0" stroke-linecap="round" stroke-linejoin="miter" stroke-miterlimit="0"/><ellipse id="shape0111" transform="translate(625.08764960477, 437.14784818975)" rx="29.3406509630953" ry="64.7710157999099" cx="29.3406509630953" cy="64.7710157999099" fill="#876344" fill-rule="evenodd" stroke-opacity="0" stroke="#000000" stroke-width="0" stroke-linecap="round" stroke-linejoin="miter" stroke-miterlimit="0"/><path id="shape3" transform="translate(310.13470810327, 604.086300574752)" fill="none" stroke="#876344" stroke-width="19.9999999999984" stroke-linecap="round" stroke-linejoin="bevel" d="M0 94.4196C86.6172 -36.953 396.482 -18.1041 481.361 70.8284" sodipodi:nodetypes="cc"/><path id="shape4" transform="translate(425.117414479408, 680.49730769294)" fill="none" stroke="#876344" stroke-width="19.9999999999984" stroke-linecap="round" stroke-linejoin="bevel" d="M0 0C2.52116 7.33143 17.0778 27.1907 27.6427 32.0553" sodipodi:nodetypes="cc"/><path id="shape5" transform="translate(602.355261918903, 673.113788468586)" fill="none" stroke="#876344" stroke-width="19.9999999999984" stroke-linecap="round" stroke-linejoin="bevel" d="M31.1177 0C29.2224 10.0277 14.6008 31.6765 0 37.728" sodipodi:nodetypes="cc"/><path id="shape01" transform="translate(224.003475528899, 1016.85088248574)" fill="#ddcbad" fill-rule="evenodd" stroke="#876344" stroke-width="39.9999999999968" stroke-linecap="square" stroke-linejoin="bevel" d="M64.7391 0C43.5546 10.5926 6.67488 35.6219 0.517259 39.6865C-6.06073 44.4464 52.1207 118.97 60.4024 115.88C69.2521 111.579 124.737 67.6704 137.991 52.0441C121.209 49.1268 72.859 9.82264 64.7391 0Z" sodipodi:nodetypes="ccccc"/><path id="shape04" transform="translate(249.264021350094, 1070.87072839269)" fill="#ddcbad" fill-rule="evenodd" stroke="#876344" stroke-width="39.9999999999968" stroke-linecap="square" stroke-linejoin="bevel" d="M113.574 0C92.3895 10.5926 6.67488 55.1087 0.517259 59.1733C-6.06073 63.9332 52.1207 138.457 60.4024 135.367C69.2521 131.066 187.593 51.1541 200.847 35.5278C184.065 32.6105 123.595 7.4462 113.574 0Z" sodipodi:nodetypes="ccccc"/><path id="shape05" transform="translate(1081.5116161176, 1101.71314825519)" fill="#ddcbad" fill-rule="evenodd" stroke="#876344" stroke-width="39.9999999999968" stroke-linecap="square" stroke-linejoin="bevel" d="M0 16.8727C4.0053 27.4652 69.073 101.91 74.5597 104.904C79.8637 104.793 151.947 74.9623 150.842 71.6346C146.621 65.5513 101.466 7.78405 93.214 0C74.7685 4.44966 12.2786 16.4767 0 16.8727Z" sodipodi:nodetypes="ccccc"/><path id="shape06" transform="translate(1167.77129376748, 1074.47956544256)" fill="#ddcbad" fill-rule="evenodd" stroke="#876344" stroke-width="39.9999999999968" stroke-linecap="square" stroke-linejoin="bevel" d="M0 28.3984C2.8171 37.5651 78.2221 131.853 84.6594 135.204C90.9139 136.875 171.79 94.9244 170.685 91.5967C166.464 85.5134 79.96 7.78405 71.7076 0C63.7183 6.35081 14.1797 28.0024 0 28.3984Z" sodipodi:nodetypes="ccccc"/><path id="shape6" transform="translate(1306.80206254311, 659.639652834431)" fill="#8d7663" fill-rule="evenodd" stroke="#876344" stroke-width="19.9999999999984" stroke-linecap="square" stroke-linejoin="bevel" d="M0 39.7936C99.715 -69.5004 178.162 72.6686 154.654 151.048C144.201 189.021 177.523 243.071 184.527 251.177C189.085 257.185 138.413 226.356 135.336 234.186C113.077 332.491 178.916 392.946 172.883 392.1C-17.8728 387.807 102.605 165.56 13.9019 195.212C17.5218 156.185 10.9062 60.3277 0 39.7936Z" sodipodi:nodetypes="ccccccc"/><path id="shape7" transform="translate(352.13800109779, 172.030267104828)" fill="#8d7663" fill-rule="evenodd" stroke="#876344" stroke-width="19.9999999999984" stroke-linecap="square" stroke-linejoin="bevel" d="M340.343 68.5446C276.965 75.9023 285.762 -4.52546 280.237 0.200583C195.559 81.4746 123.573 0.0388115 124.625 6.42164C143.587 92.3318 32.6145 104.655 36.8312 109.201C81.2921 138.866 -4.74162 217.521 0.206523 212.68C67.0953 175.53 89.8694 192.586 96.8502 194.806C115.375 204.594 115.536 251.7 120.42 247.641C171.07 195.137 195.325 271.991 199.277 263.851C222.235 197.74 286.062 217.35 279.838 204.644C262.75 172.31 321.497 140.254 323.433 131.418C281.134 115.712 347.979 67.4625 340.343 68.5446Z" sodipodi:nodetypes="ccccccccccc"/><path id="shape8" transform="translate(740.905202684987, 291.395620658207)" fill="#8d7663" fill-rule="evenodd" stroke="#876344" stroke-width="19.9999999999984" stroke-linecap="square" stroke-linejoin="bevel" d="M126.727 0.437261C120.787 75.3136 220.218 46.4446 214.082 51.6952C204.258 58.6616 186.38 82.8706 185.168 88.1454C187.421 169.954 261.321 163.097 256.578 168.23C251.884 172.375 201.47 207.804 205.67 215.02C260.452 253.425 420.372 269.671 461.085 247.442C508.457 296.406 584.785 258.792 580.943 262.028C529.307 300.09 584.862 389.483 579.278 388.859C524.092 368.186 504.139 385.5 494.288 385.529C485.366 385.086 482.196 446.001 475.975 439.328C430.75 381.268 377.838 379.173 371.884 384.828C367.096 389.699 361.35 420.33 357.024 415.687C346.915 383.97 325.696 360.002 320.014 365.289C316.01 369.192 288.637 399.129 287.77 395.869C282.504 325.57 244.394 311.058 234.673 309.869C225.661 310.509 189.064 352.672 189.111 346.275C190.661 296.682 170.078 242.555 158.97 242.27C148.562 242.455 122.169 289.591 124.098 279.246C137.997 182.236 108.321 141.506 97.2863 141.944C87.7212 142.382 59.3521 174.497 62.2596 164.2C92.3605 86.7292 -7.05338 99.1582 0.400588 99.0982C53.9565 74.0604 60.212 40.779 62.0843 18.7114C105.179 31.4291 118.982 -4.30916 126.727 0.437261Z" sodipodi:nodetypes="ccccccccccccccccccccccc"/><path id="shape22" transform="matrix(0.975764031707563 0.218825397120865 -0.218825397120865 0.975764031707563 607.458723526542 269.962286400649)" fill="#f0a6a6" fill-rule="evenodd" stroke="#f0a6a6" stroke-width="39.9999999999968" stroke-linecap="round" stroke-linejoin="miter" stroke-miterlimit="0" d="M47.2374 23.9244C42.7673 20.557 20.664 -11.8357 7.3621 4.64863C-8.52473 17.0901 21.9428 37.1677 22.0644 43.3025C21.8372 49.5189 -8.18605 61.4734 2.17365 73.9371C19.0807 95.4566 34.5088 71.267 41.4347 70.3789C50.6868 70.4911 63.4063 97.7948 75.1241 86.6714C91.3909 76.4352 70.7066 54.5721 69.8025 48.7985C70.2919 41.4072 98.2671 24.5561 84.3109 10.312C72.7364 -6.65845 57.8998 24.369 47.2374 23.9244Z" sodipodi:nodetypes="ccccccccc"/><path id="shape022" transform="matrix(0.987562388895091 -0.157227631283505 0.157227631283505 0.987562388895091 414.410718133926 236.55034289117)" fill="#f0a6a6" fill-rule="evenodd" stroke="#f0a6a6" stroke-width="39.9999999999968" stroke-linecap="round" stroke-linejoin="miter" stroke-miterlimit="0" d="M49.9233 25.0561C45.199 21.5293 21.839 -12.3956 7.78071 4.86856C-9.00948 17.8985 23.1905 38.9257 23.3189 45.3508C23.0789 51.8612 -8.6515 64.3812 2.29724 77.4344C20.1656 99.9719 36.4709 74.6379 43.7906 73.7079C53.5688 73.8254 67.0116 102.42 79.396 90.7708C96.5875 80.0505 74.7271 57.1534 73.7716 51.1067C74.2887 43.3658 103.854 25.7177 89.105 10.7998C76.8722 -6.97336 61.192 25.5217 49.9233 25.0561Z" sodipodi:nodetypes="ccccccccc"/><path id="shape032" transform="matrix(0.846544646258889 -0.532317726446953 0.532317726446953 0.846544646258889 1249.6932983592 647.827081632604)" fill="#f0a6a6" fill-rule="evenodd" stroke="#f0a6a6" stroke-width="39.9999999999968" stroke-linecap="round" stroke-linejoin="miter" stroke-miterlimit="0" d="M30.0066 15.0601C27.167 12.9403 13.1264 -7.4504 4.67663 2.92625C-5.41519 10.758 13.9387 23.3964 14.0159 27.2582C13.8717 31.1713 -5.20003 38.6965 1.38077 46.5422C12.1206 60.0884 21.921 44.8614 26.3205 44.3024C32.1978 44.373 40.2776 61.5602 47.7213 54.5581C58.0543 48.1146 44.915 34.3522 44.3407 30.7178C44.6515 26.0651 62.4222 15.4577 53.5567 6.49127C46.2043 -4.19138 36.7797 15.3399 30.0066 15.0601Z" sodipodi:nodetypes="ccccccccc"/><path id="shape041" transform="matrix(0.985486730729138 0.169752477319183 -0.169752477319183 0.985486730729138 832.623388385606 270.780350187664)" fill="#f0a6a6" fill-rule="evenodd" stroke="#f0a6a6" stroke-width="39.9999999999968" stroke-linecap="round" stroke-linejoin="miter" stroke-miterlimit="0" d="M49.2199 24.7031C44.5622 21.226 21.5313 -12.2209 7.67108 4.79993C-8.88255 17.6463 22.8638 38.3773 22.9904 44.7118C22.7537 51.1305 -8.52961 63.4741 2.26487 76.3434C19.8815 98.5634 35.9571 73.5864 43.1736 72.6695C52.8141 72.7852 66.0675 100.977 78.2774 89.4919C95.2267 78.9227 73.6742 56.3481 72.7322 50.3867C73.2421 42.7548 102.391 25.3554 87.8496 10.6477C75.7891 -6.87515 60.3299 25.1621 49.2199 24.7031Z" sodipodi:nodetypes="ccccccccc"/><path id="shape9" transform="translate(946.917314670873, 643.585196526242)" fill="#f9e6a9" fill-rule="evenodd" stroke="#876344" stroke-width="19.9999999999984" stroke-linecap="square" stroke-linejoin="bevel" d="M0.00931238 0C-0.166816 22.2612 2.2064 236.626 2.81312 243.892C11.7099 245.078 296.337 247.309 305.098 247.66C304.31 236.094 308.866 22.7698 308.691 4.95089C293.708 7.41584 18.4102 1.13284 0.00931238 0Z" sodipodi:nodetypes="ccccc"/><path id="shape07" transform="translate(945.070926919808, 501.885274546435)" fill="#e5ab78" fill-rule="evenodd" stroke="#876344" stroke-width="19.9999999999984" stroke-linecap="square" stroke-linejoin="bevel" d="M12.9395 22.7992C23.0717 -19.6091 54.2106 25.0365 65.2918 25.5592C126.837 26.1164 210.056 36.3567 235.798 26.3478C283.057 7.46066 298.776 -29.9285 321.402 44.0472C330.733 75.4495 312.599 298.7 145.288 297.884C-23.3507 303.283 -8.88096 118.015 12.9395 22.7992Z" sodipodi:nodetypes="cccccc"/><path id="shape11" transform="translate(951.650088800216, 793.898553594829)" fill="#e5ab78" fill-rule="evenodd" stroke="#876344" stroke-width="19.9999999999984" stroke-linecap="square" stroke-linejoin="bevel" d="M77.025 0C88.3732 2.541 129.596 8.61083 137.132 8.14871C130.122 64.158 79.2666 300.291 68.7888 354.863C67.6968 361.434 -0.848578 365.116 0.00796083 358.456C10.2498 312.243 69.2692 30.4043 77.025 0Z" sodipodi:nodetypes="ccccc"/><path id="shape051" transform="matrix(0.918429175203133 0.395585452380063 -0.395585452380063 0.918429175203133 861.803310875675 460.63586996115)" fill="#f0a6a6" fill-rule="evenodd" stroke="#f0a6a6" stroke-width="39.9999999999968" stroke-linecap="round" stroke-linejoin="miter" stroke-miterlimit="0" d="M43.2355 21.6996C39.1441 18.6452 18.9134 -10.7351 6.73839 4.21639C-7.80256 15.5008 20.0839 33.7112 20.1951 39.2755C19.9872 44.9138 -7.49253 55.7566 1.98949 67.0611C17.4642 86.5795 31.5852 64.6393 37.9243 63.8339C46.3927 63.9356 58.0346 88.6999 68.76 78.611C83.6485 69.3268 64.7165 49.497 63.889 44.2604C64.3369 37.5564 89.942 22.2725 77.1683 9.35308C66.5743 -6.03917 52.9946 22.1028 43.2355 21.6996Z" sodipodi:nodetypes="ccccccccc"/><path id="shape10" transform="translate(985.989563651294, 529.722637407331)" fill="none" stroke="#876344" stroke-width="19.9999999999984" stroke-linecap="square" stroke-linejoin="bevel" d="M24.8113 3.32958C17.4532 24.7966 -56.418 223.185 92.2778 229.04C276.08 222.804 212.366 38.4872 207.584 0" sodipodi:nodetypes="ccc"/>
</svg>
