<?xml version="1.0" standalone="no"?>
<!DOCTYPE svg PUBLIC "-//W3C//DTD SVG 20010904//EN" "http://www.w3.org/TR/2001/REC-SVG-20010904/DTD/svg10.dtd">
<!-- Created using Krita: https://krita.org -->
<svg xmlns="http://www.w3.org/2000/svg" 
    xmlns:xlink="http://www.w3.org/1999/xlink"
    xmlns:krita="http://krita.org/namespaces/svg/krita"
    xmlns:sodipodi="http://sodipodi.sourceforge.net/DTD/sodipodi-0.dtd"
    width="1603pt"
    height="1236pt"
    viewBox="0 0 1603 1236">
<defs/>
<path id="shape031" transform="translate(207.24148847971, 214.456673147324)" fill="#f2e7c4" stroke="#876344" stroke-width="39.9999999999968" stroke-linecap="round" stroke-linejoin="miter" stroke-miterlimit="0" d="M418.678 0C153.168 3.10339 -17.0954 236.95 1.36552 462.471C11.6562 650.675 128.933 828.597 419.918 842.04C684.191 853.528 1034.73 887.487 1156.17 813.766C1270.32 739.86 1285.06 311.921 1124.63 242.618C1009.59 211.096 943.576 267.167 808.839 213.107C686.533 38.937 563.662 3.51688 418.678 0Z" sodipodi:nodetypes="ccccccc"/><path id="shape0" transform="translate(548.225441717822, 1050.51273879705)" fill="#f2e7c4" fill-rule="evenodd" stroke="#876344" stroke-width="39.9999999999968" stroke-linecap="square" stroke-linejoin="bevel" d="M10.4807 0C10.4807 26.797 -26.2726 155.256 37.8717 152.689C88.0672 155.577 97.9688 48.3557 97.9688 8.48748C78.165 8.63853 39.4264 4.79332 10.4807 0Z" sodipodi:nodetypes="cccc"/><path id="shape03" transform="translate(474.600602683065, 1034.45923631226)" fill="#f2e7c4" fill-rule="evenodd" stroke="#876344" stroke-width="39.9999999999968" stroke-linecap="square" stroke-linejoin="bevel" d="M6.16432 0C6.16432 26.797 -22.0159 144.025 42.1284 141.458C69.5196 144.089 78.3067 58.6436 83.8791 15.689C61.8464 14.3826 34.9386 6.67943 6.16432 0Z" sodipodi:nodetypes="cccc"/><path id="shape04" transform="translate(1120.55024349892, 1066.78024272877)" fill="#f2e7c4" fill-rule="evenodd" stroke="#876344" stroke-width="39.9999999999968" stroke-linecap="square" stroke-linejoin="bevel" d="M8.0804 7.28723C8.76624 38.4566 -24.7293 141.453 39.8437 140.601C89.5248 143.575 105.17 43.126 103.113 0C78.1652 1.69423 42.5129 11.9091 8.0804 7.28723Z" sodipodi:nodetypes="cccc"/><path id="shape05" transform="translate(1049.24415514203, 1075.35345366996)" fill="#f2e7c4" fill-rule="evenodd" stroke="#876344" stroke-width="39.9999999999968" stroke-linecap="square" stroke-linejoin="bevel" d="M0 4.11514C0 30.9121 8.68389 107.589 48.0521 102.793C76.2148 103.966 68.7988 44.1548 80.1153 0C59.8828 3.4946 26.8024 2.73575 0 4.11514Z" sodipodi:nodetypes="cccc"/><path id="shape01" transform="translate(47.4665468832734, 64.3180615519755)" fill="#8d7663" stroke="#876344" stroke-width="19.9999999999984" stroke-linecap="square" stroke-linejoin="bevel" d="M643.275 1066.73C668.261 1056.56 728.078 1006.11 751.366 1004.15C759.499 1013.13 861.645 1045.8 874.715 1043.87C875.942 1023.91 950.265 960.37 969.611 862.664C998.414 854.902 1044.13 889.377 1060.43 898.081C1067.65 890.481 1084.84 759.92 1039 642.572C1061.05 627.63 1087.75 631.773 1116.01 633.904C1115.68 608.481 1110.32 485.547 1046.2 407.102C1093.46 399.111 1106.33 409.245 1134.64 419.695C1122.8 365.61 1072.88 230.008 995.897 153.091C1004.71 138.442 1061.57 130.326 1063.55 123.373C975.24 54.3153 780.256 45.5325 728.771 37.9787C741.793 30.9308 818.065 2.09803 816.312 0.789812C810.708 -3.39084 584.454 8.41997 542.017 50.7716C493.298 20.251 332.421 5.22865 259.32 29.5958C260.148 35.2641 365.808 57.3567 361.168 71.4331C352.825 74.3941 176.281 72.686 35.3923 220.693C31.7733 224.312 86.9739 209.758 105.691 220.95C86.867 269.894 -6.12092 479.354 1.70019 510.639C2.13858 512.392 71.9933 468.828 76.2858 476.946C66.9935 497.487 -13.5291 661.255 1.97667 805.071C5.37817 806.463 83.9658 745.899 114.237 757.645C117.377 797.112 153.006 988.963 196.876 1026.81C205.911 1024.21 235.216 966.282 284.181 960.548C297.806 983.479 365.322 1041.97 389.047 1045.44C399.463 1042.42 494.093 1031.43 506.206 1027.4C517.603 1030.26 631.101 1062.16 643.275 1066.73Z" sodipodi:nodetypes="ccccccccccccccccccccccccccc"/><path id="shape1" transform="translate(233.161011458935, 240.477994247053)" fill="#f2e7c4" fill-rule="evenodd" stroke="none" stroke-width="19.9999999999984" stroke-linecap="square" stroke-linejoin="bevel" d="M1.05312 445.365C-16.0948 165.847 178.974 12.3045 381.65 0C597.974 0.364032 788.933 121.667 787.527 405.885C790.762 654.357 618.477 764.366 407.157 776.401C239.898 779.459 31.5715 719.102 1.05312 445.365Z" sodipodi:nodetypes="ccccc"/><path id="shape011" transform="translate(669.373696542042, 491.263949777261)" fill="#f0a6a6" fill-rule="evenodd" stroke="#f0a6a6" stroke-width="39.9999999999968" stroke-linecap="square" stroke-linejoin="bevel" d="M0 10.4061C1.68046 -1.89714 68.9265 -4.46034 73.1988 9.09827C69.3941 17.7191 6.82985 21.5795 0 10.4061Z" sodipodi:nodetypes="ccc"/><path id="shape02" transform="translate(383.975025155665, 493.547134803161)" fill="#f0a6a6" fill-rule="evenodd" stroke="#f0a6a6" stroke-width="39.9999999999968" stroke-linecap="square" stroke-linejoin="bevel" d="M0 13.4744C1.82613 -2.45653 74.9017 -5.77552 79.5443 11.781C75.4098 22.9437 7.42192 27.9424 0 13.4744Z" sodipodi:nodetypes="ccc"/><ellipse id="shape2" transform="translate(437.71705586277, 374.805070942314)" rx="29.2796168125068" ry="64.7710157999099" cx="29.2796168125068" cy="64.7710157999099" fill="#876344" fill-rule="evenodd" stroke-opacity="0" stroke="#000000" stroke-width="0" stroke-linecap="round" stroke-linejoin="miter" stroke-miterlimit="0"/><ellipse id="shape0111" transform="translate(626.046713953732, 371.17128225723)" rx="29.3406509630953" ry="64.7710157999099" cx="29.3406509630953" cy="64.7710157999099" fill="#876344" fill-rule="evenodd" stroke-opacity="0" stroke="#000000" stroke-width="0" stroke-linecap="round" stroke-linejoin="miter" stroke-miterlimit="0"/><path id="shape012" transform="translate(549.436315610498, 513.781708918563)" fill="#876344" stroke="#876344" stroke-width="19.9999999999984" stroke-linecap="round" stroke-linejoin="bevel" d="M0.000349416 5.60237C8.10609 23.6919 25.3766 26.9713 34.3783 6.11677C37.636 -2.30661 -0.132452 -1.59917 0.000349416 5.60237Z" sodipodi:nodetypes="ccc"/><path id="shape11" transform="translate(477.680199422409, 577.767645354661)" fill="none" stroke="#876344" stroke-width="19.9999999999984" stroke-linecap="round" stroke-linejoin="bevel" d="M0 17.0607C31.1313 44.318 59.9888 3.21153 89.8458 0C117.279 0.845465 138.758 35.4603 183.164 14.7459" sodipodi:nodetypes="ccc"/><path id="shape3" transform="translate(207.361130656911, 229.123962491792)" fill="#f2e7c4" fill-rule="evenodd" stroke="#876344" stroke-width="19.9999999999984" stroke-linecap="square" stroke-linejoin="bevel" d="M185.756 53.6395C100.439 -79.1245 -91.2851 59.1035 50.9881 202.213C75.7247 159.027 131.504 92.7841 185.756 53.6395Z" sodipodi:nodetypes="ccc"/><path id="shape4" transform="translate(811.225538917383, 192.128295351383)" fill="#f2e7c4" fill-rule="evenodd" stroke="#876344" stroke-width="19.9999999999984" stroke-linecap="square" stroke-linejoin="bevel" d="M0 57.3711C84.5696 -83.019 289.516 64.2203 160.059 179.282C134.507 143.884 54.6571 70.5349 0 57.3711Z" sodipodi:nodetypes="ccc"/><path id="shape5" transform="translate(1427.45669155476, 552.561313314412)" fill="none" stroke="#876344" stroke-width="19.9999999999984" stroke-linecap="round" stroke-linejoin="bevel" d="M0 15.1081C55.1824 -49.2767 108.006 110.158 100.648 155.537" sodipodi:nodetypes="cc"/><path id="shape6" transform="translate(1480.94667329007, 709.813335994165)" fill="none" stroke="#876344" stroke-width="19.9999999999984" stroke-linecap="round" stroke-linejoin="bevel" d="M40.4707 0C32.8407 8.2465 -0.508129 56.4003 0.00587793 66.871" sodipodi:nodetypes="cc"/><path id="shape7" transform="translate(1497.781940245, 716.328976309469)" fill="none" stroke="#876344" stroke-width="19.9999999999984" stroke-linecap="round" stroke-linejoin="bevel" d="M27.4076 0C30.3605 7.54443 -1.55826 79.7944 0.0595282 88.5613" sodipodi:nodetypes="cc"/><path id="shape8" transform="translate(1530.82160117903, 712.128102948286)" fill="none" stroke="#876344" stroke-width="19.9999999999984" stroke-linecap="round" stroke-linejoin="bevel" d="M5.08423 0C7.16757 4.99643 -3.51518 86.3432 1.22635 89.5043" sodipodi:nodetypes="cc"/><path id="shape9" transform="translate(1530.0761531166, 708.613086462399)" fill="none" stroke="#876344" stroke-width="19.9999999999984" stroke-linecap="round" stroke-linejoin="bevel" d="M0 0C5.74318 1.17901 19.0123 46.5721 25.4573 74.9299" sodipodi:nodetypes="cc"/>
</svg>
