<?xml version="1.0" standalone="no"?>
<!DOCTYPE svg PUBLIC "-//W3C//DTD SVG 20010904//EN" "http://www.w3.org/TR/2001/REC-SVG-20010904/DTD/svg10.dtd">
<!-- Created using Krita: https://krita.org -->
<svg xmlns="http://www.w3.org/2000/svg" 
    xmlns:xlink="http://www.w3.org/1999/xlink"
    xmlns:krita="http://krita.org/namespaces/svg/krita"
    xmlns:sodipodi="http://sodipodi.sourceforge.net/DTD/sodipodi-0.dtd"
    width="1603pt"
    height="1236pt"
    viewBox="0 0 1603 1236">
<defs/>
<path id="shape031" transform="translate(207.241489328221, 214.456673147324)" fill="#f2e7c4" stroke="#876344" stroke-width="39.9999999999968" stroke-linecap="round" stroke-linejoin="miter" stroke-miterlimit="0" d="M418.678 0C153.168 3.10339 -17.0954 236.95 1.36552 462.471C11.6562 650.675 128.933 828.597 419.918 842.04C684.191 853.528 1034.73 887.487 1156.17 813.766C1270.32 739.86 1285.06 311.921 1124.63 242.618C1009.59 211.096 943.576 267.167 808.839 213.107C686.533 38.937 563.662 3.51688 418.678 0Z" sodipodi:nodetypes="ccccccc"/><path id="shape0" transform="translate(548.225427008949, 1050.51273879705)" fill="#f2e7c4" fill-rule="evenodd" stroke="#876344" stroke-width="39.9999999999968" stroke-linecap="square" stroke-linejoin="bevel" d="M10.4807 0C10.4807 26.797 -26.2726 155.256 37.8717 152.689C88.0672 155.577 97.9688 48.3557 97.9688 8.48748C78.165 8.63853 39.4264 4.79332 10.4807 0Z" sodipodi:nodetypes="cccc"/><path id="shape03" transform="translate(474.600607032972, 1034.45923631226)" fill="#f2e7c4" fill-rule="evenodd" stroke="#876344" stroke-width="39.9999999999968" stroke-linecap="square" stroke-linejoin="bevel" d="M6.16432 0C6.16432 26.797 -22.0159 144.025 42.1284 141.458C69.5196 144.089 78.3067 58.6436 83.8791 15.689C61.8464 14.3826 34.9386 6.67943 6.16432 0Z" sodipodi:nodetypes="cccc"/><path id="shape04" transform="translate(1120.55024559136, 1066.78024272877)" fill="#f2e7c4" fill-rule="evenodd" stroke="#876344" stroke-width="39.9999999999968" stroke-linecap="square" stroke-linejoin="bevel" d="M8.0804 7.28723C8.76624 38.4566 -24.7293 141.453 39.8437 140.601C89.5248 143.575 105.17 43.126 103.113 0C78.1652 1.69423 42.5129 11.9091 8.0804 7.28723Z" sodipodi:nodetypes="cccc"/><path id="shape05" transform="translate(1049.24415514203, 1075.35345366996)" fill="#f2e7c4" fill-rule="evenodd" stroke="#876344" stroke-width="39.9999999999968" stroke-linecap="square" stroke-linejoin="bevel" d="M0 4.11514C0 30.9121 8.68389 107.589 48.0521 102.793C76.2148 103.966 68.7988 44.1548 80.1153 0C59.8828 3.4946 26.8024 2.73575 0 4.11514Z" sodipodi:nodetypes="cccc"/><path id="shape01" transform="translate(47.4665504452371, 64.3180619524909)" fill="#8d7663" stroke="#876344" stroke-width="19.9999999999984" stroke-linecap="square" stroke-linejoin="bevel" d="M643.275 1066.73C668.261 1056.56 728.078 1006.11 751.366 1004.15C759.499 1013.13 861.645 1045.8 874.715 1043.87C875.942 1023.91 950.265 960.37 969.611 862.664C998.414 854.902 1044.13 889.377 1060.43 898.081C1067.65 890.481 1084.84 759.92 1039 642.572C1061.05 627.63 1087.75 631.773 1116.01 633.904C1115.68 608.481 1110.32 485.547 1046.2 407.102C1093.46 399.111 1106.33 409.245 1134.64 419.695C1122.8 365.61 1072.88 230.008 995.897 153.091C1004.71 138.442 1061.57 130.326 1063.55 123.373C975.24 54.3153 780.256 45.5325 728.771 37.9787C741.793 30.9308 818.065 2.09803 816.312 0.789812C810.708 -3.39084 584.454 8.41997 542.017 50.7716C493.298 20.251 332.421 5.22865 259.32 29.5958C260.148 35.2641 365.808 57.3567 361.168 71.4331C352.825 74.3941 176.281 72.686 35.3923 220.693C31.7733 224.312 86.9739 209.758 105.691 220.95C86.867 269.894 -6.12092 479.354 1.70019 510.639C2.13858 512.392 71.9933 468.828 76.2858 476.946C66.9935 497.487 -13.5291 661.255 1.97667 805.071C5.37817 806.463 83.9658 745.899 114.237 757.645C117.377 797.112 153.006 988.963 196.876 1026.81C205.911 1024.21 235.216 966.282 284.181 960.548C297.806 983.479 365.322 1041.97 389.047 1045.44C399.463 1042.42 494.093 1031.43 506.206 1027.4C517.603 1030.26 631.101 1062.16 643.275 1066.73Z" sodipodi:nodetypes="ccccccccccccccccccccccccccc"/><path id="shape1" transform="translate(233.161014453724, 240.477994247053)" fill="#f2e7c4" fill-rule="evenodd" stroke-opacity="0" stroke="#000000" stroke-width="0" stroke-linecap="square" stroke-linejoin="bevel" d="M1.05312 445.365C-16.0948 165.847 178.974 12.3045 381.65 0C597.974 0.364032 788.933 121.667 787.527 405.885C790.762 654.357 618.477 764.366 407.157 776.401C239.898 779.459 31.5715 719.102 1.05312 445.365Z" sodipodi:nodetypes="ccccc"/><path id="shape011" transform="translate(669.373696542042, 491.263950250527)" fill="#f0a6a6" fill-rule="evenodd" stroke="#f0a6a6" stroke-width="39.9999999999968" stroke-linecap="square" stroke-linejoin="bevel" d="M0 10.4061C1.68046 -1.89714 68.9265 -4.46034 73.1988 9.09827C69.3941 17.7191 6.82985 21.5795 0 10.4061Z" sodipodi:nodetypes="ccc"/><path id="shape02" transform="translate(383.975025155665, 493.547131951416)" fill="#f0a6a6" fill-rule="evenodd" stroke="#f0a6a6" stroke-width="39.9999999999968" stroke-linecap="square" stroke-linejoin="bevel" d="M0 13.4744C1.82613 -2.45653 74.9017 -5.77552 79.5443 11.781C75.4098 22.9437 7.42192 27.9424 0 13.4744Z" sodipodi:nodetypes="ccc"/><ellipse id="shape2" transform="translate(437.71705586277, 374.805070942314)" rx="29.2796168125068" ry="64.7710157999099" cx="29.2796168125068" cy="64.7710157999099" fill="#876344" fill-rule="evenodd" stroke-opacity="0" stroke="#000000" stroke-width="0" stroke-linecap="round" stroke-linejoin="miter" stroke-miterlimit="0"/><ellipse id="shape0111" transform="translate(626.046713953732, 371.17128225723)" rx="29.3406509630953" ry="64.7710157999099" cx="29.3406509630953" cy="64.7710157999099" fill="#876344" fill-rule="evenodd" stroke-opacity="0" stroke="#000000" stroke-width="0" stroke-linecap="round" stroke-linejoin="miter" stroke-miterlimit="0"/><path id="shape012" transform="translate(549.436315610827, 513.781710408399)" fill="#876344" stroke="#876344" stroke-width="19.9999999999984" stroke-linecap="round" stroke-linejoin="bevel" d="M0.000349416 5.60237C8.10609 23.6919 25.3766 26.9713 34.3783 6.11677C37.636 -2.30661 -0.132452 -1.59917 0.000349416 5.60237Z" sodipodi:nodetypes="ccc"/><path id="shape3" transform="translate(207.361138114491, 229.123964034427)" fill="#f2e7c4" fill-rule="evenodd" stroke="#876344" stroke-width="19.9999999999984" stroke-linecap="square" stroke-linejoin="bevel" d="M185.756 53.6395C100.439 -79.1245 -91.2851 59.1035 50.9881 202.213C75.7247 159.027 131.504 92.7841 185.756 53.6395Z" sodipodi:nodetypes="ccc"/><path id="shape4" transform="translate(811.225538917383, 192.128315300133)" fill="#f2e7c4" fill-rule="evenodd" stroke="#876344" stroke-width="19.9999999999984" stroke-linecap="square" stroke-linejoin="bevel" d="M0 57.3711C84.5696 -83.019 289.516 64.2203 160.059 179.282C134.507 143.884 54.6571 70.5349 0 57.3711Z" sodipodi:nodetypes="ccc"/><path id="shape5" transform="translate(1427.45669155476, 552.561275178409)" fill="none" stroke="#876344" stroke-width="19.9999999999984" stroke-linecap="round" stroke-linejoin="bevel" d="M0 15.1081C55.1824 -49.2767 108.006 110.158 100.648 155.537" sodipodi:nodetypes="cc"/><path id="shape6" transform="translate(1480.94667329165, 709.813335994165)" fill="none" stroke="#876344" stroke-width="19.9999999999984" stroke-linecap="round" stroke-linejoin="bevel" d="M40.4707 0C32.8407 8.2465 -0.508129 56.4003 0.00587793 66.871" sodipodi:nodetypes="cc"/><path id="shape7" transform="translate(1497.7819402319, 716.328976309469)" fill="none" stroke="#876344" stroke-width="19.9999999999984" stroke-linecap="round" stroke-linejoin="bevel" d="M27.4076 0C30.3605 7.54443 -1.55826 79.7944 0.0595282 88.5613" sodipodi:nodetypes="cc"/><path id="shape8" transform="translate(1530.82159909666, 712.128102948286)" fill="none" stroke="#876344" stroke-width="19.9999999999984" stroke-linecap="round" stroke-linejoin="bevel" d="M5.08423 0C7.16757 4.99643 -3.51518 86.3432 1.22635 89.5043" sodipodi:nodetypes="cc"/><path id="shape9" transform="translate(1530.0761531166, 708.613086462399)" fill="none" stroke="#876344" stroke-width="19.9999999999984" stroke-linecap="round" stroke-linejoin="bevel" d="M0 0C5.74318 1.17901 19.0123 46.5721 25.4573 74.9299" sodipodi:nodetypes="cc"/><path id="shape10" transform="translate(653.537992531513, 560.342188660277)" fill="#fdfaf0" fill-rule="evenodd" stroke="none" stroke-width="19.9999999999984" stroke-linecap="square" stroke-linejoin="bevel" d="M0 32.984C8.59287 32.6176 43.3793 31.3025 49.7386 26.9383C59.4353 20.2835 64.717 -6.08582 76.6689 1.28992C97.7061 10.994 78.7275 25.3041 74.9285 28.4955C79.2351 38.6225 90.1254 48.4248 82.3481 60.7391C74.7844 72.7152 66.2654 54.5852 54.5934 55.7927C49.4947 57.969 12.1827 59.4135 2.47319 60.9224" sodipodi:nodetypes="ccccccc"/><path id="shape11" transform="translate(305.762014487997, 641.771341195203)" fill="#fdfaf0" fill-rule="evenodd" stroke="none" stroke-width="19.9999999999984" stroke-linecap="square" stroke-linejoin="bevel" d="M106.686 3.21793C92.4211 6.03272 52.0816 11.7241 45.4973 14.1185C33.7498 18.3904 2.14091 -21.676 0.0638432 16.9581C-0.94972 35.8107 10.2353 38.647 24.3377 36.1944C25.8866 35.925 18.8815 65.4611 31.2993 68.8045C44.9022 72.4668 43.8656 50.3211 47.7872 44.4385C51.0986 39.4713 106.319 33.8646 115.754 30.6067" sodipodi:nodetypes="ccccccc"/><path id="shape06" transform="translate(408.798456433827, 577.512231478272)" fill="#8d7663" fill-rule="evenodd" stroke="#876344" stroke-width="19.9999999999984" stroke-linecap="square" stroke-linejoin="bevel" d="M67.0362 19.1447C-15.7064 14.4164 -25.1575 131.014 57.2352 144.33C111.695 153.132 88.9756 108.926 137.843 104.484C172.044 101.374 214.407 125.964 248.312 89.828C267.277 68.899 282.627 34.7812 255.986 18.2984C229.344 34.0924 191.031 7.18157 163.491 0C141.114 12.1116 97.0293 39.3236 67.0362 19.1447Z" sodipodi:nodetypes="ccccccc"/><path id="shape111" transform="translate(477.680199422371, 577.767645354615)" fill="none" stroke="#876344" stroke-width="19.9999999999984" stroke-linecap="round" stroke-linejoin="bevel" d="M0 17.0607C31.1313 44.318 59.9888 3.21153 89.8458 0C117.279 0.845465 138.758 35.4603 183.164 14.7459" sodipodi:nodetypes="ccc"/><path id="shape22" transform="matrix(0.63349412278225 0.100392106929281 -0.100392106929281 0.63349412278225 685.123780603104 132.613483947927)" fill="#f0a6a6" fill-rule="evenodd" stroke="#f0a6a6" stroke-width="39.9999999999968" stroke-linecap="round" stroke-linejoin="miter" stroke-miterlimit="0" d="M47.2374 23.9244C42.7673 20.557 20.664 -11.8357 7.3621 4.64863C-8.52473 17.0901 21.9428 37.1677 22.0644 43.3025C21.8372 49.5189 -8.18605 61.4734 2.17365 73.9371C19.0807 95.4566 34.5088 71.267 41.4347 70.3789C50.6868 70.4911 63.4063 97.7948 75.1241 86.6714C91.3909 76.4352 70.7066 54.5721 69.8025 48.7985C70.2919 41.4072 98.2671 24.5561 84.3109 10.312C72.7364 -6.65845 57.8998 24.369 47.2374 23.9244Z" sodipodi:nodetypes="ccccccccc"/><path id="shape022" transform="matrix(0.975607078876338 -0.219524093540972 0.219524093540972 0.975607078876338 210.153055177281 379.723739265679)" fill="#f0a6a6" fill-rule="evenodd" stroke="#f0a6a6" stroke-width="39.9999999999968" stroke-linecap="round" stroke-linejoin="miter" stroke-miterlimit="0" d="M49.9233 25.0561C45.199 21.5293 21.839 -12.3956 7.78071 4.86856C-9.00948 17.8985 23.1905 38.9257 23.3189 45.3508C23.0789 51.8612 -8.6515 64.3812 2.29724 77.4344C20.1656 99.9719 36.4709 74.6379 43.7906 73.7079C53.5688 73.8254 67.0116 102.42 79.396 90.7708C96.5875 80.0505 74.7271 57.1534 73.7716 51.1067C74.2887 43.3658 103.854 25.7177 89.105 10.7998C76.8722 -6.97336 61.192 25.5217 49.9233 25.0561Z" sodipodi:nodetypes="ccccccccc"/><path id="shape032" transform="matrix(0.98553626242911 -0.169464673120668 0.169464673120668 0.98553626242911 401.973870688251 107.860102032007)" fill="#f0a6a6" fill-rule="evenodd" stroke="#f0a6a6" stroke-width="39.9999999999968" stroke-linecap="round" stroke-linejoin="miter" stroke-miterlimit="0" d="M62.0607 31.1478C56.1878 26.7636 27.1485 -15.4092 9.67237 6.05219C-11.1999 22.25 28.8286 48.3894 28.9883 56.3765C28.6899 64.4697 -10.7549 80.0336 2.85575 96.2603C25.0683 124.277 45.3378 92.784 54.437 91.6279C66.5926 91.7739 83.3036 127.321 98.6989 112.839C120.07 99.5125 92.8948 71.0486 91.707 63.5318C92.3499 53.9089 129.104 31.9702 110.768 13.4255C95.5615 -8.66876 76.0691 31.7266 62.0607 31.1478Z" sodipodi:nodetypes="ccccccccc"/><path id="shape041" transform="matrix(0.99426657641255 0.106929766798094 -0.106929766798094 0.99426657641255 1026.88186669719 337.890676466472)" fill="#f0a6a6" fill-rule="evenodd" stroke="#f0a6a6" stroke-width="39.9999999999968" stroke-linecap="round" stroke-linejoin="miter" stroke-miterlimit="0" d="M49.2199 24.7031C44.5622 21.226 21.5313 -12.2209 7.67108 4.79993C-8.88255 17.6463 22.8638 38.3773 22.9904 44.7118C22.7537 51.1305 -8.52961 63.4741 2.26487 76.3434C19.8815 98.5634 35.9571 73.5864 43.1736 72.6695C52.8141 72.7852 66.0675 100.977 78.2774 89.4919C95.2267 78.9227 73.6742 56.3481 72.7322 50.3867C73.2421 42.7548 102.391 25.3554 87.8496 10.6477C75.7891 -6.87515 60.3299 25.1621 49.2199 24.7031Z" sodipodi:nodetypes="ccccccccc"/><path id="shape051" transform="matrix(0.941662048345023 0.336559930332281 -0.336559930332281 0.941662048345023 777.122496927517 197.172755449279)" fill="#f0a6a6" fill-rule="evenodd" stroke="#f0a6a6" stroke-width="39.9999999999968" stroke-linecap="round" stroke-linejoin="miter" stroke-miterlimit="0" d="M43.2355 21.6996C39.1441 18.6452 18.9134 -10.7351 6.73839 4.21639C-7.80256 15.5008 20.0839 33.7112 20.1951 39.2755C19.9872 44.9138 -7.49253 55.7566 1.98949 67.0611C17.4642 86.5795 31.5852 64.6393 37.9243 63.8339C46.3927 63.9356 58.0346 88.6999 68.76 78.611C83.6485 69.3268 64.7165 49.497 63.889 44.2604C64.3369 37.5564 89.942 22.2725 77.1683 9.35308C66.5743 -6.03917 52.9946 22.1028 43.2355 21.6996Z" sodipodi:nodetypes="ccccccccc"/>
</svg>
