<?xml version="1.0" standalone="no"?>
<!DOCTYPE svg PUBLIC "-//W3C//DTD SVG 20010904//EN" "http://www.w3.org/TR/2001/REC-SVG-20010904/DTD/svg10.dtd">
<!-- Created using Krita: https://krita.org -->
<svg xmlns="http://www.w3.org/2000/svg" 
    xmlns:xlink="http://www.w3.org/1999/xlink"
    xmlns:krita="http://krita.org/namespaces/svg/krita"
    xmlns:sodipodi="http://sodipodi.sourceforge.net/DTD/sodipodi-0.dtd"
    width="1603pt"
    height="1236pt"
    viewBox="0 0 1603 1236">
<defs/>
<path id="shape031" transform="translate(357.841867154069, 274.26184700012)" fill="#f2e7c4" stroke="#876344" stroke-width="39.9999999999968" stroke-linecap="round" stroke-linejoin="miter" stroke-miterlimit="0" d="M852.22 444.429C842.734 631.062 671.16 825.751 411.088 825.751C120.103 812.308 11.6562 650.675 1.36552 462.471C-17.0954 236.95 153.168 3.10339 418.678 0C708.988 7.05459 867.173 233.062 852.22 444.429Z" sodipodi:nodetypes="ccccc"/><path id="shape011" transform="translate(819.974077761952, 551.06912268353)" fill="#f0a6a6" fill-rule="evenodd" stroke="#f0a6a6" stroke-width="39.9999999999968" stroke-linecap="square" stroke-linejoin="bevel" d="M0 10.4061C1.68046 -1.89714 68.9265 -4.46034 73.1988 9.09827C69.3941 17.7191 6.82985 21.5795 0 10.4061Z" sodipodi:nodetypes="ccc"/><path id="shape02" transform="translate(534.575406375552, 553.352314359451)" fill="#f0a6a6" fill-rule="evenodd" stroke="#f0a6a6" stroke-width="39.9999999999968" stroke-linecap="square" stroke-linejoin="bevel" d="M0 13.4744C1.82613 -2.45653 74.9017 -5.77552 79.5443 11.781C75.4098 22.9437 7.42192 27.9424 0 13.4744Z" sodipodi:nodetypes="ccc"/><ellipse id="shape2" transform="translate(588.317437082661, 434.610244795106)" rx="29.2796168125068" ry="64.7710157999099" cx="29.2796168125068" cy="64.7710157999099" fill="#876344" fill-rule="evenodd" stroke-opacity="0" stroke="#000000" stroke-width="0" stroke-linecap="round" stroke-linejoin="miter" stroke-miterlimit="0"/><ellipse id="shape0111" transform="translate(776.647095173638, 430.976456110022)" rx="29.3406509630953" ry="64.7710157999099" cx="29.3406509630953" cy="64.7710157999099" fill="#876344" fill-rule="evenodd" stroke-opacity="0" stroke="#000000" stroke-width="0" stroke-linecap="round" stroke-linejoin="miter" stroke-miterlimit="0"/><path id="shape01" transform="translate(700.036696828746, 573.586879791694)" fill="#876344" stroke="#876344" stroke-width="19.9999999999984" stroke-linecap="round" stroke-linejoin="bevel" d="M0.000349417 5.60237C8.10609 23.6919 25.3766 26.9713 34.3783 6.11677C37.636 -2.30661 -0.132452 -1.59917 0.000349417 5.60237Z" sodipodi:nodetypes="ccc"/><path id="shape1" transform="translate(628.280580642303, 637.572819207469)" fill="none" stroke="#876344" stroke-width="19.9999999999984" stroke-linecap="round" stroke-linejoin="bevel" d="M0 17.0607C31.1313 44.318 59.9888 3.21153 89.8458 0C117.279 0.845465 138.758 35.4603 183.164 14.7459" sodipodi:nodetypes="ccc"/><path id="shape3" transform="translate(357.961496961622, 288.929133259302)" fill="#f2e7c4" fill-rule="evenodd" stroke="#876344" stroke-width="39.9999999999968" stroke-linecap="square" stroke-linejoin="bevel" d="M185.756 53.6395C100.439 -79.1245 -91.2851 59.1035 50.9881 202.213C75.7247 159.027 131.504 92.7841 185.756 53.6395Z" sodipodi:nodetypes="ccc"/><path id="shape4" transform="translate(961.825920137304, 251.933429306661)" fill="#f2e7c4" fill-rule="evenodd" stroke="#876344" stroke-width="39.9999999999968" stroke-linecap="square" stroke-linejoin="bevel" d="M0 57.3711C84.5696 -83.019 289.516 64.2203 160.059 179.282C134.507 143.884 54.6571 70.5349 0 57.3711Z" sodipodi:nodetypes="ccc"/>
</svg>
