<?xml version="1.0" standalone="no"?>
<!DOCTYPE svg PUBLIC "-//W3C//DTD SVG 20010904//EN" "http://www.w3.org/TR/2001/REC-SVG-20010904/DTD/svg10.dtd">
<!-- Created using Krita: https://krita.org -->
<svg xmlns="http://www.w3.org/2000/svg" 
    xmlns:xlink="http://www.w3.org/1999/xlink"
    xmlns:krita="http://krita.org/namespaces/svg/krita"
    xmlns:sodipodi="http://sodipodi.sourceforge.net/DTD/sodipodi-0.dtd"
    width="1603pt"
    height="1236pt"
    viewBox="0 0 1603 1236">
<defs/>
<path id="shape031" transform="translate(207.863516021998, 213.174255139867)" fill="#f2e7c4" stroke="#876344" stroke-width="39.9999999999968" stroke-linecap="round" stroke-linejoin="miter" stroke-miterlimit="0" d="M418.678 0C153.168 3.10339 -17.0954 236.95 1.36552 462.471C11.6562 650.675 128.933 828.597 419.918 842.04C684.191 853.528 1034.73 887.487 1156.17 813.766C1270.32 739.86 1285.06 311.921 1124.63 242.618C1009.59 211.096 943.576 267.167 808.839 213.107C686.533 38.937 563.662 3.51688 418.678 0Z" sodipodi:nodetypes="ccccccc"/><path id="shape011" transform="translate(669.995725781333, 489.981531296521)" fill="#f0a6a6" fill-rule="evenodd" stroke="#f0a6a6" stroke-width="39.9999999999968" stroke-linecap="square" stroke-linejoin="bevel" d="M0 10.4061C1.68046 -1.89714 68.9265 -4.46034 73.1988 9.09827C69.3941 17.7191 6.82985 21.5795 0 10.4061Z" sodipodi:nodetypes="ccc"/><path id="shape02" transform="translate(384.597054394956, 492.264719647431)" fill="#f0a6a6" fill-rule="evenodd" stroke="#f0a6a6" stroke-width="39.9999999999968" stroke-linecap="square" stroke-linejoin="bevel" d="M0 13.4744C1.82613 -2.45653 74.9017 -5.77552 79.5443 11.781C75.4098 22.9437 7.42192 27.9424 0 13.4744Z" sodipodi:nodetypes="ccc"/><ellipse id="shape2" transform="translate(438.339085102061, 373.52265293484)" rx="29.2796168125068" ry="64.7710157999099" cx="29.2796168125068" cy="64.7710157999099" fill="#876344" fill-rule="evenodd" stroke-opacity="0" stroke="#000000" stroke-width="0" stroke-linecap="round" stroke-linejoin="miter" stroke-miterlimit="0"/><ellipse id="shape0111" transform="translate(626.668743193023, 369.888864249756)" rx="29.3406509630953" ry="64.7710157999099" cx="29.3406509630953" cy="64.7710157999099" fill="#876344" fill-rule="evenodd" stroke-opacity="0" stroke="#000000" stroke-width="0" stroke-linecap="round" stroke-linejoin="miter" stroke-miterlimit="0"/><path id="shape01" transform="translate(550.058344849461, 512.499289421253)" fill="#876344" stroke="#876344" stroke-width="19.9999999999984" stroke-linecap="round" stroke-linejoin="bevel" d="M0.000349416 5.60237C8.10609 23.6919 25.3766 26.9713 34.3783 6.11677C37.636 -2.30661 -0.132452 -1.59917 0.000349416 5.60237Z" sodipodi:nodetypes="ccc"/><path id="shape1" transform="translate(478.3022286617, 576.485227347187)" fill="none" stroke="#876344" stroke-width="19.9999999999984" stroke-linecap="round" stroke-linejoin="bevel" d="M0 17.0607C31.1313 44.318 59.9888 3.21153 89.8458 0C117.279 0.845465 138.758 35.4603 183.164 14.7459" sodipodi:nodetypes="ccc"/><path id="shape3" transform="translate(207.983152438621, 227.841542941683)" fill="#f2e7c4" fill-rule="evenodd" stroke="#876344" stroke-width="39.9999999999968" stroke-linecap="square" stroke-linejoin="bevel" d="M185.756 53.6395C100.439 -79.1245 -91.2851 59.1035 50.9881 202.213C75.7247 159.027 131.504 92.7841 185.756 53.6395Z" sodipodi:nodetypes="ccc"/><path id="shape4" transform="translate(811.847568156674, 190.845857395159)" fill="#f2e7c4" fill-rule="evenodd" stroke="#876344" stroke-width="39.9999999999968" stroke-linecap="square" stroke-linejoin="bevel" d="M0 57.3711C84.5696 -83.019 289.516 64.2203 160.059 179.282C134.507 143.884 54.6571 70.5349 0 57.3711Z" sodipodi:nodetypes="ccc"/><path id="shape0" transform="translate(548.847500374859, 1049.23032078958)" fill="#f2e7c4" fill-rule="evenodd" stroke="#876344" stroke-width="39.9999999999968" stroke-linecap="square" stroke-linejoin="bevel" d="M10.4807 0C10.4807 26.797 -26.2726 155.256 37.8717 152.689C88.0672 155.577 97.9688 48.3557 97.9688 8.48748C78.165 8.63853 39.4264 4.79332 10.4807 0Z" sodipodi:nodetypes="cccc"/><path id="shape03" transform="translate(475.222617738764, 1033.17681830478)" fill="#f2e7c4" fill-rule="evenodd" stroke="#876344" stroke-width="39.9999999999968" stroke-linecap="square" stroke-linejoin="bevel" d="M6.16433 0C6.16433 26.797 -22.0159 144.025 42.1284 141.458C69.5196 144.089 78.3067 58.6436 83.8791 15.689C61.8464 14.3826 34.9386 6.67943 6.16433 0Z" sodipodi:nodetypes="cccc"/><path id="shape04" transform="translate(1121.17226855334, 1065.49782472129)" fill="#f2e7c4" fill-rule="evenodd" stroke="#876344" stroke-width="39.9999999999968" stroke-linecap="square" stroke-linejoin="bevel" d="M8.0804 7.28723C8.76624 38.4566 -24.7293 141.453 39.8437 140.601C89.5248 143.575 105.17 43.126 103.113 0C78.1652 1.69423 42.5129 11.9091 8.0804 7.28723Z" sodipodi:nodetypes="cccc"/><path id="shape05" transform="translate(1049.86618438132, 1074.07103566248)" fill="#f2e7c4" fill-rule="evenodd" stroke="#876344" stroke-width="39.9999999999968" stroke-linecap="square" stroke-linejoin="bevel" d="M0 4.11514C0 30.9121 8.68389 107.589 48.0521 102.793C76.2148 103.966 68.7988 44.1548 80.1153 0C59.8828 3.4946 26.8024 2.73575 0 4.11514Z" sodipodi:nodetypes="cccc"/><path id="shape5" transform="translate(1428.07872079404, 551.278933442941)" fill="none" stroke="#876344" stroke-width="19.9999999999984" stroke-linecap="round" stroke-linejoin="bevel" d="M0 15.1081C55.1824 -49.2767 108.006 110.158 100.648 155.537" sodipodi:nodetypes="cc"/><path id="shape6" transform="translate(1481.56870252778, 708.530917986691)" fill="none" stroke="#876344" stroke-width="19.9999999999984" stroke-linecap="round" stroke-linejoin="bevel" d="M40.4707 0C32.8407 8.2465 -0.508129 56.4003 0.00587793 66.871" sodipodi:nodetypes="cc"/><path id="shape7" transform="translate(1498.40396959015, 715.046558301995)" fill="none" stroke="#876344" stroke-width="19.9999999999984" stroke-linecap="round" stroke-linejoin="bevel" d="M27.4076 0C30.3605 7.54443 -1.55826 79.7944 0.0595281 88.5613" sodipodi:nodetypes="cc"/><path id="shape8" transform="translate(1531.44363250069, 710.845684940812)" fill="none" stroke="#876344" stroke-width="19.9999999999984" stroke-linecap="round" stroke-linejoin="bevel" d="M5.08423 0C7.16757 4.99643 -3.51518 86.3432 1.22635 89.5043" sodipodi:nodetypes="cc"/><path id="shape9" transform="translate(1530.69818235589, 707.330668454925)" fill="none" stroke="#876344" stroke-width="19.9999999999984" stroke-linecap="round" stroke-linejoin="bevel" d="M0 0C5.74318 1.17901 19.0123 46.5721 25.4573 74.9299" sodipodi:nodetypes="cc"/>
</svg>
