<?xml version="1.0" standalone="no"?>
<!DOCTYPE svg PUBLIC "-//W3C//DTD SVG 20010904//EN" "http://www.w3.org/TR/2001/REC-SVG-20010904/DTD/svg10.dtd">
<!-- Created using Krita: https://krita.org -->
<svg xmlns="http://www.w3.org/2000/svg" 
    xmlns:xlink="http://www.w3.org/1999/xlink"
    xmlns:krita="http://krita.org/namespaces/svg/krita"
    xmlns:sodipodi="http://sodipodi.sourceforge.net/DTD/sodipodi-0.dtd"
    width="1603pt"
    height="1236pt"
    viewBox="0 0 1603 1236">
<defs/>
<path id="shape0" transform="translate(362.043709101355, 130.077003664161)" fill="#fefefe" fill-rule="evenodd" stroke="#fefefe" stroke-width="39.9999999999968" stroke-linecap="square" stroke-linejoin="bevel" d="M411.67 0C230.579 28.1076 90.6508 177.154 41.6184 317.858C-25.5981 510.744 -25.9962 698.592 150.94 832.28C214.256 880.119 312.875 921.287 395.646 922.436C426.996 922.872 636.388 873.585 685.657 832.659C842.765 715.403 851.086 517.563 789.751 318.767C704.791 151.781 576.512 33.098 411.67 0Z" sodipodi:nodetypes="ccccccc"/><path id="shape01" transform="translate(357.15559276598, 128.489886967773)" fill="none" stroke="#876344" stroke-width="39.9999999999968" stroke-linecap="round" stroke-linejoin="bevel" d="M845.586 525.954C845.586 282.523 656.33 1.98099 408.144 0C168.164 10.754 2.84217e-14 274.089 0 517.52C-2.84217e-14 760.951 158.476 931.067 418.548 931.067C678.62 931.067 845.586 769.385 845.586 525.954Z" sodipodi:nodetypes="ccccc"/><path id="shape1" transform="translate(364.11795859951, 619.196560795303)" fill="none" stroke="#876344" stroke-width="39.9999999999968" stroke-linecap="round" stroke-linejoin="bevel" d="M0 107.892C0 92.8364 93.7987 0 109.125 0C112.765 0 235.68 131.417 247.885 134.904C249.799 135.451 355.441 21.1693 385.873 12.0395C400.697 7.59241 449.772 114.598 461.813 121.166C462.856 121.735 543.26 61.5359 545.779 60.9691C563.587 56.9624 557.578 115.581 572.945 120.703C577.451 122.205 606.751 104.01 618.941 106.503C622.782 107.289 643.374 147.418 636.074 134.904" sodipodi:nodetypes="ccccccccc"/>
</svg>
