<?xml version="1.0" standalone="no"?>
<!DOCTYPE svg PUBLIC "-//W3C//DTD SVG 20010904//EN" "http://www.w3.org/TR/2001/REC-SVG-20010904/DTD/svg10.dtd">
<!-- Created using Krita: https://krita.org -->
<svg xmlns="http://www.w3.org/2000/svg" 
    xmlns:xlink="http://www.w3.org/1999/xlink"
    xmlns:krita="http://krita.org/namespaces/svg/krita"
    xmlns:sodipodi="http://sodipodi.sourceforge.net/DTD/sodipodi-0.dtd"
    width="1603pt"
    height="1236pt"
    viewBox="0 0 1603 1236">
<defs/>
<path id="shape0" transform="translate(383.350977262682, 261.895491096654)" fill="#fdfaf0" fill-rule="evenodd" stroke="#fdfaf0" stroke-width="39.9999999999968" stroke-linecap="square" stroke-linejoin="bevel" d="M0.0843751 434.569C-0.100152 434.753 -13.5476 40.4028 396.386 0C769.364 26.4437 791.622 338.419 793.522 381.309C794.661 407.013 780.365 448.837 748.672 455.176C746.708 455.569 689.813 406.463 686.624 407.067C652.795 413.483 622.275 482.45 605.03 482.45C587.11 482.45 560.354 419.101 534.801 418.204C494.972 416.807 468.245 475.935 458.737 481.996C441.589 475.137 415.438 374.145 374.567 371.384C356.63 370.172 262.344 489.95 234.032 489.42C209.725 488.966 109.599 370.309 99.4061 362.52C88.1904 368.775 3.31618 421.642 0.0843751 434.569Z" sodipodi:nodetypes="cccccccccccc"/><path id="shape1" transform="translate(377.148900077899, 651.992354399512)" fill="#fefefe" fill-rule="evenodd" stroke="#fefefe" stroke-width="39.9999999999968" stroke-linecap="square" stroke-linejoin="bevel" d="M401.831 412.522C645.57 421.085 811.831 238.158 821.619 58.7153C821.694 57.3357 766.902 94.6269 752.828 95.0809C739.305 95.5171 700.541 40.8234 690.629 43.7145C661.721 52.1463 625.369 128.349 606.535 119.855C583.995 109.69 565.774 54.3969 538.351 54.3969C516.144 54.3969 482.871 120.316 462.666 111.521C433.724 98.9224 400.081 25.6927 382.209 9.31869C357.419 24.7442 279.82 127.837 240.386 125.84C211.7 124.388 125.28 0.0473678 103.866 0C87.4087 1.87423 28.5373 52.8113 0 80.2606C6.3736 171.716 135.533 420.884 401.831 412.522Z" sodipodi:nodetypes="cccccccccccc"/><path id="shape01" transform="translate(369.593359671847, 636.326194042344)" fill="none" stroke="#876344" stroke-width="39.9999999999968" stroke-linecap="round" stroke-linejoin="bevel" d="M840.311 100.458C809.052 262.65 672.32 438.414 412.248 438.414C153.068 438.526 12.9589 269.444 0 86.1496C11.041 80.734 110.064 -0.5605 110.543 0.00291488C128.353 20.9474 235.755 131.995 249.876 130.647C266.309 129.078 365.05 3.38016 394.759 14.1798C409.188 19.4246 450.561 117.28 471.234 117.465C484.187 117.58 517.41 51.5081 548.338 53.7037C568.45 55.1316 598.992 126.573 622.137 123.501C626.7 117.817 673.787 43.6871 702.441 43.9432C706.715 43.9814 744.022 88.8689 761.571 94.0601C771.406 96.9696 814.212 46.4758 828.12 52.5472C834.492 55.9515 840.117 96.8043 840.311 100.458Z" sodipodi:nodetypes="ccccccccccccc"/><path id="shape11" transform="translate(379.346103828184, 251.123468517604)" fill="none" stroke="#876344" stroke-width="39.9999999999968" stroke-linecap="round" stroke-linejoin="bevel" d="M1.2761 450.495C-15.9707 202.234 142.742 3.05528 408.271 0C697.807 8.06455 828.211 233.777 803.332 436.177" sodipodi:nodetypes="ccc"/><ellipse id="shape2" transform="translate(603.438099014528, 455.438504245537)" rx="29.2796168125068" ry="64.7710157999099" cx="29.2796168125068" cy="64.7710157999099" fill="#876344" fill-rule="evenodd" stroke-opacity="0" stroke="#000000" stroke-width="0" stroke-linecap="square" stroke-linejoin="bevel"/><ellipse id="shape011" transform="translate(794.152330274623, 450.033548818997)" rx="29.3406509630953" ry="64.7710157999099" cx="29.3406509630953" cy="64.7710157999099" fill="#876344" fill-rule="evenodd" stroke-opacity="0" stroke="#000000" stroke-width="0" stroke-linecap="round" stroke-linejoin="bevel"/><path id="shape3" transform="translate(680.970975885202, 587.165508284178)" fill="none" stroke="#876344" stroke-width="19.9999999999984" stroke-linecap="round" stroke-linejoin="bevel" d="M0 14.2175C0.331156 18.7216 5.27412 26.5079 18.6191 25.6923C32.9924 25.4843 35.8256 1.55885 37.3104 0.000303971C37.9181 -0.100969 41.0595 25.1378 57.4451 24.0324C69.5446 23.495 73.4662 16.363 73.3941 12.1246" sodipodi:nodetypes="ccccc"/>
</svg>
