<?xml version="1.0" standalone="no"?>
<!DOCTYPE svg PUBLIC "-//W3C//DTD SVG 20010904//EN" "http://www.w3.org/TR/2001/REC-SVG-20010904/DTD/svg10.dtd">
<!-- Created using Krita: https://krita.org -->
<svg xmlns="http://www.w3.org/2000/svg" 
    xmlns:xlink="http://www.w3.org/1999/xlink"
    xmlns:krita="http://krita.org/namespaces/svg/krita"
    xmlns:sodipodi="http://sodipodi.sourceforge.net/DTD/sodipodi-0.dtd"
    width="1603pt"
    height="1236pt"
    viewBox="0 0 1603 1236">
<defs/>
<path id="shape0" transform="translate(182.008524129229, 173.783814769333)" fill="#facccc" fill-rule="evenodd" stroke="#876344" stroke-width="39.9999999999968" stroke-linecap="square" stroke-linejoin="bevel" d="M879.888 257.667C884.068 264.451 1084.52 263.277 1202.3 356.169C1315.05 464.874 1290.36 776.482 1154.04 832.764C870.155 939.015 562.968 890.907 393.941 872.218C113.073 828.94 11.6562 650.675 1.36552 462.471C-17.0954 236.95 153.168 3.10339 418.678 0C708.988 7.05459 845.46 122.602 879.888 257.667Z" sodipodi:nodetypes="ccccccc"/><path id="shape011" transform="translate(644.140731342957, 450.591091872475)" fill="#f0a6a6" fill-rule="evenodd" stroke="#f0a6a6" stroke-width="39.9999999999968" stroke-linecap="square" stroke-linejoin="bevel" d="M0 10.4061C1.68046 -1.89714 68.9265 -4.46034 73.1988 9.09827C69.3941 17.7191 6.82985 21.5795 0 10.4061Z" sodipodi:nodetypes="ccc"/><path id="shape02" transform="translate(358.742059956626, 452.874273573363)" fill="#f0a6a6" fill-rule="evenodd" stroke="#f0a6a6" stroke-width="39.9999999999968" stroke-linecap="square" stroke-linejoin="bevel" d="M0 13.4744C1.82613 -2.45653 74.9017 -5.77552 79.5443 11.781C75.4098 22.9437 7.42192 27.9424 0 13.4744Z" sodipodi:nodetypes="ccc"/><ellipse id="shape2" transform="translate(412.484090663723, 334.13221256428)" rx="29.2796168125068" ry="64.7710157999099" cx="29.2796168125068" cy="64.7710157999099" fill="#876344" fill-rule="evenodd" stroke-opacity="0" stroke="#000000" stroke-width="0" stroke-linecap="round" stroke-linejoin="miter" stroke-miterlimit="0"/><path id="shape0111" transform="translate(600.813748754656, 330.498423879196)" sodipodi:type="arc" sodipodi:rx="29.3406509630953" sodipodi:ry="64.7710157999099" sodipodi:cx="29.3406509630953" sodipodi:cy="64.7710157999099" sodipodi:start="6.28318530717959" sodipodi:end="0" sodipodi:open="true" d="M58.6813 64.771C58.6813 28.999 45.545 6.02847e-14 29.3407 -1.42109e-14C13.1363 -8.87064e-14 3.4738e-14 28.999 0 64.771C-3.4738e-14 100.543 13.1363 129.542 29.3407 129.542C45.545 129.542 58.6813 100.543 58.6813 64.771Z" fill="#876344" fill-rule="evenodd" stroke-opacity="0" stroke="#000000" stroke-width="0" stroke-linecap="round" stroke-linejoin="miter" stroke-miterlimit="0"/><path id="shape01" transform="translate(78.2093711411368, 202.557273498334)" fill="#facccc" fill-rule="evenodd" stroke="#876344" stroke-width="39.9999999999968" stroke-linecap="square" stroke-linejoin="bevel" d="M286.503 43.5466C265.452 21.8564 152.613 -16.2244 87.5227 7.53909C25.7253 30.1005 -20.7015 139.72 9.42217 150.026C35.049 158.793 62.2533 115.803 100.125 127.135C122.357 133.788 144.342 165.654 162.88 177.803C181.846 141.428 243.771 72.524 286.503 43.5466Z" sodipodi:nodetypes="cccccc"/><path id="shape1" transform="translate(801.499999999742, 181.534088162745)" fill="#facccc" fill-rule="evenodd" stroke="#876344" stroke-width="39.9999999999968" stroke-linecap="round" stroke-linejoin="bevel" d="M0 42.6223C27.2831 26.7619 97.8191 3.94839 125.091 0.527869C194.303 -8.1532 316.999 92.9497 303.325 104.521C277.087 126.722 230.089 126.482 203.62 124.925C174.407 123.206 177.329 149.674 158.011 168.906" sodipodi:nodetypes="ccccc"/><path id="shape3" transform="translate(452.242594741534, 470.208867377708)" fill="none" stroke="#876344" stroke-width="19.9999999999984" stroke-linecap="square" stroke-linejoin="bevel" d="M0.17243 56.315C-6.32291 -11.0205 172.828 -22.7443 175.996 47.3131C181.981 126.679 5.24961 128.199 0.17243 56.315Z" sodipodi:nodetypes="ccc"/><path id="shape4" transform="translate(512.989507027316, 512.987900136792)" fill="none" stroke="#876344" stroke-width="19.9999999999984" stroke-linecap="round" stroke-linejoin="bevel" d="M0.551395 0C-0.646715 6.24109 0.0254072 21.6786 3.3805 25.5482" sodipodi:nodetypes="cc"/><path id="shape5" transform="translate(559.835397778524, 507.92970568149)" fill="none" stroke="#876344" stroke-width="19.9999999999984" stroke-linecap="round" stroke-linejoin="bevel" d="M0 0C0 7.18151 0.796066 19.8531 4.28653 26.8342" sodipodi:nodetypes="cc"/><path id="shape6" transform="translate(501.795819267844, 1033.72473270459)" fill="#facccc" fill-rule="evenodd" stroke="#876344" stroke-width="39.9999999999968" stroke-linecap="square" stroke-linejoin="bevel" d="M0 0C1.24734 43.7234 6.6362 146.929 10.2019 154.06C26.9695 187.596 46.8924 126.635 55.2962 123.883C62.157 125.722 85.3238 163.042 95.4181 160.748C109.303 157.592 107.439 50.8575 107.764 17.1464C80.0278 14.2727 29.5758 6.51927 0 0Z" sodipodi:nodetypes="cccccc"/><path id="shape03" transform="translate(415.92160893498, 1002.20749340086)" fill="#facccc" fill-rule="evenodd" stroke="#876344" stroke-width="39.9999999999968" stroke-linecap="square" stroke-linejoin="bevel" d="M3.47712 0C4.72446 43.7234 -2.5748 155.846 0.990936 162.977C17.7585 196.513 43.1682 138.894 51.572 136.142C58.4328 137.981 65.225 169.986 75.3193 167.692C89.2042 164.536 86.7397 60.8882 87.0647 27.1771C56.8427 23.6175 36.0535 10.4629 3.47712 0Z" sodipodi:nodetypes="cccccc"/><path id="shape04" transform="translate(1141.24991077089, 1035.30007856559)" fill="#facccc" fill-rule="evenodd" stroke="#876344" stroke-width="39.9999999999968" stroke-linecap="square" stroke-linejoin="bevel" d="M0 24.005C1.24734 67.7284 4.40721 150.273 7.97295 157.404C24.7405 190.94 47.1496 137.609 55.5534 134.857C62.4142 136.696 81.9802 169.815 92.0745 167.521C105.96 164.365 105.552 33.7111 105.877 0C77.7988 1.6701 30.5188 24.3516 0 24.005Z" sodipodi:nodetypes="cccccc"/><path id="shape05" transform="translate(1055.72364160505, 1059.09533237936)" fill="#facccc" fill-rule="evenodd" stroke="#876344" stroke-width="39.9999999999968" stroke-linecap="square" stroke-linejoin="bevel" d="M0 9.94492C1.24734 53.6683 5.35025 112.808 8.91599 119.939C25.6836 153.475 40.5484 109.403 48.9522 106.651C55.813 108.49 61.6621 134.579 71.7564 132.285C85.6414 129.129 83.2625 33.7111 83.5875 0C55.5089 1.6701 30.5188 10.2915 0 9.94492Z" sodipodi:nodetypes="cccccc"/><path id="shape7" transform="translate(1435.39585286945, 394.506124929625)" fill="none" stroke="#876344" stroke-width="19.9999999999984" stroke-linecap="round" stroke-linejoin="bevel" d="M0.00559408 241.679C-0.518134 241.853 35.8899 214.774 42.9566 204.3C65.5821 170.762 75.1758 104.632 52.2154 69.5287C38.6837 48.8404 -4.42158 162.236 59.5025 162.634C113.051 162.967 128.698 18.634 113.17 0" sodipodi:nodetypes="ccccc"/><path id="shape8" transform="translate(277.353254214517, 518.288361797495)" fill="none" stroke="#876344" stroke-width="19.9999999999984" stroke-linecap="round" stroke-linejoin="bevel" d="M0 0.186392C144.906 -7.03681 193.544 197.915 18.8607 226.09" sodipodi:nodetypes="cc"/><path id="shape9" transform="translate(694.117115917761, 474.837116359474)" fill="none" stroke="#876344" stroke-width="19.9999999999984" stroke-linecap="round" stroke-linejoin="bevel" d="M139.189 0C-90.1672 24.0504 0.0421067 272.291 151.191 253.081" sodipodi:nodetypes="cc"/><path id="shape10" transform="matrix(0.946689582898303 0.322147223535851 -0.322147223535851 0.946689582898303 495.030727300646 608.907489822711)" fill="#fc797e" fill-rule="evenodd" stroke="#c65353" stroke-width="19.9999999999984" stroke-linecap="round" stroke-linejoin="bevel" d="M67.4029 5.27906C58.2773 19.3409 75.9403 32.7418 57.1152 47.8022C42.6773 59.3528 10.8922 50.7189 2.93349 72.3216C-11.9939 112.839 33.3011 152.093 65.4311 165.255C129.401 191.46 211.006 127.254 185.625 60.4905C181.211 48.8797 174.583 30.3291 163.678 23.4543C142.74 -8.40938 76.8258 -0.436147 67.4029 5.27906Z" sodipodi:nodetypes="ccccccc"/><path id="shape11" transform="matrix(0.946689582898303 0.322147223535851 -0.322147223535851 0.946689582898303 601.715390698875 678.136442880875)" fill="none" stroke="#876344" stroke-width="19.9999999999984" stroke-linecap="round" stroke-linejoin="bevel" d="M0 0C1.97663 10.1212 17.8187 39.8601 34.3779 49.9818" sodipodi:nodetypes="cc"/><path id="shape12" transform="matrix(0.946689582898303 0.322147223535851 -0.322147223535851 0.946689582898303 626.460474484363 670.618359501265)" fill="none" stroke="#876344" stroke-width="19.9999999999984" stroke-linecap="round" stroke-linejoin="bevel" d="M0 36.3504C10.3455 35.836 49.8608 14.6235 60.0971 0" sodipodi:nodetypes="cc"/><path id="shape101" transform="translate(447.120898731295, 617.9999999999)" fill="none" stroke="#876344" stroke-width="19.9999999999984" stroke-linecap="round" stroke-linejoin="bevel" d="M0.321755 58.581C-2.61921 49.0312 15.2442 10.808 27.6698 13.9145C40.7505 17.1848 72.6607 52.2997 81.5085 51.3794C97.0687 34.4642 84.6538 12.1776 116.315 0C140.901 4.76892 143.184 20.095 162.524 31.1466C170.32 35.6011 195.539 11.0335 197.931 0" sodipodi:nodetypes="cccccc"/><path id="shape22" transform="matrix(0.987674727659098 0.156520389542087 -0.156520389542087 0.987674727659098 177.173992623454 282.613550493492)" fill="#f0a6a6" fill-rule="evenodd" stroke="#f0a6a6" stroke-width="39.9999999999968" stroke-linecap="round" stroke-linejoin="miter" stroke-miterlimit="0" d="M47.2374 23.9244C42.7673 20.557 20.664 -11.8357 7.3621 4.64863C-8.52473 17.0901 21.9428 37.1677 22.0644 43.3025C21.8372 49.5189 -8.18605 61.4734 2.17365 73.9371C19.0807 95.4566 34.5088 71.267 41.4347 70.3789C50.6868 70.4911 63.4063 97.7948 75.1241 86.6714C91.3909 76.4352 70.7066 54.5721 69.8025 48.7985C70.2919 41.4072 98.2671 24.5561 84.3109 10.312C72.7364 -6.65845 57.8998 24.369 47.2374 23.9244Z" sodipodi:nodetypes="ccccccccc"/><path id="shape022" transform="matrix(0.975607078876417 -0.21952409354099 0.21952409354099 0.975607078876417 298.546679091771 268.061776570902)" fill="#f0a6a6" fill-rule="evenodd" stroke="#f0a6a6" stroke-width="39.9999999999968" stroke-linecap="round" stroke-linejoin="miter" stroke-miterlimit="0" d="M49.9233 25.0561C45.199 21.5293 21.839 -12.3956 7.78071 4.86856C-9.00948 17.8985 23.1905 38.9257 23.3189 45.3508C23.0789 51.8612 -8.6515 64.3812 2.29724 77.4344C20.1656 99.9719 36.4709 74.6379 43.7906 73.7079C53.5688 73.8254 67.0116 102.42 79.396 90.7708C96.5875 80.0505 74.7271 57.1534 73.7716 51.1067C74.2887 43.3658 103.854 25.7177 89.105 10.7998C76.8722 -6.97336 61.192 25.5217 49.9233 25.0561Z" sodipodi:nodetypes="ccccccccc"/><path id="shape032" transform="matrix(0.985536262429189 -0.169464673120682 0.169464673120682 0.985536262429189 443.193698966008 219.155660243592)" fill="#f0a6a6" fill-rule="evenodd" stroke="#f0a6a6" stroke-width="39.9999999999968" stroke-linecap="round" stroke-linejoin="miter" stroke-miterlimit="0" d="M62.0607 31.1478C56.1878 26.7636 27.1485 -15.4092 9.67237 6.05219C-11.1999 22.25 28.8286 48.3894 28.9883 56.3765C28.6899 64.4697 -10.7549 80.0336 2.85575 96.2603C25.0683 124.277 45.3378 92.784 54.437 91.6279C66.5926 91.7739 83.3036 127.321 98.6989 112.839C120.07 99.5125 92.8948 71.0486 91.707 63.5318C92.3499 53.9089 129.104 31.9702 110.768 13.4255C95.5615 -8.66876 76.0691 31.7266 62.0607 31.1478Z" sodipodi:nodetypes="ccccccccc"/><path id="shape041" transform="matrix(0.99426657641263 0.106929766798103 -0.106929766798103 0.99426657641263 622.19477263523 206.351227422799)" fill="#f0a6a6" fill-rule="evenodd" stroke="#f0a6a6" stroke-width="39.9999999999968" stroke-linecap="round" stroke-linejoin="miter" stroke-miterlimit="0" d="M49.2199 24.7031C44.5622 21.226 21.5313 -12.2209 7.67108 4.79993C-8.88255 17.6463 22.8638 38.3773 22.9904 44.7118C22.7537 51.1305 -8.52961 63.4741 2.26487 76.3434C19.8815 98.5634 35.9571 73.5864 43.1736 72.6695C52.8141 72.7852 66.0675 100.977 78.2774 89.4919C95.2267 78.9227 73.6742 56.3481 72.7322 50.3867C73.2421 42.7548 102.391 25.3554 87.8496 10.6477C75.7891 -6.87515 60.3299 25.1621 49.2199 24.7031Z" sodipodi:nodetypes="ccccccccc"/><path id="shape051" transform="matrix(0.941662048345099 0.336559930332308 -0.336559930332308 0.941662048345099 777.122496927515 174.547239297151)" fill="#f0a6a6" fill-rule="evenodd" stroke="#f0a6a6" stroke-width="39.9999999999968" stroke-linecap="round" stroke-linejoin="miter" stroke-miterlimit="0" d="M43.2355 21.6996C39.1441 18.6452 18.9134 -10.7351 6.73839 4.21639C-7.80256 15.5008 20.0839 33.7112 20.1951 39.2755C19.9872 44.9138 -7.49253 55.7566 1.98949 67.0611C17.4642 86.5795 31.5852 64.6393 37.9243 63.8339C46.3927 63.9356 58.0346 88.6999 68.76 78.611C83.6485 69.3268 64.7165 49.497 63.889 44.2604C64.3369 37.5564 89.942 22.2725 77.1683 9.35308C66.5743 -6.03917 52.9946 22.1028 43.2355 21.6996Z" sodipodi:nodetypes="ccccccccc"/>
</svg>
