<?xml version="1.0" standalone="no"?>
<!DOCTYPE svg PUBLIC "-//W3C//DTD SVG 20010904//EN" "http://www.w3.org/TR/2001/REC-SVG-20010904/DTD/svg10.dtd">
<!-- Created using Krita: https://krita.org -->
<svg xmlns="http://www.w3.org/2000/svg" 
    xmlns:xlink="http://www.w3.org/1999/xlink"
    xmlns:krita="http://krita.org/namespaces/svg/krita"
    xmlns:sodipodi="http://sodipodi.sourceforge.net/DTD/sodipodi-0.dtd"
    width="1603pt"
    height="1236pt"
    viewBox="0 0 1603 1236">
<defs/>
<path id="shape031" transform="translate(357.841867154069, 274.26184700012)" fill="#facccc" stroke="#876344" stroke-width="39.9999999999968" stroke-linecap="round" stroke-linejoin="miter" stroke-miterlimit="0" d="M852.22 444.429C842.734 631.062 671.16 825.751 411.088 825.751C120.103 812.308 11.6562 650.675 1.36552 462.471C-17.0954 236.95 153.168 3.10339 418.678 0C708.988 7.05459 867.173 233.062 852.22 444.429Z" sodipodi:nodetypes="ccccc"/><path id="shape011" transform="translate(819.974077761952, 551.06912268353)" fill="#f0a6a6" fill-rule="evenodd" stroke="#f0a6a6" stroke-width="39.9999999999968" stroke-linecap="square" stroke-linejoin="bevel" d="M0 10.4061C1.68046 -1.89714 68.9265 -4.46034 73.1988 9.09827C69.3941 17.7191 6.82985 21.5795 0 10.4061Z" sodipodi:nodetypes="ccc"/><path id="shape02" transform="translate(534.575406375552, 553.352314359451)" fill="#f0a6a6" fill-rule="evenodd" stroke="#f0a6a6" stroke-width="39.9999999999968" stroke-linecap="square" stroke-linejoin="bevel" d="M0 13.4744C1.82613 -2.45653 74.9017 -5.77552 79.5443 11.781C75.4098 22.9437 7.42192 27.9424 0 13.4744Z" sodipodi:nodetypes="ccc"/><ellipse id="shape2" transform="translate(588.317437082661, 434.610244795106)" rx="29.2796168125068" ry="64.7710157999099" cx="29.2796168125068" cy="64.7710157999099" fill="#876344" fill-rule="evenodd" stroke-opacity="0" stroke="#000000" stroke-width="0" stroke-linecap="round" stroke-linejoin="miter" stroke-miterlimit="0"/><path id="shape0111" transform="translate(776.647095173638, 430.976456110022)" sodipodi:type="arc" sodipodi:rx="29.3406509630953" sodipodi:ry="64.7710157999099" sodipodi:cx="29.3406509630953" sodipodi:cy="64.7710157999099" sodipodi:start="6.28318530717959" sodipodi:end="0" sodipodi:open="true" d="M58.6813 64.771C58.6813 28.999 45.545 6.02847e-14 29.3407 -1.42109e-14C13.1363 -8.87064e-14 3.4738e-14 28.999 0 64.771C-3.4738e-14 100.543 13.1363 129.542 29.3407 129.542C45.545 129.542 58.6813 100.543 58.6813 64.771Z" fill="#876344" fill-rule="evenodd" stroke-opacity="0" stroke="#000000" stroke-width="0" stroke-linecap="round" stroke-linejoin="miter" stroke-miterlimit="0"/><path id="shape0" transform="translate(254.042728698176, 303.035295422193)" fill="#facccc" fill-rule="evenodd" stroke="#876344" stroke-width="39.9999999999968" stroke-linecap="square" stroke-linejoin="bevel" d="M286.503 43.5466C265.452 21.8564 152.613 -16.2244 87.5227 7.5391C25.7253 30.1005 -20.7015 139.72 9.42217 150.026C35.049 158.793 62.2533 115.803 100.125 127.135C122.357 133.788 144.342 165.654 162.88 177.803C181.846 141.428 243.771 72.524 286.503 43.5466Z" sodipodi:nodetypes="cccccc"/><path id="shape1" transform="translate(983.858670030017, 272.342424099339)" fill="#facccc" fill-rule="evenodd" stroke="#876344" stroke-width="39.9999999999968" stroke-linecap="square" stroke-linejoin="bevel" d="M0 51.4347C23.8539 35.1456 110.326 3.84463 137.598 0.424106C206.81 -8.25696 319.904 119.08 306.23 130.651C279.992 152.852 238.138 133.58 211.669 132.023C182.456 130.304 172.518 163.973 147.971 178.49C119.995 140.539 70.4497 82.2125 0 51.4347Z" sodipodi:nodetypes="cccccc"/><path id="shape3" transform="translate(628.075941714611, 570.686915373963)" fill="none" stroke="#876344" stroke-width="19.9999999999984" stroke-linecap="square" stroke-linejoin="bevel" d="M0.17243 56.315C-6.32291 -11.0205 172.828 -22.7443 175.996 47.3131C181.981 126.679 5.24961 128.199 0.17243 56.315Z" sodipodi:nodetypes="ccc"/><path id="shape4" transform="translate(688.822854345771, 613.46593236766)" fill="none" stroke="#876344" stroke-width="19.9999999999984" stroke-linecap="round" stroke-linejoin="bevel" d="M0.551395 0C-0.646715 6.24109 0.0254063 21.6786 3.3805 25.5482" sodipodi:nodetypes="cc"/><path id="shape5" transform="translate(735.668744197498, 608.407737912358)" fill="none" stroke="#876344" stroke-width="19.9999999999984" stroke-linecap="round" stroke-linejoin="bevel" d="M0 0C0 7.18151 0.796066 19.8531 4.28653 26.8342" sodipodi:nodetypes="cc"/>
</svg>
