<?xml version="1.0" standalone="no"?>
<!DOCTYPE svg PUBLIC "-//W3C//DTD SVG 20010904//EN" "http://www.w3.org/TR/2001/REC-SVG-20010904/DTD/svg10.dtd">
<!-- Created using Krita: https://krita.org -->
<svg xmlns="http://www.w3.org/2000/svg" 
    xmlns:xlink="http://www.w3.org/1999/xlink"
    xmlns:krita="http://krita.org/namespaces/svg/krita"
    xmlns:sodipodi="http://sodipodi.sourceforge.net/DTD/sodipodi-0.dtd"
    width="1603pt"
    height="1236pt"
    viewBox="0 0 1603 1236">
<defs/>
<path id="shape0" transform="translate(182.008522432237, 173.783814769361)" fill="#facccc" fill-rule="evenodd" stroke="#876344" stroke-width="39.9999999999968" stroke-linecap="square" stroke-linejoin="bevel" d="M884.689 346.743C888.869 353.527 1092.58 318.317 1205.64 411.552C1299.45 499.51 1295.68 789.428 1153.95 834.307C865.011 918.525 568.712 869.903 402.343 845.555C111.358 832.112 11.6562 650.675 1.36552 462.471C-17.0954 236.95 153.168 3.10339 418.678 0C708.988 7.05459 899.642 135.376 884.689 346.743Z" sodipodi:nodetypes="ccccccc"/><path id="shape011" transform="translate(644.140731343061, 450.591090926015)" fill="#f0a6a6" fill-rule="evenodd" stroke="#f0a6a6" stroke-width="39.9999999999968" stroke-linecap="square" stroke-linejoin="bevel" d="M0 10.4061C1.68046 -1.89714 68.9265 -4.46034 73.1988 9.09827C69.3941 17.7191 6.82985 21.5795 0 10.4061Z" sodipodi:nodetypes="ccc"/><path id="shape02" transform="translate(358.742059956684, 452.874279276925)" fill="#f0a6a6" fill-rule="evenodd" stroke="#f0a6a6" stroke-width="39.9999999999968" stroke-linecap="square" stroke-linejoin="bevel" d="M0 13.4744C1.82613 -2.45653 74.9017 -5.77552 79.5443 11.781C75.4098 22.9437 7.42192 27.9424 0 13.4744Z" sodipodi:nodetypes="ccc"/><ellipse id="shape2" transform="translate(412.484090663789, 334.132212564334)" rx="29.2796168125068" ry="64.7710157999099" cx="29.2796168125068" cy="64.7710157999099" fill="#876344" fill-rule="evenodd" stroke-opacity="0" stroke="#000000" stroke-width="0" stroke-linecap="round" stroke-linejoin="miter" stroke-miterlimit="0"/><path id="shape0111" transform="translate(600.813748754752, 330.49842387925)" sodipodi:type="arc" sodipodi:rx="29.3406509630953" sodipodi:ry="64.7710157999099" sodipodi:cx="29.3406509630953" sodipodi:cy="64.7710157999099" sodipodi:start="6.28318530717959" sodipodi:end="0" sodipodi:open="true" d="M58.6813 64.771C58.6813 28.999 45.545 6.02847e-14 29.3407 -1.42109e-14C13.1363 -8.87064e-14 3.4738e-14 28.999 0 64.771C-3.4738e-14 100.543 13.1363 129.542 29.3407 129.542C45.545 129.542 58.6813 100.543 58.6813 64.771Z" fill="#876344" fill-rule="evenodd" stroke-opacity="0" stroke="#000000" stroke-width="0" stroke-linecap="round" stroke-linejoin="miter" stroke-miterlimit="0"/><path id="shape01" transform="translate(78.2093785666034, 202.557269744676)" fill="#facccc" fill-rule="evenodd" stroke="#876344" stroke-width="39.9999999999968" stroke-linecap="square" stroke-linejoin="bevel" d="M286.503 43.5466C265.452 21.8564 152.613 -16.2244 87.5227 7.53909C25.7253 30.1005 -20.7015 139.72 9.42217 150.026C35.049 158.793 62.2533 115.803 100.125 127.135C122.357 133.788 144.342 165.654 162.88 177.803C181.846 141.428 243.771 72.524 286.503 43.5466Z" sodipodi:nodetypes="cccccc"/><path id="shape1" transform="translate(801.499999999871, 181.534088906977)" fill="#facccc" fill-rule="evenodd" stroke="#876344" stroke-width="39.9999999999968" stroke-linecap="round" stroke-linejoin="bevel" d="M0 42.6223C27.2831 26.7619 97.8191 3.94839 125.091 0.527869C194.303 -8.1532 316.999 92.9497 303.325 104.521C277.087 126.722 230.089 126.482 203.62 124.925C174.407 123.206 177.329 149.674 158.011 168.906" sodipodi:nodetypes="ccccc"/><path id="shape3" transform="translate(452.242595111026, 470.208877888048)" fill="none" stroke="#876344" stroke-width="19.9999999999984" stroke-linecap="square" stroke-linejoin="bevel" d="M0.17243 56.315C-6.32291 -11.0205 172.828 -22.7443 175.996 47.3131C181.981 126.679 5.24961 128.199 0.17243 56.315Z" sodipodi:nodetypes="ccc"/><path id="shape4" transform="translate(512.989507557518, 512.987900136874)" fill="none" stroke="#876344" stroke-width="19.9999999999984" stroke-linecap="round" stroke-linejoin="bevel" d="M0.551395 0C-0.646715 6.24109 0.0254067 21.6786 3.3805 25.5482" sodipodi:nodetypes="cc"/><path id="shape5" transform="translate(559.835397778614, 507.929705681572)" fill="none" stroke="#876344" stroke-width="19.9999999999984" stroke-linecap="round" stroke-linejoin="bevel" d="M0 0C0 7.18151 0.796066 19.8531 4.28653 26.8342" sodipodi:nodetypes="cc"/><path id="shape6" transform="translate(500.681322191647, 1011.60584847648)" fill="#facccc" fill-rule="evenodd" stroke="#876344" stroke-width="39.9999999999968" stroke-linecap="square" stroke-linejoin="bevel" d="M0 0C1.24734 43.7234 5.17878 154.731 8.74452 161.862C25.5121 195.398 49.1214 136.408 57.5252 133.656C64.386 135.495 86.2668 170.072 96.3611 167.778C110.246 164.622 107.953 47.0853 108.278 13.3742C80.5422 10.5005 29.5758 6.51927 0 0Z" sodipodi:nodetypes="cccccc"/><path id="shape03" transform="translate(416.24040961052, 991.062319177475)" fill="#facccc" fill-rule="evenodd" stroke="#876344" stroke-width="39.9999999999968" stroke-linecap="square" stroke-linejoin="bevel" d="M7.70204 0C8.94938 43.7234 -2.8936 166.991 0.672136 174.122C17.4397 207.658 42.8494 150.039 51.2532 147.287C58.114 149.126 64.9062 181.131 75.0005 178.837C88.8854 175.681 87.7926 55.2299 88.1176 21.5188C57.8956 17.9592 40.2784 10.4629 7.70204 0Z" sodipodi:nodetypes="cccccc"/><path id="shape04" transform="translate(1141.07844968241, 1030.5848125481)" fill="#facccc" fill-rule="evenodd" stroke="#876344" stroke-width="39.9999999999968" stroke-linecap="square" stroke-linejoin="bevel" d="M0 16.2891C1.24734 60.0125 4.57867 154.988 8.14441 162.119C24.912 195.655 47.3211 142.324 55.7249 139.572C62.5857 141.411 82.1517 174.53 92.246 172.236C106.131 169.08 104.095 33.7111 104.42 0C76.3414 1.6701 30.5188 16.6357 0 16.2891Z" sodipodi:nodetypes="cccccc"/><path id="shape05" transform="translate(1055.12352779491, 1047.09283706187)" fill="#facccc" fill-rule="evenodd" stroke="#876344" stroke-width="39.9999999999968" stroke-linecap="square" stroke-linejoin="bevel" d="M0 6.25844C1.24734 49.9818 5.95036 124.81 9.5161 131.941C26.2837 165.477 41.1485 121.405 49.5523 118.653C56.4131 120.492 62.2622 146.581 72.3565 144.287C86.2415 141.131 82.4909 33.7111 82.8159 0C54.7373 1.6701 30.5188 6.60504 0 6.25844Z" sodipodi:nodetypes="cccccc"/><path id="shape7" transform="translate(1427.75709960474, 394.506124929689)" fill="none" stroke="#876344" stroke-width="19.9999999999984" stroke-linecap="round" stroke-linejoin="bevel" d="M0.0143289 242.365C-0.509399 242.539 13.4392 241.242 22.9044 234.392C33.6214 226.636 43.5287 214.774 50.5954 204.3C73.2209 170.762 82.8146 104.632 59.8542 69.5287C46.3225 48.8404 3.21717 162.236 67.1413 162.634C120.69 162.967 136.337 18.634 120.809 0" sodipodi:nodetypes="cccccc"/>
</svg>
