<?xml version="1.0" standalone="no"?>
<!DOCTYPE svg PUBLIC "-//W3C//DTD SVG 20010904//EN" "http://www.w3.org/TR/2001/REC-SVG-20010904/DTD/svg10.dtd">
<!-- Created using Krita: https://krita.org -->
<svg xmlns="http://www.w3.org/2000/svg" 
    xmlns:xlink="http://www.w3.org/1999/xlink"
    xmlns:krita="http://krita.org/namespaces/svg/krita"
    xmlns:sodipodi="http://sodipodi.sourceforge.net/DTD/sodipodi-0.dtd"
    width="1603pt"
    height="1236pt"
    viewBox="0 0 1603 1236">
<defs/>
<path id="shape0" transform="translate(182.008523280733, 173.783814769347)" fill="#facccc" fill-rule="evenodd" stroke="#876344" stroke-width="39.9999999999968" stroke-linecap="square" stroke-linejoin="bevel" d="M879.888 257.667C884.068 264.451 1084.52 263.277 1202.3 356.169C1315.05 464.874 1290.36 776.482 1154.04 832.764C870.155 939.015 562.968 890.907 393.941 872.218C113.073 828.94 11.6562 650.675 1.36552 462.471C-17.0954 236.95 153.168 3.10339 418.678 0C708.988 7.05459 845.46 122.602 879.888 257.667Z" sodipodi:nodetypes="ccccccc"/><path id="shape011" transform="translate(644.140731343009, 450.591091399245)" fill="#f0a6a6" fill-rule="evenodd" stroke="#f0a6a6" stroke-width="39.9999999999968" stroke-linecap="square" stroke-linejoin="bevel" d="M0 10.4061C1.68046 -1.89714 68.9265 -4.46034 73.1988 9.09827C69.3941 17.7191 6.82985 21.5795 0 10.4061Z" sodipodi:nodetypes="ccc"/><path id="shape02" transform="translate(358.742059956655, 452.874276425144)" fill="#f0a6a6" fill-rule="evenodd" stroke="#f0a6a6" stroke-width="39.9999999999968" stroke-linecap="square" stroke-linejoin="bevel" d="M0 13.4744C1.82613 -2.45653 74.9017 -5.77552 79.5443 11.781C75.4098 22.9437 7.42192 27.9424 0 13.4744Z" sodipodi:nodetypes="ccc"/><ellipse id="shape2" transform="translate(412.484090663756, 334.132212564307)" rx="29.2796168125068" ry="64.7710157999099" cx="29.2796168125068" cy="64.7710157999099" fill="#876344" fill-rule="evenodd" stroke-opacity="0" stroke="#000000" stroke-width="0" stroke-linecap="round" stroke-linejoin="miter" stroke-miterlimit="0"/><path id="shape0111" transform="translate(600.813748754704, 330.498423879223)" sodipodi:type="arc" sodipodi:rx="29.3406509630953" sodipodi:ry="64.7710157999099" sodipodi:cx="29.3406509630953" sodipodi:cy="64.7710157999099" sodipodi:start="6.28318530717959" sodipodi:end="0" sodipodi:open="true" d="M58.6813 64.771C58.6813 28.999 45.545 6.02847e-14 29.3407 -1.42109e-14C13.1363 -8.87064e-14 3.4738e-14 28.999 0 64.771C-3.4738e-14 100.543 13.1363 129.542 29.3407 129.542C45.545 129.542 58.6813 100.543 58.6813 64.771Z" fill="#876344" fill-rule="evenodd" stroke-opacity="0" stroke="#000000" stroke-width="0" stroke-linecap="round" stroke-linejoin="miter" stroke-miterlimit="0"/><path id="shape01" transform="translate(78.2093748538701, 202.557271621505)" fill="#facccc" fill-rule="evenodd" stroke="#876344" stroke-width="39.9999999999968" stroke-linecap="square" stroke-linejoin="bevel" d="M286.503 43.5466C265.452 21.8564 152.613 -16.2244 87.5227 7.53909C25.7253 30.1005 -20.7015 139.72 9.42217 150.026C35.049 158.793 62.2533 115.803 100.125 127.135C122.357 133.788 144.342 165.654 162.88 177.803C181.846 141.428 243.771 72.524 286.503 43.5466Z" sodipodi:nodetypes="cccccc"/><path id="shape1" transform="translate(801.499999999807, 181.534088534861)" fill="#facccc" fill-rule="evenodd" stroke="#876344" stroke-width="39.9999999999968" stroke-linecap="round" stroke-linejoin="bevel" d="M0 42.6223C27.2831 26.7619 97.8191 3.94839 125.091 0.527869C194.303 -8.1532 316.999 92.9497 303.325 104.521C277.087 126.722 230.089 126.482 203.62 124.925C174.407 123.206 177.329 149.674 158.011 168.906" sodipodi:nodetypes="ccccc"/><path id="shape3" transform="translate(452.24259492628, 470.208872632878)" fill="none" stroke="#876344" stroke-width="19.9999999999984" stroke-linecap="square" stroke-linejoin="bevel" d="M0.17243 56.315C-6.32291 -11.0205 172.828 -22.7443 175.996 47.3131C181.981 126.679 5.24961 128.199 0.17243 56.315Z" sodipodi:nodetypes="ccc"/><path id="shape4" transform="translate(512.989507263968, 512.987900136833)" fill="none" stroke="#876344" stroke-width="19.9999999999984" stroke-linecap="round" stroke-linejoin="bevel" d="M0.551395 0C-0.646715 6.24109 0.025407 21.6786 3.3805 25.5482" sodipodi:nodetypes="cc"/><path id="shape5" transform="translate(559.835397778569, 507.929705681531)" fill="none" stroke="#876344" stroke-width="19.9999999999984" stroke-linecap="round" stroke-linejoin="bevel" d="M0 0C0 7.18151 0.796066 19.8531 4.28653 26.8342" sodipodi:nodetypes="cc"/><path id="shape6" transform="translate(501.795819267884, 1033.72473270467)" fill="#facccc" fill-rule="evenodd" stroke="#876344" stroke-width="39.9999999999968" stroke-linecap="square" stroke-linejoin="bevel" d="M0 0C1.24734 43.7234 6.6362 146.929 10.2019 154.06C26.9695 187.596 46.8924 126.635 55.2962 123.883C62.157 125.722 85.3238 163.042 95.4181 160.748C109.303 157.592 107.439 50.8575 107.764 17.1464C80.0278 14.2727 29.5758 6.51927 0 0Z" sodipodi:nodetypes="cccccc"/><path id="shape03" transform="translate(415.921609332429, 1002.20749340094)" fill="#facccc" fill-rule="evenodd" stroke="#876344" stroke-width="39.9999999999968" stroke-linecap="square" stroke-linejoin="bevel" d="M3.47712 0C4.72446 43.7234 -2.5748 155.846 0.990936 162.977C17.7585 196.513 43.1682 138.894 51.572 136.142C58.4328 137.981 65.225 169.986 75.3193 167.692C89.2042 164.536 86.7397 60.8882 87.0647 27.1771C56.8427 23.6175 36.0535 10.4629 3.47712 0Z" sodipodi:nodetypes="cccccc"/><path id="shape04" transform="translate(1141.24991077098, 1035.30007856567)" fill="#facccc" fill-rule="evenodd" stroke="#876344" stroke-width="39.9999999999968" stroke-linecap="square" stroke-linejoin="bevel" d="M0 24.005C1.24734 67.7284 4.40721 150.273 7.97295 157.404C24.7405 190.94 47.1496 137.609 55.5534 134.857C62.4142 136.696 81.9802 169.815 92.0745 167.521C105.96 164.365 105.552 33.7111 105.877 0C77.7988 1.6701 30.5188 24.3516 0 24.005Z" sodipodi:nodetypes="cccccc"/><path id="shape05" transform="translate(1055.72364160513, 1059.09533237945)" fill="#facccc" fill-rule="evenodd" stroke="#876344" stroke-width="39.9999999999968" stroke-linecap="square" stroke-linejoin="bevel" d="M0 9.94492C1.24734 53.6683 5.35025 112.808 8.91599 119.939C25.6836 153.475 40.5484 109.403 48.9522 106.651C55.813 108.49 61.6621 134.579 71.7564 132.285C85.6414 129.129 83.2625 33.7111 83.5875 0C55.5089 1.6701 30.5188 10.2915 0 9.94492Z" sodipodi:nodetypes="cccccc"/><path id="shape7" transform="translate(1435.39585288008, 394.506124929657)" fill="none" stroke="#876344" stroke-width="19.9999999999984" stroke-linecap="round" stroke-linejoin="bevel" d="M0.00559407 241.679C-0.518134 241.853 35.8899 214.774 42.9566 204.3C65.5821 170.762 75.1758 104.632 52.2154 69.5287C38.6837 48.8404 -4.42158 162.236 59.5025 162.634C113.051 162.967 128.698 18.634 113.17 0" sodipodi:nodetypes="ccccc"/><path id="shape8" transform="translate(277.353254214539, 518.28836229564)" fill="none" stroke="#876344" stroke-width="19.9999999999984" stroke-linecap="round" stroke-linejoin="bevel" d="M0 0.186392C144.906 -7.03681 193.544 197.915 18.8607 226.09" sodipodi:nodetypes="cc"/><path id="shape9" transform="translate(694.117122452412, 474.837116359512)" fill="none" stroke="#876344" stroke-width="19.9999999999984" stroke-linecap="round" stroke-linejoin="bevel" d="M139.189 0C-90.1672 24.0504 0.0421002 272.291 151.191 253.081" sodipodi:nodetypes="cc"/><path id="shape10" transform="translate(452.35504681626, 617.99999999995)" fill="none" stroke="#876344" stroke-width="19.9999999999984" stroke-linecap="round" stroke-linejoin="bevel" d="M0.0599789 58.4095C-0.909189 50.7458 10.0101 10.808 22.4357 13.9145C35.5164 17.1848 67.4266 52.2997 76.2744 51.3794C91.8346 34.4642 79.4197 12.1776 111.081 -1.13687e-13C135.667 4.76892 137.778 27.7252 157.118 38.7768C164.914 43.2313 190.305 11.0335 192.697 -1.13687e-13" sodipodi:nodetypes="cccccc"/>
</svg>
