<?xml version="1.0" standalone="no"?>
<!DOCTYPE svg PUBLIC "-//W3C//DTD SVG 20010904//EN" "http://www.w3.org/TR/2001/REC-SVG-20010904/DTD/svg10.dtd">
<!-- Created using Krita: https://krita.org -->
<svg xmlns="http://www.w3.org/2000/svg" 
    xmlns:xlink="http://www.w3.org/1999/xlink"
    xmlns:krita="http://krita.org/namespaces/svg/krita"
    xmlns:sodipodi="http://sodipodi.sourceforge.net/DTD/sodipodi-0.dtd"
    width="1479pt"
    height="1480pt"
    viewBox="0 0 1479 1480">
<defs/>
<path id="shape0" transform="translate(276.105879940521, 261.727072019151)" fill="#fdfaf0" fill-rule="evenodd" stroke="#fdfaf0" stroke-width="39.9999999999968" stroke-linecap="square" stroke-linejoin="bevel" d="M203.574 217.989C188.942 188.727 62.4921 51.9806 43.3539 61.5498C2.61474 138.803 23.7699 170.29 28.4713 242.92C37.54 289.486 50.406 379.757 49.7442 401.335C27.0054 447.245 7.09846 500.423 2.48965 547.221C-0.540739 577.992 -0.56975 598.783 1.14433 628.951C2.86785 659.286 -4.90632 659.789 9.38445 687.895C17.7952 704.436 35.8402 705.321 47.1377 719.847C61.2556 737.999 52.5245 766.023 69.0833 784.508C74.8395 790.933 125.282 798.651 132.314 803.258C154.424 817.745 152.679 855.992 164.013 879.187C168.717 888.815 198.707 963.407 209.754 964.112C229.634 965.381 235.256 922.735 254.402 912.82C266.93 906.333 339.008 913.296 360.683 915.595C383.086 917.971 384.223 961.988 416.031 955.956C449.259 949.654 430.122 903.499 446.868 901.049C475.71 896.828 484.401 912.415 509.173 918.37C549.943 928.171 551.372 882.559 585.688 874.31C601.806 870.435 639.846 877.616 654.216 866.994C660.638 859.78 673.113 821.016 685.831 809.397C703.508 793.247 752.26 789.367 763.524 768.447C783.781 730.827 758.08 699.153 763.356 666.621C768.197 636.766 792.144 609.304 796.316 580.098C801.212 545.829 758.348 516.084 747.8 484.831C741.935 467.453 758.856 432.421 749.482 415.041C720.328 360.984 688.987 381.189 677.423 359.713C669.685 345.343 698.825 317.979 662.792 272.938C611.415 246.595 559.003 226.169 521.113 207.857C524.979 163.552 542.521 46.4783 506.567 0C448.405 5.48575 366.865 92.5838 311.41 204.577C284.625 214.209 219.296 220.328 203.574 217.989Z" sodipodi:nodetypes="ccccccccccccccccccccccccccccccc"/><path id="shape1" transform="translate(393.91477034151, 472.633093966166)" fill="#facccc" fill-rule="evenodd" stroke="#facccc" stroke-width="19.9999999999984" stroke-linecap="round" stroke-linejoin="miter" stroke-miterlimit="0" d="M57.5959 43.2714C57.1152 38.057 44.6211 -14.4516 8.27622 3.85933C-16.0459 41.8996 20.5106 53.6342 25.322 59.9152C20.7834 67.8873 -13.3475 80.451 12.9628 105.201C43.4037 127.401 58.2051 92.8729 60.1619 88.7593C66.5273 92.8544 82.9094 121.98 103.528 98.1231C118.407 79.9514 88.5406 50.0129 87.3434 54.3712C87.2211 59.7076 131.924 42.6421 111.717 10.0155C81.9644 -16.6572 60.8543 38.2932 57.5959 43.2714Z" sodipodi:nodetypes="ccccccccc"/><path id="shape01" transform="translate(537.947138916867, 431.697421412703)" fill="#facccc" fill-rule="evenodd" stroke="#facccc" stroke-width="19.9999999999984" stroke-linecap="round" stroke-linejoin="miter" stroke-miterlimit="0" d="M57.5959 43.2714C57.1152 38.057 44.6211 -14.4516 8.27623 3.85932C-16.0459 41.8996 20.5106 53.6342 25.322 59.9152C20.7834 67.8873 -13.3475 80.451 12.9628 105.201C43.4037 127.401 58.2051 92.8729 60.1619 88.7593C66.5273 92.8544 82.9094 121.98 103.528 98.1231C118.407 79.9514 88.5406 50.0129 87.3434 54.3712C87.2211 59.7076 131.924 42.6421 111.717 10.0155C81.9644 -16.6572 60.8543 38.2932 57.5959 43.2714Z" sodipodi:nodetypes="ccccccccc"/><path id="shape02" transform="matrix(0.987080172745681 0.160227128078755 -0.160227128078755 0.987080172745681 693.088927237835 426.140092463782)" fill="#facccc" fill-rule="evenodd" stroke="#facccc" stroke-width="19.9999999999984" stroke-linecap="round" stroke-linejoin="miter" stroke-miterlimit="0" d="M44.563 36.9752C44.1911 32.5195 34.5242 -12.3488 6.40347 3.29777C-12.415 35.803 15.8694 45.8302 19.5921 51.1973C16.0805 58.0094 -10.3272 68.745 10.0296 89.8938C33.5822 108.864 45.0343 79.3595 46.5484 75.8444C51.4734 79.3437 64.1485 104.231 80.1015 83.8457C91.6137 68.3181 68.5055 42.7358 67.5792 46.4599C67.4846 51.0199 102.072 36.4375 86.4375 8.55819C63.4173 -14.2335 47.0841 32.7214 44.563 36.9752Z" sodipodi:nodetypes="ccccccccc"/><path id="shape03" transform="matrix(0.996294130435972 -0.0860116600160304 0.0860116600160304 0.996294130435972 801.12623205974 429.303270100001)" fill="#facccc" fill-rule="evenodd" stroke="#facccc" stroke-width="19.9999999999984" stroke-linecap="round" stroke-linejoin="miter" stroke-miterlimit="0" d="M38.4965 33.3313C38.1753 29.3147 29.8243 -11.1318 5.53175 2.97276C-10.7249 32.2746 13.7091 41.3136 16.925 46.1518C13.8914 52.2926 -8.92133 61.9702 8.66425 81.0347C29.0106 98.1354 38.9037 71.5386 40.2117 68.3699C44.4662 71.5244 55.4158 93.959 69.1971 75.5827C79.1421 61.5853 59.1797 38.5242 58.3795 41.8813C58.2978 45.9919 88.1767 32.8466 74.6706 7.71477C54.7842 -12.8308 40.6744 29.4967 38.4965 33.3313Z" sodipodi:nodetypes="ccccccccc"/><path id="shape04" transform="matrix(0.997345221756823 0.0728183262567991 -0.0728183262567991 0.997345221756823 267.014325538263 515.226237979216)" fill="#facccc" fill-rule="evenodd" stroke="#facccc" stroke-width="19.9999999999984" stroke-linecap="round" stroke-linejoin="miter" stroke-miterlimit="0" d="M54.1218 40.3324C53.6701 35.4722 41.9296 -13.4701 7.77701 3.5972C-15.078 39.0538 19.2734 49.9914 23.7946 55.8458C19.5298 63.2764 -12.5424 74.9868 12.1809 98.0558C40.7856 118.748 54.6942 86.565 56.533 82.7308C62.5144 86.5478 77.9084 113.695 97.2833 91.4586C111.265 74.5211 83.1999 46.616 82.0749 50.6783C81.96 55.6523 123.966 39.7459 104.978 9.33524C77.0204 -15.5259 57.1836 35.6923 54.1218 40.3324Z" sodipodi:nodetypes="ccccccccc"/><path id="shape2" transform="translate(277.845490873377, 312.103026563833)" fill="none" stroke="#876344" stroke-width="39.9999999999968" stroke-linecap="round" stroke-linejoin="miter" stroke-miterlimit="0" d="M3.4198 170.187C-12.7441 66.0538 33.0118 2.84796 44.4896 0.00786581C55.7938 -0.685797 135.876 44.5145 196.306 129.666" sodipodi:nodetypes="ccc"/><path id="shape3" transform="translate(593.288703992263, 244.047936556144)" fill="none" stroke="#876344" stroke-width="39.9999999999968" stroke-linecap="round" stroke-linejoin="miter" stroke-miterlimit="0" d="M0 157.967C62.6912 46.0024 167.898 -3.89819 195.494 0.236879C221.38 4.11582 233.358 97.2075 224.797 149.608" sodipodi:nodetypes="ccc"/><path id="shape4" transform="translate(258.146723149871, 665.098511426723)" fill="none" stroke="#876344" stroke-width="39.9999999999968" stroke-linecap="round" stroke-linejoin="miter" stroke-miterlimit="0" d="M35.482 0C5.17979 75.2883 10.8213 147.911 14.7573 181.19C11.4569 192.463 -3.35169 217.266 0.694724 259.755C6.67775 295.379 55.2481 309.601 57.9713 312.23C58.4118 319.261 53.5246 353.232 67.7389 378.542C86.1172 408.816 124.726 413.437 132.492 414.389" sodipodi:nodetypes="cccccc"/><path id="shape5" transform="translate(738.095968705593, 492.456193396382)" fill="none" stroke="#876344" stroke-width="39.9999999999968" stroke-linecap="round" stroke-linejoin="miter" stroke-miterlimit="0" d="M174.24 0C239.363 17.4138 250.952 89.2752 213.486 130.198C210.934 133.004 266.09 128.03 291.974 181.033C304.806 214.055 284.944 250.747 286.376 253.947C298.202 264.488 333.812 275.56 339.55 335.166C343.776 377.73 304.051 423.894 303.147 427.102C302.814 428.284 343.385 481.062 308.563 535.984C285.432 573.939 234.339 574.124 228.984 575.743C224.595 579.318 223.731 619.312 193.963 644.168C154.046 661.157 129.232 639.383 121.672 642.153C115.595 644.785 102.99 679.165 70.7538 688.79C38.5282 695.84 9.3451 685.775 0 677.725" sodipodi:nodetypes="cccccccccccc"/><path id="shape6" transform="translate(408.34287376118, 1054.99488503646)" fill="none" stroke="#876344" stroke-width="39.9999999999968" stroke-linecap="round" stroke-linejoin="miter" stroke-miterlimit="0" d="M0 0C0.35866 13.5518 28.8602 184.918 86.8066 180.887C139.961 174.249 116.73 25.4248 117.864 14.5473" sodipodi:nodetypes="ccc"/><path id="shape7" transform="translate(634.232041764114, 1055.70609352546)" fill="none" stroke="#876344" stroke-width="39.9999999999968" stroke-linecap="round" stroke-linejoin="miter" stroke-miterlimit="0" d="M0 12.1074C0.636691 21.8303 -3.11744 166.874 48.9049 169.013C105.273 167.986 99.4519 9.40794 100.054 0" sodipodi:nodetypes="ccc"/><path id="shape8" transform="translate(543.43242525723, 1179.09768266101)" fill="none" stroke="#876344" stroke-width="39.9999999999968" stroke-linecap="round" stroke-linejoin="miter" stroke-miterlimit="0" d="M0 0C12.2505 5.07422 62.3077 9.44807 85.3309 3.21853" sodipodi:nodetypes="cc"/><path id="shape9" transform="translate(1064.37408070338, 465.215975767977)" fill="#fdfaf0" fill-rule="evenodd" stroke="#876344" stroke-width="39.9999999999968" stroke-linecap="round" stroke-linejoin="miter" stroke-miterlimit="0" d="M0 446.839C188.623 388.616 -72.1402 217.299 134.118 33.0078C175.637 -9.41928 265.992 -1.12187 266.157 5.08318C264.507 11.1196 242.89 83.1234 243.975 97.8722C247.616 114.061 264.499 137.251 265.01 155.236C272.518 200.298 220.352 232.151 202.449 294.071C192.461 347.026 199.937 403.098 160.946 468.946C129.245 513.253 90.5088 546.933 12.2857 518.576" sodipodi:nodetypes="cccccccc"/><path id="shape10" transform="translate(393.512066082815, 875.748741564594)" fill="none" stroke="#876344" stroke-width="29.9999999999976" stroke-linecap="round" stroke-linejoin="miter" stroke-miterlimit="0" d="M0.297429 0C-5.83521 79.9891 84.8963 65.8573 85.3101 69.4965C98.0764 123.221 146.553 100.417 149.492 101.82C150.563 103.77 187.943 158.714 236.459 111.652" sodipodi:nodetypes="cccc"/><path id="shape11" transform="translate(479.461345974676, 773.137481895239)" fill="#facccc" fill-rule="evenodd" stroke="#876344" stroke-width="29.9999999999976" stroke-linecap="round" stroke-linejoin="miter" stroke-miterlimit="0" d="M0 0C13.5523 46.9737 33.796 4.53061 36.1743 4.28112C42.5829 8.25769 48.6339 41.562 67.4038 2.49548" sodipodi:nodetypes="ccc"/><ellipse id="shape12" transform="matrix(0.997463869273887 -0.0711746408011631 0.0711746408011631 0.997463869273887 543.466123069637 634.996090318537)" rx="6.56011218032329" ry="40.4261171393395" cx="6.56011218032329" cy="40.4261171393395" fill="none" stroke="#876344" stroke-width="39.9999999999968" stroke-linecap="round" stroke-linejoin="miter" stroke-miterlimit="0"/><ellipse id="shape05" transform="matrix(0.997463869273887 -0.0711746408011631 0.0711746408011631 0.997463869273887 435.509993271405 642.579795079076)" rx="6.56011218032329" ry="40.4261171393395" cx="6.56011218032329" cy="40.4261171393395" fill="none" stroke="#876344" stroke-width="39.9999999999968" stroke-linecap="round" stroke-linejoin="miter" stroke-miterlimit="0"/><path id="shape13" transform="translate(609.621288812001, 698.932001415698)" fill="none" stroke="#876344" stroke-width="19.9999999999984" stroke-linecap="round" stroke-linejoin="miter" stroke-miterlimit="0" d="M0 11.6754L33.3963 0" sodipodi:nodetypes="cc"/><path id="shape14" transform="translate(615.361234149585, 738.019510397509)" fill="none" stroke="#876344" stroke-width="19.9999999999984" stroke-linecap="round" stroke-linejoin="miter" stroke-miterlimit="0" d="M0 0L33.9272 2.2941" sodipodi:nodetypes="cc"/><path id="shape15" transform="translate(358.292815076067, 740.48831402351)" fill="none" stroke="#876344" stroke-width="19.9999999999984" stroke-linecap="round" stroke-linejoin="miter" stroke-miterlimit="0" d="M38.4887 0.40721L0 0" sodipodi:nodetypes="cc"/><path id="shape16" transform="translate(371.735914563613, 772.428665252502)" fill="none" stroke="#876344" stroke-width="19.9999999999984" stroke-linecap="round" stroke-linejoin="miter" stroke-miterlimit="0" d="M33.5658 0L0 13.3798" sodipodi:nodetypes="cc"/><path id="shape17" transform="matrix(0.988877873300665 -0.148729794245649 0.148729794245649 0.988877873300665 444.424836804374 812.681695975268)" fill="#89d5d5" fill-rule="evenodd" stroke="#89d5d5" stroke-width="19.9999999999984" stroke-linecap="round" stroke-linejoin="bevel" d="M156.789 50.4793C154.761 47.7379 113.14 1.22228 63.7736 0C26.0968 1.27398 3.5757 29.9984 0.0147815 35.0195C-0.62452 39.7789 19.4573 73.2389 63.4236 78.3516C107.049 79.8818 148.493 64.2688 153.494 59.7236C155.217 63.3405 180.484 86.1296 184.774 86.7028C189.225 84.8893 191.288 44.6025 188.982 41.1242C184.786 41.5282 158.942 49.7794 156.789 50.4793Z" sodipodi:nodetypes="cccccccc"/>
</svg>
