<?xml version="1.0" standalone="no"?>
<!DOCTYPE svg PUBLIC "-//W3C//DTD SVG 20010904//EN" "http://www.w3.org/TR/2001/REC-SVG-20010904/DTD/svg10.dtd">
<!-- Created using Krita: https://krita.org -->
<svg xmlns="http://www.w3.org/2000/svg" 
    xmlns:xlink="http://www.w3.org/1999/xlink"
    xmlns:krita="http://krita.org/namespaces/svg/krita"
    xmlns:sodipodi="http://sodipodi.sourceforge.net/DTD/sodipodi-0.dtd"
    width="1603pt"
    height="1236pt"
    viewBox="0 0 1603 1236">
<defs/>
<path id="shape03" transform="translate(181.108103708088, 257.161482367576)" fill="#fdfaf0" stroke="#876344" stroke-width="39.9999999999968" stroke-linecap="round" stroke-linejoin="miter" stroke-miterlimit="0" d="M360.514 842.487C365.938 843.728 376.766 945.85 429.018 950.053C471.368 939.577 488.3 845.283 489.949 845.866C569.208 851.47 706.901 853.64 793.353 845.86C802.775 848.045 830.169 952.594 876.199 951.094C917.802 946.681 926.313 842.044 933.851 838.169C963.123 833.528 972.163 828.219 1004.67 806.039C1025 788.084 1036.71 847.63 1041.53 809.913C1043.56 785.356 1052.09 750.833 1058.7 717.343C1065.32 683.853 1080.38 756.33 1090.83 717.086C1091.11 711.914 1090.73 663.266 1086.36 610.297C1084.24 584.426 1117.13 646.449 1116.12 603.677C1120.95 576.499 1097.83 552.884 1101.38 501.823C1086.96 55.1208 735.95 -4.67398 417.56 0.267098C151.798 3.7884 -17.4194 251.158 1.42842 477.646C10.9835 573.32 26.2416 623.83 22.6063 644.963C26.7307 720.054 66.1954 637.159 79.256 660.234C77.0062 704.632 109.826 788.86 118.896 803.402C126.358 824.308 143.403 760.195 143.947 761.749C152.247 796.762 190.326 836.053 209.241 849.984C248.377 880.94 208.184 809.086 265.079 833.887C286.66 837.559 355.089 841.247 360.514 842.487Z" sodipodi:nodetypes="cccccccccccccccccccccc"/><path id="shape1" transform="translate(31.5265330221956, 361.799914592323)" fill="#8d7663" stroke="#876344" stroke-width="39.9999999999968" stroke-linecap="square" stroke-linejoin="bevel" d="M292.882 0.187318C276.868 -1.57526 222.075 9.12998 187.541 31.0766C133.563 59.9937 106.358 143.948 89.2668 199.506C77.0633 232.707 59.062 251.145 35.5948 277.838C21.8635 296.539 62.5577 265.618 54.1678 295.147C47.6156 318.787 29.4197 351.424 2.03881 375.97C-8.98792 390.96 28.6343 373.694 21.6683 390.174C26.1383 408.269 26.6703 469.369 22.096 490.575C16.0125 506.046 51.706 485.647 56.7778 489.544C61.0195 496.03 96.2434 535.832 103.487 533.467C117.371 525.769 127.622 475.201 160.996 457.898C128.201 229.944 184.947 125.096 292.882 0.187318Z" sodipodi:nodetypes="cccccccccccc"/><path id="shape4" transform="matrix(0.922102122475984 0.386946605780652 -0.386946605780652 0.922102122475984 763.614992741021 292.627636174222)" fill="#8d7663" fill-rule="evenodd" stroke="#876344" stroke-width="39.9999999999968" stroke-linecap="square" stroke-linejoin="bevel" d="M37.1624 7.75395C91.5774 -26.8722 184.374 62.1121 284.316 123.795C366.432 182.712 542.749 182.309 548.358 272.615C538.374 333.017 527.799 379.022 466.788 406.226C440.673 418.001 410.637 402.513 390.52 397.351C370.402 392.189 391.764 432.008 369.586 414.759C340.823 401.432 314.143 360.179 284.538 346.44C270.49 339.192 286.562 392.662 261.515 367.513C242.329 351.907 211.503 309.47 196.391 300.188C166.206 280.257 202.038 347.441 174.64 318.262C25.9484 182.672 -50.6378 62.471 37.1624 7.75395Z" sodipodi:nodetypes="ccccccccccc"/><path id="shape2" transform="translate(1263.90867385005, 434.531181780916)" fill="#fdfaf0" fill-rule="evenodd" stroke="#876344" stroke-width="39.9999999999968" stroke-linecap="square" stroke-linejoin="bevel" d="M0 183.469C63.0044 179.157 237.693 69.6831 291.634 0.0128864C294.604 -1.4661 337.974 124.783 267.874 162.44C282.289 214.354 247.055 275.628 175.778 254.871C134.754 341.021 35.5924 306.898 15.2619 276.557C14.5211 258.323 8.52856 226.345 0 183.469Z" sodipodi:nodetypes="cccccc"/><path id="shape011" transform="translate(584.382531261172, 583.981197821998)" fill="#f0a6a6" fill-rule="evenodd" stroke="#f0a6a6" stroke-width="39.9999999999968" stroke-linecap="square" stroke-linejoin="bevel" d="M0 19.1399C1.99477 -3.4894 81.8185 -8.20389 86.8899 16.7344C82.3736 32.5906 8.1073 39.6911 0 19.1399Z" sodipodi:nodetypes="ccc"/><path id="shape02" transform="translate(285.084326604516, 594.900725232431)" fill="#f0a6a6" fill-rule="evenodd" stroke="#f0a6a6" stroke-width="39.9999999999968" stroke-linecap="square" stroke-linejoin="bevel" d="M0 13.4744C1.82613 -2.45653 74.9017 -5.77552 79.5443 11.781C75.4098 22.9437 7.42192 27.9424 0 13.4744Z" sodipodi:nodetypes="ccc"/><ellipse id="shape21" transform="translate(356.142584207866, 474.987505823154)" rx="29.2796168125068" ry="64.7710157999099" cx="29.2796168125068" cy="64.7710157999099" fill="#876344" fill-rule="evenodd" stroke-opacity="0" stroke="#000000" stroke-width="0" stroke-linecap="round" stroke-linejoin="miter" stroke-miterlimit="0"/><ellipse id="shape0111" transform="translate(545.924790402305, 466.553413634916)" rx="29.3406509630953" ry="64.7710157999099" cx="29.3406509630953" cy="64.7710157999099" fill="#876344" fill-rule="evenodd" stroke-opacity="0" stroke="#000000" stroke-width="0" stroke-linecap="round" stroke-linejoin="miter" stroke-miterlimit="0"/><path id="shape3" transform="translate(400.837289388235, 696.015038046135)" fill="none" stroke="#876344" stroke-width="19.9999999999984" stroke-linecap="round" stroke-linejoin="miter" stroke-miterlimit="0" d="M0 19.093C1.52651 23.0781 19.6382 33.2241 39.5892 29.611C62.5751 27.3265 75.2507 1.55881 76.7355 0.000262254C77.3432 -0.101011 101.682 29.1629 126.394 28.6064C150.233 33.1683 178.242 21.4533 178.997 7.97305" sodipodi:nodetypes="ccccc"/><path id="shape6" transform="translate(636.219856222572, 583.960059502851)" fill="none" stroke="#876344" stroke-width="19.9999999999984" stroke-linecap="round" stroke-linejoin="miter" stroke-miterlimit="0" d="M0 15.5828L96.0287 0" sodipodi:nodetypes="cc"/><path id="shape021" transform="translate(636.219856222573, 632.62423164885)" fill="none" stroke="#876344" stroke-width="19.9999999999984" stroke-linecap="round" stroke-linejoin="miter" stroke-miterlimit="0" d="M0 0L96.405 15.0492" sodipodi:nodetypes="cc"/><path id="shape031" transform="translate(237.000698047169, 592.987752991718)" fill="none" stroke="#876344" stroke-width="19.9999999999984" stroke-linecap="round" stroke-linejoin="miter" stroke-miterlimit="0" d="M0 0L82.3674 10.7799" sodipodi:nodetypes="cc"/><path id="shape04" transform="translate(235.76803152942, 634.865629501888)" fill="none" stroke="#876344" stroke-width="19.9999999999984" stroke-linecap="round" stroke-linejoin="miter" stroke-miterlimit="0" d="M0 9.2856L83.9683 0" sodipodi:nodetypes="cc"/><path id="shape5" transform="translate(441.510379675675, 609.493814453463)" fill="#8d7663" fill-rule="evenodd" stroke="#876344" stroke-width="19.9999999999984" stroke-linecap="square" stroke-linejoin="bevel" d="M40.6942 56.5682C28.2189 57.9545 -5.04056 34.7021 0.648768 14.1745C5.47877 -3.25255 65.8124 -3.61196 75.7322 7.66238C85.0871 28.9681 53.6761 56.7714 40.6942 56.5682Z" sodipodi:nodetypes="cccc"/><path id="shape7" transform="translate(446.941287928139, 1091.06888507141)" fill="#fdfaf0" fill-rule="evenodd" stroke="#876344" stroke-width="39.9999999999968" stroke-linecap="square" stroke-linejoin="bevel" d="M93.5994 9.49648C78.5653 7.15629 31.6147 5.18959 0 0C1.82173 28.5969 32.9598 104.884 43.0371 108.176C67.0871 107.183 96.7826 69.3067 106.648 57.1471C103.581 44.6381 97.2162 15.3318 93.5994 9.49648Z" sodipodi:nodetypes="ccccc"/><path id="shape8" transform="translate(897.467499085093, 1102.54595095319)" fill="#fdfaf0" fill-rule="evenodd" stroke="#876344" stroke-width="39.9999999999968" stroke-linecap="square" stroke-linejoin="bevel" d="M78.7949 0C44.7229 2.69553 27.2879 1.34138 0.00143096 5.64092C-0.256322 37.2027 34.3717 93.8746 51.3002 92.7382C76.9796 89.0477 89.9264 58.0089 104.426 56.3885C95.6242 46.8458 85.4887 11.5181 78.7949 0Z" sodipodi:nodetypes="ccccc"/>
</svg>
