<?xml version="1.0" standalone="no"?>
<!DOCTYPE svg PUBLIC "-//W3C//DTD SVG 20010904//EN" "http://www.w3.org/TR/2001/REC-SVG-20010904/DTD/svg10.dtd">
<!-- Created using Krita: https://krita.org -->
<svg xmlns="http://www.w3.org/2000/svg" 
    xmlns:xlink="http://www.w3.org/1999/xlink"
    xmlns:krita="http://krita.org/namespaces/svg/krita"
    xmlns:sodipodi="http://sodipodi.sourceforge.net/DTD/sodipodi-0.dtd"
    width="1603pt"
    height="1236pt"
    viewBox="0 0 1603 1236">
<defs/>
<path id="shape03" transform="translate(181.108101550361, 257.161482368917)" fill="#fdfaf0" stroke="#876344" stroke-width="39.9999999999968" stroke-linecap="round" stroke-linejoin="miter" stroke-miterlimit="0" d="M360.514 842.487C365.938 843.728 376.766 945.85 429.018 950.053C471.368 939.577 488.3 845.283 489.949 845.866C569.208 851.47 706.901 853.64 793.353 845.86C802.775 848.045 830.169 952.594 876.199 951.094C917.802 946.681 926.313 842.044 933.851 838.169C963.123 833.528 972.163 828.219 1004.67 806.039C1025 788.084 1036.71 847.63 1041.53 809.913C1043.56 785.356 1052.09 750.833 1058.7 717.343C1065.32 683.853 1080.38 756.33 1090.83 717.086C1091.11 711.914 1090.73 663.266 1086.36 610.297C1084.24 584.426 1117.13 646.449 1116.12 603.677C1120.95 576.499 1097.83 552.884 1101.38 501.823C1086.96 55.1208 735.95 -4.67398 417.56 0.267098C151.798 3.7884 -17.4194 251.158 1.42842 477.646C10.9835 573.32 26.2416 623.83 22.6063 644.963C26.7307 720.054 66.1954 637.159 79.256 660.234C77.0062 704.632 109.826 788.86 118.896 803.402C126.358 824.308 143.403 760.195 143.947 761.749C152.247 796.762 190.326 836.053 209.241 849.984C248.377 880.94 208.184 809.086 265.079 833.887C286.66 837.559 355.089 841.247 360.514 842.487Z" sodipodi:nodetypes="cccccccccccccccccccccc"/><path id="shape1" transform="translate(31.5265340551156, 361.799915165405)" fill="#8d7663" stroke="#876344" stroke-width="39.9999999999968" stroke-linecap="square" stroke-linejoin="bevel" d="M292.882 0.187317C276.868 -1.57526 222.075 9.12998 187.541 31.0766C133.563 59.9937 106.358 143.948 89.2668 199.506C77.0633 232.707 59.062 251.145 35.5948 277.838C21.8635 296.539 62.5577 265.618 54.1678 295.147C47.6156 318.787 29.4197 351.424 2.03881 375.97C-8.98792 390.96 28.6343 373.694 21.6683 390.174C26.1383 408.269 26.6703 469.369 22.096 490.575C16.0125 506.046 51.706 485.647 56.7778 489.544C61.0195 496.03 96.2434 535.832 103.487 533.467C117.371 525.769 127.622 475.201 160.996 457.898C128.201 229.944 184.947 125.096 292.882 0.187317Z" sodipodi:nodetypes="cccccccccccc"/><path id="shape4" transform="matrix(0.922102122475984 0.386946605780652 -0.386946605780652 0.922102122475984 763.615007375423 292.627645075625)" fill="#8d7663" fill-rule="evenodd" stroke="#876344" stroke-width="39.9999999999968" stroke-linecap="square" stroke-linejoin="bevel" d="M37.1624 7.75395C91.5774 -26.8722 184.374 62.1121 284.316 123.795C366.432 182.712 542.749 182.309 548.358 272.615C538.374 333.017 527.799 379.022 466.788 406.226C440.673 418.001 410.637 402.513 390.52 397.351C370.402 392.189 391.764 432.008 369.586 414.759C340.823 401.432 314.143 360.179 284.538 346.44C270.49 339.192 286.562 392.662 261.515 367.513C242.329 351.907 211.503 309.47 196.391 300.188C166.206 280.257 202.038 347.441 174.64 318.262C25.9484 182.672 -50.6378 62.471 37.1624 7.75395Z" sodipodi:nodetypes="ccccccccccc"/><path id="shape2" transform="translate(1263.90867385005, 434.531181802926)" fill="#fdfaf0" fill-rule="evenodd" stroke="#876344" stroke-width="39.9999999999968" stroke-linecap="square" stroke-linejoin="bevel" d="M0 183.469C63.0044 179.157 237.693 69.6831 291.634 0.0128864C294.604 -1.4661 337.974 124.783 267.874 162.44C282.289 214.354 247.055 275.628 175.778 254.871C134.754 341.021 35.5924 306.898 15.2619 276.557C14.5211 258.323 8.52856 226.345 0 183.469Z" sodipodi:nodetypes="cccccc"/><path id="shape011" transform="translate(584.382531261172, 583.981195981292)" fill="#f0a6a6" fill-rule="evenodd" stroke="#f0a6a6" stroke-width="39.9999999999968" stroke-linecap="square" stroke-linejoin="bevel" d="M0 19.1399C1.99477 -3.4894 81.8185 -8.20389 86.8899 16.7344C82.3736 32.5906 8.1073 39.6911 0 19.1399Z" sodipodi:nodetypes="ccc"/><path id="shape02" transform="translate(285.084326604516, 594.900722380686)" fill="#f0a6a6" fill-rule="evenodd" stroke="#f0a6a6" stroke-width="39.9999999999968" stroke-linecap="square" stroke-linejoin="bevel" d="M0 13.4744C1.82613 -2.45653 74.9017 -5.77552 79.5443 11.781C75.4098 22.9437 7.42192 27.9424 0 13.4744Z" sodipodi:nodetypes="ccc"/><ellipse id="shape21" transform="translate(356.142584207866, 474.987505823154)" rx="29.2796168125068" ry="64.7710157999099" cx="29.2796168125068" cy="64.7710157999099" fill="#876344" fill-rule="evenodd" stroke-opacity="0" stroke="#000000" stroke-width="0" stroke-linecap="round" stroke-linejoin="miter" stroke-miterlimit="0"/><ellipse id="shape0111" transform="translate(545.924790402305, 466.553413634916)" rx="29.3406509630953" ry="64.7710157999099" cx="29.3406509630953" cy="64.7710157999099" fill="#876344" fill-rule="evenodd" stroke-opacity="0" stroke="#000000" stroke-width="0" stroke-linecap="round" stroke-linejoin="miter" stroke-miterlimit="0"/><path id="shape6" transform="translate(636.219856222572, 583.960059502851)" fill="none" stroke="#876344" stroke-width="19.9999999999984" stroke-linecap="round" stroke-linejoin="miter" stroke-miterlimit="0" d="M0 15.5828L96.0287 0" sodipodi:nodetypes="cc"/><path id="shape021" transform="translate(636.219856222573, 632.62423164885)" fill="none" stroke="#876344" stroke-width="19.9999999999984" stroke-linecap="round" stroke-linejoin="miter" stroke-miterlimit="0" d="M0 0L96.405 15.0492" sodipodi:nodetypes="cc"/><path id="shape031" transform="translate(237.000698047169, 592.987752991718)" fill="none" stroke="#876344" stroke-width="19.9999999999984" stroke-linecap="round" stroke-linejoin="miter" stroke-miterlimit="0" d="M0 0L82.3674 10.7799" sodipodi:nodetypes="cc"/><path id="shape04" transform="translate(235.76803152942, 634.865629501888)" fill="none" stroke="#876344" stroke-width="19.9999999999984" stroke-linecap="round" stroke-linejoin="miter" stroke-miterlimit="0" d="M0 9.2856L83.9683 0" sodipodi:nodetypes="cc"/><path id="shape5" transform="translate(441.510379973204, 609.493815519656)" fill="#8d7663" fill-rule="evenodd" stroke="#876344" stroke-width="19.9999999999984" stroke-linecap="square" stroke-linejoin="bevel" d="M40.6942 56.5682C28.2189 57.9545 -5.04056 34.7021 0.648768 14.1745C5.47877 -3.25255 65.8124 -3.61196 75.7322 7.66238C85.0871 28.9681 53.6761 56.7714 40.6942 56.5682Z" sodipodi:nodetypes="cccc"/><path id="shape7" transform="translate(446.941287928139, 1091.06888507141)" fill="#fdfaf0" fill-rule="evenodd" stroke="#876344" stroke-width="39.9999999999968" stroke-linecap="square" stroke-linejoin="bevel" d="M93.5994 9.49648C78.5653 7.15629 31.6147 5.18959 0 0C1.82173 28.5969 32.9598 104.884 43.0371 108.176C67.0871 107.183 96.7826 69.3067 106.648 57.1471C103.581 44.6381 97.2162 15.3318 93.5994 9.49648Z" sodipodi:nodetypes="ccccc"/><path id="shape8" transform="translate(897.467499080224, 1102.54595095319)" fill="#fdfaf0" fill-rule="evenodd" stroke="#876344" stroke-width="39.9999999999968" stroke-linecap="square" stroke-linejoin="bevel" d="M78.7949 0C44.7229 2.69553 27.2879 1.34138 0.00143096 5.64092C-0.256322 37.2027 34.3717 93.8746 51.3002 92.7382C76.9796 89.0477 89.9264 58.0089 104.426 56.3885C95.6242 46.8458 85.4887 11.5181 78.7949 0Z" sodipodi:nodetypes="ccccc"/><path id="shape0" transform="translate(354.903653577546, 845.990297607917)" fill="none" stroke="#876344" stroke-width="19.9999999999984" stroke-linecap="round" stroke-linejoin="bevel" d="M0 0C10.6743 13.9146 46.1093 86.1998 69.3358 94.9335C71.5685 94.049 78.727 46.2223 82.7278 48.7088C94.9391 58.0546 124.548 122.005 146.88 123.122C149.443 122.964 138.923 84.2569 148.068 82.2973C151.041 82.069 216.811 149.797 231.875 139.754C234.257 136.798 236.236 117.818 236.087 112.214" sodipodi:nodetypes="ccccccc"/><path id="shape01" transform="translate(299.715796859617, 706.621542660627)" fill="#fefefe" fill-rule="evenodd" stroke="#876344" stroke-width="19.9999999999984" stroke-linecap="square" stroke-linejoin="bevel" d="M67.0022 29.3151C58.0296 13.8004 25.4214 -6.07638 5.82192 19.0548C-13.0179 43.6219 19.6693 57.2776 22.2683 61.3915C22.4351 70.0346 -8.88477 88.289 25.3139 110.317C54.5044 126.744 76.3583 98.3396 84.8863 78.4558C94.107 78.0684 264.028 74.1633 279.319 75.3237C289.267 84.6179 338.048 135.679 363.621 95.844C381.634 75.6407 359.291 60.4976 356.19 53.1834C357.726 49.1123 390.038 26.4796 361.55 7.49869C326.657 -14.9322 297.324 19.4869 291.114 25.967C256.692 21.7275 271.47 36.1075 243.46 35.7392C199.942 38.7191 216.669 25.7627 175.93 28.7353C145.622 29.6209 147.19 39.6959 123.294 39.6433C94.6057 41.8588 106.468 28.5467 67.0022 29.3151Z" sodipodi:nodetypes="cccccccccccccc"/><path id="shape3" transform="translate(391.549313502212, 712.088214888318)" fill="none" stroke="#876344" stroke-width="19.9999999999984" stroke-linecap="round" stroke-linejoin="miter" stroke-miterlimit="0" d="M0 10.3639C2.49851 14.781 14.4542 38.6433 34.4052 35.0302C57.3911 32.7457 80.9747 7.51798 85.8075 3.90739C90.5192 6.83017 115.614 31.45 140.326 30.8935C164.165 35.4554 189.366 14.7762 191.525 0" sodipodi:nodetypes="ccccc"/><path id="shape22" transform="matrix(0.975764031707798 0.218825397120919 -0.218825397120919 0.975764031707798 179.704080694519 373.785831886088)" fill="#f0a6a6" fill-rule="evenodd" stroke="#f0a6a6" stroke-width="39.9999999999968" stroke-linecap="round" stroke-linejoin="miter" stroke-miterlimit="0" d="M47.2374 23.9244C42.7673 20.557 20.664 -11.8357 7.3621 4.64864C-8.52473 17.0901 21.9428 37.1677 22.0644 43.3025C21.8372 49.5189 -8.18605 61.4734 2.17365 73.9371C19.0807 95.4566 34.5088 71.267 41.4347 70.3789C50.6868 70.4911 63.4063 97.7948 75.1241 86.6714C91.3909 76.4352 70.7066 54.5721 69.8025 48.7985C70.2919 41.4072 98.2671 24.5561 84.3109 10.312C72.7364 -6.65844 57.8998 24.369 47.2374 23.9244Z" sodipodi:nodetypes="ccccccccc"/><path id="shape022" transform="matrix(0.987562388895326 -0.157227631283544 0.157227631283544 0.987562388895326 309.718323061154 361.596323136125)" fill="#f0a6a6" fill-rule="evenodd" stroke="#f0a6a6" stroke-width="39.9999999999968" stroke-linecap="round" stroke-linejoin="miter" stroke-miterlimit="0" d="M49.9233 25.0561C45.199 21.5293 21.839 -12.3956 7.78071 4.86856C-9.00948 17.8985 23.1905 38.9257 23.3189 45.3508C23.0789 51.8612 -8.6515 64.3812 2.29724 77.4344C20.1656 99.9719 36.4709 74.6379 43.7906 73.7079C53.5688 73.8254 67.0116 102.42 79.396 90.7708C96.5875 80.0505 74.7271 57.1534 73.7716 51.1067C74.2887 43.3658 103.854 25.7177 89.105 10.7998C76.8722 -6.97336 61.192 25.5217 49.9233 25.0561Z" sodipodi:nodetypes="ccccccccc"/><path id="shape032" transform="matrix(0.994297761286848 -0.106639401253311 0.106639401253311 0.994297761286848 462.054237333221 322.492880061372)" fill="#f0a6a6" fill-rule="evenodd" stroke="#f0a6a6" stroke-width="39.9999999999968" stroke-linecap="round" stroke-linejoin="miter" stroke-miterlimit="0" d="M62.0607 31.1478C56.1878 26.7636 27.1485 -15.4092 9.67237 6.05219C-11.1999 22.25 28.8286 48.3894 28.9883 56.3765C28.6899 64.4697 -10.7549 80.0336 2.85575 96.2603C25.0683 124.277 45.3378 92.784 54.437 91.6279C66.5926 91.7739 83.3036 127.321 98.6989 112.839C120.07 99.5125 92.8948 71.0486 91.707 63.5318C92.3499 53.9089 129.104 31.9702 110.768 13.4255C95.5615 -8.66876 76.0691 31.7266 62.0607 31.1478Z" sodipodi:nodetypes="ccccccccc"/><path id="shape041" transform="matrix(0.985486730729374 0.169752477319224 -0.169752477319224 0.985486730729374 647.420176424113 286.572680110943)" fill="#f0a6a6" fill-rule="evenodd" stroke="#f0a6a6" stroke-width="39.9999999999968" stroke-linecap="round" stroke-linejoin="miter" stroke-miterlimit="0" d="M49.2199 24.7031C44.5622 21.226 21.5313 -12.2209 7.67108 4.79993C-8.88255 17.6463 22.8638 38.3773 22.9904 44.7118C22.7537 51.1305 -8.52961 63.4741 2.26487 76.3434C19.8815 98.5634 35.9571 73.5864 43.1736 72.6695C52.8141 72.7852 66.0675 100.977 78.2774 89.4919C95.2267 78.9227 73.6742 56.3481 72.7322 50.3867C73.2421 42.7548 102.391 25.3554 87.8496 10.6477C75.7891 -6.87515 60.3299 25.1621 49.2199 24.7031Z" sodipodi:nodetypes="ccccccccc"/><path id="shape05" transform="matrix(0.918429175203429 0.395585452380191 -0.395585452380191 0.918429175203429 808.252983062238 225.600162467908)" fill="#f0a6a6" fill-rule="evenodd" stroke="#f0a6a6" stroke-width="39.9999999999968" stroke-linecap="round" stroke-linejoin="miter" stroke-miterlimit="0" d="M43.2355 21.6996C39.1441 18.6452 18.9134 -10.7351 6.73839 4.21639C-7.80256 15.5008 20.0839 33.7112 20.1951 39.2755C19.9872 44.9138 -7.49253 55.7566 1.98949 67.0611C17.4642 86.5795 31.5852 64.6393 37.9243 63.8339C46.3927 63.9356 58.0346 88.6999 68.76 78.611C83.6485 69.3268 64.7165 49.497 63.889 44.2604C64.3369 37.5564 89.942 22.2725 77.1683 9.35308C66.5743 -6.03917 52.9946 22.1028 43.2355 21.6996Z" sodipodi:nodetypes="ccccccccc"/>
</svg>
