<?xml version="1.0" standalone="no"?>
<!DOCTYPE svg PUBLIC "-//W3C//DTD SVG 20010904//EN" "http://www.w3.org/TR/2001/REC-SVG-20010904/DTD/svg10.dtd">
<!-- Created using Krita: https://krita.org -->
<svg xmlns="http://www.w3.org/2000/svg" 
    xmlns:xlink="http://www.w3.org/1999/xlink"
    xmlns:krita="http://krita.org/namespaces/svg/krita"
    xmlns:sodipodi="http://sodipodi.sourceforge.net/DTD/sodipodi-0.dtd"
    width="1603pt"
    height="1236pt"
    viewBox="0 0 1603 1236">
<defs/>
<path id="shape0" transform="translate(128.775067374013, 362.816772078778)" fill="#8d7663" fill-rule="evenodd" stroke="none" stroke-width="39.9999999999968" stroke-linecap="square" stroke-linejoin="bevel" d="M369.644 0.993311C350.432 -5.22665 227.6 18.0947 213.945 61.6861C185.402 114.608 155.394 163.002 148.761 221.696C78.4935 287.275 -9.48902 392.695 0.830026 437.06C77.1579 511.992 109.291 530.254 196.509 512.912C249.843 496.057 227.062 362.963 243.264 229.716C242.337 171.71 370.882 15.2086 369.644 0.993311Z" sodipodi:nodetypes="ccccccc"/><path id="shape01" transform="translate(372.905166500311, 281.515663838684)" fill="#fdfaf0" fill-rule="evenodd" stroke="#fdfaf0" stroke-width="39.9999999999968" stroke-linecap="square" stroke-linejoin="bevel" d="M96.5352 131.166C27.9091 241.129 -2.38739 336.944 0.146345 464.132C24.9675 605.393 160.152 801.005 428.595 800.308C742.076 732.44 736.995 644.251 828.59 487.805C833.15 123.541 652.126 43.1687 538.001 3.20342C398.185 -15.9026 147.229 53.4696 96.5352 131.166Z" sodipodi:nodetypes="cccccc"/><path id="shape011" transform="translate(829.467093851385, 587.163242013605)" fill="#f0a6a6" fill-rule="evenodd" stroke="#f0a6a6" stroke-width="39.9999999999968" stroke-linecap="square" stroke-linejoin="bevel" d="M0 19.1399C1.99477 -3.4894 81.8185 -8.20389 86.8899 16.7344C82.3736 32.5906 8.1073 39.6911 0 19.1399Z" sodipodi:nodetypes="ccc"/><path id="shape02" transform="translate(531.333920526736, 598.082772457156)" fill="#f0a6a6" fill-rule="evenodd" stroke="#f0a6a6" stroke-width="39.9999999999968" stroke-linecap="square" stroke-linejoin="bevel" d="M0 13.4744C1.82613 -2.45653 74.9017 -5.77552 79.5443 11.781C75.4098 22.9437 7.42192 27.9424 0 13.4744Z" sodipodi:nodetypes="ccc"/><path id="shape03" transform="translate(361.77998208702, 264.691603503003)" fill="none" stroke="#876344" stroke-width="39.9999999999968" stroke-linecap="round" stroke-linejoin="miter" stroke-miterlimit="0" d="M852.272 444.429C842.786 631.062 671.212 825.751 411.14 825.751C120.155 812.308 11.7086 650.675 1.41797 462.471C-17.4298 235.983 153.201 3.05528 418.73 0C709.04 7.05459 867.225 233.062 852.272 444.429Z" sodipodi:nodetypes="ccccc"/><ellipse id="shape2" transform="translate(596.331110432813, 469.006639230919)" rx="29.2796168125068" ry="64.7710157999099" cx="29.2796168125068" cy="64.7710157999099" fill="#876344" fill-rule="evenodd" stroke-opacity="0" stroke="#000000" stroke-width="0" stroke-linecap="round" stroke-linejoin="miter" stroke-miterlimit="0"/><ellipse id="shape0111" transform="translate(787.045341692892, 463.60168380438)" rx="29.3406509630953" ry="64.7710157999099" cx="29.3406509630953" cy="64.7710157999099" fill="#876344" fill-rule="evenodd" stroke-opacity="0" stroke="#000000" stroke-width="0" stroke-linecap="round" stroke-linejoin="miter" stroke-miterlimit="0"/><path id="shape3" transform="translate(645.80534884523, 702.267223761945)" fill="none" stroke="#876344" stroke-width="19.9999999999984" stroke-linecap="round" stroke-linejoin="miter" stroke-miterlimit="0" d="M0 19.093C1.52651 23.0781 19.6382 33.2241 39.5892 29.611C62.5751 27.3265 75.2507 1.55881 76.7355 0.000262253C77.3432 -0.101011 101.682 29.1629 126.394 28.6064C150.233 33.1683 178.242 21.4533 178.997 7.97305" sodipodi:nodetypes="ccccc"/><path id="shape6" transform="translate(881.187915679586, 590.21224521749)" fill="none" stroke="#876344" stroke-width="19.9999999999984" stroke-linecap="round" stroke-linejoin="miter" stroke-miterlimit="0" d="M0 15.5828L96.0287 0" sodipodi:nodetypes="cc"/><path id="shape021" transform="translate(881.187915679587, 638.876417363493)" fill="none" stroke="#876344" stroke-width="19.9999999999984" stroke-linecap="round" stroke-linejoin="miter" stroke-miterlimit="0" d="M0 0L96.405 15.0492" sodipodi:nodetypes="cc"/><path id="shape031" transform="translate(481.968757504151, 599.705959746619)" fill="none" stroke="#876344" stroke-width="19.9999999999984" stroke-linecap="round" stroke-linejoin="miter" stroke-miterlimit="0" d="M0 0L82.3674 10.7799" sodipodi:nodetypes="cc"/><path id="shape04" transform="translate(481.435109785621, 641.117815216531)" fill="none" stroke="#876344" stroke-width="19.9999999999984" stroke-linecap="round" stroke-linejoin="miter" stroke-miterlimit="0" d="M0 9.2856L83.9683 0" sodipodi:nodetypes="cc"/><path id="shape1" transform="translate(129.866122772837, 359.45064341796)" fill="none" stroke="#876344" stroke-width="39.9999999999968" stroke-linecap="square" stroke-linejoin="bevel" d="M364.194 0.0992267C348.18 -1.66335 282.345 20.4175 250.406 37.5279C196.428 66.445 167.658 154.76 150.567 210.318C107.447 307.498 -61.4211 404.432 23.5821 466.461C49.6662 488.432 89.3802 516.079 133.23 521.113C211.262 528.617 219.958 489.931 235.57 436.8" sodipodi:nodetypes="cccccc"/><path id="shape4" transform="matrix(0.960193134468989 0.279336973060532 -0.279336973060532 0.960193134468989 1014.41031729734 299.130980351765)" fill="#8d7663" fill-rule="evenodd" stroke="#876344" stroke-width="39.9999999999968" stroke-linecap="square" stroke-linejoin="bevel" d="M39.4593 8.02254C93.8743 -26.6036 201.391 58.3412 301.333 120.024C383.449 178.941 572.931 164.152 578.54 254.458C568.556 314.86 529.954 418.328 455.395 434.306C323.406 468.725 -136.121 117.453 39.4593 8.02254Z" sodipodi:nodetypes="ccccc"/><path id="shape5" transform="translate(686.478437455443, 615.745996969525)" fill="#8d7663" fill-rule="evenodd" stroke="#876344" stroke-width="19.9999999999984" stroke-linecap="square" stroke-linejoin="bevel" d="M40.6942 56.5682C28.2189 57.9545 -5.04056 34.7021 0.648769 14.1745C5.47877 -3.25255 65.8124 -3.61196 75.7322 7.66238C85.0871 28.9681 53.6761 56.7714 40.6942 56.5682Z" sodipodi:nodetypes="cccc"/>
</svg>
