<?xml version="1.0" standalone="no"?>
<!DOCTYPE svg PUBLIC "-//W3C//DTD SVG 20010904//EN" "http://www.w3.org/TR/2001/REC-SVG-20010904/DTD/svg10.dtd">
<!-- Created using Krita: https://krita.org -->
<svg xmlns="http://www.w3.org/2000/svg" 
    xmlns:xlink="http://www.w3.org/1999/xlink"
    xmlns:krita="http://krita.org/namespaces/svg/krita"
    xmlns:sodipodi="http://sodipodi.sourceforge.net/DTD/sodipodi-0.dtd"
    width="1603pt"
    height="1236pt"
    viewBox="0 0 1603 1236">
<defs/>
<path id="shape0" transform="translate(25.1899139316596, 368.237146324105)" fill="#8d7663" fill-rule="evenodd" stroke-opacity="0" stroke="#000000" stroke-width="0" stroke-linecap="square" stroke-linejoin="bevel" d="M309.93 0.98951C290.718 -5.23045 162.414 18.2103 148.759 61.8017C120.216 114.724 100.403 192.248 72.6562 249.763C10.2917 324.307 -7.57879 378.779 2.74026 423.144C30.0203 466.97 52.7305 505.588 111.275 509.774C164.609 492.919 166.299 382.66 162.696 249.763C176.681 193.388 259.091 36.1757 309.93 0.98951Z" sodipodi:nodetypes="ccccccc"/><path id="shape03" transform="translate(182.314643851355, 256.142978618209)" fill="#fdfaf0" stroke="#876344" stroke-width="39.9999999999968" stroke-linecap="round" stroke-linejoin="miter" stroke-miterlimit="0" d="M359.307 843.506C68.3223 830.063 11.7198 668.78 1.42917 480.576C-17.4186 254.088 151.698 3.80081 417.46 0.279505C735.847 -4.66595 1083.82 51.9347 1099.27 499.924C1086.45 690.592 1049.86 821.279 932.644 839.188C925.106 843.063 916.595 947.7 874.992 952.113C828.962 953.613 801.568 849.064 792.146 846.879C705.694 854.659 568.001 852.489 488.742 846.885C487.093 846.302 470.161 940.596 427.811 951.072C375.559 946.869 364.53 845.451 359.307 843.506Z" sodipodi:nodetypes="cccccccccc"/><path id="shape1" transform="translate(27.4588893559234, 360.626767716511)" fill="none" stroke="#876344" stroke-width="39.9999999999968" stroke-linecap="square" stroke-linejoin="bevel" d="M287.09 0.165471C271.076 -1.59711 227.35 10.8185 192.816 32.7651C138.838 61.6822 107.709 156.603 90.618 212.161C47.498 309.341 -51.8126 401.91 33.5807 479.864C56.0082 503.014 126.628 560.307 156.512 449.023" sodipodi:nodetypes="ccccc"/><path id="shape4" transform="matrix(0.922102122475984 0.386946605780652 -0.386946605780652 0.922102122475984 761.305333361016 291.658418794619)" fill="#8d7663" fill-rule="evenodd" stroke="#876344" stroke-width="39.9999999999968" stroke-linecap="square" stroke-linejoin="bevel" d="M39.6672 7.75395C94.0822 -26.8722 186.879 62.1121 286.821 123.795C368.937 182.712 545.254 182.309 550.863 272.615C540.879 333.017 527.035 390.213 452.476 406.191C320.487 440.61 -135.913 117.184 39.6672 7.75395Z" sodipodi:nodetypes="ccccc"/><path id="shape2" transform="translate(1263.90867385005, 460.541847687214)" fill="#fdfaf0" fill-rule="evenodd" stroke="#876344" stroke-width="39.9999999999968" stroke-linecap="square" stroke-linejoin="bevel" d="M0 157.458C63.0044 153.146 173.706 69.7303 227.647 0.0601203C234.055 -3.66805 267.757 167.013 190.366 228.76C109.636 308.99 32.1967 258.995 15.2619 250.546C14.5211 232.312 8.52856 200.334 0 157.458Z" sodipodi:nodetypes="ccccc"/><path id="shape011" transform="translate(584.382531261172, 583.981199662704)" fill="#f0a6a6" fill-rule="evenodd" stroke="#f0a6a6" stroke-width="39.9999999999968" stroke-linecap="square" stroke-linejoin="bevel" d="M0 19.1399C1.99477 -3.4894 81.8185 -8.20389 86.8899 16.7344C82.3736 32.5906 8.1073 39.6911 0 19.1399Z" sodipodi:nodetypes="ccc"/><path id="shape02" transform="translate(285.084326604516, 594.900728084176)" fill="#f0a6a6" fill-rule="evenodd" stroke="#f0a6a6" stroke-width="39.9999999999968" stroke-linecap="square" stroke-linejoin="bevel" d="M0 13.4744C1.82613 -2.45653 74.9017 -5.77552 79.5443 11.781C75.4098 22.9437 7.42192 27.9424 0 13.4744Z" sodipodi:nodetypes="ccc"/><ellipse id="shape21" transform="translate(356.142584207866, 474.987505823154)" rx="29.2796168125068" ry="64.7710157999099" cx="29.2796168125068" cy="64.7710157999099" fill="#876344" fill-rule="evenodd" stroke-opacity="0" stroke="#000000" stroke-width="0" stroke-linecap="round" stroke-linejoin="miter" stroke-miterlimit="0"/><ellipse id="shape0111" transform="translate(545.924790402305, 466.553413634916)" rx="29.3406509630953" ry="64.7710157999099" cx="29.3406509630953" cy="64.7710157999099" fill="#876344" fill-rule="evenodd" stroke-opacity="0" stroke="#000000" stroke-width="0" stroke-linecap="round" stroke-linejoin="miter" stroke-miterlimit="0"/><path id="shape3" transform="translate(400.837289388235, 696.015038046191)" fill="none" stroke="#876344" stroke-width="19.9999999999984" stroke-linecap="round" stroke-linejoin="miter" stroke-miterlimit="0" d="M0 19.093C1.52651 23.0781 19.6382 33.2241 39.5892 29.611C62.5751 27.3265 75.2507 1.55881 76.7355 0.000262254C77.3432 -0.101011 101.682 29.1629 126.394 28.6064C150.233 33.1683 178.242 21.4533 178.997 7.97305" sodipodi:nodetypes="ccccc"/><path id="shape6" transform="translate(636.219856222572, 583.960059502851)" fill="none" stroke="#876344" stroke-width="19.9999999999984" stroke-linecap="round" stroke-linejoin="miter" stroke-miterlimit="0" d="M0 15.5828L96.0287 0" sodipodi:nodetypes="cc"/><path id="shape021" transform="translate(636.219856222573, 632.62423164885)" fill="none" stroke="#876344" stroke-width="19.9999999999984" stroke-linecap="round" stroke-linejoin="miter" stroke-miterlimit="0" d="M0 0L96.405 15.0492" sodipodi:nodetypes="cc"/><path id="shape031" transform="translate(237.000698047169, 592.987752991718)" fill="none" stroke="#876344" stroke-width="19.9999999999984" stroke-linecap="round" stroke-linejoin="miter" stroke-miterlimit="0" d="M0 0L82.3674 10.7799" sodipodi:nodetypes="cc"/><path id="shape04" transform="translate(235.76803152942, 634.865629501888)" fill="none" stroke="#876344" stroke-width="19.9999999999984" stroke-linecap="round" stroke-linejoin="miter" stroke-miterlimit="0" d="M0 9.2856L83.9683 0" sodipodi:nodetypes="cc"/><path id="shape5" transform="translate(441.510379378146, 609.49381338727)" fill="#8d7663" fill-rule="evenodd" stroke="#876344" stroke-width="19.9999999999984" stroke-linecap="square" stroke-linejoin="bevel" d="M40.6942 56.5682C28.2189 57.9545 -5.04056 34.7021 0.648768 14.1745C5.47877 -3.25255 65.8124 -3.61196 75.7322 7.66238C85.0871 28.9681 53.6761 56.7714 40.6942 56.5682Z" sodipodi:nodetypes="cccc"/><path id="shape7" transform="translate(446.941287928139, 1091.06888507141)" fill="#fdfaf0" fill-rule="evenodd" stroke="#876344" stroke-width="39.9999999999968" stroke-linecap="square" stroke-linejoin="bevel" d="M93.5994 9.49648C78.5653 7.15629 31.6147 5.18959 0 0C1.82173 28.5969 32.9598 104.884 43.0371 108.176C67.0871 107.183 96.7826 69.3067 106.648 57.1471C103.581 44.6381 97.2162 15.3318 93.5994 9.49648Z" sodipodi:nodetypes="ccccc"/><path id="shape8" transform="translate(897.467499080073, 1102.54595095319)" fill="#fdfaf0" fill-rule="evenodd" stroke="#876344" stroke-width="39.9999999999968" stroke-linecap="square" stroke-linejoin="bevel" d="M78.7949 0C44.7229 2.69553 27.2879 1.34138 0.00143097 5.64092C-0.256322 37.2027 34.3717 93.8746 51.3002 92.7382C76.9796 89.0477 89.9264 58.0089 104.426 56.3885C95.6242 46.8458 85.4887 11.5181 78.7949 0Z" sodipodi:nodetypes="ccccc"/>
</svg>
