<?xml version="1.0" standalone="no"?>
<!DOCTYPE svg PUBLIC "-//W3C//DTD SVG 20010904//EN" "http://www.w3.org/TR/2001/REC-SVG-20010904/DTD/svg10.dtd">
<!-- Created using Krita: https://krita.org -->
<svg xmlns="http://www.w3.org/2000/svg" 
    xmlns:xlink="http://www.w3.org/1999/xlink"
    xmlns:krita="http://krita.org/namespaces/svg/krita"
    xmlns:sodipodi="http://sodipodi.sourceforge.net/DTD/sodipodi-0.dtd"
    width="1603pt"
    height="1236pt"
    viewBox="0 0 1603 1236">
<defs/>
<path id="shape03" transform="translate(356.384447900475, 272.89013324953)" fill="#8ba7ce" stroke-opacity="0" stroke="#000000" stroke-width="0" stroke-linecap="square" stroke-linejoin="bevel" d="M852.22 444.429C842.734 631.062 671.16 825.751 411.088 825.751C120.103 812.308 11.6562 650.675 1.36552 462.471C-17.0954 236.95 153.168 3.10339 418.678 0C708.988 7.05459 867.173 233.062 852.22 444.429Z" sodipodi:nodetypes="ccccc"/><path id="shape031" transform="translate(356.727369229309, 272.890133249552)" fill="none" stroke="#876344" stroke-width="39.9999999999968" stroke-linecap="round" stroke-linejoin="miter" stroke-miterlimit="0" d="M852.22 444.429C842.734 631.062 671.16 825.751 411.088 825.751C120.103 812.308 11.6562 650.675 1.36552 462.471C-17.0954 236.95 153.168 3.10339 418.678 0C708.988 7.05459 867.173 233.062 852.22 444.429Z" sodipodi:nodetypes="ccccc"/><path id="shape011" transform="translate(819.974077762018, 551.069122210308)" fill="#f0a6a6" fill-rule="evenodd" stroke="#f0a6a6" stroke-width="39.9999999999968" stroke-linecap="square" stroke-linejoin="bevel" d="M0 10.4061C1.68046 -1.89714 68.9265 -4.46034 73.1988 9.09827C69.3941 17.7191 6.82985 21.5795 0 10.4061Z" sodipodi:nodetypes="ccc"/><path id="shape02" transform="translate(534.575406375595, 553.35231721124)" fill="#f0a6a6" fill-rule="evenodd" stroke="#f0a6a6" stroke-width="39.9999999999968" stroke-linecap="square" stroke-linejoin="bevel" d="M0 13.4744C1.82613 -2.45653 74.9017 -5.77552 79.5443 11.781C75.4098 22.9437 7.42192 27.9424 0 13.4744Z" sodipodi:nodetypes="ccc"/><ellipse id="shape2" transform="translate(588.317437082708, 434.610244795141)" rx="29.2796168125068" ry="64.7710157999099" cx="29.2796168125068" cy="64.7710157999099" fill="#876344" fill-rule="evenodd" stroke-opacity="0" stroke="#000000" stroke-width="0" stroke-linecap="round" stroke-linejoin="miter" stroke-miterlimit="0"/><ellipse id="shape0111" transform="translate(776.647095173701, 430.976456110057)" rx="29.3406509630953" ry="64.7710157999099" cx="29.3406509630953" cy="64.7710157999099" fill="#876344" fill-rule="evenodd" stroke-opacity="0" stroke="#000000" stroke-width="0" stroke-linecap="round" stroke-linejoin="miter" stroke-miterlimit="0"/><path id="shape0" transform="translate(610.45928420496, 597.60549212646)" fill="#f9e6a9" fill-rule="evenodd" stroke="#f7d871" stroke-width="19.9999999999984" stroke-linecap="square" stroke-linejoin="bevel" d="M0 68.1142C6.17511 59.7956 92.0652 4.59801 100.433 0C109.977 4.07593 213.085 46.3893 217.713 53.754C214.347 60.3934 118.313 111.516 110.035 117.624C102.043 112.772 6.38264 77.6847 0 68.1142Z" sodipodi:nodetypes="ccccc"/><path id="shape1" transform="translate(675.82882425584, 655.731862307722)" fill="none" stroke="#f7d871" stroke-width="19.9999999999984" stroke-linecap="round" stroke-linejoin="bevel" d="M0 5.14393C16.8889 4.16932 69.5843 2.38968 84.8732 0" sodipodi:nodetypes="cc"/>
</svg>
