<?xml version="1.0" standalone="no"?>
<!DOCTYPE svg PUBLIC "-//W3C//DTD SVG 20010904//EN" "http://www.w3.org/TR/2001/REC-SVG-20010904/DTD/svg10.dtd">
<!-- Created using Krita: https://krita.org -->
<svg xmlns="http://www.w3.org/2000/svg" 
    xmlns:xlink="http://www.w3.org/1999/xlink"
    xmlns:krita="http://krita.org/namespaces/svg/krita"
    xmlns:sodipodi="http://sodipodi.sourceforge.net/DTD/sodipodi-0.dtd"
    width="1603pt"
    height="1236pt"
    viewBox="0 0 1603 1236">
<defs/>
<path id="shape03" transform="translate(357.852933272285, 107.819284431614)" fill="#8ba7ce" stroke-opacity="0" stroke="#000000" stroke-width="0" stroke-linecap="square" stroke-linejoin="bevel" d="M1025.73 830.823C1008.45 885.583 937.912 896.465 915.292 906.174C840.532 980.855 786.821 998.986 677.898 1012.49C490.787 1039.02 316.105 1000.56 251.104 1000.47C47.1351 929.332 10.5306 660.191 0.239957 471.987C-7.41891 246.295 169.103 27.6228 409.151 0C554.279 3.47409 738.718 42.3683 824.33 180.585C925.51 385.979 912.185 605.337 915.441 738.85C952.118 768.883 1006.15 804.033 1025.73 830.823Z" sodipodi:nodetypes="ccccccccc"/><path id="shape011" transform="translate(840.463677856588, 400.401268720101)" fill="#f0a6a6" fill-rule="evenodd" stroke="#f0a6a6" stroke-width="39.9999999999968" stroke-linecap="square" stroke-linejoin="bevel" d="M0 10.4061C1.68046 -1.89714 68.9265 -4.46034 73.1988 9.09827C69.3941 17.7191 6.82985 21.5795 0 10.4061Z" sodipodi:nodetypes="ccc"/><path id="shape02" transform="translate(555.065006470188, 402.68445707101)" fill="#f0a6a6" fill-rule="evenodd" stroke="#f0a6a6" stroke-width="39.9999999999968" stroke-linecap="square" stroke-linejoin="bevel" d="M0 13.4744C1.82613 -2.45653 74.9017 -5.77552 79.5443 11.781C75.4098 22.9437 7.42192 27.9424 0 13.4744Z" sodipodi:nodetypes="ccc"/><ellipse id="shape2" transform="translate(608.807037177297, 283.942390358411)" rx="29.2796168125068" ry="64.7710157999099" cx="29.2796168125068" cy="64.7710157999099" fill="#876344" fill-rule="evenodd" stroke-opacity="0" stroke="#000000" stroke-width="0" stroke-linecap="round" stroke-linejoin="miter" stroke-miterlimit="0"/><ellipse id="shape0111" transform="translate(797.136695268276, 280.308601673327)" rx="29.3406509630953" ry="64.7710157999099" cx="29.3406509630953" cy="64.7710157999099" fill="#876344" fill-rule="evenodd" stroke-opacity="0" stroke="#000000" stroke-width="0" stroke-linecap="round" stroke-linejoin="miter" stroke-miterlimit="0"/><path id="shape0" transform="translate(630.948884299547, 446.937637689716)" fill="#f9e6a9" fill-rule="evenodd" stroke="#f7d871" stroke-width="19.9999999999984" stroke-linecap="square" stroke-linejoin="bevel" d="M0 68.1142C6.17511 59.7956 92.0652 4.59801 100.433 0C109.977 4.07593 213.085 46.3893 217.713 53.754C214.347 60.3934 118.313 111.516 110.035 117.624C102.043 112.772 6.38264 77.6847 0 68.1142Z" sodipodi:nodetypes="ccccc"/><path id="shape1" transform="translate(696.318424350422, 505.064007870974)" fill="none" stroke="#f7d871" stroke-width="19.9999999999984" stroke-linecap="round" stroke-linejoin="bevel" d="M0 5.14393C16.8889 4.16932 69.5843 2.38968 84.8732 0" sodipodi:nodetypes="cc"/><path id="shape3" transform="translate(374.143038762011, 614.19417723694)" fill="#fdfaf0" fill-rule="evenodd" stroke-opacity="0" stroke="#000000" stroke-width="0" stroke-linecap="square" stroke-linejoin="bevel" d="M0 116.431C164.088 -13.0611 330.307 -40.3544 565.307 64.0358C661.296 107.86 772.321 419.831 779.181 466.639C689.926 510.208 355.759 548.397 188.841 470.054C47.9857 391.882 26.971 204.465 0 116.431Z" sodipodi:nodetypes="ccccc"/><path id="shape4" transform="translate(207.911513308036, 595.933715992928)" fill="#8ba7ce" fill-rule="evenodd" stroke="#876344" stroke-width="39.9999999999968" stroke-linecap="square" stroke-linejoin="bevel" d="M151.657 0C138.078 52.6501 1.05498 298.57 0 308.593C18.7032 344.71 184.161 348.687 187.064 240.779C177.007 195.731 152.515 60.1019 151.657 0Z" sodipodi:nodetypes="cccc"/><path id="shape01" transform="matrix(-0.150434706737441 0.988619946697757 -0.988619946697757 -0.150434706737441 898.016678220968 1126.19594961982)" fill="#f7d871" fill-rule="evenodd" stroke="#876344" stroke-width="19.9999999999984" stroke-linecap="square" stroke-linejoin="bevel" d="M4.31604 0C12.4772 1.74111 97.3894 7.23149 93.084 11.6652C86.4069 18.8317 66.667 17.6834 63.9251 37.3583C63.3986 56.3243 91.9222 61.3324 91.5506 68.3571C90.8919 74.1873 61.6719 58.4865 47.9956 75.8917C36.1255 92.3795 61.7983 119.702 57.539 117.223C53.43 113.713 18.9425 65.2098 3.13983 55.7655C-0.414127 37.5192 -2.06551 5.08844 4.31604 0Z" sodipodi:nodetypes="cccccccc"/><path id="shape012" transform="matrix(-0.405435839960432 0.914123503513301 -0.914123503513301 -0.405435839960432 665.233712639302 1125.44657148867)" fill="#f7d871" fill-rule="evenodd" stroke="#876344" stroke-width="19.9999999999984" stroke-linecap="square" stroke-linejoin="bevel" d="M6.51029 0C16.2609 2.08022 108.467 25.3404 113.183 31.3234C117.212 37.1547 75.9067 31.05 72.6317 54.5568C72.0017 77.2167 101.967 81.0569 101.952 89.7927C101.593 97.5301 71.3107 79.1999 54.9713 99.9949C40.7893 119.694 62.1182 141.793 57.0292 138.831C52.1196 134.637 18.8805 92.7174 0 81.4338C3.32593 50.1794 -2.3306 10.2756 6.51029 0Z" sodipodi:nodetypes="cccccccc"/><path id="shape013" transform="translate(359.518457952895, 106.361838571634)" fill="none" stroke="#876344" stroke-width="39.9999999999968" stroke-linecap="square" stroke-linejoin="bevel" d="M742.132 999.942C842.53 970.28 882.095 939.932 913.445 908.18C948.225 903.777 1012.1 862.934 1017.56 839.718C1027.78 794.322 936.085 793.846 919.515 726.285C902.028 645.268 935.52 405.022 831.66 197.033C782.22 104.062 660.095 4.73977 425.575 0C160.065 3.10339 -17.1431 279.908 1.3178 505.429C18.2954 695.176 52.9277 1001.43 343.913 1014.88C441.919 1019.66 601.433 1029.63 742.132 999.942Z" sodipodi:nodetypes="ccccccccc"/><path id="shape41" transform="matrix(0.949698391365579 0.313166034935656 -0.313166034935656 0.949698391365579 1148.45288704542 482.796594849283)" fill="#8ba7ce" stroke="#876344" stroke-width="19.9999999999984" stroke-linecap="round" stroke-linejoin="bevel" d="M101.076 0C165.803 28.5558 441.489 142.945 481.034 206.7C479.774 245.253 307.226 290.778 157.316 279.572C92.3167 276.428 15.1945 207.297 0 192.126" sodipodi:nodetypes="cccc"/><path id="shape22" transform="matrix(0.975764031707328 0.218825397120811 -0.218825397120811 0.975764031707328 501.854753050434 155.92228105671)" fill="#f0a6a6" fill-rule="evenodd" stroke="#f0a6a6" stroke-width="39.9999999999968" stroke-linecap="round" stroke-linejoin="miter" stroke-miterlimit="0" d="M47.2374 23.9244C42.7673 20.557 20.664 -11.8357 7.3621 4.64863C-8.52473 17.0901 21.9428 37.1677 22.0644 43.3025C21.8372 49.5189 -8.18605 61.4734 2.17365 73.9371C19.0807 95.4566 34.5088 71.267 41.4347 70.3789C50.6868 70.4911 63.4063 97.7948 75.1241 86.6714C91.3909 76.4352 70.7066 54.5721 69.8025 48.7985C70.2919 41.4072 98.2671 24.5561 84.3109 10.312C72.7364 -6.65845 57.8998 24.369 47.2374 23.9244Z" sodipodi:nodetypes="ccccccccc"/><path id="shape022" transform="matrix(0.987562388894852 -0.157227631283466 0.157227631283466 0.987562388894852 642.573948927839 175.057296861707)" fill="#f0a6a6" fill-rule="evenodd" stroke="#f0a6a6" stroke-width="39.9999999999968" stroke-linecap="round" stroke-linejoin="miter" stroke-miterlimit="0" d="M49.9233 25.0561C45.199 21.5293 21.839 -12.3956 7.78071 4.86856C-9.00948 17.8985 23.1905 38.9257 23.3189 45.3508C23.0789 51.8612 -8.6515 64.3812 2.29724 77.4344C20.1656 99.9719 36.4709 74.6379 43.7906 73.7079C53.5688 73.8254 67.0116 102.42 79.396 90.7708C96.5875 80.0505 74.7271 57.1534 73.7716 51.1067C74.2887 43.3658 103.854 25.7177 89.105 10.7998C76.8722 -6.97336 61.192 25.5217 49.9233 25.0561Z" sodipodi:nodetypes="ccccccccc"/><path id="shape041" transform="matrix(0.985486730728901 0.16975247731914 -0.16975247731914 0.985486730728901 815.736076742324 144.222821123881)" fill="#f0a6a6" fill-rule="evenodd" stroke="#f0a6a6" stroke-width="39.9999999999968" stroke-linecap="round" stroke-linejoin="miter" stroke-miterlimit="0" d="M49.2199 24.7031C44.5622 21.226 21.5313 -12.2209 7.67108 4.79993C-8.88255 17.6463 22.8638 38.3773 22.9904 44.7118C22.7537 51.1305 -8.52961 63.4741 2.26487 76.3434C19.8815 98.5634 35.9571 73.5864 43.1736 72.6695C52.8141 72.7852 66.0675 100.977 78.2774 89.4919C95.2267 78.9227 73.6742 56.3481 72.7322 50.3867C73.2421 42.7548 102.391 25.3554 87.8496 10.6477C75.7891 -6.87515 60.3299 25.1621 49.2199 24.7031Z" sodipodi:nodetypes="ccccccccc"/><path id="shape051" transform="matrix(0.918429175202985 0.395585452379999 -0.395585452379999 0.918429175202985 988.174555191036 110.495062756975)" fill="#f0a6a6" fill-rule="evenodd" stroke="#f0a6a6" stroke-width="39.9999999999968" stroke-linecap="round" stroke-linejoin="miter" stroke-miterlimit="0" d="M43.2355 21.6996C39.1441 18.6452 18.9134 -10.7351 6.73839 4.21639C-7.80256 15.5008 20.0839 33.7112 20.1951 39.2755C19.9872 44.9138 -7.49253 55.7566 1.98949 67.0611C17.4642 86.5795 31.5852 64.6393 37.9243 63.8339C46.3927 63.9356 58.0346 88.6999 68.76 78.611C83.6485 69.3268 64.7165 49.497 63.889 44.2604C64.3369 37.5564 89.942 22.2725 77.1683 9.35308C66.5743 -6.03917 52.9946 22.1028 43.2355 21.6996Z" sodipodi:nodetypes="ccccccccc"/>
</svg>
