<?xml version="1.0" standalone="no"?>
<!DOCTYPE svg PUBLIC "-//W3C//DTD SVG 20010904//EN" "http://www.w3.org/TR/2001/REC-SVG-20010904/DTD/svg10.dtd">
<!-- Created using Krita: https://krita.org -->
<svg xmlns="http://www.w3.org/2000/svg" 
    xmlns:xlink="http://www.w3.org/1999/xlink"
    xmlns:krita="http://krita.org/namespaces/svg/krita"
    xmlns:sodipodi="http://sodipodi.sourceforge.net/DTD/sodipodi-0.dtd"
    width="1603pt"
    height="1236pt"
    viewBox="0 0 1603 1236">
<defs/>
<path id="shape03" transform="translate(150.545411814975, 268.860724107148)" fill="#8ba7ce" stroke-opacity="0" stroke="#000000" stroke-width="0" stroke-linecap="square" stroke-linejoin="bevel" d="M1391.81 485.923C1374.53 540.683 1308.45 563.31 1285.83 573.019C1223.33 702.654 1108.15 838.667 999.227 852.167C811.43 884.442 477.118 837.327 412.117 837.239C125.161 816.766 11.6562 650.675 1.36552 462.471C-17.0954 236.95 153.168 3.10339 418.678 0C563.806 3.47409 744.302 53.8564 810.71 146.464C861.909 168.477 1198.45 206.34 1305.44 436.044C1331.23 448.159 1372.23 459.133 1391.81 485.923Z" sodipodi:nodetypes="ccccccccc"/><path id="shape011" transform="translate(614.13504082797, 547.039713541171)" fill="#f0a6a6" fill-rule="evenodd" stroke="#f0a6a6" stroke-width="39.9999999999968" stroke-linecap="square" stroke-linejoin="bevel" d="M0 10.4061C1.68046 -1.89714 68.9265 -4.46034 73.1988 9.09827C69.3941 17.7191 6.82985 21.5795 0 10.4061Z" sodipodi:nodetypes="ccc"/><path id="shape02" transform="translate(328.73636944157, 549.322905217091)" fill="#f0a6a6" fill-rule="evenodd" stroke="#f0a6a6" stroke-width="39.9999999999968" stroke-linecap="square" stroke-linejoin="bevel" d="M0 13.4744C1.82613 -2.45653 74.9017 -5.77552 79.5443 11.781C75.4098 22.9437 7.42192 27.9424 0 13.4744Z" sodipodi:nodetypes="ccc"/><ellipse id="shape2" transform="translate(382.478400148678, 430.580835652747)" rx="29.2796168125068" ry="64.7710157999099" cx="29.2796168125068" cy="64.7710157999099" fill="#876344" fill-rule="evenodd" stroke-opacity="0" stroke="#000000" stroke-width="0" stroke-linecap="round" stroke-linejoin="miter" stroke-miterlimit="0"/><ellipse id="shape0111" transform="translate(570.808058239657, 426.947046967664)" rx="29.3406509630953" ry="64.7710157999099" cx="29.3406509630953" cy="64.7710157999099" fill="#876344" fill-rule="evenodd" stroke-opacity="0" stroke="#000000" stroke-width="0" stroke-linecap="round" stroke-linejoin="miter" stroke-miterlimit="0"/><path id="shape0" transform="translate(404.620247270928, 593.576082984052)" fill="#f9e6a9" fill-rule="evenodd" stroke="#f7d871" stroke-width="19.9999999999984" stroke-linecap="square" stroke-linejoin="bevel" d="M0 68.1142C6.17511 59.7956 92.0652 4.59801 100.433 0C109.977 4.07593 213.085 46.3893 217.713 53.754C214.347 60.3934 118.313 111.516 110.035 117.624C102.043 112.772 6.38264 77.6847 0 68.1142Z" sodipodi:nodetypes="ccccc"/><path id="shape1" transform="translate(469.989787321803, 651.702453165311)" fill="none" stroke="#f7d871" stroke-width="19.9999999999984" stroke-linecap="round" stroke-linejoin="bevel" d="M0 5.14393C16.8889 4.16932 69.5843 2.38968 84.8732 0" sodipodi:nodetypes="cc"/><path id="shape3" transform="translate(316.875035150223, 850.089729183249)" fill="#fdfaf0" fill-rule="evenodd" stroke-opacity="0" stroke="#000000" stroke-width="0" stroke-linecap="square" stroke-linejoin="bevel" d="M0 182.606C0 172.196 182.139 42.6067 267.394 18.8579C341.665 -5.46032 401.892 -1.69925 456.515 5.12788C549.075 86.3311 628.666 102.906 836.511 60.791C948.767 82.3753 1005.73 101.597 1038.88 114.363C1025.46 143.565 987.505 222.208 851.538 267.731C674.42 308.797 97.4337 283.737 0 182.606Z" sodipodi:nodetypes="ccccccc"/><path id="shape4" transform="translate(764.474207092048, 650.330739414773)" fill="none" stroke="#876344" stroke-width="19.9999999999984" stroke-linecap="round" stroke-linejoin="bevel" d="M101.076 0C165.803 28.5558 441.489 142.945 481.034 206.7C479.774 245.253 307.226 290.778 157.316 279.572C92.3167 276.428 15.1945 207.297 0 192.126" sodipodi:nodetypes="cccc"/><path id="shape01" transform="translate(150.869792608035, 267.317546137756)" fill="none" stroke="#876344" stroke-width="39.9999999999968" stroke-linecap="square" stroke-linejoin="bevel" d="M1000.59 852.911C1193.32 798.13 1258.69 604.377 1290.04 572.625C1324.82 568.222 1380.72 522.406 1386.18 499.19C1396.4 453.794 1303.85 476.037 1287.28 408.476C1186.72 220.208 814.278 150.912 808.579 147.737C734.115 73.6273 648.728 12.2842 416.125 0C150.615 3.10339 -17.0769 238.493 1.38406 464.014C11.6747 652.218 139.839 830.312 430.824 843.755C528.83 848.539 859.891 882.6 1000.59 852.911Z" sodipodi:nodetypes="ccccccccc"/>
</svg>
