<?xml version="1.0" standalone="no"?>
<!DOCTYPE svg PUBLIC "-//W3C//DTD SVG 20010904//EN" "http://www.w3.org/TR/2001/REC-SVG-20010904/DTD/svg10.dtd">
<!-- Created using Krita: https://krita.org -->
<svg xmlns="http://www.w3.org/2000/svg" 
    xmlns:xlink="http://www.w3.org/1999/xlink"
    xmlns:krita="http://krita.org/namespaces/svg/krita"
    xmlns:sodipodi="http://sodipodi.sourceforge.net/DTD/sodipodi-0.dtd"
    width="1603pt"
    height="1236pt"
    viewBox="0 0 1603 1236">
<defs/>
<path id="shape03" transform="translate(150.545412663486, 268.860724107148)" fill="#8ba7ce" stroke-opacity="0" stroke="#000000" stroke-width="0" stroke-linecap="square" stroke-linejoin="bevel" d="M1391.81 485.923C1374.53 540.683 1308.45 563.31 1285.83 573.019C1223.33 702.654 1108.15 838.667 999.227 852.167C811.43 884.442 477.118 837.327 412.117 837.239C125.161 816.766 11.6562 650.675 1.36552 462.471C-17.0954 236.95 153.168 3.10339 418.678 0C563.806 3.47409 744.302 53.8564 810.71 146.464C861.909 168.477 1198.45 206.34 1305.44 436.044C1331.23 448.159 1372.23 459.133 1391.81 485.923Z" sodipodi:nodetypes="ccccccccc"/><path id="shape011" transform="translate(614.13504082797, 547.039714014437)" fill="#f0a6a6" fill-rule="evenodd" stroke="#f0a6a6" stroke-width="39.9999999999968" stroke-linecap="square" stroke-linejoin="bevel" d="M0 10.4061C1.68046 -1.89714 68.9265 -4.46034 73.1988 9.09827C69.3941 17.7191 6.82985 21.5795 0 10.4061Z" sodipodi:nodetypes="ccc"/><path id="shape02" transform="translate(328.73636944157, 549.322902365346)" fill="#f0a6a6" fill-rule="evenodd" stroke="#f0a6a6" stroke-width="39.9999999999968" stroke-linecap="square" stroke-linejoin="bevel" d="M0 13.4744C1.82613 -2.45653 74.9017 -5.77552 79.5443 11.781C75.4098 22.9437 7.42192 27.9424 0 13.4744Z" sodipodi:nodetypes="ccc"/><ellipse id="shape2" transform="translate(382.478400148678, 430.580835652747)" rx="29.2796168125068" ry="64.7710157999099" cx="29.2796168125068" cy="64.7710157999099" fill="#876344" fill-rule="evenodd" stroke-opacity="0" stroke="#000000" stroke-width="0" stroke-linecap="round" stroke-linejoin="miter" stroke-miterlimit="0"/><ellipse id="shape0111" transform="translate(570.808058239657, 426.947046967664)" rx="29.3406509630953" ry="64.7710157999099" cx="29.3406509630953" cy="64.7710157999099" fill="#876344" fill-rule="evenodd" stroke-opacity="0" stroke="#000000" stroke-width="0" stroke-linecap="round" stroke-linejoin="miter" stroke-miterlimit="0"/><path id="shape0" transform="translate(404.620247270928, 593.576082984052)" fill="#f9e6a9" fill-rule="evenodd" stroke="#f7d871" stroke-width="19.9999999999984" stroke-linecap="square" stroke-linejoin="bevel" d="M0 68.1142C6.17511 59.7956 92.0652 4.59801 100.433 0C109.977 4.07593 213.085 46.3893 217.713 53.754C214.347 60.3934 118.313 111.516 110.035 117.624C102.043 112.772 6.38264 77.6847 0 68.1142Z" sodipodi:nodetypes="ccccc"/><path id="shape1" transform="translate(469.989787321803, 651.702453165311)" fill="none" stroke="#f7d871" stroke-width="19.9999999999984" stroke-linecap="round" stroke-linejoin="bevel" d="M0 5.14393C16.8889 4.16932 69.5843 2.38968 84.8732 0" sodipodi:nodetypes="cc"/><path id="shape3" transform="translate(316.875035150223, 850.089732266745)" fill="#fdfaf0" fill-rule="evenodd" stroke-opacity="0" stroke="#000000" stroke-width="0" stroke-linecap="square" stroke-linejoin="bevel" d="M0 182.606C0 172.196 182.139 42.6067 267.394 18.8579C341.665 -5.46032 401.892 -1.69925 456.515 5.12788C549.075 86.3311 628.666 102.906 836.511 60.791C948.767 82.3753 1005.73 101.597 1038.88 114.363C1025.46 143.565 987.505 222.208 851.538 267.731C674.42 308.797 97.4337 283.737 0 182.606Z" sodipodi:nodetypes="ccccccc"/><path id="shape4" transform="translate(764.474207092048, 650.330739414773)" fill="none" stroke="#876344" stroke-width="19.9999999999984" stroke-linecap="round" stroke-linejoin="bevel" d="M101.076 0C165.803 28.5558 441.489 142.945 481.034 206.7C479.774 245.253 307.226 290.778 157.316 279.572C92.3167 276.428 15.1945 207.297 0 192.126" sodipodi:nodetypes="cccc"/><path id="shape01" transform="translate(150.877255805638, 266.717421371874)" fill="none" stroke="#876344" stroke-width="39.9999999999968" stroke-linecap="square" stroke-linejoin="bevel" d="M1000.58 853.511C1193.31 798.73 1258.68 604.977 1290.03 573.225C1324.81 568.822 1380.71 523.006 1386.17 499.79C1396.39 454.394 1303.84 476.637 1287.27 409.076C1186.71 220.808 814.442 152.541 808.743 149.366C719.19 70.198 641.252 6.96881 417.146 0C151.636 3.10339 -17.0844 239.093 1.37659 464.614C11.6672 652.818 139.832 830.912 430.817 844.355C528.823 849.139 859.884 883.2 1000.58 853.511Z" sodipodi:nodetypes="ccccccccc"/><path id="shape5" transform="translate(1368.87454461166, 901.268623663379)" fill="#f7d871" fill-rule="evenodd" stroke="#876344" stroke-width="19.9999999999984" stroke-linecap="square" stroke-linejoin="bevel" d="M44.9228 0C54.6734 2.08022 154.744 17.4218 149.6 22.719C146.514 25.9783 105.981 31.0188 102.705 54.5256C102.076 77.1855 136.155 83.169 135.711 91.5619C134.924 98.5276 100.013 79.7688 83.673 100.564C69.4911 120.263 100.164 152.907 95.0752 149.945C90.1659 145.752 18.8805 83.7273 0 72.4436C7.52447 59.9597 39.4587 11.1225 44.9228 0Z" sodipodi:nodetypes="cccccccc"/><path id="shape04" transform="translate(1285.2776958073, 1004.55958776397)" fill="#f7d871" fill-rule="evenodd" stroke="#876344" stroke-width="19.9999999999984" stroke-linecap="square" stroke-linejoin="bevel" d="M55.5534 0C65.304 2.08022 144.627 25.052 149.343 31.035C153.372 36.8663 112.067 30.7616 108.792 54.2684C108.162 76.9283 138.127 80.7685 138.112 89.5043C137.753 97.2417 107.471 78.9115 91.1316 99.7065C76.9496 119.406 98.2785 141.505 93.1895 138.543C88.2799 134.349 18.8805 70.9532 0 59.6696C7.52447 47.1856 50.0893 11.1225 55.5534 0Z" sodipodi:nodetypes="cccccccc"/><path id="shape06" transform="matrix(0.990745232088203 0.135734612735088 -0.135734612735088 0.990745232088203 423.894162218048 660.629240752902)" fill="#89d5d5" fill-rule="evenodd" stroke="#89d5d5" stroke-width="19.9999999999984" stroke-linecap="square" stroke-linejoin="bevel" d="M0 51.5223C7.40659 61.2958 37.7002 136.272 198.375 58.1574C207.941 62.9039 235.417 81.7435 240.927 84.182C243.945 84.0784 245.965 20.7228 244.656 13.1489C244.137 11.55 205.319 37.6367 201.404 37.4736C66.37 -49.671 7.72756 41.0659 0 51.5223Z" sodipodi:nodetypes="cccccc"/>
</svg>
