<?xml version="1.0" standalone="no"?>
<!DOCTYPE svg PUBLIC "-//W3C//DTD SVG 20010904//EN" "http://www.w3.org/TR/2001/REC-SVG-20010904/DTD/svg10.dtd">
<!-- Created using Krita: https://krita.org -->
<svg xmlns="http://www.w3.org/2000/svg" 
    xmlns:xlink="http://www.w3.org/1999/xlink"
    xmlns:krita="http://krita.org/namespaces/svg/krita"
    xmlns:sodipodi="http://sodipodi.sourceforge.net/DTD/sodipodi-0.dtd"
    width="1603pt"
    height="1236pt"
    viewBox="0 0 1603 1236">
<defs/>
<path id="shape0" transform="translate(329.415965001241, 123.650892586798)" fill="#fdfaf0" fill-rule="evenodd" stroke="#fdfaf0" stroke-width="39.9999999999968" stroke-linecap="square" stroke-linejoin="bevel" d="M237.753 203.406C221.656 188.651 52.6041 106.446 9.78986 99.3099C-15.0165 195.598 7.68545 345.698 73.7315 418.873C1.93465 610.443 48.405 938.879 450.336 956.174C811.904 953.718 927.299 597.104 845.426 406.675C945.827 311.613 943.89 120.202 862.472 0.062099C783.256 -2.86458 630.315 98.3055 577.159 166.51C437.343 147.404 343.53 156.361 237.753 203.406Z" sodipodi:nodetypes="cccccccc"/><path id="shape01" transform="translate(829.467093851452, 587.163245695063)" fill="#f0a6a6" fill-rule="evenodd" stroke="#f0a6a6" stroke-width="39.9999999999968" stroke-linecap="square" stroke-linejoin="bevel" d="M0 19.1399C1.99477 -3.4894 81.8185 -8.20389 86.8899 16.7344C82.3736 32.5906 8.1073 39.6911 0 19.1399Z" sodipodi:nodetypes="ccc"/><path id="shape02" transform="translate(531.333920526779, 598.082778160694)" fill="#f0a6a6" fill-rule="evenodd" stroke="#f0a6a6" stroke-width="39.9999999999968" stroke-linecap="square" stroke-linejoin="bevel" d="M0 13.4744C1.82613 -2.45653 74.9017 -5.77552 79.5443 11.781C75.4098 22.9437 7.42192 27.9424 0 13.4744Z" sodipodi:nodetypes="ccc"/><path id="shape03" transform="translate(361.779990614689, 264.691603503024)" fill="none" stroke="#876344" stroke-width="39.9999999999968" stroke-linecap="round" stroke-linejoin="miter" stroke-miterlimit="0" d="M852.272 444.429C842.786 631.062 671.212 825.751 411.14 825.751C120.155 812.308 11.7086 650.675 1.41797 462.471C-17.4298 235.983 153.201 3.05528 418.73 0C708.266 8.06455 867.225 233.063 852.272 444.429Z" sodipodi:nodetypes="ccccc"/><ellipse id="shape2" transform="translate(596.331110432861, 469.006639230957)" rx="29.2796168125068" ry="64.7710157999099" cx="29.2796168125068" cy="64.7710157999099" fill="#876344" fill-rule="evenodd" stroke-opacity="0" stroke="#000000" stroke-width="0" stroke-linecap="round" stroke-linejoin="miter" stroke-miterlimit="0"/><ellipse id="shape011" transform="translate(787.045341692955, 463.601683804417)" rx="29.3406509630953" ry="64.7710157999099" cx="29.3406509630953" cy="64.7710157999099" fill="#876344" fill-rule="evenodd" stroke-opacity="0" stroke="#000000" stroke-width="0" stroke-linecap="round" stroke-linejoin="miter" stroke-miterlimit="0"/><path id="shape3" transform="translate(673.863987303534, 600.733643269376)" fill="none" stroke="#876344" stroke-width="19.9999999999984" stroke-linecap="round" stroke-linejoin="miter" stroke-miterlimit="0" d="M0 14.2175C0.331156 18.7216 5.27412 26.5079 18.6191 25.6923C32.9924 25.4843 35.8256 1.55885 37.3104 0.000303971C37.9181 -0.100969 41.0595 25.1378 57.4451 24.0324C69.5446 23.495 73.4662 16.363 73.3941 12.1246" sodipodi:nodetypes="ccccc"/><path id="shape1" transform="translate(320.967605736786, 208.747585094742)" fill="none" stroke="#876344" stroke-width="39.9999999999968" stroke-linecap="round" stroke-linejoin="miter" stroke-miterlimit="0" d="M251.958 98.4127C150.458 72.8519 30.2387 -15.0992 7.11995 2.24767C-8.17022 36.4959 -3.09525 279.401 65.1808 326.071" sodipodi:nodetypes="ccc"/><path id="shape4" transform="translate(909.257785674565, 114.39595717349)" fill="none" stroke="#876344" stroke-width="39.9999999999968" stroke-linecap="round" stroke-linejoin="miter" stroke-miterlimit="0" d="M0 162.239C55.207 64.322 263.532 -14.1083 291.557 2.14193C318.356 21.884 400.295 341.018 287.075 400.784" sodipodi:nodetypes="ccc"/><path id="shape5" transform="translate(1047.87160176399, 248.844543179465)" fill="none" stroke="#876344" stroke-width="39.9999999999968" stroke-linecap="round" stroke-linejoin="miter" stroke-miterlimit="0" d="M0 92.6833C8.53836 59.8389 114.966 -1.80204 120.284 0.0403901C137.453 12.44 144.121 175.412 113.24 192.584" sodipodi:nodetypes="ccc"/><path id="shape6" transform="translate(881.187915679657, 590.212245217538)" fill="none" stroke="#876344" stroke-width="19.9999999999984" stroke-linecap="round" stroke-linejoin="miter" stroke-miterlimit="0" d="M0 15.5828L96.0287 0" sodipodi:nodetypes="cc"/><path id="shape021" transform="translate(881.187915679658, 638.876417363544)" fill="none" stroke="#876344" stroke-width="19.9999999999984" stroke-linecap="round" stroke-linejoin="miter" stroke-miterlimit="0" d="M0 0L96.405 15.0492" sodipodi:nodetypes="cc"/><path id="shape031" transform="translate(481.96875750419, 599.705959746667)" fill="none" stroke="#876344" stroke-width="19.9999999999984" stroke-linecap="round" stroke-linejoin="miter" stroke-miterlimit="0" d="M0 0L82.3674 10.7799" sodipodi:nodetypes="cc"/><path id="shape04" transform="translate(481.43510978566, 641.117815216583)" fill="none" stroke="#876344" stroke-width="19.9999999999984" stroke-linecap="round" stroke-linejoin="miter" stroke-miterlimit="0" d="M0 9.2856L83.9683 0" sodipodi:nodetypes="cc"/>
</svg>
