<?xml version="1.0" standalone="no"?>
<!DOCTYPE svg PUBLIC "-//W3C//DTD SVG 20010904//EN" "http://www.w3.org/TR/2001/REC-SVG-20010904/DTD/svg10.dtd">
<!-- Created using Krita: https://krita.org -->
<svg xmlns="http://www.w3.org/2000/svg" 
    xmlns:xlink="http://www.w3.org/1999/xlink"
    xmlns:krita="http://krita.org/namespaces/svg/krita"
    xmlns:sodipodi="http://sodipodi.sourceforge.net/DTD/sodipodi-0.dtd"
    width="1603pt"
    height="1236pt"
    viewBox="0 0 1603 1236">
<defs/>
<path id="shape0" transform="translate(96.8012157966946, 45.6693962557354)" fill="#fdfaf0" fill-rule="evenodd" stroke="#fdfaf0" stroke-width="39.9999999999968" stroke-linecap="square" stroke-linejoin="bevel" d="M392.843 232.211C378.106 232.949 274.598 266.203 242.904 263.553C211.385 238.614 75.8302 123.029 70.4094 129.454C52.2319 150.997 20.8822 345.502 70.6583 413.507C-15.0213 556.799 -18.2279 719.013 36.5723 870.958C70.2223 923.03 142.412 997.372 242.973 1021.38C214.428 1048.17 205.035 1085.68 220.611 1088.4C239.226 1084.27 293.032 1003.94 293.011 1013.1C298.214 1013.75 333.25 1122.58 344.987 1123.26C372.666 1124.85 364.255 1040.78 397.063 1029.42C399.216 1028.68 565.444 1041.38 620.645 1032.83C633.573 1030.83 668.129 1094.97 676.702 1091.94C696.197 1085.05 691.266 1025.02 703.118 1016.41C704.271 1015.57 771.225 1118.3 780.079 1112.02C794.562 1101.73 798.705 1022 812.246 998.408C831.326 965.161 884.764 962.189 913.603 939.486C950.946 910.089 970.88 858.428 988.228 815.435C1007.75 767.049 1010.22 634.902 1011.56 633.471C1019.02 625.493 1073.15 638.868 1134.11 617.855C1226.41 586.7 1257.65 549.115 1312.32 470.198C1326.43 449.834 1342.75 428.324 1350.71 404.44C1364 364.599 1398.9 222.224 1358.66 191.924C1305.61 151.98 1242.3 224.178 1231.81 274.222C1198.25 425.504 1180.74 536.21 1026.41 603.046C1016.42 659.127 958.071 433.979 937.193 390.471C908.532 338.628 801.506 284.656 758.908 281.107C746.197 214.802 655.904 10.0804 617.616 0.109708C597.65 -5.08975 431.095 175.989 392.843 232.211Z" sodipodi:nodetypes="cccccccccccccccccccccccccccc"/><path id="shape01" transform="translate(548.094955004601, 602.992738352335)" fill="#f0a6a6" fill-rule="evenodd" stroke="#f0a6a6" stroke-width="39.9999999999968" stroke-linecap="square" stroke-linejoin="bevel" d="M0 19.1399C1.99477 -3.4894 81.8185 -8.20389 86.8899 16.7344C82.3736 32.5906 8.1073 39.6911 0 19.1399Z" sodipodi:nodetypes="ccc"/><path id="shape02" transform="translate(261.250065140929, 613.052949574108)" fill="#f0a6a6" fill-rule="evenodd" stroke="#f0a6a6" stroke-width="39.9999999999968" stroke-linecap="square" stroke-linejoin="bevel" d="M0 14.5383C1.72004 -2.65047 70.55 -6.2315 74.923 12.7111C71.0287 24.7551 6.99072 30.1485 0 14.5383Z" sodipodi:nodetypes="ccc"/><path id="shape03" transform="translate(79.3549556237813, 280.435375512808)" fill="none" stroke="#876344" stroke-width="39.9999999999968" stroke-linecap="round" stroke-linejoin="miter" stroke-miterlimit="0" d="M786.536 35.4681C1101 90.4686 1119.22 715.821 852.046 773.939M730.099 796.036C648.779 816.911 609.504 827.226 415.183 827.498M309.352 808.89C184.585 813.561 7.38542 675.041 1.30789 463.554C-17.5399 237.066 168.539 -38.2289 480.753 4.40546" sodipodi:nodetypes="ccccccc"/><ellipse id="shape2" transform="translate(314.95897158579, 484.83613004704)" rx="29.2796168125068" ry="64.7710157999099" cx="29.2796168125068" cy="64.7710157999099" fill="#876344" fill-rule="evenodd" stroke-opacity="0" stroke="#000000" stroke-width="0" stroke-linecap="round" stroke-linejoin="miter" stroke-miterlimit="0"/><ellipse id="shape011" transform="translate(505.673202845865, 479.43117462051)" rx="29.3406509630953" ry="64.7710157999099" cx="29.3406509630953" cy="64.7710157999099" fill="#876344" fill-rule="evenodd" stroke-opacity="0" stroke="#000000" stroke-width="0" stroke-linecap="round" stroke-linejoin="miter" stroke-miterlimit="0"/><path id="shape3" transform="translate(392.491848456454, 616.563134085229)" fill="none" stroke="#876344" stroke-width="19.9999999999984" stroke-linecap="round" stroke-linejoin="miter" stroke-miterlimit="0" d="M0 14.2175C0.331156 18.7216 5.27412 26.5079 18.6191 25.6923C32.9924 25.4843 35.8256 1.55885 37.3104 0.000303971C37.9181 -0.100969 41.0595 25.1378 57.4451 24.0324C69.5446 23.495 73.4662 16.363 73.3941 12.1246" sodipodi:nodetypes="ccccc"/><path id="shape1" transform="translate(118.765770473689, 151.378819699241)" fill="none" stroke="#876344" stroke-width="39.9999999999968" stroke-linecap="round" stroke-linejoin="miter" stroke-miterlimit="0" d="M244.727 146.856C143.227 121.295 55.0727 -15.835 31.9539 1.51184C16.6638 35.7601 -33.2539 245.27 35.0221 291.94" sodipodi:nodetypes="ccc"/><path id="shape4" transform="translate(490.827291006186, 29.2056848803666)" fill="none" stroke="#876344" stroke-width="39.9999999999968" stroke-linecap="round" stroke-linejoin="miter" stroke-miterlimit="0" d="M0 242.657C55.207 144.74 204.212 -15.101 232.237 1.14927C259.036 20.8913 396.798 231.866 360.667 363.073" sodipodi:nodetypes="ccc"/><path id="shape5" transform="translate(659.338527919792, 186.761034095612)" fill="none" stroke="#876344" stroke-width="39.9999999999968" stroke-linecap="round" stroke-linejoin="miter" stroke-miterlimit="0" d="M0 109.621C8.49055 76.777 63.2768 -1.81058 68.565 0.0318458C85.6379 12.4315 152.405 119.911 127.975 171.309" sodipodi:nodetypes="ccc"/><path id="shape6" transform="translate(599.815776832567, 606.04173603362)" fill="none" stroke="#876344" stroke-width="19.9999999999984" stroke-linecap="round" stroke-linejoin="miter" stroke-miterlimit="0" d="M0 15.5828L96.0287 0" sodipodi:nodetypes="cc"/><path id="shape021" transform="translate(599.815776832567, 654.705908179616)" fill="none" stroke="#876344" stroke-width="19.9999999999984" stroke-linecap="round" stroke-linejoin="miter" stroke-miterlimit="0" d="M0 0L96.405 15.0492" sodipodi:nodetypes="cc"/><path id="shape031" transform="translate(200.596618657129, 615.535450562739)" fill="none" stroke="#876344" stroke-width="19.9999999999984" stroke-linecap="round" stroke-linejoin="miter" stroke-miterlimit="0" d="M0 0L82.3674 10.7799" sodipodi:nodetypes="cc"/><path id="shape04" transform="translate(200.062970938599, 656.947306032656)" fill="none" stroke="#876344" stroke-width="19.9999999999984" stroke-linecap="round" stroke-linejoin="miter" stroke-miterlimit="0" d="M0 9.2856L83.9683 0" sodipodi:nodetypes="cc"/><path id="shape7" transform="translate(388.074222036374, 1033.86003793311)" fill="none" stroke="#876344" stroke-width="39.9999999999968" stroke-linecap="round" stroke-linejoin="miter" stroke-miterlimit="0" d="M0 0C3.13755 28.2254 2.74406 153.744 51.5037 154.68C90.1959 156.981 106.199 39.358 108.656 0.498432" sodipodi:nodetypes="ccc"/><path id="shape8" transform="translate(806.91564393974, 1016.58106010953)" fill="none" stroke="#876344" stroke-width="39.9999999999968" stroke-linecap="round" stroke-linejoin="miter" stroke-miterlimit="0" d="M0 6.8119C0.498423 16.449 11.4013 164.102 56.6541 162.655C102.26 162.765 116.631 24.6271 117.794 0" sodipodi:nodetypes="ccc"/><path id="shape9" transform="translate(1113.27961934228, 215.542246510144)" fill="none" stroke="#876344" stroke-width="39.9999999999968" stroke-linecap="round" stroke-linejoin="miter" stroke-miterlimit="0" d="M0 428.876C123.864 386.587 180.348 256.375 179.598 215.879C179.441 133.128 215.883 -12.7198 320.818 0.889225C452.168 55.1571 335.969 313.224 270.478 376.375C192.454 464.898 62.2756 487.539 8.30705 477.723" sodipodi:nodetypes="ccccc"/><path id="shape10" transform="translate(292.017573856612, 1070.74400982574)" fill="none" stroke="#876344" stroke-width="39.9999999999968" stroke-linecap="round" stroke-linejoin="miter" stroke-miterlimit="0" d="M1.68857 0C-2.93464 18.7455 3.06994 81.8302 6.17438 83.072C19.5519 83.1398 77.9921 50.9614 88.248 34.7241" sodipodi:nodetypes="ccc"/><path id="shape11" transform="translate(731.887122336665, 1084.70010729863)" fill="none" stroke="#876344" stroke-width="39.9999999999968" stroke-linecap="round" stroke-linejoin="miter" stroke-miterlimit="0" d="M0.265079 13.2915C-2.70885 34.2257 20.1495 85.5609 28.3429 85.7303C39.9929 85.1262 78.3513 25.8261 80.0128 0" sodipodi:nodetypes="ccc"/>
</svg>
