<?xml version="1.0" standalone="no"?>
<!DOCTYPE svg PUBLIC "-//W3C//DTD SVG 20010904//EN" "http://www.w3.org/TR/2001/REC-SVG-20010904/DTD/svg10.dtd">
<!-- Created using Krita: https://krita.org -->
<svg xmlns="http://www.w3.org/2000/svg" 
    xmlns:xlink="http://www.w3.org/1999/xlink"
    xmlns:krita="http://krita.org/namespaces/svg/krita"
    xmlns:sodipodi="http://sodipodi.sourceforge.net/DTD/sodipodi-0.dtd"
    width="1603pt"
    height="1236pt"
    viewBox="0 0 1603 1236">
<defs/>
<path id="shape0" transform="translate(89.7376220054058, 69.7884195993144)" fill="#fdfaf0" fill-rule="evenodd" stroke="#fdfaf0" stroke-width="39.9999999999968" stroke-linecap="square" stroke-linejoin="bevel" d="M72.1266 406.594C79.4932 382.539 69.9776 332.787 69.2518 313.191C67.7812 273.484 50.5376 122.315 90.3729 101.858C135.269 103.153 284.674 270.187 313.318 279.748C352.144 273.277 384.507 272.221 415.755 248.183C491.012 190.293 506.73 71.9862 601.973 16.0815C613.943 9.05547 624.191 0.328114 638.7 0.00568755C701.379 -1.3872 760.752 253.485 799.221 296.763C808.548 307.256 873.905 276.878 928.529 327.506C956.309 353.254 919.925 388.975 941.436 415.864C944.926 420.227 1005.37 429.562 1021.11 461.041C1043.94 506.703 987.866 552.715 994.708 576.975C997.88 588.219 1034.59 580.36 1043.17 612.764C1061.32 681.318 1006.9 699.801 1000.93 731.631C998.895 742.471 1026.74 779.399 1022.17 815.999C1017.77 851.129 987.371 857.908 972.297 885.231C958.812 909.672 961.108 941.847 944.722 966.783C908.368 1022.11 864.819 972.21 832.897 996.471C817.569 1008.12 797.523 1103.11 787.135 1103.6C753.06 1105.23 741.596 999.134 723.537 998.231C712.607 997.685 709.117 1083.89 680.121 1083.89C677.419 1083.89 658.49 1031.15 633.185 1027.1C583.504 1019.15 530.371 1033.04 480.175 1035.43C457.756 1036.5 435.69 1025.01 412.939 1025.92C379.725 1027.25 375.381 1112.34 356.968 1111.11C340.047 1109.99 321.424 1002.73 307.568 997.879C290.802 992.011 275.603 1081.72 238.807 1070.98C207.843 1061.95 232.149 1014.8 213.11 998.935C194.987 983.832 167.993 1005.51 148.691 988.844C118.558 962.819 130.11 936.832 114.428 910.694C102.966 891.592 70.4889 898.81 57.1658 877.956C40.0519 851.168 52.9696 830.441 47.0747 803.913C42.178 781.878 6.73692 773.69 0.960227 747.472C-4.70359 721.766 16.318 705.877 21.4946 682.582C33.8839 626.829 25.4077 570.106 42.0291 514.197C55.7024 468.204 67.298 454.882 72.1266 406.594Z" sodipodi:nodetypes="cccccccccccccccccccccccccccccccccccc"/><path id="shape1" transform="translate(1104.83033194536, 353.758381644992)" fill="#fdfaf0" fill-rule="evenodd" stroke="#fdfaf0" stroke-width="39.9999999999968" stroke-linecap="square" stroke-linejoin="bevel" d="M33.8266 517.244C30.0558 513.474 44.1582 514.51 49.4327 513.724C60.0793 512.139 69.6004 505.088 78.1809 498.939C113.202 473.845 144.792 446.622 151.166 400.724C159.307 342.109 171.188 283.543 177.567 224.712C181.635 187.197 182.014 145.821 197.75 110.773C207.209 89.7041 224.563 74.4084 239.405 57.3826C256.845 34.9294 325.683 -0.341601 356.393 0.0024989C392.184 27.0153 349.037 79.3482 350.526 113.589C351.446 134.748 363.744 152.261 363.316 174.959C362.414 222.777 341.096 258.085 326.237 301.923C319.233 322.584 319.809 348.306 316.145 369.981C305.863 430.819 259.831 477.276 209.249 510.087C183.346 526.889 146.203 537.346 115.495 539.539C105.509 540.253 -2.15252 546.652 0.0328141 526.984" sodipodi:nodetypes="ccccccccccccccc"/><path id="shape01" transform="translate(69.1509075879352, 545.559100383476)" fill="none" stroke="#876344" stroke-width="39.9999999999968" stroke-linecap="round" stroke-linejoin="miter" stroke-miterlimit="0" d="M750.963 546.095C669.643 566.97 630.368 577.285 436.047 577.557M324.513 560.518C302.112 562.7 260.756 550.237 231.308 536.908C222.241 537.182 192.102 560.33 152.939 530.863C122.774 506.652 132.347 464.796 127.601 457.633C122.74 450.954 87.0014 459.658 59.5429 424.865C35.0916 397.347 48.5882 352.146 50.4993 345.715C49.0432 334.041 10.0871 332.936 0.941049 283.164C-5.27288 235.439 21.1973 223.005 24.4995 214.649C19.3695 172.093 26.9423 73.2894 62.0293 0" sodipodi:nodetypes="ccccccccccc"/><path id="shape11" transform="translate(131.796519124989, 137.664170565892)" fill="none" stroke="#876344" stroke-width="39.9999999999968" stroke-linecap="round" stroke-linejoin="miter" stroke-miterlimit="0" d="M250.711 164.209C175.304 125.815 63.824 -15.8821 40.7052 1.46472C25.4151 35.713 0.734864 118.891 0 198.213" sodipodi:nodetypes="ccc"/><path id="shape4" transform="translate(525.667961556326, 44.1354708923461)" fill="none" stroke="#876344" stroke-width="39.9999999999968" stroke-linecap="round" stroke-linejoin="miter" stroke-miterlimit="0" d="M0 212.491C39.5227 113.433 180.031 -14.8474 208.056 1.40287C234.855 21.1449 294.909 107.213 313.673 180.245" sodipodi:nodetypes="ccc"/><path id="shape5" transform="translate(675.107793718745, 179.125277588685)" fill="none" stroke="#876344" stroke-width="39.9999999999968" stroke-linecap="round" stroke-linejoin="miter" stroke-miterlimit="0" d="M0 58.2084C15.4772 23.9386 47.4499 -1.74923 52.7381 0.0931992C69.811 12.4929 82.2535 25.152 93.0418 59.0118" sodipodi:nodetypes="ccc"/><path id="shape7" transform="translate(398.734704908878, 1049.04342708346)" fill="none" stroke="#876344" stroke-width="39.9999999999968" stroke-linecap="round" stroke-linejoin="miter" stroke-miterlimit="0" d="M0 0C3.13755 28.2254 2.74406 153.744 51.5037 154.68C90.1959 156.981 106.199 39.358 108.656 0.498432" sodipodi:nodetypes="ccc"/><path id="shape8" transform="translate(817.576126812244, 1031.76444925988)" fill="none" stroke="#876344" stroke-width="39.9999999999968" stroke-linecap="round" stroke-linejoin="miter" stroke-miterlimit="0" d="M0 6.8119C0.498423 16.449 11.4013 164.102 56.6541 162.655C102.26 162.765 116.631 24.6271 117.794 0" sodipodi:nodetypes="ccc"/><path id="shape9" transform="matrix(0.990129154625948 -0.140157972158432 0.140157972158432 0.990129154625948 1074.22272638813 389.253231318696)" fill="none" stroke="#876344" stroke-width="39.9999999999968" stroke-linecap="round" stroke-linejoin="miter" stroke-miterlimit="0" d="M12.4566 474.395C91.6917 436.669 121.798 353.368 130.886 310.876C143.847 226.841 165.888 79.9956 280.947 31.4367C389.138 -5.22414 413.303 -18.5829 408.105 40.1533C408.998 89.5556 385.263 110.711 382.666 124.995C383.089 130.89 408.158 194.145 394.12 237.779C379.137 290.284 337.903 312.01 329.679 323.08C328.773 330.343 336.637 439.102 228.224 503.284C163.41 537.046 81.2099 547.811 0 522.907" sodipodi:nodetypes="ccccccccc"/><path id="shape10" transform="translate(303.146888809321, 1099.33057997579)" fill="none" stroke="#876344" stroke-width="39.9999999999968" stroke-linecap="round" stroke-linejoin="miter" stroke-miterlimit="0" d="M1.79007 0C-2.83314 18.7455 2.6011 68.427 5.70554 69.6688C19.0831 69.7366 77.5233 37.5582 87.7792 21.3209" sodipodi:nodetypes="ccc"/><path id="shape111" transform="translate(742.547605942588, 1099.88349644898)" fill="none" stroke="#876344" stroke-width="39.9999999999968" stroke-linecap="round" stroke-linejoin="miter" stroke-miterlimit="0" d="M0.265079 13.2915C-2.70885 34.2257 20.1495 85.5609 28.3429 85.7303C39.9929 85.1262 78.3513 25.8261 80.0128 0" sodipodi:nodetypes="ccc"/><path id="shape12" transform="translate(933.275790829505, 349.491674320086)" fill="none" stroke="#876344" stroke-width="39.9999999999968" stroke-linecap="round" stroke-linejoin="miter" stroke-miterlimit="0" d="M0 6.4943C27.8512 -7.33659 74.506 1.41457 96.2767 28.0749C129.764 73.5241 108.547 113.279 112.69 122.396C122.061 129.596 181.254 135.057 195.436 184.592C210.635 229.8 176.173 267.69 180.007 280.346C184.432 291.567 220.795 303.722 224.472 362.655C225.147 418.86 180.278 446.003 179.548 458.351C181.266 463.077 217.318 494.078 200.656 543.523C185.81 588.794 143.158 605.383 138.357 609.64C134.034 613.436 151.173 662.056 108.171 705.02C87.2992 722.626 36.1531 737.351 10.8364 715.295" sodipodi:nodetypes="ccccccccccc"/><path id="shape13" transform="translate(274.327441201279, 809.27784451984)" fill="none" stroke="#876344" stroke-width="39.9999999999968" stroke-linecap="round" stroke-linejoin="miter" stroke-miterlimit="0" d="M4.71967 0C1.41588 5.85844 -8.77044 48.0955 17.5213 69.626C49.3597 106.011 87.5948 85.9457 96.7379 86.8278C102.443 90.579 98.4393 126.408 132.563 142.705C168.704 154.638 188.438 131.021 193.782 133.025C201.874 137.326 210.336 174.572 245.026 177.862C276.683 178.918 300.911 161.778 305.906 159.628" sodipodi:nodetypes="ccccccc"/><path id="shape2" transform="matrix(0.996815609330742 -0.0797410872426721 0.0797410872426721 0.996815609330742 124.968945103186 388.489491804319)" fill="#f0a6a6" fill-rule="evenodd" stroke="#f0a6a6" stroke-width="39.9999999999968" stroke-linecap="round" stroke-linejoin="miter" stroke-miterlimit="0" d="M63.5174 32.1698C57.5067 27.6418 27.7857 -15.9148 9.8994 6.25077C-11.4627 22.9801 29.5052 49.9772 29.6687 58.2263C29.3632 66.5852 -11.0073 82.6597 2.92279 99.4189C25.6567 128.355 46.402 95.8286 55.7148 94.6344C68.1556 94.7853 85.2588 131.499 101.015 116.542C122.888 102.778 95.0751 73.3799 93.8594 65.6165C94.5175 55.6779 132.134 33.0192 113.368 13.866C97.8044 -8.95321 77.8545 32.7676 63.5174 32.1698Z" sodipodi:nodetypes="ccccccccc"/><path id="shape02" transform="matrix(0.987562388895485 -0.15722763128357 0.15722763128357 0.987562388895485 307.342321349172 364.296375420782)" fill="#f0a6a6" fill-rule="evenodd" stroke="#f0a6a6" stroke-width="39.9999999999968" stroke-linecap="round" stroke-linejoin="miter" stroke-miterlimit="0" d="M49.9233 25.0561C45.199 21.5293 21.839 -12.3956 7.78071 4.86856C-9.00948 17.8985 23.1905 38.9257 23.3189 45.3508C23.0789 51.8612 -8.6515 64.3812 2.29724 77.4344C20.1656 99.9719 36.4709 74.6379 43.7906 73.7079C53.5688 73.8254 67.0116 102.42 79.396 90.7708C96.5875 80.0505 74.7271 57.1534 73.7716 51.1067C74.2887 43.3658 103.854 25.7177 89.105 10.7998C76.8722 -6.97336 61.192 25.5217 49.9233 25.0561Z" sodipodi:nodetypes="ccccccccc"/><path id="shape03" transform="matrix(0.994297761287008 -0.106639401253329 0.106639401253329 0.994297761287008 461.190248622697 308.884642183206)" fill="#f0a6a6" fill-rule="evenodd" stroke="#f0a6a6" stroke-width="39.9999999999968" stroke-linecap="round" stroke-linejoin="miter" stroke-miterlimit="0" d="M62.0607 31.1478C56.1878 26.7636 27.1485 -15.4092 9.67236 6.05221C-11.1999 22.25 28.8286 48.3894 28.9883 56.3765C28.6899 64.4697 -10.7549 80.0336 2.85574 96.2603C25.0683 124.277 45.3378 92.784 54.437 91.6279C66.5926 91.7739 83.3036 127.321 98.6989 112.839C120.07 99.5125 92.8948 71.0486 91.707 63.5318C92.3499 53.9089 129.104 31.9702 110.768 13.4255C95.5615 -8.66874 76.0691 31.7266 62.0607 31.1478Z" sodipodi:nodetypes="ccccccccc"/><path id="shape04" transform="matrix(0.985486730729532 0.169752477319252 -0.169752477319252 0.985486730729532 660.812146732808 285.708642566377)" fill="#f0a6a6" fill-rule="evenodd" stroke="#f0a6a6" stroke-width="39.9999999999968" stroke-linecap="round" stroke-linejoin="miter" stroke-miterlimit="0" d="M49.2199 24.7031C44.5622 21.226 21.5313 -12.2209 7.67108 4.79996C-8.88255 17.6463 22.8638 38.3773 22.9904 44.7118C22.7537 51.1305 -8.52961 63.4741 2.26487 76.3434C19.8815 98.5634 35.9571 73.5864 43.1736 72.6695C52.8141 72.7852 66.0675 100.977 78.2774 89.4919C95.2267 78.9227 73.6742 56.3481 72.7322 50.3867C73.2421 42.7548 102.391 25.3554 87.8496 10.6477C75.7891 -6.87512 60.3299 25.1621 49.2199 24.7031Z" sodipodi:nodetypes="ccccccccc"/><path id="shape05" transform="matrix(0.918429175203577 0.395585452380255 -0.395585452380255 0.918429175203577 835.360905827139 270.960894727536)" fill="#f0a6a6" fill-rule="evenodd" stroke="#f0a6a6" stroke-width="39.9999999999968" stroke-linecap="round" stroke-linejoin="miter" stroke-miterlimit="0" d="M43.2355 21.6996C39.1441 18.6452 18.9134 -10.7351 6.73839 4.21636C-7.80256 15.5008 20.0839 33.7112 20.1951 39.2755C19.9872 44.9138 -7.49253 55.7566 1.98949 67.0611C17.4642 86.5795 31.5852 64.6393 37.9243 63.8339C46.3927 63.9356 58.0346 88.6999 68.76 78.611C83.6485 69.3268 64.7165 49.497 63.889 44.2604C64.3369 37.5564 89.942 22.2725 77.1683 9.35305C66.5743 -6.0392 52.9946 22.1028 43.2355 21.6996Z" sodipodi:nodetypes="ccccccccc"/><path id="shape3" transform="translate(403.152331328847, 631.746523234669)" fill="none" stroke="#876344" stroke-width="19.9999999999984" stroke-linecap="round" stroke-linejoin="miter" stroke-miterlimit="0" d="M0 14.2175C0.331156 18.7216 5.27412 26.5079 18.6191 25.6923C32.9924 25.4843 35.8256 1.55885 37.3104 0.000303971C37.9181 -0.100969 41.0595 25.1378 57.4451 24.0324C69.5446 23.495 73.4662 16.363 73.3941 12.1246" sodipodi:nodetypes="ccccc"/><path id="shape06" transform="translate(337.382711277743, 663.963882310608)" fill="#89d5d5" fill-rule="evenodd" stroke="#89d5d5" stroke-width="19.9999999999984" stroke-linecap="square" stroke-linejoin="bevel" d="M0 59.5008C2.0913 65.3306 34.0138 144.079 194.689 65.9645C204.255 70.711 231.731 89.5506 237.241 91.9891C240.259 91.8855 242.279 28.5299 240.97 20.956C240.451 19.3571 201.29 45.6152 197.718 45.2807C51.6243 -60.0294 3.18384 50.0732 0 59.5008Z" sodipodi:nodetypes="cccccc"/><path id="shape6" transform="translate(557.533049327198, 618.294421551566)" fill="#f0a6a6" fill-rule="evenodd" stroke="#f0a6a6" stroke-width="39.9999999999968" stroke-linecap="square" stroke-linejoin="bevel" d="M0 19.1399C1.99477 -3.48939 81.8185 -8.20388 86.8899 16.7344C82.3736 32.5906 8.1073 39.6911 0 19.1399Z" sodipodi:nodetypes="ccc"/><ellipse id="shape011" transform="translate(516.803043717337, 493.910513919202)" rx="29.3406509630953" ry="64.7710157999099" cx="29.3406509630953" cy="64.7710157999099" fill="#876344" fill-rule="evenodd" stroke-opacity="0" stroke="#000000" stroke-width="0" stroke-linecap="round" stroke-linejoin="miter" stroke-miterlimit="0"/><path id="shape61" transform="translate(605.078642715556, 608.904252784156)" fill="none" stroke="#876344" stroke-width="19.9999999999984" stroke-linecap="round" stroke-linejoin="miter" stroke-miterlimit="0" d="M0 15.5828L96.0287 0" sodipodi:nodetypes="cc"/><path id="shape021" transform="translate(604.843963715888, 650.99729298334)" fill="none" stroke="#876344" stroke-width="19.9999999999984" stroke-linecap="round" stroke-linejoin="miter" stroke-miterlimit="0" d="M0 0L96.405 15.0492" sodipodi:nodetypes="cc"/><path id="shape07" transform="matrix(0.999203988948097 -0.0398922106459199 0.0398922106459199 0.999203988948097 269.586834481718 629.838061415708)" fill="#f0a6a6" fill-rule="evenodd" stroke="#f0a6a6" stroke-width="39.9999999999968" stroke-linecap="square" stroke-linejoin="bevel" d="M0 17.21C1.84226 -3.13755 75.5632 -7.37667 80.2469 15.047C76.0759 29.3044 7.48747 35.689 0 17.21Z" sodipodi:nodetypes="ccc"/><ellipse id="shape21" transform="translate(325.619454458193, 500.019519197149)" rx="29.2796168125068" ry="64.7710157999099" cx="29.2796168125068" cy="64.7710157999099" fill="#876344" fill-rule="evenodd" stroke-opacity="0" stroke="#000000" stroke-width="0" stroke-linecap="round" stroke-linejoin="miter" stroke-miterlimit="0"/><path id="shape031" transform="translate(211.257101529543, 630.718839712839)" fill="none" stroke="#876344" stroke-width="19.9999999999984" stroke-linecap="round" stroke-linejoin="miter" stroke-miterlimit="0" d="M0 0L82.3674 10.7799" sodipodi:nodetypes="cc"/><path id="shape041" transform="translate(210.723453811104, 672.130695183007)" fill="none" stroke="#876344" stroke-width="19.9999999999984" stroke-linecap="round" stroke-linejoin="miter" stroke-miterlimit="0" d="M0 9.2856L83.9683 0" sodipodi:nodetypes="cc"/>
</svg>
