<?xml version="1.0" standalone="no"?>
<!DOCTYPE svg PUBLIC "-//W3C//DTD SVG 20010904//EN" "http://www.w3.org/TR/2001/REC-SVG-20010904/DTD/svg10.dtd">
<!-- Created using Krita: https://krita.org -->
<svg xmlns="http://www.w3.org/2000/svg" 
    xmlns:xlink="http://www.w3.org/1999/xlink"
    xmlns:krita="http://krita.org/namespaces/svg/krita"
    xmlns:sodipodi="http://sodipodi.sourceforge.net/DTD/sodipodi-0.dtd"
    width="1603pt"
    height="1236pt"
    viewBox="0 0 1603 1236">
<defs/>
<path id="shape0" transform="translate(74.6152698927558, 58.45042382821)" fill="#fdfaf0" fill-rule="evenodd" stroke="#fdfaf0" stroke-width="39.9999999999968" stroke-linecap="square" stroke-linejoin="bevel" d="M92.7354 394.739C16.0824 394.739 37.6099 154.811 78.149 121.425C87.5181 113.709 141.469 179.429 157.063 196.442C197.526 240.584 273.291 257.547 331.965 240.941C409.58 239.112 424.696 215.806 515.509 75.7158C532.47 55.985 608.754 -9.78729 643.05 1.23671C678.382 12.5935 737.656 234.426 768.345 285.575C777.899 301.499 791.501 275.994 801.551 275.492C828.953 274.122 852.433 287.272 876.297 299.422C925.741 324.593 908.437 362.486 927.249 388.824C929.656 392.193 973.943 404.792 995.542 433.592C1005.83 447.302 1017.73 459.875 1019.47 477.688C1021.9 502.583 996.209 532.788 1002.94 555.662C1005.72 565.11 1022.67 580.275 1028.21 590.347C1033.6 600.147 1037 610.537 1049.99 608.766C1120.48 599.153 1183.79 514.362 1200.29 448.38C1207.38 420.017 1207.7 378.504 1220.45 352.66C1230.53 332.239 1241.86 313.128 1249.63 291.221C1259 264.778 1261.66 241.143 1280.28 218.624C1293.87 202.177 1309.42 185.386 1327.6 173.991C1340.6 165.843 1432.99 123.251 1436.22 149.119C1439.19 172.852 1419.57 206.186 1416.73 230.32C1413.45 258.192 1446.61 289.724 1427.89 336.527C1410.82 379.204 1372.99 395.945 1358.52 425.257C1350.31 441.888 1354.83 461.438 1348.17 478.36C1330.27 523.854 1285.63 587.884 1241.16 609.841C1217.13 621.703 1192.02 627.612 1165.6 629.335C1140.39 630.979 1052.86 612.888 1037.62 628.125C1035.32 630.425 1034.25 633.477 1033.72 636.594C1029.43 661.722 1029.41 674.742 1016.11 698.571C1011.71 706.465 993.542 717.295 992.854 725.324C991.385 742.456 1012.38 756.725 1010.2 777.352C1007.09 806.656 995.779 835.764 978.066 858.687C971.936 866.62 961.836 868.81 958.169 879.122C948.3 906.88 952.147 945.769 933.298 969.33C900.358 1010.51 868.432 962.565 832.202 979.548C802.074 993.671 806.284 1090.07 781.923 1098.93C767.461 1104.19 750.617 1011.69 741.727 1011.01C735.021 1010.49 689.258 1081.34 672.492 1083.74C662.613 1085.15 659.671 1049.58 654.881 1042.73C645.825 1029.8 606.834 1025.2 593.175 1026.2C549.23 1029.39 504.934 1038.24 461.158 1039.64C438.584 1040.36 415.313 1031.27 393.537 1039.64C372.243 1047.83 377.075 1111.05 350.383 1103.77C327.886 1097.63 345.616 1023.05 313.95 1009.8C277.043 994.347 266.916 1077.02 225.088 1063.71C206.979 1057.94 232.3 1014.77 218.769 1004.42C198.756 989.114 166.065 999.965 145.233 986.807C124.768 973.882 119.576 945.57 108.128 926.041C97.2004 907.399 70.3102 906.852 57.177 888.667C39.437 864.104 44.7348 836.417 35.936 810.02C25.2591 777.989 -2.46156 758.889 0.175959 721.963C1.83501 698.736 11.3697 676.35 15.7706 653.668C32.505 567.42 49.3908 472.207 92.7354 394.739Z" sodipodi:nodetypes="cccccccccccccccccccccccccccccccccccccccccccccccccccccc"/><path id="shape01" transform="translate(538.403606938808, 604.931045191202)" fill="#f0a6a6" fill-rule="evenodd" stroke="#f0a6a6" stroke-width="39.9999999999968" stroke-linecap="square" stroke-linejoin="bevel" d="M0 19.1399C1.99477 -3.4894 81.8185 -8.20389 86.8899 16.7344C82.3736 32.5906 8.1073 39.6911 0 19.1399Z" sodipodi:nodetypes="ccc"/><path id="shape02" transform="translate(258.663258223973, 618.180064259482)" fill="#f0a6a6" fill-rule="evenodd" stroke="#f0a6a6" stroke-width="39.9999999999968" stroke-linecap="square" stroke-linejoin="bevel" d="M0 14.3458C1.67332 -2.61538 68.6336 -6.149 72.8878 12.5428C69.0992 24.4274 6.80082 29.7494 0 14.3458Z" sodipodi:nodetypes="ccc"/><path id="shape03" transform="translate(52.4860992603676, 282.413672191037)" fill="none" stroke="#876344" stroke-width="39.9999999999968" stroke-linecap="round" stroke-linejoin="miter" stroke-miterlimit="0" d="M747.276 795.996C665.956 816.871 626.681 827.186 432.36 827.458M320.826 810.419C298.425 812.601 256.218 801.355 226.77 788.026C213.434 791.99 196.881 817.446 146.644 780.421C108.74 740.243 125.251 711.809 123.583 707.291C116.999 700.878 84.6705 709.847 57.4497 674.836C28.3743 638.332 46.1384 602.443 46.1003 593.646C43.1731 584.302 11.9981 572.246 1.38121 535.186C-4.5697 497.053 10.0932 473.258 19.0326 466.404C0.184786 239.916 185.716 -38.2689 497.93 4.36548" sodipodi:nodetypes="ccccccccccc"/><ellipse id="shape2" transform="translate(305.267623519879, 486.774435044956)" rx="29.2796168125068" ry="64.7710157999099" cx="29.2796168125068" cy="64.7710157999099" fill="#876344" fill-rule="evenodd" stroke-opacity="0" stroke="#000000" stroke-width="0" stroke-linecap="round" stroke-linejoin="miter" stroke-miterlimit="0"/><ellipse id="shape011" transform="translate(495.981854779953, 481.369479618427)" rx="29.3406509630953" ry="64.7710157999099" cx="29.3406509630953" cy="64.7710157999099" fill="#876344" fill-rule="evenodd" stroke-opacity="0" stroke="#000000" stroke-width="0" stroke-linecap="round" stroke-linejoin="miter" stroke-miterlimit="0"/><path id="shape3" transform="translate(382.800500390542, 618.501439082925)" fill="none" stroke="#876344" stroke-width="19.9999999999984" stroke-linecap="round" stroke-linejoin="miter" stroke-miterlimit="0" d="M0 14.2175C0.331156 18.7216 5.27412 26.5079 18.6191 25.6923C32.9924 25.4843 35.8256 1.55885 37.3104 0.000303971C37.9181 -0.100969 41.0595 25.1378 57.4451 24.0324C69.5446 23.495 73.4662 16.363 73.3941 12.1246" sodipodi:nodetypes="ccccc"/><path id="shape1" transform="translate(109.074446850678, 153.317124639858)" fill="none" stroke="#876344" stroke-width="39.9999999999968" stroke-linecap="round" stroke-linejoin="miter" stroke-miterlimit="0" d="M244.727 146.856C143.227 121.295 55.0727 -15.835 31.9539 1.51184C16.6638 35.7601 -33.2539 245.27 35.0221 291.94" sodipodi:nodetypes="ccc"/><path id="shape4" transform="translate(481.135942940274, 31.1439900024028)" fill="none" stroke="#876344" stroke-width="39.9999999999968" stroke-linecap="round" stroke-linejoin="miter" stroke-miterlimit="0" d="M0 242.657C55.207 144.74 204.212 -15.101 232.237 1.14927C259.036 20.8913 396.798 231.866 360.667 363.073" sodipodi:nodetypes="ccc"/><path id="shape5" transform="translate(649.647179853881, 188.699339106326)" fill="none" stroke="#876344" stroke-width="39.9999999999968" stroke-linecap="round" stroke-linejoin="miter" stroke-miterlimit="0" d="M0 109.621C8.49055 76.777 63.2768 -1.81058 68.565 0.0318458C85.6379 12.4315 152.405 119.911 127.975 171.309" sodipodi:nodetypes="ccc"/><path id="shape6" transform="translate(590.124428766655, 607.980041031537)" fill="none" stroke="#876344" stroke-width="19.9999999999984" stroke-linecap="round" stroke-linejoin="miter" stroke-miterlimit="0" d="M0 15.5828L96.0287 0" sodipodi:nodetypes="cc"/><path id="shape021" transform="translate(590.124428766656, 656.644213177533)" fill="none" stroke="#876344" stroke-width="19.9999999999984" stroke-linecap="round" stroke-linejoin="miter" stroke-miterlimit="0" d="M0 0L96.405 15.0492" sodipodi:nodetypes="cc"/><path id="shape031" transform="translate(190.905270591218, 617.473755560656)" fill="none" stroke="#876344" stroke-width="19.9999999999984" stroke-linecap="round" stroke-linejoin="miter" stroke-miterlimit="0" d="M0 0L82.3674 10.7799" sodipodi:nodetypes="cc"/><path id="shape04" transform="translate(190.371622872688, 658.885611030572)" fill="none" stroke="#876344" stroke-width="19.9999999999984" stroke-linecap="round" stroke-linejoin="miter" stroke-miterlimit="0" d="M0 9.2856L83.9683 0" sodipodi:nodetypes="cc"/><path id="shape7" transform="translate(378.382873970463, 1035.79834293102)" fill="none" stroke="#876344" stroke-width="39.9999999999968" stroke-linecap="round" stroke-linejoin="miter" stroke-miterlimit="0" d="M0 0C3.13755 28.2254 2.74406 153.744 51.5037 154.68C90.1959 156.981 106.199 39.358 108.656 0.498432" sodipodi:nodetypes="ccc"/><path id="shape8" transform="translate(797.224295873829, 1018.51936510744)" fill="none" stroke="#876344" stroke-width="39.9999999999968" stroke-linecap="round" stroke-linejoin="miter" stroke-miterlimit="0" d="M0 6.8119C0.498423 16.449 11.4013 164.102 56.6541 162.655C102.26 162.765 116.631 24.6271 117.794 0" sodipodi:nodetypes="ccc"/><path id="shape9" transform="translate(1141.23056050954, 169.48542353786)" fill="none" stroke="#876344" stroke-width="39.9999999999968" stroke-linecap="round" stroke-linejoin="miter" stroke-miterlimit="0" d="M0 474.162C79.2351 436.436 109.341 353.135 118.429 310.643C131.39 226.608 153.431 79.7625 268.49 31.2036C376.681 -5.45726 398.175 -18.3646 392.977 40.3716C392.186 70.6923 381.439 94.9551 370.458 124.679C388.62 143.395 396.099 199.394 384.943 231.21C375.977 265.486 341.797 303.425 316.161 323.645C309.132 409.325 274.189 457.983 217.151 494.951C152.103 540.412 60.422 529.118 6.45345 519.302" sodipodi:nodetypes="ccccccccc"/><path id="shape10" transform="translate(282.795059304216, 1086.08549582336)" fill="none" stroke="#876344" stroke-width="39.9999999999968" stroke-linecap="round" stroke-linejoin="miter" stroke-miterlimit="0" d="M1.79007 0C-2.83314 18.7455 2.6011 68.427 5.70554 69.6688C19.0831 69.7366 77.5233 37.5582 87.7792 21.3209" sodipodi:nodetypes="ccc"/><path id="shape11" transform="translate(722.195774637464, 1086.63841229655)" fill="none" stroke="#876344" stroke-width="39.9999999999968" stroke-linecap="round" stroke-linejoin="miter" stroke-miterlimit="0" d="M0.265079 13.2915C-2.70885 34.2257 20.1495 85.5609 28.3429 85.7303C39.9929 85.1262 78.3513 25.8261 80.0128 0" sodipodi:nodetypes="ccc"/><path id="shape12" transform="translate(857.601201472644, 314.551192142889)" fill="none" stroke="#876344" stroke-width="39.9999999999968" stroke-linecap="round" stroke-linejoin="miter" stroke-miterlimit="0" d="M0 10.0811C28.7067 -10.3088 85.6397 3.6312 108.971 21.8619C155.929 52.2149 153.626 110.005 154.505 112.933C159.316 117.261 221.58 133.816 242.515 190.606C259.918 234.997 229.286 283.05 230.821 290.928C238.148 298.399 275.102 321.564 278.114 385.258C282.85 445.063 236.53 472.53 236.796 480.359C237.586 490.634 268.929 504.204 253.215 568.405C237.274 617.848 195.266 622.375 194.11 631.924C192.804 642.355 204.639 697.472 166.267 725.924C142.628 751.964 91.4759 759.046 66.1592 736.99" sodipodi:nodetypes="ccccccccccc"/>
</svg>
