<?xml version="1.0" standalone="no"?>
<!DOCTYPE svg PUBLIC "-//W3C//DTD SVG 20010904//EN" "http://www.w3.org/TR/2001/REC-SVG-20010904/DTD/svg10.dtd">
<!-- Created using Krita: https://krita.org -->
<svg xmlns="http://www.w3.org/2000/svg" 
    xmlns:xlink="http://www.w3.org/1999/xlink"
    xmlns:krita="http://krita.org/namespaces/svg/krita"
    xmlns:sodipodi="http://sodipodi.sourceforge.net/DTD/sodipodi-0.dtd"
    width="1603pt"
    height="1236pt"
    viewBox="0 0 1603 1236">
<defs/>
<path id="shape01" transform="translate(372.905166734591, 281.51565525347)" fill="#fdfaf0" fill-rule="evenodd" stroke="#fdfaf0" stroke-width="39.9999999999968" stroke-linecap="square" stroke-linejoin="bevel" d="M96.5352 131.166C27.9091 241.129 -2.38739 336.944 0.146345 464.132C24.9675 605.393 160.152 801.005 428.595 800.308C742.076 732.44 736.995 644.251 828.59 487.805C833.15 123.541 652.126 43.1687 538.001 3.20343C398.185 -15.9026 147.229 53.4696 96.5352 131.166Z" sodipodi:nodetypes="cccccc"/><path id="shape011" transform="translate(829.467093851251, 587.163238332099)" fill="#f0a6a6" fill-rule="evenodd" stroke="#f0a6a6" stroke-width="39.9999999999968" stroke-linecap="square" stroke-linejoin="bevel" d="M0 19.1399C1.99477 -3.4894 81.8185 -8.20389 86.8899 16.7344C82.3736 32.5906 8.1073 39.6911 0 19.1399Z" sodipodi:nodetypes="ccc"/><path id="shape02" transform="translate(531.33392052665, 598.08276675357)" fill="#f0a6a6" fill-rule="evenodd" stroke="#f0a6a6" stroke-width="39.9999999999968" stroke-linecap="square" stroke-linejoin="bevel" d="M0 13.4744C1.82613 -2.45653 74.9017 -5.77552 79.5443 11.781C75.4098 22.9437 7.42192 27.9424 0 13.4744Z" sodipodi:nodetypes="ccc"/><path id="shape03" transform="translate(361.779973559322, 264.691603502961)" fill="none" stroke="#876344" stroke-width="39.9999999999968" stroke-linecap="round" stroke-linejoin="miter" stroke-miterlimit="0" d="M852.272 444.429C842.786 631.062 671.212 825.751 411.14 825.751C120.155 812.308 11.7086 650.675 1.41797 462.471C-17.4298 235.983 153.201 3.05528 418.73 0C709.04 7.05459 867.225 233.062 852.272 444.429Z" sodipodi:nodetypes="ccccc"/><ellipse id="shape2" transform="translate(596.331110432717, 469.006639230843)" rx="29.2796168125068" ry="64.7710157999099" cx="29.2796168125068" cy="64.7710157999099" fill="#876344" fill-rule="evenodd" stroke-opacity="0" stroke="#000000" stroke-width="0" stroke-linecap="round" stroke-linejoin="miter" stroke-miterlimit="0"/><ellipse id="shape0111" transform="translate(787.045341692766, 463.601683804306)" rx="29.3406509630953" ry="64.7710157999099" cx="29.3406509630953" cy="64.7710157999099" fill="#876344" fill-rule="evenodd" stroke-opacity="0" stroke="#000000" stroke-width="0" stroke-linecap="round" stroke-linejoin="miter" stroke-miterlimit="0"/><path id="shape3" transform="translate(693.716107478781, 662.184101072933)" fill="none" stroke="#876344" stroke-width="19.9999999999984" stroke-linecap="round" stroke-linejoin="miter" stroke-miterlimit="0" d="M0 20.0559C23.0786 20.0878 28.175 1.83652 32.0688 0C34.715 1.70553 37.9159 17.494 61.933 19.254" sodipodi:nodetypes="ccc"/><path id="shape6" transform="translate(881.187915679444, 590.212245217395)" fill="none" stroke="#876344" stroke-width="19.9999999999984" stroke-linecap="round" stroke-linejoin="miter" stroke-miterlimit="0" d="M0 15.5828L96.0287 0" sodipodi:nodetypes="cc"/><path id="shape021" transform="translate(881.187915679445, 638.876417363391)" fill="none" stroke="#876344" stroke-width="19.9999999999984" stroke-linecap="round" stroke-linejoin="miter" stroke-miterlimit="0" d="M0 0L96.405 15.0492" sodipodi:nodetypes="cc"/><path id="shape031" transform="translate(481.968757504073, 599.705959746523)" fill="none" stroke="#876344" stroke-width="19.9999999999984" stroke-linecap="round" stroke-linejoin="miter" stroke-miterlimit="0" d="M0 0L82.3674 10.7799" sodipodi:nodetypes="cc"/><path id="shape04" transform="translate(481.435109785543, 641.117815216427)" fill="none" stroke="#876344" stroke-width="19.9999999999984" stroke-linecap="round" stroke-linejoin="miter" stroke-miterlimit="0" d="M0 9.2856L83.9683 0" sodipodi:nodetypes="cc"/><path id="shape0" transform="translate(181.988525448886, 28.5774984913261)" fill="#fdfaf0" fill-rule="evenodd" stroke="#876344" stroke-width="39.9999999999968" stroke-linecap="square" stroke-linejoin="bevel" d="M401.227 283.344C380.129 252.026 322.982 106.005 223.891 41.8526C58.9834 -56.8205 -38.0204 36.6853 14.1556 139.594C84.0558 261.022 266.936 339.822 294.091 368.342C321.462 340.161 370.376 302.35 401.227 283.344Z" sodipodi:nodetypes="ccccc"/><path id="shape1" transform="translate(896.522247394335, 43.1667715638529)" fill="#fdfaf0" fill-rule="evenodd" stroke="#876344" stroke-width="39.9999999999968" stroke-linecap="square" stroke-linejoin="bevel" d="M0 235.599C8.23072 204.642 21.1871 102.146 72.2518 43.8956C150.314 -36.7756 317.881 5.21839 381.995 77.5922C457.024 159.917 428.741 266.792 333.503 244.131C308.928 240.799 226.919 212.2 194.734 175.883C191.044 175.072 151.202 274.547 141.156 295.432C98.2772 270.847 53.4371 252.947 0 235.599Z" sodipodi:nodetypes="ccccccc"/><path id="shape4" transform="translate(711.746768687186, 627.034037305059)" fill="none" stroke="#f0a6a6" stroke-width="19.9999999999984" stroke-linecap="round" stroke-linejoin="bevel" d="M0 0.138985C11.5155 14.0295 16.6564 14.7048 28.9115 0" sodipodi:nodetypes="cc"/>
</svg>
