<?xml version="1.0" standalone="no"?>
<!DOCTYPE svg PUBLIC "-//W3C//DTD SVG 20010904//EN" "http://www.w3.org/TR/2001/REC-SVG-20010904/DTD/svg10.dtd">
<!-- Created using Krita: https://krita.org -->
<svg xmlns="http://www.w3.org/2000/svg" 
    xmlns:xlink="http://www.w3.org/1999/xlink"
    xmlns:krita="http://krita.org/namespaces/svg/krita"
    xmlns:sodipodi="http://sodipodi.sourceforge.net/DTD/sodipodi-0.dtd"
    width="1603pt"
    height="1236pt"
    viewBox="0 0 1603 1236">
<defs/>
<path id="shape03" transform="translate(184.568727003108, 343.731731126869)" fill="#fdfaf0" stroke="#876344" stroke-width="39.9999999999968" stroke-linecap="round" stroke-linejoin="miter" stroke-miterlimit="0" d="M1088.9 663.467C923.712 843.303 825.688 779.974 407.649 803.666C137.987 801.431 11.7713 662.762 1.48065 474.558C-17.3671 248.07 144.971 15.1426 417.244 1.15204C642.034 -6.37376 926.975 16.4263 1084.52 269.894C1169.08 398.7 1171.38 554.748 1088.9 663.467Z" sodipodi:nodetypes="cccccc"/><path id="shape0" transform="translate(54.2158440535058, 38.7866860385421)" fill="#fdfaf0" fill-rule="evenodd" stroke="#876344" stroke-width="39.9999999999968" stroke-linecap="square" stroke-linejoin="bevel" d="M347.659 365.356C337.952 330.21 308.052 207.518 220.716 89.5094C78.8088 -96.5794 -73.7092 39.2687 39.3206 208.392C128.481 326.546 212.639 419.373 246.538 443.337C273.909 415.156 316.808 384.362 347.659 365.356Z" sodipodi:nodetypes="ccccc"/><path id="shape1" transform="translate(679.733959050795, 34.445444346723)" fill="#fdfaf0" fill-rule="evenodd" stroke="#876344" stroke-width="39.9999999999968" stroke-linecap="square" stroke-linejoin="bevel" d="M0 309.841C8.23072 278.884 33.9447 98.6562 85.0094 40.4058C163.072 -40.2654 355.334 13.0284 419.448 85.4023C497.666 162.897 468.198 277.154 367.584 261.145C315.398 251.616 250.703 212.902 218.518 176.585C214.828 175.774 166.349 296.208 156.303 317.093C118.817 316.019 39.822 306.788 0 309.841Z" sodipodi:nodetypes="ccccccc"/><path id="shape2" transform="translate(1316.53231217941, 741.748739500094)" fill="#fdfaf0" fill-rule="evenodd" stroke="#876344" stroke-width="39.9999999999968" stroke-linecap="square" stroke-linejoin="bevel" d="M14.612 28.3687C20.8997 -26.3171 168.68 -6.05965 160.687 125.328C151.346 264.048 -8.9896 236.049 0.396359 191.669C15.1587 150.752 21.173 79.774 14.612 28.3687Z" sodipodi:nodetypes="cccc"/><path id="shape011" transform="translate(651.680649732603, 676.01251579621)" fill="#f0a6a6" fill-rule="evenodd" stroke="#f0a6a6" stroke-width="39.9999999999968" stroke-linecap="square" stroke-linejoin="bevel" d="M0 19.1399C1.99477 -3.4894 81.8185 -8.20389 86.8899 16.7344C82.3736 32.5906 8.1073 39.6911 0 19.1399Z" sodipodi:nodetypes="ccc"/><path id="shape02" transform="translate(353.547476408026, 686.932042195602)" fill="#f0a6a6" fill-rule="evenodd" stroke="#f0a6a6" stroke-width="39.9999999999968" stroke-linecap="square" stroke-linejoin="bevel" d="M0 13.4744C1.82613 -2.45653 74.9017 -5.77552 79.5443 11.781C75.4098 22.9437 7.42192 27.9424 0 13.4744Z" sodipodi:nodetypes="ccc"/><ellipse id="shape21" transform="translate(418.544666314087, 557.855920376375)" rx="29.2796168125068" ry="64.7710157999099" cx="29.2796168125068" cy="64.7710157999099" fill="#876344" fill-rule="evenodd" stroke-opacity="0" stroke="#000000" stroke-width="0" stroke-linecap="round" stroke-linejoin="miter" stroke-miterlimit="0"/><ellipse id="shape0111" transform="translate(609.258897574121, 552.450964949838)" rx="29.3406509630953" ry="64.7710157999099" cx="29.3406509630953" cy="64.7710157999099" fill="#876344" fill-rule="evenodd" stroke-opacity="0" stroke="#000000" stroke-width="0" stroke-linecap="round" stroke-linejoin="miter" stroke-miterlimit="0"/><path id="shape3" transform="translate(515.929663360144, 751.033382218449)" fill="none" stroke="#876344" stroke-width="19.9999999999984" stroke-linecap="round" stroke-linejoin="miter" stroke-miterlimit="0" d="M0 20.0559C23.0786 20.0878 28.175 1.83652 32.0688 0C34.715 1.70553 37.9159 17.494 61.933 19.254" sodipodi:nodetypes="ccc"/><path id="shape6" transform="translate(703.401471560791, 679.061526362917)" fill="none" stroke="#876344" stroke-width="19.9999999999984" stroke-linecap="round" stroke-linejoin="miter" stroke-miterlimit="0" d="M0 15.5828L96.0287 0" sodipodi:nodetypes="cc"/><path id="shape021" transform="translate(703.401471560792, 727.725698508909)" fill="none" stroke="#876344" stroke-width="19.9999999999984" stroke-linecap="round" stroke-linejoin="miter" stroke-miterlimit="0" d="M0 0L96.405 15.0492" sodipodi:nodetypes="cc"/><path id="shape031" transform="translate(304.182313385453, 688.555240892044)" fill="none" stroke="#876344" stroke-width="19.9999999999984" stroke-linecap="round" stroke-linejoin="miter" stroke-miterlimit="0" d="M0 0L82.3674 10.7799" sodipodi:nodetypes="cc"/><path id="shape04" transform="translate(303.648665666923, 729.967096361945)" fill="none" stroke="#876344" stroke-width="19.9999999999984" stroke-linecap="round" stroke-linejoin="miter" stroke-miterlimit="0" d="M0 9.2856L83.9683 0" sodipodi:nodetypes="cc"/><path id="shape4" transform="translate(533.960324568547, 715.883318450578)" fill="none" stroke="#f0a6a6" stroke-width="19.9999999999984" stroke-linecap="round" stroke-linejoin="bevel" d="M0 0.138985C11.5155 14.0295 16.6564 14.7048 28.9115 0" sodipodi:nodetypes="cc"/><path id="shape5" transform="translate(522.14609015423, 1143.74008948448)" fill="#fdfaf0" fill-rule="evenodd" stroke="#876344" stroke-width="39.9999999999968" stroke-linecap="square" stroke-linejoin="bevel" d="M0.256693 1.36691C-1.43677 21.6504 4.47933 57.3698 41.3544 61.2377C80.5624 59.6121 138.339 34.009 139.497 0C115.14 1.89525 34.0264 4.41204 0.256693 1.36691Z" sodipodi:nodetypes="cccc"/><path id="shape01" transform="translate(436.826806193017, 1130.93521601692)" fill="#fdfaf0" stroke="#876344" stroke-width="39.9999999999968" stroke-linecap="square" stroke-linejoin="bevel" d="M10.7951 0C9.10167 20.2835 -20.7947 61.835 26.9244 77.0939C66.1324 75.4683 90.3747 47.4959 91.5327 13.4869C67.9958 9.73221 49.5768 10.0619 10.7951 0Z" sodipodi:nodetypes="cccc"/><path id="shape7" transform="translate(880.870923743757, 1124.5121937699)" fill="#fdfaf0" fill-rule="evenodd" stroke="#876344" stroke-width="39.9999999999968" stroke-linecap="square" stroke-linejoin="bevel" d="M31.5503 15.4917C-0.379977 24.4222 -15.3091 71.1279 21.891 82.2881C68.5854 88.9792 145.319 80.2683 170.335 71.8084C201.609 62.6228 223.548 33.4344 214.531 0C187.653 9.85116 87.9934 18.0432 31.5503 15.4917Z" sodipodi:nodetypes="ccccc"/><path id="shape05" transform="translate(754.976553875716, 1140.20345491261)" fill="#fdfaf0" fill-rule="evenodd" stroke="#876344" stroke-width="39.9999999999968" stroke-linecap="square" stroke-linejoin="bevel" d="M25.929 2.27822C-6.00126 11.2087 -9.34091 56.2741 20.9336 64.6094C67.628 71.3005 109.916 66.8726 134.932 58.4127C113.809 47.4045 131.191 8.46547 143.498 0C113.248 0.738413 44.337 3.00717 25.929 2.27822Z" sodipodi:nodetypes="ccccc"/>
</svg>
