<?xml version="1.0" standalone="no"?>
<!DOCTYPE svg PUBLIC "-//W3C//DTD SVG 20010904//EN" "http://www.w3.org/TR/2001/REC-SVG-20010904/DTD/svg10.dtd">
<!-- Created using Krita: https://krita.org -->
<svg xmlns="http://www.w3.org/2000/svg" 
    xmlns:xlink="http://www.w3.org/1999/xlink"
    xmlns:krita="http://krita.org/namespaces/svg/krita"
    xmlns:sodipodi="http://sodipodi.sourceforge.net/DTD/sodipodi-0.dtd"
    width="1603pt"
    height="1236pt"
    viewBox="0 0 1603 1236">
<defs/>
<path id="shape03" transform="translate(164.537410294826, 343.73172911913)" fill="#fdfaf0" stroke="#876344" stroke-width="39.9999999999968" stroke-linecap="round" stroke-linejoin="miter" stroke-miterlimit="0" d="M20.0084 468.316C5.07905 240.552 168.647 19.3345 437.184 1.15204C661.974 -6.37376 947.006 16.4263 1104.55 269.894C1189.11 398.7 1191.41 554.748 1108.93 663.467C943.743 843.303 845.719 779.974 427.68 803.666C379.658 803.152 273.01 793.782 224.82 764.908C221.135 765.725 184.551 789.057 149.716 770.953C118.435 754.307 126.904 702.787 124.571 699.159C118.98 694.639 78.2485 698.468 62.1826 675.587C44.2176 654.08 54.4943 610.724 54.5881 604.949C53.8431 601.802 9.08377 579.291 2.98821 549.42C-9.12028 514.534 19.444 470.38 20.0084 468.316Z" sodipodi:nodetypes="cccccccccccc"/><path id="shape0" transform="translate(54.2158445336493, 38.7866861196497)" fill="#fdfaf0" fill-rule="evenodd" stroke="#876344" stroke-width="39.9999999999968" stroke-linecap="square" stroke-linejoin="bevel" d="M347.659 365.356C337.952 330.21 308.052 207.518 220.716 89.5094C78.8088 -96.5794 -73.7092 39.2687 39.3206 208.392C128.481 326.546 212.639 419.373 246.538 443.337C273.909 415.156 316.808 384.362 347.659 365.356Z" sodipodi:nodetypes="ccccc"/><path id="shape1" transform="translate(679.73395905074, 34.4454030049922)" fill="#fdfaf0" fill-rule="evenodd" stroke="#876344" stroke-width="39.9999999999968" stroke-linecap="square" stroke-linejoin="bevel" d="M0 309.841C8.23072 278.884 33.9447 98.6562 85.0094 40.4058C163.072 -40.2654 355.334 13.0284 419.448 85.4023C497.666 162.897 468.198 277.154 367.584 261.145C315.398 251.616 250.703 212.902 218.518 176.585C214.828 175.774 166.349 296.208 156.303 317.093C118.817 316.019 39.822 306.788 0 309.841Z" sodipodi:nodetypes="ccccccc"/><path id="shape2" transform="translate(1226.95184112364, 899.699041376576)" fill="#fdfaf0" fill-rule="evenodd" stroke="#876344" stroke-width="39.9999999999968" stroke-linecap="square" stroke-linejoin="bevel" d="M93.6219 20.0497C106.015 -36.3675 269.469 30.3649 204.249 168.952C150.074 272.132 -9.98818 200.756 0.49129 152.458C39.5842 126.303 83.2335 59.5173 93.6219 20.0497Z" sodipodi:nodetypes="cccc"/><path id="shape011" transform="translate(651.680649732551, 676.01251395545)" fill="#f0a6a6" fill-rule="evenodd" stroke="#f0a6a6" stroke-width="39.9999999999968" stroke-linecap="square" stroke-linejoin="bevel" d="M0 19.1399C1.99477 -3.4894 81.8185 -8.20389 86.8899 16.7344C82.3736 32.5906 8.1073 39.6911 0 19.1399Z" sodipodi:nodetypes="ccc"/><path id="shape02" transform="translate(353.547476407998, 686.932039343802)" fill="#f0a6a6" fill-rule="evenodd" stroke="#f0a6a6" stroke-width="39.9999999999968" stroke-linecap="square" stroke-linejoin="bevel" d="M0 13.4744C1.82613 -2.45653 74.9017 -5.77552 79.5443 11.781C75.4098 22.9437 7.42192 27.9424 0 13.4744Z" sodipodi:nodetypes="ccc"/><ellipse id="shape21" transform="translate(418.544666314053, 557.85592037633)" rx="29.2796168125068" ry="64.7710157999099" cx="29.2796168125068" cy="64.7710157999099" fill="#876344" fill-rule="evenodd" stroke-opacity="0" stroke="#000000" stroke-width="0" stroke-linecap="round" stroke-linejoin="miter" stroke-miterlimit="0"/><ellipse id="shape0111" transform="translate(609.258897574072, 552.450964949794)" rx="29.3406509630953" ry="64.7710157999099" cx="29.3406509630953" cy="64.7710157999099" fill="#876344" fill-rule="evenodd" stroke-opacity="0" stroke="#000000" stroke-width="0" stroke-linecap="round" stroke-linejoin="miter" stroke-miterlimit="0"/><path id="shape3" transform="translate(515.929663360102, 751.033382218389)" fill="none" stroke="#876344" stroke-width="19.9999999999984" stroke-linecap="round" stroke-linejoin="miter" stroke-miterlimit="0" d="M0 20.0559C23.0786 20.0878 28.175 1.83652 32.0688 0C34.715 1.70553 37.9159 17.494 61.933 19.254" sodipodi:nodetypes="ccc"/><path id="shape6" transform="translate(703.401471560734, 679.061526362862)" fill="none" stroke="#876344" stroke-width="19.9999999999984" stroke-linecap="round" stroke-linejoin="miter" stroke-miterlimit="0" d="M0 15.5828L96.0287 0" sodipodi:nodetypes="cc"/><path id="shape021" transform="translate(703.401471560735, 727.72569850885)" fill="none" stroke="#876344" stroke-width="19.9999999999984" stroke-linecap="round" stroke-linejoin="miter" stroke-miterlimit="0" d="M0 0L96.405 15.0492" sodipodi:nodetypes="cc"/><path id="shape031" transform="translate(304.182313385429, 688.555240891989)" fill="none" stroke="#876344" stroke-width="19.9999999999984" stroke-linecap="round" stroke-linejoin="miter" stroke-miterlimit="0" d="M0 0L82.3674 10.7799" sodipodi:nodetypes="cc"/><path id="shape04" transform="translate(303.648665666899, 729.967096361886)" fill="none" stroke="#876344" stroke-width="19.9999999999984" stroke-linecap="round" stroke-linejoin="miter" stroke-miterlimit="0" d="M0 9.2856L83.9683 0" sodipodi:nodetypes="cc"/><path id="shape4" transform="translate(533.960324568504, 715.88331845052)" fill="none" stroke="#f0a6a6" stroke-width="19.9999999999984" stroke-linecap="round" stroke-linejoin="bevel" d="M0 0.138985C11.5155 14.0295 16.6564 14.7048 28.9115 0" sodipodi:nodetypes="cc"/><path id="shape5" transform="translate(522.14609045957, 1143.74008948439)" fill="#fdfaf0" fill-rule="evenodd" stroke="#876344" stroke-width="39.9999999999968" stroke-linecap="square" stroke-linejoin="bevel" d="M0.256693 1.36691C-1.43677 21.6504 4.47933 57.3698 41.3544 61.2377C80.5624 59.6121 138.339 34.009 139.497 0C115.14 1.89525 34.0264 4.41204 0.256693 1.36691Z" sodipodi:nodetypes="cccc"/><path id="shape01" transform="translate(436.826801229346, 1130.93521601683)" fill="#fdfaf0" stroke="#876344" stroke-width="39.9999999999968" stroke-linecap="square" stroke-linejoin="bevel" d="M10.7951 0C9.10167 20.2835 -20.7947 61.835 26.9244 77.0939C66.1324 75.4683 90.3747 47.4959 91.5327 13.4869C67.9958 9.73221 49.5768 10.0619 10.7951 0Z" sodipodi:nodetypes="cccc"/><path id="shape7" transform="translate(880.870937964127, 1124.51219376981)" fill="#fdfaf0" fill-rule="evenodd" stroke="#876344" stroke-width="39.9999999999968" stroke-linecap="square" stroke-linejoin="bevel" d="M31.5503 15.4917C-0.379991 24.4222 -15.3091 71.1279 21.891 82.2881C68.5854 88.9792 145.319 80.2683 170.335 71.8084C201.609 62.6228 223.548 33.4344 214.531 0C187.653 9.85116 87.9934 18.0432 31.5503 15.4917Z" sodipodi:nodetypes="ccccc"/><path id="shape05" transform="translate(754.97654902251, 1140.20345491252)" fill="#fdfaf0" fill-rule="evenodd" stroke="#876344" stroke-width="39.9999999999968" stroke-linecap="square" stroke-linejoin="bevel" d="M25.929 2.27822C-6.00126 11.2087 -9.34091 56.2741 20.9336 64.6094C67.628 71.3005 109.916 66.8726 134.932 58.4127C113.809 47.4045 131.191 8.46547 143.498 0C113.248 0.738413 44.337 3.00717 25.929 2.27822Z" sodipodi:nodetypes="ccccc"/>
</svg>
