<?xml version="1.0" standalone="no"?>
<!DOCTYPE svg PUBLIC "-//W3C//DTD SVG 20010904//EN" "http://www.w3.org/TR/2001/REC-SVG-20010904/DTD/svg10.dtd">
<!-- Created using Krita: https://krita.org -->
<svg xmlns="http://www.w3.org/2000/svg" 
    xmlns:xlink="http://www.w3.org/1999/xlink"
    xmlns:krita="http://krita.org/namespaces/svg/krita"
    xmlns:sodipodi="http://sodipodi.sourceforge.net/DTD/sodipodi-0.dtd"
    width="1603pt"
    height="1236pt"
    viewBox="0 0 1603 1236">
<defs/>
<path id="shape03" transform="translate(164.537416384949, 344.353406185088)" fill="#fdfaf0" stroke="#876344" stroke-width="39.9999999999968" stroke-linecap="round" stroke-linejoin="miter" stroke-miterlimit="0" d="M20.0084 467.694C5.07904 239.93 198.354 18.7128 437.002 1.16826C661.792 -6.35754 947.006 15.8046 1104.55 269.272C1189.11 398.078 1191.41 554.126 1108.93 662.845C943.743 842.681 845.719 779.352 427.68 803.044C379.658 802.53 273.01 793.16 224.82 764.286C221.135 765.103 184.551 788.435 149.716 770.331C118.435 753.685 126.904 702.165 124.571 698.537C118.98 694.017 78.2485 697.846 62.1826 674.965C44.2176 653.458 54.4943 610.102 54.5881 604.327C53.8431 601.18 9.08376 578.669 2.9882 548.798C-9.12029 513.912 19.444 469.758 20.0084 467.694Z" sodipodi:nodetypes="cccccccccccc"/><path id="shape0" transform="translate(54.1383136708634, 38.7866862007573)" fill="#fdfaf0" fill-rule="evenodd" stroke="#876344" stroke-width="39.9999999999968" stroke-linecap="square" stroke-linejoin="bevel" d="M353.204 369.821C343.497 334.675 308.13 207.518 220.794 89.5094C78.8863 -96.5794 -73.7228 39.2687 39.307 208.392C125.187 332.743 221.373 422.654 255.272 446.618C282.643 418.437 322.353 388.827 353.204 369.821Z" sodipodi:nodetypes="ccccc"/><path id="shape1" transform="translate(679.733959050685, 34.4453616632614)" fill="#fdfaf0" fill-rule="evenodd" stroke="#876344" stroke-width="39.9999999999968" stroke-linecap="square" stroke-linejoin="bevel" d="M0 309.841C8.23072 278.884 33.9447 98.6562 85.0094 40.4058C163.072 -40.2654 355.334 13.0284 419.448 85.4023C497.666 162.897 468.198 277.154 367.584 261.145C315.398 251.616 250.703 212.902 218.518 176.585C214.828 175.774 166.349 296.208 156.303 317.093C118.817 316.019 39.822 306.788 0 309.841Z" sodipodi:nodetypes="ccccccc"/><path id="shape011" transform="translate(651.680649732499, 676.01251211469)" fill="#f0a6a6" fill-rule="evenodd" stroke="#f0a6a6" stroke-width="39.9999999999968" stroke-linecap="square" stroke-linejoin="bevel" d="M0 19.1399C1.99477 -3.4894 81.8185 -8.20389 86.8899 16.7344C82.3736 32.5906 8.1073 39.6911 0 19.1399Z" sodipodi:nodetypes="ccc"/><path id="shape02" transform="translate(353.547476407969, 686.932036492002)" fill="#f0a6a6" fill-rule="evenodd" stroke="#f0a6a6" stroke-width="39.9999999999968" stroke-linecap="square" stroke-linejoin="bevel" d="M0 13.4744C1.82613 -2.45653 74.9017 -5.77552 79.5443 11.781C75.4098 22.9437 7.42192 27.9424 0 13.4744Z" sodipodi:nodetypes="ccc"/><ellipse id="shape21" transform="translate(418.544666314019, 557.855920376285)" rx="29.2796168125068" ry="64.7710157999099" cx="29.2796168125068" cy="64.7710157999099" fill="#876344" fill-rule="evenodd" stroke-opacity="0" stroke="#000000" stroke-width="0" stroke-linecap="round" stroke-linejoin="miter" stroke-miterlimit="0"/><ellipse id="shape0111" transform="translate(609.258897574023, 552.45096494975)" rx="29.3406509630953" ry="64.7710157999099" cx="29.3406509630953" cy="64.7710157999099" fill="#876344" fill-rule="evenodd" stroke-opacity="0" stroke="#000000" stroke-width="0" stroke-linecap="round" stroke-linejoin="miter" stroke-miterlimit="0"/><path id="shape6" transform="translate(703.401471560677, 679.061526362807)" fill="none" stroke="#876344" stroke-width="19.9999999999984" stroke-linecap="round" stroke-linejoin="miter" stroke-miterlimit="0" d="M0 15.5828L96.0287 0" sodipodi:nodetypes="cc"/><path id="shape021" transform="translate(703.401471560678, 727.725698508791)" fill="none" stroke="#876344" stroke-width="19.9999999999984" stroke-linecap="round" stroke-linejoin="miter" stroke-miterlimit="0" d="M0 0L96.405 15.0492" sodipodi:nodetypes="cc"/><path id="shape031" transform="translate(304.182313385404, 688.555240891934)" fill="none" stroke="#876344" stroke-width="19.9999999999984" stroke-linecap="round" stroke-linejoin="miter" stroke-miterlimit="0" d="M0 0L82.3674 10.7799" sodipodi:nodetypes="cc"/><path id="shape04" transform="translate(303.648665666875, 729.967096361827)" fill="none" stroke="#876344" stroke-width="19.9999999999984" stroke-linecap="round" stroke-linejoin="miter" stroke-miterlimit="0" d="M0 9.2856L83.9683 0" sodipodi:nodetypes="cc"/><path id="shape4" transform="translate(533.960324568461, 715.883318450462)" fill="none" stroke="#f0a6a6" stroke-width="19.9999999999984" stroke-linecap="round" stroke-linejoin="bevel" d="M0 0.138985C11.5155 14.0295 16.6564 14.7048 28.9115 0" sodipodi:nodetypes="cc"/><path id="shape5" transform="translate(522.14609076491, 1143.7400894843)" fill="#fdfaf0" fill-rule="evenodd" stroke="#876344" stroke-width="39.9999999999968" stroke-linecap="square" stroke-linejoin="bevel" d="M0.256693 1.36691C-1.43677 21.6504 4.47933 57.3698 41.3544 61.2377C80.5624 59.6121 138.339 34.009 139.497 0C115.14 1.89525 34.0264 4.41204 0.256693 1.36691Z" sodipodi:nodetypes="cccc"/><path id="shape01" transform="translate(436.826796265675, 1130.93521601674)" fill="#fdfaf0" stroke="#876344" stroke-width="39.9999999999968" stroke-linecap="square" stroke-linejoin="bevel" d="M10.7951 0C9.10167 20.2835 -20.7947 61.835 26.9244 77.0939C66.1324 75.4683 90.3747 47.4959 91.5327 13.4869C67.9958 9.73221 49.5768 10.0619 10.7951 0Z" sodipodi:nodetypes="cccc"/><path id="shape7" transform="translate(880.870947955946, 1124.51219376972)" fill="#fdfaf0" fill-rule="evenodd" stroke="#876344" stroke-width="39.9999999999968" stroke-linecap="square" stroke-linejoin="bevel" d="M31.5503 15.4917C-0.380001 24.4222 -15.3091 71.1279 21.891 82.2881C68.5854 88.9792 145.319 80.2683 170.335 71.8084C201.609 62.6228 223.548 33.4344 214.531 0C187.653 9.85116 87.9934 18.0432 31.5503 15.4917Z" sodipodi:nodetypes="ccccc"/><path id="shape05" transform="translate(754.976544169304, 1140.20345491243)" fill="#fdfaf0" fill-rule="evenodd" stroke="#876344" stroke-width="39.9999999999968" stroke-linecap="square" stroke-linejoin="bevel" d="M25.929 2.27822C-6.00126 11.2087 -9.34091 56.2741 20.9336 64.6094C67.628 71.3005 109.916 66.8726 134.932 58.4127C113.809 47.4045 131.191 8.46547 143.498 0C113.248 0.738413 44.337 3.00717 25.929 2.27822Z" sodipodi:nodetypes="ccccc"/><path id="shape2" transform="translate(1222.60875506188, 895.508867083933)" fill="#fdfaf0" fill-rule="evenodd" stroke="#876344" stroke-width="39.9999999999968" stroke-linecap="square" stroke-linejoin="bevel" d="M107.442 0C223.536 5.88026 221.001 113.578 241.579 131.953C243.199 136.021 197.938 138.363 197.201 165.761C196.119 174.206 225.259 213.342 218.98 215.152C212.893 216.066 24.4691 274.706 0 162.163C47.6573 122.064 90.5838 63.4677 107.442 0Z" sodipodi:nodetypes="cccccc"/><path id="shape22" transform="matrix(0.97576403170772 0.218825397120901 -0.218825397120901 0.97576403170772 256.067507322794 447.325707312119)" fill="#f0a6a6" fill-rule="evenodd" stroke="#f0a6a6" stroke-width="39.9999999999968" stroke-linecap="round" stroke-linejoin="miter" stroke-miterlimit="0" d="M47.2374 23.9244C42.7673 20.557 20.664 -11.8357 7.3621 4.64863C-8.52473 17.0901 21.9428 37.1677 22.0644 43.3025C21.8372 49.5189 -8.18605 61.4734 2.17365 73.9371C19.0807 95.4566 34.5088 71.267 41.4347 70.3789C50.6868 70.4911 63.4063 97.7948 75.1241 86.6714C91.3909 76.4352 70.7066 54.5721 69.8025 48.7985C70.2919 41.4072 98.2671 24.5561 84.3109 10.312C72.7364 -6.65845 57.8998 24.369 47.2374 23.9244Z" sodipodi:nodetypes="ccccccccc"/><path id="shape022" transform="matrix(0.987562388895249 -0.157227631283531 0.157227631283531 0.987562388895249 384.441490438138 435.682944487473)" fill="#f0a6a6" fill-rule="evenodd" stroke="#f0a6a6" stroke-width="39.9999999999968" stroke-linecap="round" stroke-linejoin="miter" stroke-miterlimit="0" d="M49.9233 25.0561C45.199 21.5293 21.839 -12.3956 7.78071 4.86856C-9.00948 17.8985 23.1905 38.9257 23.3189 45.3508C23.0789 51.8612 -8.6515 64.3812 2.29724 77.4344C20.1656 99.9719 36.4709 74.6379 43.7906 73.7079C53.5688 73.8254 67.0116 102.42 79.396 90.7708C96.5875 80.0505 74.7271 57.1534 73.7716 51.1067C74.2887 43.3658 103.854 25.7177 89.105 10.7998C76.8722 -6.97336 61.192 25.5217 49.9233 25.0561Z" sodipodi:nodetypes="ccccccccc"/><path id="shape032" transform="matrix(0.994297761286768 -0.106639401253302 0.106639401253302 0.994297761286768 533.223485953348 402.229423314566)" fill="#f0a6a6" fill-rule="evenodd" stroke="#f0a6a6" stroke-width="39.9999999999968" stroke-linecap="round" stroke-linejoin="miter" stroke-miterlimit="0" d="M62.0607 31.1478C56.1878 26.7636 27.1485 -15.4092 9.67237 6.05219C-11.1999 22.25 28.8286 48.3894 28.9883 56.3765C28.6899 64.4697 -10.7549 80.0336 2.85575 96.2603C25.0683 124.277 45.3378 92.784 54.437 91.6279C66.5926 91.7739 83.3036 127.321 98.6989 112.839C120.07 99.5125 92.8948 71.0486 91.707 63.5318C92.3499 53.9089 129.104 31.9702 110.768 13.4255C95.5615 -8.66876 76.0691 31.7266 62.0607 31.1478Z" sodipodi:nodetypes="ccccccccc"/><path id="shape041" transform="matrix(0.985486730729295 0.16975247731921 -0.16975247731921 0.985486730729295 718.862805356036 385.901623946684)" fill="#f0a6a6" fill-rule="evenodd" stroke="#f0a6a6" stroke-width="39.9999999999968" stroke-linecap="round" stroke-linejoin="miter" stroke-miterlimit="0" d="M49.2199 24.7031C44.5622 21.226 21.5313 -12.2209 7.67108 4.79993C-8.88255 17.6463 22.8638 38.3773 22.9904 44.7118C22.7537 51.1305 -8.52961 63.4741 2.26487 76.3434C19.8815 98.5634 35.9571 73.5864 43.1736 72.6695C52.8141 72.7852 66.0675 100.977 78.2774 89.4919C95.2267 78.9227 73.6742 56.3481 72.7322 50.3867C73.2421 42.7548 102.391 25.3554 87.8496 10.6477C75.7891 -6.87515 60.3299 25.1621 49.2199 24.7031Z" sodipodi:nodetypes="ccccccccc"/><path id="shape051" transform="matrix(0.918429175203355 0.395585452380159 -0.395585452380159 0.918429175203355 878.14647370953 333.312826270429)" fill="#f0a6a6" fill-rule="evenodd" stroke="#f0a6a6" stroke-width="39.9999999999968" stroke-linecap="round" stroke-linejoin="miter" stroke-miterlimit="0" d="M43.2355 21.6996C39.1441 18.6452 18.9134 -10.7351 6.73839 4.21639C-7.80256 15.5008 20.0839 33.7112 20.1951 39.2755C19.9872 44.9138 -7.49253 55.7566 1.98949 67.0611C17.4642 86.5795 31.5852 64.6393 37.9243 63.8339C46.3927 63.9356 58.0346 88.6999 68.76 78.611C83.6485 69.3268 64.7165 49.497 63.889 44.2604C64.3369 37.5564 89.942 22.2725 77.1683 9.35308C66.5743 -6.03917 52.9946 22.1028 43.2355 21.6996Z" sodipodi:nodetypes="ccccccccc"/><path id="shape3" transform="translate(515.945212213001, 761.103875888826)" fill="#f2b885" fill-rule="evenodd" stroke="#e5ab78" stroke-width="19.9999999999984" stroke-linecap="square" stroke-linejoin="bevel" d="M31.786 0C25.9455 1.49061 18.3192 11.3526 14.9637 14.9986C8.95237 23.8615 -7.12546 118.715 3.60095 136.658C14.9028 148.89 61.3986 142.975 73.9969 132.573C91.1981 116.201 57.0561 20.5 49.6735 13.1199C49.3237 9.35331 37.7743 1.58582 31.786 0Z" sodipodi:nodetypes="cccccc"/><path id="shape8" transform="translate(489.543187263146, 904.598455745705)" fill="none" stroke="#5f9e79" stroke-width="19.9999999999984" stroke-linecap="round" stroke-linejoin="bevel" d="M49.1777 0C49.1777 4.44977 37.0127 28.5882 34.7079 30.8931C32.4013 33.1998 17.0423 32.6479 17.0423 35.8644C17.0423 39.9141 33.3668 45.0653 32.4886 50.3345C31.5946 55.6984 15.3876 55.4112 12.3374 59.4781C8.80569 64.1872 43.0179 71.1338 17.0423 76.7001C-8.75041 82.2273 13.1972 83.3742 16.776 96.4966C17.4206 98.8601 -3.56627 107.263 0.530775 107.504" sodipodi:nodetypes="cccccccc"/><path id="shape9" transform="translate(544.224993797329, 911.066743215734)" fill="none" stroke="#5f9e79" stroke-width="19.9999999999984" stroke-linecap="round" stroke-linejoin="bevel" d="M13.8481 0.278485C12.1729 -1.39676 12.9453 4.9358 12.6941 7.29158C12.2051 11.8755 14.0625 25.0094 10.9186 28.1533C8.17072 30.9013 0.159874 33.4285 1.15374 38.8949C1.86093 42.7845 26.7978 50.2958 26.3649 50.7905C23.8298 53.6878 16.3222 54.5444 13.0491 55.673C-9.71726 63.5237 5.25763 62.4326 17.3102 69.9655C18.4956 70.7065 0.819808 81.613 0.26602 83.104C-2.53673 90.65 17.8889 90.68 10.9186 99.5271C9.79253 100.956 -4.37163 109.64 1.50882 111.6" sodipodi:nodetypes="cccccccccc"/><path id="shape10" transform="translate(574.645606983842, 907.883068547381)" fill="none" stroke="#5f9e79" stroke-width="19.9999999999984" stroke-linecap="round" stroke-linejoin="bevel" d="M0.989625 0C-3.39114 0 8.08361 34.7805 9.91097 36.042C13.7978 38.7251 25.5712 42.1716 24.4584 47.8488C23.3272 53.0966 8.55141 57.3219 10.8754 63.7392C13.1017 69.8866 25.7224 62.5257 27.0303 67.8228C23.2692 72.0618 16.0324 78.9965 12.0007 84.601C7.193 95.9651 19.7078 85.3064 31.4508 91.7916C31.7744 91.9704 -4.26161 109.596 9.42874 109.369C17.4082 109.07 22.5338 113.049 23.2528 111.677" sodipodi:nodetypes="ccccccccc"/><path id="shape31" transform="translate(515.929663360061, 751.033382218328)" fill="none" stroke="#876344" stroke-width="19.9999999999984" stroke-linecap="round" stroke-linejoin="miter" stroke-miterlimit="0" d="M0 20.0559C23.0786 20.0878 28.175 1.83652 32.0688 0C34.715 1.70553 37.9159 17.494 61.933 19.254" sodipodi:nodetypes="ccc"/><path id="shape11" transform="translate(554.699759093364, 815.255600457002)" fill="none" stroke="#e5ab78" stroke-width="19.9999999999984" stroke-linecap="round" stroke-linejoin="bevel" d="M0 4.79376C4.529 7.81205 22.9171 4.82038 27.5192 0" sodipodi:nodetypes="cc"/><path id="shape12" transform="translate(558.339398726228, 850.94247468062)" fill="none" stroke="#e5ab78" stroke-width="19.9999999999984" stroke-linecap="round" stroke-linejoin="bevel" d="M0 0C2.64286 0.66199 19.6756 2.39766 22.6368 1.3316" sodipodi:nodetypes="cc"/>
</svg>
